G75*
G70*
%OFA0B0*%
%FSLAX24Y24*%
%IPPOS*%
%LPD*%
%AMOC8*
5,1,8,0,0,1.08239X$1,22.5*
%
%ADD10C,0.0000*%
%ADD11R,0.0787X0.4921*%
%ADD12R,0.0591X0.4921*%
%ADD13R,0.4921X0.0344*%
%ADD14R,0.0591X0.0394*%
%ADD15R,0.1280X0.0295*%
%ADD16R,0.2067X0.0591*%
%ADD17R,0.0640X0.0394*%
%ADD18R,0.0394X0.0394*%
%ADD19R,0.0591X0.0158*%
%ADD20R,0.0158X0.0591*%
%ADD21R,0.0827X0.0670*%
%ADD22C,0.0780*%
%ADD23R,0.0552X0.0670*%
%ADD24R,0.0512X0.0355*%
%ADD25C,0.0560*%
%ADD26R,0.0355X0.0512*%
%ADD27R,0.0237X0.1024*%
%ADD28R,0.0827X0.1024*%
%ADD29C,0.0394*%
%ADD30R,0.0434X0.0473*%
%ADD31C,0.0600*%
%ADD32R,0.0590X0.0710*%
%ADD33R,0.0512X0.0512*%
%ADD34R,0.0473X0.0434*%
%ADD35R,0.0780X0.0780*%
%ADD36R,0.0590X0.1060*%
%ADD37C,0.0540*%
%ADD38C,0.1440*%
%ADD39R,0.0290X0.0540*%
D10*
X001774Y000741D02*
X001774Y020426D01*
X021459Y020426D01*
X021459Y000741D01*
X001774Y000741D01*
X010377Y018063D02*
X010379Y018089D01*
X010385Y018115D01*
X010395Y018140D01*
X010408Y018163D01*
X010424Y018183D01*
X010444Y018201D01*
X010466Y018216D01*
X010489Y018228D01*
X010515Y018236D01*
X010541Y018240D01*
X010567Y018240D01*
X010593Y018236D01*
X010619Y018228D01*
X010643Y018216D01*
X010664Y018201D01*
X010684Y018183D01*
X010700Y018163D01*
X010713Y018140D01*
X010723Y018115D01*
X010729Y018089D01*
X010731Y018063D01*
X010729Y018037D01*
X010723Y018011D01*
X010713Y017986D01*
X010700Y017963D01*
X010684Y017943D01*
X010664Y017925D01*
X010642Y017910D01*
X010619Y017898D01*
X010593Y017890D01*
X010567Y017886D01*
X010541Y017886D01*
X010515Y017890D01*
X010489Y017898D01*
X010465Y017910D01*
X010444Y017925D01*
X010424Y017943D01*
X010408Y017963D01*
X010395Y017986D01*
X010385Y018011D01*
X010379Y018037D01*
X010377Y018063D01*
X012109Y018063D02*
X012111Y018089D01*
X012117Y018115D01*
X012127Y018140D01*
X012140Y018163D01*
X012156Y018183D01*
X012176Y018201D01*
X012198Y018216D01*
X012221Y018228D01*
X012247Y018236D01*
X012273Y018240D01*
X012299Y018240D01*
X012325Y018236D01*
X012351Y018228D01*
X012375Y018216D01*
X012396Y018201D01*
X012416Y018183D01*
X012432Y018163D01*
X012445Y018140D01*
X012455Y018115D01*
X012461Y018089D01*
X012463Y018063D01*
X012461Y018037D01*
X012455Y018011D01*
X012445Y017986D01*
X012432Y017963D01*
X012416Y017943D01*
X012396Y017925D01*
X012374Y017910D01*
X012351Y017898D01*
X012325Y017890D01*
X012299Y017886D01*
X012273Y017886D01*
X012247Y017890D01*
X012221Y017898D01*
X012197Y017910D01*
X012176Y017925D01*
X012156Y017943D01*
X012140Y017963D01*
X012127Y017986D01*
X012117Y018011D01*
X012111Y018037D01*
X012109Y018063D01*
D11*
X007384Y009697D03*
D12*
X014766Y009697D03*
D13*
X011124Y013216D03*
D14*
X009304Y006154D03*
D15*
X010239Y006203D03*
D16*
X011912Y006056D03*
D17*
X013265Y006154D03*
D18*
X008861Y006154D03*
D19*
X008054Y007335D03*
X008054Y007532D03*
X008054Y007729D03*
X008054Y007926D03*
X008054Y008122D03*
X008054Y008319D03*
X008054Y008516D03*
X008054Y008713D03*
X008054Y008910D03*
X008054Y009107D03*
X008054Y009304D03*
X008054Y009500D03*
X008054Y009697D03*
X008054Y009894D03*
X008054Y010091D03*
X008054Y010288D03*
X008054Y010485D03*
X008054Y010681D03*
X008054Y010878D03*
X008054Y011075D03*
X008054Y011272D03*
X008054Y011469D03*
X008054Y011666D03*
X008054Y011863D03*
X008054Y012059D03*
X014195Y012059D03*
X014195Y011863D03*
X014195Y011666D03*
X014195Y011469D03*
X014195Y011272D03*
X014195Y011075D03*
X014195Y010878D03*
X014195Y010681D03*
X014195Y010485D03*
X014195Y010288D03*
X014195Y010091D03*
X014195Y009894D03*
X014195Y009697D03*
X014195Y009500D03*
X014195Y009304D03*
X014195Y009107D03*
X014195Y008910D03*
X014195Y008713D03*
X014195Y008516D03*
X014195Y008319D03*
X014195Y008122D03*
X014195Y007926D03*
X014195Y007729D03*
X014195Y007532D03*
X014195Y007335D03*
D20*
X013487Y006626D03*
X013290Y006626D03*
X013093Y006626D03*
X012896Y006626D03*
X012699Y006626D03*
X012502Y006626D03*
X012306Y006626D03*
X012109Y006626D03*
X011912Y006626D03*
X011715Y006626D03*
X011518Y006626D03*
X011321Y006626D03*
X011124Y006626D03*
X010928Y006626D03*
X010731Y006626D03*
X010534Y006626D03*
X010337Y006626D03*
X010140Y006626D03*
X009943Y006626D03*
X009746Y006626D03*
X009550Y006626D03*
X009353Y006626D03*
X009156Y006626D03*
X008959Y006626D03*
X008762Y006626D03*
X008762Y012768D03*
X008959Y012768D03*
X009156Y012768D03*
X009353Y012768D03*
X009550Y012768D03*
X009746Y012768D03*
X009943Y012768D03*
X010140Y012768D03*
X010337Y012768D03*
X010534Y012768D03*
X010731Y012768D03*
X010928Y012768D03*
X011124Y012768D03*
X011321Y012768D03*
X011518Y012768D03*
X011715Y012768D03*
X011912Y012768D03*
X012109Y012768D03*
X012306Y012768D03*
X012502Y012768D03*
X012699Y012768D03*
X012896Y012768D03*
X013093Y012768D03*
X013290Y012768D03*
X013487Y012768D03*
D21*
X015628Y017390D03*
X017754Y017390D03*
X007758Y006252D03*
X007758Y004776D03*
X005632Y004776D03*
X005632Y006252D03*
D22*
X002660Y006103D03*
X002660Y007103D03*
X002660Y008103D03*
X002660Y009103D03*
X002660Y010103D03*
X002660Y012075D03*
X002660Y013075D03*
X002660Y014075D03*
X002660Y015075D03*
X002660Y016075D03*
X002660Y017075D03*
X002660Y018075D03*
X005136Y019540D03*
X006136Y019540D03*
X007136Y019540D03*
X008319Y019571D03*
X008319Y018571D03*
X008319Y017571D03*
X014176Y019540D03*
X015176Y019540D03*
X016176Y019540D03*
X017176Y019540D03*
X018176Y019540D03*
X019176Y019540D03*
X020573Y017063D03*
X020573Y016063D03*
X020573Y015063D03*
X020573Y014063D03*
X020573Y013063D03*
X020573Y012063D03*
X020573Y011063D03*
X020573Y009091D03*
X020573Y008091D03*
X020573Y007091D03*
X020573Y006091D03*
X020573Y005091D03*
X020573Y004091D03*
X020573Y003091D03*
X018097Y001626D03*
X017097Y001626D03*
X016097Y001626D03*
X015097Y001626D03*
X014097Y001626D03*
X013097Y001626D03*
X012097Y001626D03*
X010124Y001626D03*
X009124Y001626D03*
X008124Y001626D03*
X007124Y001626D03*
X006124Y001626D03*
X005124Y001626D03*
X004124Y001626D03*
X002660Y004103D03*
X002660Y005103D03*
D23*
G36*
X014562Y014690D02*
X014953Y015081D01*
X015426Y014608D01*
X015035Y014217D01*
X014562Y014690D01*
G37*
G36*
X013971Y015281D02*
X014362Y015672D01*
X014835Y015199D01*
X014444Y014808D01*
X013971Y015281D01*
G37*
G36*
X014500Y015810D02*
X014891Y016201D01*
X015364Y015728D01*
X014973Y015337D01*
X014500Y015810D01*
G37*
G36*
X015091Y015219D02*
X015482Y015610D01*
X015955Y015137D01*
X015564Y014746D01*
X015091Y015219D01*
G37*
X016386Y018516D03*
X017134Y018516D03*
X018428Y008615D03*
X019176Y008615D03*
X019176Y007630D03*
X018428Y007630D03*
D24*
X005317Y011115D03*
X005317Y011823D03*
X004530Y011823D03*
X004530Y011115D03*
X018485Y017483D03*
X018485Y018191D03*
D25*
X012665Y014717D03*
X010765Y014717D03*
X005140Y010516D03*
X005140Y009516D03*
D26*
X004687Y009599D03*
X003979Y009599D03*
X003979Y010485D03*
X004687Y010485D03*
D27*
X010790Y017079D03*
X011105Y017079D03*
X011420Y017079D03*
X011735Y017079D03*
X012050Y017079D03*
D28*
X013191Y017079D03*
X013191Y019244D03*
X009648Y019244D03*
X009648Y017079D03*
D29*
X010554Y018063D03*
X012286Y018063D03*
D30*
G36*
X014673Y016183D02*
X014366Y015876D01*
X014033Y016209D01*
X014340Y016516D01*
X014673Y016183D01*
G37*
G36*
X014200Y015709D02*
X013893Y015402D01*
X013560Y015735D01*
X013867Y016042D01*
X014200Y015709D01*
G37*
G36*
X014287Y013400D02*
X014594Y013093D01*
X014261Y012760D01*
X013954Y013067D01*
X014287Y013400D01*
G37*
G36*
X014760Y012926D02*
X015067Y012619D01*
X014734Y012286D01*
X014427Y012593D01*
X014760Y012926D01*
G37*
X008557Y016162D03*
X007888Y016162D03*
D31*
X017532Y015557D02*
X017928Y015161D01*
X018635Y015869D02*
X018239Y016265D01*
D32*
G36*
X015618Y014593D02*
X016035Y015010D01*
X016536Y014509D01*
X016119Y014092D01*
X015618Y014593D01*
G37*
G36*
X014699Y013688D02*
X015116Y014105D01*
X015617Y013604D01*
X015200Y013187D01*
X014699Y013688D01*
G37*
D33*
X014884Y016825D03*
X014057Y016825D03*
X008597Y016764D03*
X007770Y016764D03*
X008861Y003319D03*
X009648Y003319D03*
X010435Y003319D03*
X011223Y003319D03*
X012010Y003319D03*
X012798Y003319D03*
X013585Y003319D03*
X014372Y003319D03*
X014372Y002493D03*
X013585Y002493D03*
X012798Y002493D03*
X012010Y002493D03*
X011223Y002493D03*
X010435Y002493D03*
X009648Y002493D03*
X008861Y002493D03*
D34*
X008861Y003851D03*
X009648Y003851D03*
X010435Y003851D03*
X011223Y003851D03*
X012010Y003851D03*
X012798Y003851D03*
X013585Y003851D03*
X014372Y003851D03*
X014372Y004520D03*
X013585Y004520D03*
X012798Y004520D03*
X012010Y004520D03*
X011223Y004520D03*
X010435Y004520D03*
X009648Y004520D03*
X008861Y004520D03*
D35*
X011124Y001626D03*
X019097Y001626D03*
X020573Y010091D03*
X020573Y018063D03*
X004136Y019540D03*
X002660Y011075D03*
X002660Y003103D03*
D36*
X007699Y015315D03*
X008959Y015315D03*
D37*
X006302Y010977D03*
X006302Y010189D03*
X008998Y005487D03*
X012699Y005711D03*
D38*
X020573Y001626D03*
X002660Y001626D03*
X002660Y019540D03*
X020573Y019540D03*
D39*
G36*
X015873Y012983D02*
X015668Y012778D01*
X015287Y013159D01*
X015492Y013364D01*
X015873Y012983D01*
G37*
G36*
X015623Y012732D02*
X015418Y012527D01*
X015037Y012908D01*
X015242Y013113D01*
X015623Y012732D01*
G37*
M02*
