G75*
G70*
%OFA0B0*%
%FSLAX24Y24*%
%IPPOS*%
%LPD*%
%AMOC8*
5,1,8,0,0,1.08239X$1,22.5*
%
%ADD10C,0.0000*%
%ADD11R,0.0551X0.0118*%
%ADD12R,0.0118X0.0551*%
%ADD13R,0.0787X0.0630*%
%ADD14C,0.0740*%
%ADD15R,0.0512X0.0630*%
%ADD16R,0.0472X0.0315*%
%ADD17C,0.0520*%
%ADD18R,0.0315X0.0472*%
%ADD19R,0.0197X0.0984*%
%ADD20R,0.0787X0.0984*%
%ADD21R,0.0394X0.0433*%
%ADD22C,0.0560*%
%ADD23R,0.0550X0.0670*%
%ADD24R,0.0472X0.0472*%
%ADD25R,0.0433X0.0394*%
%ADD26R,0.0740X0.0740*%
%ADD27R,0.0550X0.1020*%
%ADD28C,0.0500*%
%ADD29C,0.1400*%
%ADD30R,0.0250X0.0500*%
%ADD31C,0.0100*%
%ADD32C,0.0160*%
%ADD33C,0.0277*%
%ADD34C,0.0079*%
D10*
X001774Y000741D02*
X001774Y020426D01*
X021459Y020426D01*
X021459Y000741D01*
X001774Y000741D01*
X010377Y018063D02*
X010379Y018089D01*
X010385Y018115D01*
X010395Y018140D01*
X010408Y018163D01*
X010424Y018183D01*
X010444Y018201D01*
X010466Y018216D01*
X010489Y018228D01*
X010515Y018236D01*
X010541Y018240D01*
X010567Y018240D01*
X010593Y018236D01*
X010619Y018228D01*
X010643Y018216D01*
X010664Y018201D01*
X010684Y018183D01*
X010700Y018163D01*
X010713Y018140D01*
X010723Y018115D01*
X010729Y018089D01*
X010731Y018063D01*
X010729Y018037D01*
X010723Y018011D01*
X010713Y017986D01*
X010700Y017963D01*
X010684Y017943D01*
X010664Y017925D01*
X010642Y017910D01*
X010619Y017898D01*
X010593Y017890D01*
X010567Y017886D01*
X010541Y017886D01*
X010515Y017890D01*
X010489Y017898D01*
X010465Y017910D01*
X010444Y017925D01*
X010424Y017943D01*
X010408Y017963D01*
X010395Y017986D01*
X010385Y018011D01*
X010379Y018037D01*
X010377Y018063D01*
X012109Y018063D02*
X012111Y018089D01*
X012117Y018115D01*
X012127Y018140D01*
X012140Y018163D01*
X012156Y018183D01*
X012176Y018201D01*
X012198Y018216D01*
X012221Y018228D01*
X012247Y018236D01*
X012273Y018240D01*
X012299Y018240D01*
X012325Y018236D01*
X012351Y018228D01*
X012375Y018216D01*
X012396Y018201D01*
X012416Y018183D01*
X012432Y018163D01*
X012445Y018140D01*
X012455Y018115D01*
X012461Y018089D01*
X012463Y018063D01*
X012461Y018037D01*
X012455Y018011D01*
X012445Y017986D01*
X012432Y017963D01*
X012416Y017943D01*
X012396Y017925D01*
X012374Y017910D01*
X012351Y017898D01*
X012325Y017890D01*
X012299Y017886D01*
X012273Y017886D01*
X012247Y017890D01*
X012221Y017898D01*
X012197Y017910D01*
X012176Y017925D01*
X012156Y017943D01*
X012140Y017963D01*
X012127Y017986D01*
X012117Y018011D01*
X012111Y018037D01*
X012109Y018063D01*
D11*
X014195Y012059D03*
X014195Y011863D03*
X014195Y011666D03*
X014195Y011469D03*
X014195Y011272D03*
X014195Y011075D03*
X014195Y010878D03*
X014195Y010681D03*
X014195Y010485D03*
X014195Y010288D03*
X014195Y010091D03*
X014195Y009894D03*
X014195Y009697D03*
X014195Y009500D03*
X014195Y009304D03*
X014195Y009107D03*
X014195Y008910D03*
X014195Y008713D03*
X014195Y008516D03*
X014195Y008319D03*
X014195Y008122D03*
X014195Y007926D03*
X014195Y007729D03*
X014195Y007532D03*
X014195Y007335D03*
X008054Y007335D03*
X008054Y007532D03*
X008054Y007729D03*
X008054Y007926D03*
X008054Y008122D03*
X008054Y008319D03*
X008054Y008516D03*
X008054Y008713D03*
X008054Y008910D03*
X008054Y009107D03*
X008054Y009304D03*
X008054Y009500D03*
X008054Y009697D03*
X008054Y009894D03*
X008054Y010091D03*
X008054Y010288D03*
X008054Y010485D03*
X008054Y010681D03*
X008054Y010878D03*
X008054Y011075D03*
X008054Y011272D03*
X008054Y011469D03*
X008054Y011666D03*
X008054Y011863D03*
X008054Y012059D03*
D12*
X008762Y012768D03*
X008959Y012768D03*
X009156Y012768D03*
X009353Y012768D03*
X009550Y012768D03*
X009746Y012768D03*
X009943Y012768D03*
X010140Y012768D03*
X010337Y012768D03*
X010534Y012768D03*
X010731Y012768D03*
X010928Y012768D03*
X011124Y012768D03*
X011321Y012768D03*
X011518Y012768D03*
X011715Y012768D03*
X011912Y012768D03*
X012109Y012768D03*
X012306Y012768D03*
X012502Y012768D03*
X012699Y012768D03*
X012896Y012768D03*
X013093Y012768D03*
X013290Y012768D03*
X013487Y012768D03*
X013487Y006626D03*
X013290Y006626D03*
X013093Y006626D03*
X012896Y006626D03*
X012699Y006626D03*
X012502Y006626D03*
X012306Y006626D03*
X012109Y006626D03*
X011912Y006626D03*
X011715Y006626D03*
X011518Y006626D03*
X011321Y006626D03*
X011124Y006626D03*
X010928Y006626D03*
X010731Y006626D03*
X010534Y006626D03*
X010337Y006626D03*
X010140Y006626D03*
X009943Y006626D03*
X009746Y006626D03*
X009550Y006626D03*
X009353Y006626D03*
X009156Y006626D03*
X008959Y006626D03*
X008762Y006626D03*
D13*
X007758Y006252D03*
X007758Y004776D03*
X005632Y004776D03*
X005632Y006252D03*
X015628Y017390D03*
X017754Y017390D03*
D14*
X018176Y019540D03*
X017176Y019540D03*
X016176Y019540D03*
X015176Y019540D03*
X014176Y019540D03*
X019176Y019540D03*
X020573Y017063D03*
X020573Y016063D03*
X020573Y015063D03*
X020573Y014063D03*
X020573Y013063D03*
X020573Y012063D03*
X020573Y011063D03*
X020573Y009091D03*
X020573Y008091D03*
X020573Y007091D03*
X020573Y006091D03*
X020573Y005091D03*
X020573Y004091D03*
X020573Y003091D03*
X018097Y001626D03*
X017097Y001626D03*
X016097Y001626D03*
X015097Y001626D03*
X014097Y001626D03*
X013097Y001626D03*
X012097Y001626D03*
X010124Y001626D03*
X009124Y001626D03*
X008124Y001626D03*
X007124Y001626D03*
X006124Y001626D03*
X005124Y001626D03*
X004124Y001626D03*
X002660Y004103D03*
X002660Y005103D03*
X002660Y006103D03*
X002660Y007103D03*
X002660Y008103D03*
X002660Y009103D03*
X002660Y010103D03*
X002660Y012075D03*
X002660Y013075D03*
X002660Y014075D03*
X002660Y015075D03*
X002660Y016075D03*
X002660Y017075D03*
X002660Y018075D03*
X005136Y019540D03*
X006136Y019540D03*
X007136Y019540D03*
X008319Y019571D03*
X008319Y018571D03*
X008319Y017571D03*
D15*
G36*
X014000Y015281D02*
X014362Y015643D01*
X014806Y015199D01*
X014444Y014837D01*
X014000Y015281D01*
G37*
G36*
X014529Y015810D02*
X014891Y016172D01*
X015335Y015728D01*
X014973Y015366D01*
X014529Y015810D01*
G37*
G36*
X015120Y015219D02*
X015482Y015581D01*
X015926Y015137D01*
X015564Y014775D01*
X015120Y015219D01*
G37*
G36*
X014591Y014690D02*
X014953Y015052D01*
X015397Y014608D01*
X015035Y014246D01*
X014591Y014690D01*
G37*
X016386Y018516D03*
X017134Y018516D03*
X018428Y008615D03*
X019176Y008615D03*
X019176Y007630D03*
X018428Y007630D03*
D16*
X005317Y011115D03*
X005317Y011823D03*
X004530Y011823D03*
X004530Y011115D03*
X018485Y017483D03*
X018485Y018191D03*
D17*
X012665Y014717D03*
X010765Y014717D03*
X005140Y010516D03*
X005140Y009516D03*
D18*
X004687Y009599D03*
X003979Y009599D03*
X003979Y010485D03*
X004687Y010485D03*
D19*
X010790Y017079D03*
X011105Y017079D03*
X011420Y017079D03*
X011735Y017079D03*
X012050Y017079D03*
D20*
X013191Y017079D03*
X013191Y019244D03*
X009648Y019244D03*
X009648Y017079D03*
D21*
X008557Y016162D03*
X007888Y016162D03*
G36*
X014172Y015709D02*
X013893Y015430D01*
X013588Y015735D01*
X013867Y016014D01*
X014172Y015709D01*
G37*
G36*
X014645Y016183D02*
X014366Y015904D01*
X014061Y016209D01*
X014340Y016488D01*
X014645Y016183D01*
G37*
G36*
X014287Y013372D02*
X014566Y013093D01*
X014261Y012788D01*
X013982Y013067D01*
X014287Y013372D01*
G37*
G36*
X014760Y012898D02*
X015039Y012619D01*
X014734Y012314D01*
X014455Y012593D01*
X014760Y012898D01*
G37*
D22*
X017532Y015557D02*
X017928Y015161D01*
X018635Y015869D02*
X018239Y016265D01*
D23*
G36*
X015646Y014593D02*
X016035Y014982D01*
X016508Y014509D01*
X016119Y014120D01*
X015646Y014593D01*
G37*
G36*
X014727Y013688D02*
X015116Y014077D01*
X015589Y013604D01*
X015200Y013215D01*
X014727Y013688D01*
G37*
D24*
X014884Y016825D03*
X014057Y016825D03*
X008597Y016764D03*
X007770Y016764D03*
X008861Y003319D03*
X009648Y003319D03*
X010435Y003319D03*
X011223Y003319D03*
X012010Y003319D03*
X012798Y003319D03*
X013585Y003319D03*
X014372Y003319D03*
X014372Y002493D03*
X013585Y002493D03*
X012798Y002493D03*
X012010Y002493D03*
X011223Y002493D03*
X010435Y002493D03*
X009648Y002493D03*
X008861Y002493D03*
D25*
X008861Y003851D03*
X009648Y003851D03*
X010435Y003851D03*
X011223Y003851D03*
X012010Y003851D03*
X012798Y003851D03*
X013585Y003851D03*
X014372Y003851D03*
X014372Y004520D03*
X013585Y004520D03*
X012798Y004520D03*
X012010Y004520D03*
X011223Y004520D03*
X010435Y004520D03*
X009648Y004520D03*
X008861Y004520D03*
D26*
X011124Y001626D03*
X019097Y001626D03*
X020573Y010091D03*
X020573Y018063D03*
X004136Y019540D03*
X002660Y011075D03*
X002660Y003103D03*
D27*
X007699Y015315D03*
X008959Y015315D03*
D28*
X006302Y010977D03*
X006302Y010189D03*
X008998Y005487D03*
X012699Y005711D03*
D29*
X020573Y001626D03*
X002660Y001626D03*
X002660Y019540D03*
X020573Y019540D03*
D30*
G36*
X015845Y012983D02*
X015668Y012806D01*
X015315Y013159D01*
X015492Y013336D01*
X015845Y012983D01*
G37*
G36*
X015595Y012732D02*
X015418Y012555D01*
X015065Y012908D01*
X015242Y013085D01*
X015595Y012732D01*
G37*
D31*
X015330Y012820D02*
X014961Y012820D01*
X014747Y012606D01*
X014443Y012364D02*
X013622Y012364D01*
X013638Y012372D02*
X013666Y012400D01*
X013685Y012435D01*
X013696Y012473D01*
X013696Y012745D01*
X013707Y012756D01*
X013707Y013233D01*
X013650Y013290D01*
X013812Y013452D01*
X013857Y013470D01*
X013857Y013185D01*
X013859Y013183D01*
X013811Y013136D01*
X013811Y012995D01*
X014189Y012617D01*
X014285Y012617D01*
X014285Y012522D01*
X014518Y012289D01*
X013849Y012289D01*
X013750Y012189D01*
X013750Y010263D01*
X013748Y010266D01*
X013662Y010353D01*
X013548Y010400D01*
X013425Y010400D01*
X013312Y010353D01*
X013225Y010266D01*
X013178Y010152D01*
X013178Y010030D01*
X013225Y009916D01*
X013312Y009829D01*
X013425Y009782D01*
X013484Y009782D01*
X013592Y009674D01*
X013770Y009674D01*
X013770Y009650D01*
X013750Y009630D01*
X013750Y009524D01*
X013605Y009524D01*
X013563Y009565D01*
X013450Y009612D01*
X013327Y009612D01*
X013213Y009565D01*
X013126Y009478D01*
X013079Y009365D01*
X013079Y009242D01*
X013126Y009129D01*
X013213Y009042D01*
X013294Y009008D01*
X013213Y008975D01*
X013126Y008888D01*
X013106Y008839D01*
X013106Y008873D01*
X013059Y008986D01*
X013018Y009028D01*
X013018Y010182D01*
X012889Y010311D01*
X012325Y010875D01*
X012324Y010881D01*
X012261Y010939D01*
X012200Y011000D01*
X012194Y011000D01*
X011375Y011751D01*
X011481Y011751D01*
X011595Y011798D01*
X011681Y011885D01*
X011728Y011998D01*
X011728Y012057D01*
X011738Y012067D01*
X011738Y012323D01*
X012041Y012323D01*
X012061Y012343D01*
X012086Y012343D01*
X012086Y012276D01*
X012044Y012234D01*
X011997Y012121D01*
X011997Y011998D01*
X012044Y011885D01*
X012131Y011798D01*
X012244Y011751D01*
X012367Y011751D01*
X012480Y011798D01*
X012502Y011820D01*
X012524Y011798D01*
X012638Y011751D01*
X012761Y011751D01*
X012874Y011798D01*
X012961Y011885D01*
X012994Y011966D01*
X013028Y011885D01*
X013115Y011798D01*
X013228Y011751D01*
X013351Y011751D01*
X013465Y011798D01*
X013551Y011885D01*
X013599Y011998D01*
X013599Y012121D01*
X013551Y012234D01*
X013465Y012321D01*
X013432Y012335D01*
X013439Y012343D01*
X013487Y012343D01*
X013565Y012343D01*
X013604Y012353D01*
X013638Y012372D01*
X013693Y012462D02*
X014344Y012462D01*
X014285Y012561D02*
X013696Y012561D01*
X013696Y012659D02*
X014147Y012659D01*
X014049Y012758D02*
X013707Y012758D01*
X013762Y012768D02*
X013487Y012768D01*
X013487Y012355D01*
X013585Y012256D01*
X013585Y011075D01*
X012994Y010485D01*
X012994Y009894D01*
X013191Y009697D01*
X014195Y009697D01*
X015357Y009697D01*
X015455Y009894D02*
X017670Y007680D01*
X017916Y007680D01*
X017916Y007630D01*
X017916Y007680D02*
X018378Y007680D01*
X018428Y007630D01*
X017963Y007091D02*
X020573Y007091D01*
X021057Y006848D02*
X021289Y006848D01*
X021289Y006946D02*
X021098Y006946D01*
X021113Y006984D02*
X021113Y007198D01*
X021031Y007397D01*
X020879Y007549D01*
X020777Y007591D01*
X020879Y007633D01*
X021031Y007785D01*
X021113Y007984D01*
X021113Y008198D01*
X021031Y008397D01*
X020879Y008549D01*
X020777Y008591D01*
X020879Y008633D01*
X021031Y008785D01*
X021113Y008984D01*
X021113Y009198D01*
X021031Y009397D01*
X020879Y009549D01*
X020874Y009551D01*
X021014Y009551D01*
X021113Y009651D01*
X021113Y010531D01*
X021014Y010631D01*
X020904Y010631D01*
X021031Y010758D01*
X021113Y010956D01*
X021113Y011171D01*
X021031Y011369D01*
X020879Y011521D01*
X020777Y011563D01*
X020879Y011606D01*
X021031Y011758D01*
X021113Y011956D01*
X021113Y012171D01*
X021031Y012369D01*
X020879Y012521D01*
X020777Y012563D01*
X020879Y012606D01*
X021031Y012758D01*
X021289Y012758D01*
X021289Y012856D02*
X021072Y012856D01*
X021113Y012955D02*
X021289Y012955D01*
X021289Y013053D02*
X021113Y013053D01*
X021113Y012956D02*
X021113Y013171D01*
X021031Y013369D01*
X020879Y013521D01*
X020777Y013563D01*
X020879Y013606D01*
X021031Y013758D01*
X021113Y013956D01*
X021113Y014171D01*
X021031Y014369D01*
X020879Y014521D01*
X020777Y014563D01*
X020879Y014606D01*
X021031Y014758D01*
X021113Y014956D01*
X021113Y015171D01*
X021031Y015369D01*
X020879Y015521D01*
X020777Y015563D01*
X020879Y015606D01*
X021031Y015758D01*
X021113Y015956D01*
X021113Y016171D01*
X021031Y016369D01*
X020879Y016521D01*
X020777Y016563D01*
X020879Y016606D01*
X021031Y016758D01*
X021113Y016956D01*
X021113Y017171D01*
X021031Y017369D01*
X020879Y017521D01*
X020874Y017523D01*
X021014Y017523D01*
X021113Y017623D01*
X021113Y018504D01*
X021014Y018603D01*
X020133Y018603D01*
X020033Y018504D01*
X020033Y017835D01*
X019271Y017072D01*
X019271Y015891D01*
X019032Y015652D01*
X019085Y015779D01*
X019085Y015958D01*
X019016Y016123D01*
X018494Y016646D01*
X018328Y016715D01*
X018149Y016715D01*
X017984Y016646D01*
X017929Y016591D01*
X017478Y016591D01*
X016935Y017133D01*
X016935Y017916D01*
X016897Y018008D01*
X016874Y018031D01*
X017391Y018031D01*
X017451Y017971D01*
X017534Y017888D01*
X017534Y017875D01*
X017290Y017875D01*
X017191Y017776D01*
X017191Y017005D01*
X017290Y016905D01*
X018218Y016905D01*
X018318Y017005D01*
X018318Y017175D01*
X018456Y017175D01*
X018456Y017454D01*
X018513Y017454D01*
X018513Y017175D01*
X018741Y017175D01*
X018779Y017185D01*
X018813Y017205D01*
X018841Y017233D01*
X018861Y017267D01*
X018871Y017305D01*
X018871Y017454D01*
X018513Y017454D01*
X018513Y017511D01*
X018456Y017511D01*
X018456Y017790D01*
X018303Y017790D01*
X018230Y017864D01*
X018791Y017864D01*
X018891Y017963D01*
X018891Y018419D01*
X018791Y018519D01*
X018178Y018519D01*
X018078Y018419D01*
X018078Y018411D01*
X017633Y018411D01*
X017560Y018484D01*
X017560Y018613D01*
X017982Y019035D01*
X018068Y019000D01*
X018283Y019000D01*
X018481Y019082D01*
X018633Y019234D01*
X018676Y019336D01*
X018718Y019234D01*
X018870Y019082D01*
X019068Y019000D01*
X019283Y019000D01*
X019481Y019082D01*
X019633Y019234D01*
X019703Y019403D01*
X019703Y019367D01*
X019836Y019047D01*
X020080Y018802D01*
X020400Y018670D01*
X020746Y018670D01*
X021066Y018802D01*
X021289Y019025D01*
X021289Y002141D01*
X021066Y002364D01*
X020746Y002496D01*
X020400Y002496D01*
X020080Y002364D01*
X019836Y002119D01*
X019703Y001799D01*
X019703Y001453D01*
X019836Y001134D01*
X020059Y000911D01*
X003174Y000911D01*
X003397Y001134D01*
X003530Y001453D01*
X003530Y001799D01*
X003397Y002119D01*
X003153Y002364D01*
X002833Y002496D01*
X002487Y002496D01*
X002167Y002364D01*
X001944Y002141D01*
X001944Y019025D01*
X002167Y018802D01*
X002487Y018670D01*
X002833Y018670D01*
X003153Y018802D01*
X003397Y019047D01*
X003530Y019367D01*
X003530Y019713D01*
X003397Y020033D01*
X003174Y020256D01*
X009026Y020256D01*
X008817Y020047D01*
X008532Y020047D01*
X008519Y020053D02*
X008441Y020078D01*
X008369Y020090D01*
X008369Y019621D01*
X008269Y019621D01*
X008269Y019521D01*
X007801Y019521D01*
X007812Y019449D01*
X007837Y019372D01*
X007875Y019299D01*
X007923Y019233D01*
X007981Y019175D01*
X008047Y019127D01*
X008120Y019089D01*
X008175Y019071D01*
X008120Y019053D01*
X008047Y019016D01*
X007981Y018968D01*
X007923Y018910D01*
X007875Y018844D01*
X007837Y018771D01*
X007812Y018693D01*
X007801Y018621D01*
X008269Y018621D01*
X008269Y018521D01*
X007801Y018521D01*
X007812Y018449D01*
X007837Y018372D01*
X003121Y018372D01*
X003118Y018381D02*
X002966Y018533D01*
X002767Y018615D01*
X002552Y018615D01*
X002354Y018533D01*
X002202Y018381D01*
X002120Y018183D01*
X002120Y017968D01*
X002202Y017769D01*
X002354Y017617D01*
X002456Y017575D01*
X002354Y017533D01*
X002202Y017381D01*
X002120Y017183D01*
X002120Y016968D01*
X002202Y016769D01*
X002354Y016617D01*
X002456Y016575D01*
X002354Y016533D01*
X002202Y016381D01*
X002120Y016183D01*
X002120Y015968D01*
X002202Y015769D01*
X002354Y015617D01*
X002456Y015575D01*
X002354Y015533D01*
X002202Y015381D01*
X002120Y015183D01*
X002120Y014968D01*
X002202Y014769D01*
X002354Y014617D01*
X002456Y014575D01*
X002354Y014533D01*
X002202Y014381D01*
X002120Y014183D01*
X002120Y013968D01*
X002202Y013769D01*
X002354Y013617D01*
X002456Y013575D01*
X002354Y013533D01*
X002202Y013381D01*
X002120Y013183D01*
X002120Y012968D01*
X002202Y012769D01*
X002354Y012617D01*
X002456Y012575D01*
X002354Y012533D01*
X002202Y012381D01*
X002120Y012183D01*
X002120Y011968D01*
X002202Y011769D01*
X002354Y011617D01*
X002359Y011615D01*
X002219Y011615D01*
X002120Y011516D01*
X002120Y010635D01*
X002219Y010535D01*
X002329Y010535D01*
X002202Y010409D01*
X002120Y010210D01*
X002120Y009995D01*
X002202Y009797D01*
X002354Y009645D01*
X002456Y009603D01*
X002354Y009561D01*
X002202Y009409D01*
X002120Y009210D01*
X002120Y008995D01*
X002202Y008797D01*
X002354Y008645D01*
X002456Y008603D01*
X002354Y008561D01*
X002202Y008409D01*
X002120Y008210D01*
X002120Y007995D01*
X002202Y007797D01*
X002354Y007645D01*
X002456Y007603D01*
X002354Y007561D01*
X002202Y007409D01*
X002120Y007210D01*
X002120Y006995D01*
X002202Y006797D01*
X002354Y006645D01*
X002456Y006603D01*
X002354Y006561D01*
X002202Y006409D01*
X002120Y006210D01*
X002120Y005995D01*
X002202Y005797D01*
X002354Y005645D01*
X002456Y005603D01*
X002354Y005561D01*
X002202Y005409D01*
X002120Y005210D01*
X002120Y004995D01*
X002202Y004797D01*
X002354Y004645D01*
X002456Y004603D01*
X002354Y004561D01*
X002202Y004409D01*
X002120Y004210D01*
X002120Y003995D01*
X002202Y003797D01*
X002354Y003645D01*
X002359Y003643D01*
X002219Y003643D01*
X002120Y003543D01*
X002120Y002662D01*
X002219Y002563D01*
X003100Y002563D01*
X003200Y002662D01*
X003200Y003332D01*
X004455Y004586D01*
X004455Y005866D01*
X004621Y006032D01*
X004707Y006032D01*
X004749Y005991D01*
X004862Y005944D01*
X004985Y005944D01*
X005069Y005978D01*
X005069Y005867D01*
X005168Y005767D01*
X006096Y005767D01*
X006196Y005867D01*
X006196Y006638D01*
X006096Y006737D01*
X005326Y006737D01*
X005901Y007312D01*
X006869Y007312D01*
X006869Y007244D01*
X006998Y007115D01*
X007460Y007115D01*
X007460Y006737D01*
X007294Y006737D01*
X007195Y006638D01*
X007195Y005867D01*
X007294Y005767D01*
X007538Y005767D01*
X007538Y005261D01*
X007294Y005261D01*
X007195Y005161D01*
X007195Y004391D01*
X007294Y004291D01*
X008222Y004291D01*
X008322Y004391D01*
X008322Y005161D01*
X008222Y005261D01*
X007978Y005261D01*
X007978Y005767D01*
X008222Y005767D01*
X008322Y005867D01*
X008322Y006638D01*
X008222Y006737D01*
X007900Y006737D01*
X007900Y007106D01*
X008400Y007106D01*
X008409Y007115D01*
X008558Y007115D01*
X008687Y007244D01*
X008961Y007518D01*
X009020Y007518D01*
X009134Y007565D01*
X009221Y007652D01*
X009268Y007766D01*
X009268Y007889D01*
X009221Y008002D01*
X009134Y008089D01*
X009020Y008136D01*
X008898Y008136D01*
X008784Y008089D01*
X008697Y008002D01*
X008650Y007889D01*
X008650Y007830D01*
X008499Y007678D01*
X008499Y009236D01*
X008479Y009256D01*
X008479Y009304D01*
X008479Y009351D01*
X008499Y009371D01*
X008499Y009827D01*
X008479Y009847D01*
X008479Y009871D01*
X008644Y009871D01*
X008686Y009829D01*
X008799Y009782D01*
X008922Y009782D01*
X009036Y009829D01*
X009122Y009916D01*
X009169Y010030D01*
X009169Y010152D01*
X009122Y010266D01*
X009036Y010353D01*
X008988Y010372D01*
X009024Y010408D01*
X009071Y010522D01*
X009071Y010644D01*
X009040Y010719D01*
X009122Y010802D01*
X009169Y010915D01*
X009169Y011038D01*
X009122Y011152D01*
X009087Y011188D01*
X009134Y011207D01*
X009221Y011294D01*
X009268Y011407D01*
X009268Y011530D01*
X009221Y011644D01*
X009134Y011731D01*
X009020Y011778D01*
X008973Y011778D01*
X008973Y011826D01*
X008926Y011939D01*
X008839Y012026D01*
X008725Y012073D01*
X008602Y012073D01*
X008499Y012030D01*
X008499Y012189D01*
X008400Y012289D01*
X007708Y012289D01*
X007698Y012279D01*
X007082Y012279D01*
X006325Y013036D01*
X006196Y013165D01*
X003881Y013165D01*
X003164Y013882D01*
X003200Y013968D01*
X003200Y014183D01*
X003171Y014253D01*
X004207Y013217D01*
X008474Y013217D01*
X008542Y013149D01*
X008542Y013123D01*
X008533Y013114D01*
X008533Y012422D01*
X008633Y012323D01*
X010663Y012323D01*
X010683Y012343D01*
X010708Y012343D01*
X010708Y012276D01*
X010666Y012234D01*
X010619Y012121D01*
X010619Y011998D01*
X010666Y011885D01*
X010708Y011843D01*
X010708Y011771D01*
X010711Y011768D01*
X010712Y011762D01*
X010775Y011704D01*
X010836Y011643D01*
X010842Y011643D01*
X011956Y010621D01*
X012578Y010000D01*
X012578Y009028D01*
X012536Y008986D01*
X012489Y008873D01*
X012489Y008750D01*
X012536Y008637D01*
X012578Y008595D01*
X012578Y008509D01*
X012313Y008244D01*
X010147Y008244D01*
X010019Y008115D01*
X009744Y007841D01*
X009685Y007841D01*
X009572Y007794D01*
X009485Y007707D01*
X009438Y007593D01*
X009438Y007470D01*
X009443Y007457D01*
X009065Y007457D01*
X008868Y007260D01*
X008739Y007131D01*
X008739Y007052D01*
X008683Y007052D01*
X008645Y007042D01*
X008611Y007022D01*
X008583Y006994D01*
X008563Y006960D01*
X008553Y006922D01*
X008553Y006626D01*
X008553Y006331D01*
X008563Y006293D01*
X008583Y006259D01*
X008611Y006231D01*
X008645Y006211D01*
X008683Y006201D01*
X008739Y006201D01*
X008739Y005964D01*
X008831Y005872D01*
X008761Y005843D01*
X008642Y005725D01*
X008578Y005570D01*
X008578Y005403D01*
X008642Y005249D01*
X008761Y005131D01*
X008778Y005123D01*
X008778Y004887D01*
X008574Y004887D01*
X008474Y004787D01*
X008474Y004253D01*
X008541Y004185D01*
X008474Y004118D01*
X008474Y003646D01*
X008454Y003626D01*
X008454Y003013D01*
X008554Y002913D01*
X009167Y002913D01*
X009254Y003000D01*
X009341Y002913D01*
X009955Y002913D01*
X010042Y003000D01*
X010129Y002913D01*
X010742Y002913D01*
X010829Y003000D01*
X010916Y002913D01*
X011529Y002913D01*
X011617Y003000D01*
X011704Y002913D01*
X012317Y002913D01*
X012404Y003000D01*
X012491Y002913D01*
X013104Y002913D01*
X013191Y003000D01*
X013278Y002913D01*
X013892Y002913D01*
X013979Y003000D01*
X014066Y002913D01*
X014679Y002913D01*
X014779Y003013D01*
X014779Y003626D01*
X014759Y003646D01*
X014759Y004118D01*
X014692Y004185D01*
X014759Y004253D01*
X014759Y004787D01*
X014659Y004887D01*
X014317Y004887D01*
X014140Y005064D01*
X014011Y005193D01*
X013946Y005193D01*
X013992Y005305D01*
X013992Y005428D01*
X013945Y005541D01*
X013903Y005583D01*
X013903Y005950D01*
X013775Y006079D01*
X013707Y006147D01*
X013707Y006271D01*
X013716Y006280D01*
X013716Y006957D01*
X013760Y006975D01*
X013847Y007062D01*
X013865Y007106D01*
X014541Y007106D01*
X014550Y007115D01*
X015153Y007115D01*
X015209Y007172D01*
X015877Y006504D01*
X015877Y002120D01*
X015791Y002084D01*
X015639Y001932D01*
X015597Y001830D01*
X015555Y001932D01*
X015403Y002084D01*
X015204Y002166D01*
X014989Y002166D01*
X014791Y002084D01*
X014639Y001932D01*
X014597Y001830D01*
X014555Y001932D01*
X014403Y002084D01*
X014322Y002117D01*
X014322Y002443D01*
X013986Y002443D01*
X013986Y002237D01*
X013996Y002198D01*
X014015Y002166D01*
X013989Y002166D01*
X013905Y002131D01*
X013913Y002136D01*
X013941Y002164D01*
X013961Y002198D01*
X013971Y002237D01*
X013971Y002443D01*
X013635Y002443D01*
X013635Y002543D01*
X013535Y002543D01*
X013535Y002879D01*
X013329Y002879D01*
X013291Y002869D01*
X013257Y002849D01*
X013229Y002821D01*
X013209Y002787D01*
X013199Y002748D01*
X013199Y002543D01*
X013535Y002543D01*
X013535Y002443D01*
X013199Y002443D01*
X013199Y002237D01*
X013209Y002198D01*
X013229Y002164D01*
X013242Y002151D01*
X013204Y002166D01*
X013155Y002166D01*
X013174Y002198D01*
X013184Y002237D01*
X013184Y002443D01*
X012848Y002443D01*
X012848Y002543D01*
X012748Y002543D01*
X012748Y002879D01*
X012542Y002879D01*
X012504Y002869D01*
X012469Y002849D01*
X012441Y002821D01*
X012422Y002787D01*
X012411Y002748D01*
X012411Y002543D01*
X012748Y002543D01*
X012748Y002443D01*
X012411Y002443D01*
X012411Y002237D01*
X012422Y002198D01*
X012441Y002164D01*
X012469Y002136D01*
X012504Y002117D01*
X012542Y002106D01*
X012748Y002106D01*
X012748Y002443D01*
X012848Y002443D01*
X012848Y002108D01*
X012791Y002084D01*
X012639Y001932D01*
X012597Y001830D01*
X012555Y001932D01*
X012403Y002084D01*
X012313Y002121D01*
X012339Y002136D01*
X012366Y002164D01*
X012386Y002198D01*
X012396Y002237D01*
X012396Y002443D01*
X012060Y002443D01*
X012060Y002543D01*
X011960Y002543D01*
X011960Y002879D01*
X011754Y002879D01*
X011716Y002869D01*
X011682Y002849D01*
X011654Y002821D01*
X011634Y002787D01*
X011624Y002748D01*
X011624Y002543D01*
X011960Y002543D01*
X011960Y002443D01*
X011624Y002443D01*
X011624Y002237D01*
X011634Y002198D01*
X011654Y002164D01*
X011682Y002136D01*
X011716Y002117D01*
X011754Y002106D01*
X011844Y002106D01*
X011791Y002084D01*
X011664Y001958D01*
X011664Y002067D01*
X011573Y002158D01*
X011579Y002164D01*
X011599Y002198D01*
X011609Y002237D01*
X011609Y002443D01*
X011273Y002443D01*
X011273Y002543D01*
X011173Y002543D01*
X011173Y002879D01*
X010967Y002879D01*
X010929Y002869D01*
X010895Y002849D01*
X010867Y002821D01*
X010847Y002787D01*
X010837Y002748D01*
X010837Y002543D01*
X011173Y002543D01*
X011173Y002443D01*
X010837Y002443D01*
X010837Y002237D01*
X010847Y002198D01*
X010865Y002166D01*
X010793Y002166D01*
X010811Y002198D01*
X010822Y002237D01*
X010822Y002443D01*
X010485Y002443D01*
X010485Y002106D01*
X010624Y002106D01*
X010584Y002067D01*
X010584Y001927D01*
X010582Y001932D01*
X010430Y002084D01*
X010377Y002106D01*
X010385Y002106D01*
X010385Y002443D01*
X010049Y002443D01*
X010049Y002237D01*
X010059Y002198D01*
X010078Y002166D01*
X010017Y002166D01*
X009999Y002159D01*
X010004Y002164D01*
X010024Y002198D01*
X010034Y002237D01*
X010034Y002443D01*
X009698Y002443D01*
X009698Y002543D01*
X009598Y002543D01*
X009598Y002879D01*
X009392Y002879D01*
X009354Y002869D01*
X009320Y002849D01*
X009292Y002821D01*
X009272Y002787D01*
X009262Y002748D01*
X009262Y002543D01*
X009598Y002543D01*
X009598Y002443D01*
X009262Y002443D01*
X009262Y002237D01*
X009272Y002198D01*
X009292Y002164D01*
X009320Y002136D01*
X009354Y002117D01*
X009392Y002106D01*
X009598Y002106D01*
X009598Y002443D01*
X009698Y002443D01*
X009698Y002106D01*
X009872Y002106D01*
X009819Y002084D01*
X009667Y001932D01*
X009624Y001830D01*
X009582Y001932D01*
X009430Y002084D01*
X009232Y002166D01*
X009218Y002166D01*
X009237Y002198D01*
X009247Y002237D01*
X009247Y002443D01*
X008911Y002443D01*
X008911Y002543D01*
X008811Y002543D01*
X008811Y002879D01*
X008605Y002879D01*
X008567Y002869D01*
X008532Y002849D01*
X008504Y002821D01*
X008485Y002787D01*
X008474Y002748D01*
X008474Y002543D01*
X008811Y002543D01*
X008811Y002443D01*
X008474Y002443D01*
X008474Y002237D01*
X008485Y002198D01*
X008504Y002164D01*
X008532Y002136D01*
X008567Y002117D01*
X008605Y002106D01*
X008811Y002106D01*
X008811Y002443D01*
X008911Y002443D01*
X008911Y002122D01*
X008819Y002084D01*
X008667Y001932D01*
X008624Y001830D01*
X008582Y001932D01*
X008430Y002084D01*
X008232Y002166D01*
X008017Y002166D01*
X007819Y002084D01*
X007667Y001932D01*
X007624Y001830D01*
X007582Y001932D01*
X007430Y002084D01*
X007232Y002166D01*
X007017Y002166D01*
X006819Y002084D01*
X006667Y001932D01*
X006624Y001830D01*
X006582Y001932D01*
X006430Y002084D01*
X006232Y002166D01*
X006017Y002166D01*
X005819Y002084D01*
X005667Y001932D01*
X005624Y001830D01*
X005582Y001932D01*
X005430Y002084D01*
X005232Y002166D01*
X005017Y002166D01*
X004819Y002084D01*
X004667Y001932D01*
X004624Y001830D01*
X004582Y001932D01*
X004430Y002084D01*
X004232Y002166D01*
X004017Y002166D01*
X003819Y002084D01*
X003667Y001932D01*
X003584Y001734D01*
X003584Y001519D01*
X003667Y001320D01*
X003819Y001169D01*
X004017Y001086D01*
X004232Y001086D01*
X004430Y001169D01*
X004582Y001320D01*
X004624Y001422D01*
X004667Y001320D01*
X004819Y001169D01*
X005017Y001086D01*
X005232Y001086D01*
X005430Y001169D01*
X005582Y001320D01*
X005624Y001422D01*
X005667Y001320D01*
X005819Y001169D01*
X006017Y001086D01*
X006232Y001086D01*
X006430Y001169D01*
X006582Y001320D01*
X006624Y001422D01*
X006667Y001320D01*
X006819Y001169D01*
X007017Y001086D01*
X007232Y001086D01*
X007430Y001169D01*
X007582Y001320D01*
X007624Y001422D01*
X007667Y001320D01*
X007819Y001169D01*
X008017Y001086D01*
X008232Y001086D01*
X008430Y001169D01*
X008582Y001320D01*
X008624Y001422D01*
X008667Y001320D01*
X008819Y001169D01*
X009017Y001086D01*
X009232Y001086D01*
X009430Y001169D01*
X009582Y001320D01*
X009624Y001422D01*
X009667Y001320D01*
X009819Y001169D01*
X010017Y001086D01*
X010232Y001086D01*
X010430Y001169D01*
X010582Y001320D01*
X010584Y001326D01*
X010584Y001186D01*
X010684Y001086D01*
X011565Y001086D01*
X011664Y001186D01*
X011664Y001295D01*
X011791Y001169D01*
X011989Y001086D01*
X012204Y001086D01*
X012403Y001169D01*
X012555Y001320D01*
X012597Y001422D01*
X012639Y001320D01*
X012791Y001169D01*
X012989Y001086D01*
X013204Y001086D01*
X013403Y001169D01*
X013555Y001320D01*
X013597Y001422D01*
X013639Y001320D01*
X013791Y001169D01*
X013989Y001086D01*
X014204Y001086D01*
X014403Y001169D01*
X014555Y001320D01*
X014597Y001422D01*
X014639Y001320D01*
X014791Y001169D01*
X014989Y001086D01*
X015204Y001086D01*
X015403Y001169D01*
X015555Y001320D01*
X015597Y001422D01*
X015639Y001320D01*
X015791Y001169D01*
X015989Y001086D01*
X016204Y001086D01*
X016403Y001169D01*
X016555Y001320D01*
X016597Y001422D01*
X016639Y001320D01*
X016791Y001169D01*
X016989Y001086D01*
X017204Y001086D01*
X017403Y001169D01*
X017555Y001320D01*
X017597Y001422D01*
X017639Y001320D01*
X017791Y001169D01*
X017989Y001086D01*
X018204Y001086D01*
X018403Y001169D01*
X018555Y001320D01*
X018557Y001326D01*
X018557Y001186D01*
X018656Y001086D01*
X019537Y001086D01*
X019637Y001186D01*
X019637Y002067D01*
X019537Y002166D01*
X019317Y002166D01*
X019317Y003839D01*
X020033Y003123D01*
X020033Y002984D01*
X020115Y002785D01*
X020267Y002633D01*
X020466Y002551D01*
X020681Y002551D01*
X020879Y002633D01*
X021031Y002785D01*
X021113Y002984D01*
X021113Y003198D01*
X021031Y003397D01*
X020879Y003549D01*
X020777Y003591D01*
X020879Y003633D01*
X021031Y003785D01*
X021113Y003984D01*
X021113Y004198D01*
X021031Y004397D01*
X020879Y004549D01*
X020777Y004591D01*
X020879Y004633D01*
X021031Y004785D01*
X021113Y004984D01*
X021113Y005198D01*
X021031Y005397D01*
X020879Y005549D01*
X020777Y005591D01*
X020879Y005633D01*
X021031Y005785D01*
X021113Y005984D01*
X021113Y006198D01*
X021031Y006397D01*
X020879Y006549D01*
X020777Y006591D01*
X020879Y006633D01*
X021031Y006785D01*
X021113Y006984D01*
X021113Y007045D02*
X021289Y007045D01*
X021289Y007143D02*
X021113Y007143D01*
X021095Y007242D02*
X021289Y007242D01*
X021289Y007340D02*
X021055Y007340D01*
X020989Y007439D02*
X021289Y007439D01*
X021289Y007537D02*
X020891Y007537D01*
X020882Y007636D02*
X021289Y007636D01*
X021289Y007734D02*
X020980Y007734D01*
X021051Y007833D02*
X021289Y007833D01*
X021289Y007931D02*
X021091Y007931D01*
X021113Y008030D02*
X021289Y008030D01*
X021289Y008128D02*
X021113Y008128D01*
X021102Y008227D02*
X021289Y008227D01*
X021289Y008325D02*
X021061Y008325D01*
X021004Y008424D02*
X021289Y008424D01*
X021289Y008522D02*
X020906Y008522D01*
X020849Y008621D02*
X021289Y008621D01*
X021289Y008719D02*
X020965Y008719D01*
X021044Y008818D02*
X021289Y008818D01*
X021289Y008916D02*
X021085Y008916D01*
X021113Y009015D02*
X021289Y009015D01*
X021289Y009113D02*
X021113Y009113D01*
X021108Y009212D02*
X021289Y009212D01*
X021289Y009310D02*
X021067Y009310D01*
X021019Y009409D02*
X021289Y009409D01*
X021289Y009507D02*
X020921Y009507D01*
X021068Y009606D02*
X021289Y009606D01*
X021289Y009704D02*
X021113Y009704D01*
X021113Y009803D02*
X021289Y009803D01*
X021289Y009901D02*
X021113Y009901D01*
X021113Y010000D02*
X021289Y010000D01*
X021289Y010098D02*
X021113Y010098D01*
X021113Y010197D02*
X021289Y010197D01*
X021289Y010295D02*
X021113Y010295D01*
X021113Y010394D02*
X021289Y010394D01*
X021289Y010492D02*
X021113Y010492D01*
X021054Y010591D02*
X021289Y010591D01*
X021289Y010689D02*
X020963Y010689D01*
X021043Y010788D02*
X021289Y010788D01*
X021289Y010886D02*
X021084Y010886D01*
X021113Y010985D02*
X021289Y010985D01*
X021289Y011083D02*
X021113Y011083D01*
X021109Y011182D02*
X021289Y011182D01*
X021289Y011280D02*
X021068Y011280D01*
X021022Y011379D02*
X021289Y011379D01*
X021289Y011477D02*
X020923Y011477D01*
X020807Y011576D02*
X021289Y011576D01*
X021289Y011674D02*
X020948Y011674D01*
X021037Y011773D02*
X021289Y011773D01*
X021289Y011871D02*
X021078Y011871D01*
X021113Y011970D02*
X021289Y011970D01*
X021289Y012068D02*
X021113Y012068D01*
X021113Y012167D02*
X021289Y012167D01*
X021289Y012265D02*
X021074Y012265D01*
X021033Y012364D02*
X021289Y012364D01*
X021289Y012462D02*
X020938Y012462D01*
X020784Y012561D02*
X021289Y012561D01*
X021289Y012659D02*
X020933Y012659D01*
X021031Y012758D02*
X021113Y012956D01*
X021113Y013152D02*
X021289Y013152D01*
X021289Y013250D02*
X021080Y013250D01*
X021040Y013349D02*
X021289Y013349D01*
X021289Y013447D02*
X020953Y013447D01*
X020820Y013546D02*
X021289Y013546D01*
X021289Y013644D02*
X020918Y013644D01*
X021016Y013743D02*
X021289Y013743D01*
X021289Y013841D02*
X021066Y013841D01*
X021106Y013940D02*
X021289Y013940D01*
X021289Y014038D02*
X021113Y014038D01*
X021113Y014137D02*
X021289Y014137D01*
X021289Y014235D02*
X021087Y014235D01*
X021046Y014334D02*
X021289Y014334D01*
X021289Y014432D02*
X020968Y014432D01*
X020856Y014531D02*
X021289Y014531D01*
X021289Y014629D02*
X020903Y014629D01*
X021001Y014728D02*
X021289Y014728D01*
X021289Y014826D02*
X021059Y014826D01*
X021100Y014925D02*
X021289Y014925D01*
X021289Y015023D02*
X021113Y015023D01*
X021113Y015122D02*
X021289Y015122D01*
X021289Y015220D02*
X021093Y015220D01*
X021052Y015319D02*
X021289Y015319D01*
X021289Y015417D02*
X020983Y015417D01*
X020885Y015516D02*
X021289Y015516D01*
X021289Y015614D02*
X020888Y015614D01*
X020986Y015713D02*
X021289Y015713D01*
X021289Y015811D02*
X021053Y015811D01*
X021094Y015910D02*
X021289Y015910D01*
X021289Y016008D02*
X021113Y016008D01*
X021113Y016107D02*
X021289Y016107D01*
X021289Y016205D02*
X021099Y016205D01*
X021058Y016304D02*
X021289Y016304D01*
X021289Y016402D02*
X020998Y016402D01*
X020900Y016501D02*
X021289Y016501D01*
X021289Y016599D02*
X020863Y016599D01*
X020971Y016698D02*
X021289Y016698D01*
X021289Y016796D02*
X021047Y016796D01*
X021088Y016895D02*
X021289Y016895D01*
X021289Y016993D02*
X021113Y016993D01*
X021113Y017092D02*
X021289Y017092D01*
X021289Y017190D02*
X021105Y017190D01*
X021064Y017289D02*
X021289Y017289D01*
X021289Y017387D02*
X021013Y017387D01*
X020915Y017486D02*
X021289Y017486D01*
X021289Y017584D02*
X021074Y017584D01*
X021113Y017683D02*
X021289Y017683D01*
X021289Y017781D02*
X021113Y017781D01*
X021113Y017880D02*
X021289Y017880D01*
X021289Y017978D02*
X021113Y017978D01*
X021113Y018077D02*
X021289Y018077D01*
X021289Y018175D02*
X021113Y018175D01*
X021113Y018274D02*
X021289Y018274D01*
X021289Y018372D02*
X021113Y018372D01*
X021113Y018471D02*
X021289Y018471D01*
X021289Y018569D02*
X021048Y018569D01*
X020979Y018766D02*
X021289Y018766D01*
X021289Y018668D02*
X017615Y018668D01*
X017560Y018569D02*
X020099Y018569D01*
X020033Y018471D02*
X018840Y018471D01*
X018891Y018372D02*
X020033Y018372D01*
X020033Y018274D02*
X018891Y018274D01*
X018891Y018175D02*
X020033Y018175D01*
X020033Y018077D02*
X018891Y018077D01*
X018891Y017978D02*
X020033Y017978D01*
X020033Y017880D02*
X018807Y017880D01*
X018779Y017780D02*
X018741Y017790D01*
X018513Y017790D01*
X018513Y017511D01*
X018871Y017511D01*
X018871Y017660D01*
X018861Y017698D01*
X018841Y017732D01*
X018813Y017760D01*
X018779Y017780D01*
X018774Y017781D02*
X019980Y017781D01*
X019881Y017683D02*
X018865Y017683D01*
X018871Y017584D02*
X019783Y017584D01*
X019684Y017486D02*
X018513Y017486D01*
X018513Y017584D02*
X018456Y017584D01*
X018456Y017683D02*
X018513Y017683D01*
X018513Y017781D02*
X018456Y017781D01*
X018456Y017387D02*
X018513Y017387D01*
X018513Y017289D02*
X018456Y017289D01*
X018456Y017190D02*
X018513Y017190D01*
X018318Y017092D02*
X019290Y017092D01*
X019271Y016993D02*
X018306Y016993D01*
X018369Y016698D02*
X019271Y016698D01*
X019271Y016796D02*
X017273Y016796D01*
X017371Y016698D02*
X018108Y016698D01*
X017937Y016599D02*
X017470Y016599D01*
X017174Y016895D02*
X019271Y016895D01*
X019491Y016981D02*
X020573Y018063D01*
X020168Y018766D02*
X017713Y018766D01*
X017812Y018865D02*
X020018Y018865D01*
X019920Y018963D02*
X017910Y018963D01*
X018432Y019062D02*
X018919Y019062D01*
X018792Y019160D02*
X018560Y019160D01*
X018644Y019259D02*
X018708Y019259D01*
X018181Y019534D02*
X018176Y019540D01*
X017152Y018516D01*
X017134Y018516D01*
X017144Y018506D01*
X017227Y018506D01*
X017542Y018191D01*
X018485Y018191D01*
X018130Y018471D02*
X017574Y018471D01*
X017542Y018191D02*
X017754Y017979D01*
X017754Y017390D01*
X017191Y017387D02*
X016935Y017387D01*
X016935Y017289D02*
X017191Y017289D01*
X017191Y017190D02*
X016935Y017190D01*
X016977Y017092D02*
X017191Y017092D01*
X017202Y016993D02*
X017076Y016993D01*
X016763Y016599D02*
X015290Y016599D01*
X015290Y016519D02*
X015290Y016925D01*
X015578Y016925D01*
X015578Y017340D01*
X015678Y017340D01*
X015678Y016925D01*
X016042Y016925D01*
X016080Y016935D01*
X016114Y016955D01*
X016142Y016983D01*
X016162Y017017D01*
X016172Y017055D01*
X016172Y017340D01*
X015678Y017340D01*
X015678Y017440D01*
X015578Y017440D01*
X015578Y017855D01*
X015215Y017855D01*
X015177Y017845D01*
X015143Y017825D01*
X015115Y017797D01*
X015095Y017763D01*
X015085Y017725D01*
X015085Y017658D01*
X015024Y017683D01*
X014965Y017683D01*
X014888Y017761D01*
X014888Y017945D01*
X014929Y017987D01*
X014976Y018100D01*
X014976Y018223D01*
X014929Y018337D01*
X014843Y018424D01*
X014729Y018471D01*
X014606Y018471D01*
X014493Y018424D01*
X014406Y018337D01*
X014393Y018305D01*
X014238Y018459D01*
X014238Y018518D01*
X014191Y018632D01*
X014104Y018719D01*
X013991Y018766D01*
X013868Y018766D01*
X013755Y018719D01*
X013755Y019234D01*
X013779Y019201D01*
X013837Y019143D01*
X013903Y019095D01*
X013976Y019058D01*
X014054Y019033D01*
X014126Y019021D01*
X014126Y019490D01*
X014226Y019490D01*
X014226Y019021D01*
X014297Y019033D01*
X014375Y019058D01*
X014448Y019095D01*
X014514Y019143D01*
X014572Y019201D01*
X014620Y019267D01*
X014657Y019340D01*
X014665Y019362D01*
X014718Y019234D01*
X014870Y019082D01*
X015068Y019000D01*
X015283Y019000D01*
X015339Y019023D01*
X015960Y018401D01*
X015960Y018131D01*
X016060Y018031D01*
X016174Y018031D01*
X016178Y018020D01*
X016249Y017950D01*
X016435Y017763D01*
X016435Y016980D01*
X016473Y016888D01*
X016544Y016818D01*
X017233Y016129D01*
X017325Y016091D01*
X017823Y016091D01*
X017857Y016010D01*
X018380Y015487D01*
X018545Y015419D01*
X018724Y015419D01*
X018851Y015471D01*
X018325Y014945D01*
X018378Y015072D01*
X018378Y015251D01*
X018309Y015416D01*
X017786Y015939D01*
X017621Y016007D01*
X017442Y016007D01*
X017277Y015939D01*
X017150Y015812D01*
X017082Y015647D01*
X017082Y015468D01*
X017150Y015303D01*
X017326Y015127D01*
X017269Y015070D01*
X017205Y015007D01*
X017205Y015006D01*
X016970Y014771D01*
X016486Y014771D01*
X016105Y015153D01*
X016096Y015153D01*
X016096Y015207D01*
X015572Y015731D01*
X015581Y015735D01*
X015668Y015822D01*
X015715Y015935D01*
X015715Y016058D01*
X015668Y016171D01*
X015581Y016258D01*
X015467Y016305D01*
X015408Y016305D01*
X015349Y016364D01*
X015167Y016364D01*
X015053Y016250D01*
X014961Y016342D01*
X014820Y016342D01*
X014773Y016295D01*
X014761Y016307D01*
X014873Y016419D01*
X015191Y016419D01*
X015290Y016519D01*
X015273Y016501D02*
X016861Y016501D01*
X016960Y016402D02*
X014856Y016402D01*
X014781Y016304D02*
X014764Y016304D01*
X015000Y016304D02*
X015107Y016304D01*
X015258Y016144D02*
X015406Y015996D01*
X015258Y016144D02*
X014932Y015818D01*
X014932Y015769D01*
X015523Y015178D01*
X015788Y015516D02*
X017082Y015516D01*
X017082Y015614D02*
X015689Y015614D01*
X015591Y015713D02*
X017109Y015713D01*
X017150Y015811D02*
X015657Y015811D01*
X015704Y015910D02*
X017247Y015910D01*
X017287Y016107D02*
X015694Y016107D01*
X015715Y016008D02*
X017859Y016008D01*
X017816Y015910D02*
X017957Y015910D01*
X017914Y015811D02*
X018056Y015811D01*
X018013Y015713D02*
X018154Y015713D01*
X018111Y015614D02*
X018253Y015614D01*
X018210Y015516D02*
X018351Y015516D01*
X018308Y015417D02*
X018797Y015417D01*
X018698Y015319D02*
X018349Y015319D01*
X018378Y015220D02*
X018600Y015220D01*
X018501Y015122D02*
X018378Y015122D01*
X018357Y015023D02*
X018403Y015023D01*
X018144Y014764D02*
X016532Y013152D01*
X016504Y013219D01*
X016417Y013305D01*
X016304Y013352D01*
X016181Y013352D01*
X016068Y013305D01*
X016053Y013291D01*
X015800Y013291D01*
X015800Y013314D01*
X015672Y013443D01*
X015670Y013445D01*
X015759Y013533D01*
X015759Y013674D01*
X015218Y014215D01*
X015287Y014285D01*
X014994Y014579D01*
X015065Y014649D01*
X015358Y014356D01*
X015500Y014498D01*
X016049Y013950D01*
X016190Y013950D01*
X016571Y014331D01*
X017152Y014331D01*
X017281Y014460D01*
X017578Y014757D01*
X017637Y014815D01*
X017673Y014780D01*
X017838Y014711D01*
X018017Y014711D01*
X018144Y014764D01*
X018107Y014728D02*
X018056Y014728D01*
X018009Y014629D02*
X017450Y014629D01*
X017352Y014531D02*
X017910Y014531D01*
X017812Y014432D02*
X017253Y014432D01*
X017155Y014334D02*
X017713Y014334D01*
X017615Y014235D02*
X016475Y014235D01*
X016376Y014137D02*
X017516Y014137D01*
X017418Y014038D02*
X016278Y014038D01*
X015961Y014038D02*
X015395Y014038D01*
X015493Y013940D02*
X017319Y013940D01*
X017221Y013841D02*
X015592Y013841D01*
X015690Y013743D02*
X017122Y013743D01*
X017024Y013644D02*
X015759Y013644D01*
X015759Y013546D02*
X016925Y013546D01*
X016827Y013447D02*
X015673Y013447D01*
X015766Y013349D02*
X016172Y013349D01*
X016313Y013349D02*
X016728Y013349D01*
X016630Y013250D02*
X016473Y013250D01*
X016243Y013044D02*
X016216Y013071D01*
X015580Y013071D01*
X015580Y013223D01*
X015158Y013646D01*
X014826Y013349D02*
X014551Y013349D01*
X014453Y013447D02*
X014727Y013447D01*
X014629Y013546D02*
X014297Y013546D01*
X014297Y013542D02*
X014297Y013922D01*
X013809Y014410D01*
X014242Y014799D01*
X014375Y014666D01*
X014442Y014666D01*
X014450Y014633D01*
X014470Y014599D01*
X014671Y014398D01*
X014923Y014649D01*
X014994Y014579D01*
X014742Y014327D01*
X014933Y014136D01*
X014556Y013759D01*
X014556Y013618D01*
X015045Y013129D01*
X014956Y013040D01*
X014869Y013040D01*
X014865Y013035D01*
X014831Y013069D01*
X014736Y013069D01*
X014736Y013164D01*
X014358Y013542D01*
X014297Y013542D01*
X014297Y013644D02*
X014556Y013644D01*
X014471Y013634D02*
X014471Y014126D01*
X014994Y014649D01*
X015044Y014629D02*
X015085Y014629D01*
X015042Y014531D02*
X015183Y014531D01*
X015140Y014432D02*
X015282Y014432D01*
X015239Y014334D02*
X015665Y014334D01*
X015567Y014432D02*
X015434Y014432D01*
X015237Y014235D02*
X015764Y014235D01*
X015862Y014137D02*
X015296Y014137D01*
X014932Y014137D02*
X014083Y014137D01*
X013984Y014235D02*
X014834Y014235D01*
X014749Y014334D02*
X013886Y014334D01*
X013833Y014432D02*
X014637Y014432D01*
X014706Y014432D02*
X014847Y014432D01*
X014804Y014531D02*
X014946Y014531D01*
X014943Y014629D02*
X014903Y014629D01*
X014538Y014531D02*
X013943Y014531D01*
X014052Y014629D02*
X014453Y014629D01*
X014313Y014728D02*
X014162Y014728D01*
X014403Y015240D02*
X013437Y014372D01*
X013536Y014372D01*
X014077Y013831D01*
X014077Y013276D01*
X014274Y013080D01*
X013950Y012856D02*
X013707Y012856D01*
X013707Y012955D02*
X013852Y012955D01*
X013811Y013053D02*
X013707Y013053D01*
X013707Y013152D02*
X013827Y013152D01*
X013857Y013250D02*
X013690Y013250D01*
X013709Y013349D02*
X013857Y013349D01*
X013857Y013447D02*
X013807Y013447D01*
X013683Y013634D02*
X013290Y013241D01*
X013290Y012768D01*
X013093Y012768D02*
X013093Y013437D01*
X013290Y013634D01*
X013290Y014225D01*
X013437Y014372D01*
X013093Y014520D02*
X013093Y014914D01*
X012945Y015061D01*
X013754Y015870D01*
X013880Y015722D01*
X013705Y016095D02*
X013680Y016097D01*
X013673Y016090D01*
X013663Y016090D01*
X013604Y016032D01*
X013542Y015978D01*
X013541Y015968D01*
X012945Y015373D01*
X012270Y016048D01*
X012270Y016468D01*
X012318Y016517D01*
X012318Y017642D01*
X012243Y017716D01*
X012355Y017716D01*
X012482Y017769D01*
X012580Y017867D01*
X012633Y017994D01*
X012633Y018132D01*
X012580Y018260D01*
X012482Y018358D01*
X012355Y018411D01*
X012217Y018411D01*
X012089Y018358D01*
X011992Y018260D01*
X011939Y018132D01*
X011939Y017994D01*
X011992Y017867D01*
X012089Y017769D01*
X012156Y017741D01*
X010936Y017741D01*
X010914Y017720D01*
X010908Y017721D01*
X010790Y017721D01*
X010790Y017079D01*
X010790Y016437D01*
X010850Y016437D01*
X010816Y016353D01*
X010816Y016230D01*
X010863Y016117D01*
X010950Y016030D01*
X011063Y015983D01*
X011186Y015983D01*
X011299Y016030D01*
X011370Y016101D01*
X011442Y016030D01*
X011555Y015983D01*
X011678Y015983D01*
X011791Y016030D01*
X011830Y016068D01*
X011830Y015866D01*
X011958Y015737D01*
X012558Y015138D01*
X012421Y015081D01*
X012300Y014961D01*
X012235Y014802D01*
X012235Y014631D01*
X012245Y014608D01*
X011715Y014078D01*
X011185Y014608D01*
X011195Y014631D01*
X011195Y014802D01*
X011129Y014961D01*
X011009Y015081D01*
X010850Y015147D01*
X010679Y015147D01*
X010521Y015081D01*
X010400Y014961D01*
X010335Y014802D01*
X010335Y014631D01*
X010400Y014473D01*
X010521Y014352D01*
X010679Y014287D01*
X010850Y014287D01*
X010874Y014297D01*
X011421Y013750D01*
X011420Y013749D01*
X011412Y013756D01*
X011230Y013756D01*
X011223Y013749D01*
X011216Y013756D01*
X011033Y013756D01*
X011026Y013749D01*
X011019Y013756D01*
X010836Y013756D01*
X010708Y013627D01*
X010708Y013476D01*
X010252Y013932D01*
X010252Y013991D01*
X010205Y014104D01*
X010118Y014191D01*
X010005Y014238D01*
X009882Y014238D01*
X009768Y014191D01*
X009746Y014169D01*
X009724Y014191D01*
X009611Y014238D01*
X009488Y014238D01*
X009375Y014191D01*
X009288Y014104D01*
X009241Y013991D01*
X009241Y013959D01*
X009081Y014119D01*
X008952Y014248D01*
X006798Y014248D01*
X003164Y017882D01*
X003200Y017968D01*
X003200Y018183D01*
X003118Y018381D01*
X003162Y018274D02*
X007893Y018274D01*
X007875Y018299D02*
X007923Y018233D01*
X007981Y018175D01*
X008047Y018127D01*
X008120Y018089D01*
X008142Y018082D01*
X008013Y018029D01*
X007862Y017877D01*
X007779Y017679D01*
X007779Y017464D01*
X007862Y017265D01*
X007911Y017216D01*
X007865Y017170D01*
X007463Y017170D01*
X007364Y017071D01*
X007364Y016458D01*
X007463Y016358D01*
X007541Y016358D01*
X007541Y016210D01*
X007840Y016210D01*
X007840Y016113D01*
X007541Y016113D01*
X007541Y015975D01*
X007404Y015975D01*
X007366Y015965D01*
X007332Y015945D01*
X007304Y015917D01*
X007284Y015883D01*
X007274Y015845D01*
X007274Y015365D01*
X007649Y015365D01*
X007649Y015265D01*
X007749Y015265D01*
X007749Y014655D01*
X007994Y014655D01*
X008032Y014666D01*
X008066Y014685D01*
X008094Y014713D01*
X008114Y014747D01*
X008124Y014786D01*
X008124Y015265D01*
X007749Y015265D01*
X007749Y015365D01*
X008124Y015365D01*
X008124Y015800D01*
X008143Y015805D01*
X008177Y015825D01*
X008205Y015853D01*
X008208Y015858D01*
X008290Y015775D01*
X008514Y015775D01*
X008514Y014735D01*
X008614Y014635D01*
X008847Y014635D01*
X008847Y014557D01*
X008894Y014444D01*
X008981Y014357D01*
X009094Y014310D01*
X009217Y014310D01*
X009331Y014357D01*
X009418Y014444D01*
X009465Y014557D01*
X009465Y014680D01*
X009418Y014793D01*
X009406Y014805D01*
X009406Y014964D01*
X009404Y014968D01*
X009404Y015896D01*
X009307Y015992D01*
X009307Y016417D01*
X010112Y016417D01*
X010212Y016517D01*
X010212Y017642D01*
X010112Y017741D01*
X009209Y017741D01*
X009209Y018582D01*
X010112Y018582D01*
X010212Y018682D01*
X010212Y019807D01*
X010138Y019880D01*
X012701Y019880D01*
X012628Y019807D01*
X012628Y018682D01*
X012727Y018582D01*
X013647Y018582D01*
X013621Y018518D01*
X013621Y018396D01*
X013668Y018282D01*
X013755Y018195D01*
X013868Y018148D01*
X013927Y018148D01*
X014005Y018071D01*
X014005Y017579D01*
X014134Y017450D01*
X014211Y017372D01*
X014211Y017313D01*
X014253Y017211D01*
X014107Y017211D01*
X014107Y016875D01*
X014007Y016875D01*
X014007Y017211D01*
X013802Y017211D01*
X013763Y017201D01*
X013755Y017196D01*
X013755Y017642D01*
X013655Y017741D01*
X012727Y017741D01*
X012628Y017642D01*
X012628Y016517D01*
X012727Y016417D01*
X013655Y016417D01*
X013718Y016480D01*
X013729Y016469D01*
X013763Y016449D01*
X013802Y016439D01*
X014007Y016439D01*
X014007Y016775D01*
X014107Y016775D01*
X014107Y016497D01*
X013891Y016280D01*
X013891Y016185D01*
X013796Y016185D01*
X013705Y016095D01*
X013717Y016107D02*
X012270Y016107D01*
X012270Y016205D02*
X013891Y016205D01*
X013914Y016304D02*
X012270Y016304D01*
X012270Y016402D02*
X014013Y016402D01*
X014007Y016501D02*
X014107Y016501D01*
X014107Y016599D02*
X014007Y016599D01*
X014007Y016698D02*
X014107Y016698D01*
X014107Y016775D02*
X014107Y016875D01*
X014444Y016875D01*
X014444Y017072D01*
X014459Y017066D01*
X014478Y017066D01*
X014478Y016617D01*
X014465Y016603D01*
X014444Y016624D01*
X014444Y016775D01*
X014107Y016775D01*
X014107Y016796D02*
X014478Y016796D01*
X014478Y016698D02*
X014444Y016698D01*
X014444Y016895D02*
X014478Y016895D01*
X014478Y016993D02*
X014444Y016993D01*
X014107Y016993D02*
X014007Y016993D01*
X014007Y016895D02*
X014107Y016895D01*
X014057Y016825D02*
X013880Y017276D01*
X013974Y017276D01*
X014007Y017190D02*
X014107Y017190D01*
X014107Y017092D02*
X014007Y017092D01*
X014221Y017289D02*
X013755Y017289D01*
X013755Y017387D02*
X014196Y017387D01*
X014098Y017486D02*
X013755Y017486D01*
X013755Y017584D02*
X014005Y017584D01*
X014005Y017683D02*
X013714Y017683D01*
X014005Y017781D02*
X012494Y017781D01*
X012585Y017880D02*
X014005Y017880D01*
X013974Y017871D02*
X013585Y018260D01*
X013585Y018556D01*
X014176Y019048D01*
X015628Y017693D01*
X015628Y017390D01*
X016973Y016046D01*
X016981Y016046D01*
X016193Y015258D01*
X016083Y015220D02*
X017232Y015220D01*
X017320Y015122D02*
X016136Y015122D01*
X016234Y015023D02*
X017221Y015023D01*
X017123Y014925D02*
X016333Y014925D01*
X016431Y014826D02*
X017025Y014826D01*
X017061Y014551D02*
X016077Y014551D01*
X015985Y015319D02*
X017143Y015319D01*
X017103Y015417D02*
X015886Y015417D01*
X015634Y016205D02*
X017157Y016205D01*
X017058Y016304D02*
X015471Y016304D01*
X015290Y016698D02*
X016664Y016698D01*
X016566Y016796D02*
X015290Y016796D01*
X015290Y016895D02*
X016471Y016895D01*
X016435Y016993D02*
X016148Y016993D01*
X016172Y017092D02*
X016435Y017092D01*
X016435Y017190D02*
X016172Y017190D01*
X016172Y017289D02*
X016435Y017289D01*
X016435Y017387D02*
X015678Y017387D01*
X015678Y017440D02*
X016172Y017440D01*
X016172Y017725D01*
X016162Y017763D01*
X016142Y017797D01*
X016114Y017825D01*
X016080Y017845D01*
X016042Y017855D01*
X015678Y017855D01*
X015678Y017440D01*
X015678Y017486D02*
X015578Y017486D01*
X015578Y017584D02*
X015678Y017584D01*
X015678Y017683D02*
X015578Y017683D01*
X015578Y017781D02*
X015678Y017781D01*
X016151Y017781D02*
X016417Y017781D01*
X016435Y017683D02*
X016172Y017683D01*
X016172Y017584D02*
X016435Y017584D01*
X016435Y017486D02*
X016172Y017486D01*
X016319Y017880D02*
X014888Y017880D01*
X014888Y017781D02*
X015105Y017781D01*
X015085Y017683D02*
X015026Y017683D01*
X014921Y017978D02*
X016220Y017978D01*
X016014Y018077D02*
X014967Y018077D01*
X014976Y018175D02*
X015960Y018175D01*
X015960Y018274D02*
X014956Y018274D01*
X014894Y018372D02*
X015960Y018372D01*
X015891Y018471D02*
X014238Y018471D01*
X014217Y018569D02*
X015793Y018569D01*
X015694Y018668D02*
X014156Y018668D01*
X013930Y018457D02*
X014225Y018162D01*
X014225Y017670D01*
X014520Y017374D01*
X014668Y017670D02*
X014963Y017374D01*
X014668Y017670D02*
X014668Y018162D01*
X014441Y018372D02*
X014326Y018372D01*
X013999Y018077D02*
X012633Y018077D01*
X012626Y017978D02*
X014005Y017978D01*
X013804Y018175D02*
X012615Y018175D01*
X012567Y018274D02*
X013676Y018274D01*
X013631Y018372D02*
X012448Y018372D01*
X012642Y018668D02*
X010197Y018668D01*
X010212Y018766D02*
X012628Y018766D01*
X012628Y018865D02*
X010212Y018865D01*
X010212Y018963D02*
X012628Y018963D01*
X012628Y019062D02*
X010212Y019062D01*
X010212Y019160D02*
X012628Y019160D01*
X012628Y019259D02*
X010212Y019259D01*
X010212Y019357D02*
X012628Y019357D01*
X012628Y019456D02*
X010212Y019456D01*
X010212Y019554D02*
X012628Y019554D01*
X012628Y019653D02*
X010212Y019653D01*
X010212Y019751D02*
X012628Y019751D01*
X012670Y019850D02*
X010169Y019850D01*
X009014Y020244D02*
X003186Y020244D01*
X003285Y020145D02*
X008916Y020145D01*
X008817Y020047D02*
X008747Y019977D01*
X008718Y019907D01*
X008716Y019910D01*
X008658Y019968D01*
X008592Y020016D01*
X008519Y020053D01*
X008369Y020047D02*
X008269Y020047D01*
X008269Y020090D02*
X008198Y020078D01*
X008120Y020053D01*
X008047Y020016D01*
X007981Y019968D01*
X007923Y019910D01*
X007875Y019844D01*
X007837Y019771D01*
X007812Y019693D01*
X007801Y019621D01*
X008269Y019621D01*
X008269Y020090D01*
X008269Y019948D02*
X008369Y019948D01*
X008369Y019850D02*
X008269Y019850D01*
X008269Y019751D02*
X008369Y019751D01*
X008369Y019653D02*
X008269Y019653D01*
X008269Y019554D02*
X007676Y019554D01*
X007676Y019647D02*
X007676Y019432D01*
X007594Y019234D01*
X007442Y019082D01*
X007244Y019000D01*
X007029Y019000D01*
X006830Y019082D01*
X006678Y019234D01*
X006636Y019336D01*
X006594Y019234D01*
X006442Y019082D01*
X006244Y019000D01*
X006029Y019000D01*
X005830Y019082D01*
X005678Y019234D01*
X005636Y019336D01*
X005594Y019234D01*
X005442Y019082D01*
X005244Y019000D01*
X005029Y019000D01*
X004830Y019082D01*
X004678Y019234D01*
X004676Y019239D01*
X004676Y019099D01*
X004577Y019000D01*
X003696Y019000D01*
X003596Y019099D01*
X003596Y019980D01*
X003696Y020080D01*
X004577Y020080D01*
X004676Y019980D01*
X004676Y019840D01*
X004678Y019846D01*
X004830Y019998D01*
X005029Y020080D01*
X005244Y020080D01*
X005442Y019998D01*
X005594Y019846D01*
X005636Y019744D01*
X005678Y019846D01*
X005830Y019998D01*
X006029Y020080D01*
X006244Y020080D01*
X006442Y019998D01*
X006594Y019846D01*
X006636Y019744D01*
X006678Y019846D01*
X006830Y019998D01*
X007029Y020080D01*
X007244Y020080D01*
X007442Y019998D01*
X007594Y019846D01*
X007676Y019647D01*
X007674Y019653D02*
X007806Y019653D01*
X007831Y019751D02*
X007633Y019751D01*
X007590Y019850D02*
X007879Y019850D01*
X007961Y019948D02*
X007492Y019948D01*
X007324Y020047D02*
X008107Y020047D01*
X008678Y019948D02*
X008735Y019948D01*
X008369Y019521D02*
X008369Y019053D01*
X008369Y018621D01*
X008269Y018621D01*
X008269Y019521D01*
X008369Y019521D01*
X008369Y019456D02*
X008269Y019456D01*
X008269Y019357D02*
X008369Y019357D01*
X008369Y019259D02*
X008269Y019259D01*
X008269Y019160D02*
X008369Y019160D01*
X008369Y019062D02*
X008269Y019062D01*
X008269Y018963D02*
X008369Y018963D01*
X008369Y018865D02*
X008269Y018865D01*
X008269Y018766D02*
X008369Y018766D01*
X008369Y018668D02*
X008269Y018668D01*
X008269Y018569D02*
X002879Y018569D01*
X003028Y018471D02*
X007809Y018471D01*
X007837Y018372D02*
X007875Y018299D01*
X007980Y018175D02*
X003200Y018175D01*
X003200Y018077D02*
X008128Y018077D01*
X008269Y018111D02*
X008269Y018521D01*
X008369Y018521D01*
X008369Y018111D01*
X008269Y018111D01*
X008269Y018175D02*
X008369Y018175D01*
X008369Y018274D02*
X008269Y018274D01*
X008269Y018372D02*
X008369Y018372D01*
X008333Y018422D02*
X007286Y017374D01*
X007286Y016390D01*
X007483Y016193D01*
X007857Y016193D01*
X007888Y016162D01*
X007699Y015973D01*
X007699Y015315D01*
X007680Y015307D01*
X007680Y015138D01*
X008593Y014225D01*
X010239Y014225D01*
X010239Y014028D01*
X010731Y013536D01*
X010731Y012768D01*
X010731Y012355D01*
X010435Y012059D01*
X010435Y010780D01*
X010632Y010583D01*
X011237Y011280D02*
X009207Y011280D01*
X009256Y011379D02*
X011130Y011379D01*
X011023Y011477D02*
X009268Y011477D01*
X009249Y011576D02*
X010915Y011576D01*
X010805Y011674D02*
X009190Y011674D01*
X009033Y011773D02*
X010708Y011773D01*
X010679Y011871D02*
X008954Y011871D01*
X008895Y011970D02*
X010631Y011970D01*
X010619Y012068D02*
X008737Y012068D01*
X008591Y012068D02*
X008499Y012068D01*
X008499Y012167D02*
X010638Y012167D01*
X010697Y012265D02*
X008423Y012265D01*
X008592Y012364D02*
X006998Y012364D01*
X006899Y012462D02*
X008533Y012462D01*
X008533Y012561D02*
X006801Y012561D01*
X006702Y012659D02*
X008533Y012659D01*
X008533Y012758D02*
X006604Y012758D01*
X006505Y012856D02*
X008533Y012856D01*
X008533Y012955D02*
X006407Y012955D01*
X006308Y013053D02*
X008533Y013053D01*
X008540Y013152D02*
X006210Y013152D01*
X006105Y012945D02*
X003790Y012945D01*
X002660Y014075D01*
X002172Y013841D02*
X001944Y013841D01*
X001944Y013743D02*
X002229Y013743D01*
X002327Y013644D02*
X001944Y013644D01*
X001944Y013546D02*
X002384Y013546D01*
X002268Y013447D02*
X001944Y013447D01*
X001944Y013349D02*
X002189Y013349D01*
X002148Y013250D02*
X001944Y013250D01*
X001944Y013152D02*
X002120Y013152D01*
X002120Y013053D02*
X001944Y013053D01*
X001944Y012955D02*
X002125Y012955D01*
X002166Y012856D02*
X001944Y012856D01*
X001944Y012758D02*
X002214Y012758D01*
X002312Y012659D02*
X001944Y012659D01*
X001944Y012561D02*
X002421Y012561D01*
X002283Y012462D02*
X001944Y012462D01*
X001944Y012364D02*
X002195Y012364D01*
X002154Y012265D02*
X001944Y012265D01*
X001944Y012167D02*
X002120Y012167D01*
X002120Y012068D02*
X001944Y012068D01*
X001944Y011970D02*
X002120Y011970D01*
X002160Y011871D02*
X001944Y011871D01*
X001944Y011773D02*
X002201Y011773D01*
X002297Y011674D02*
X001944Y011674D01*
X001944Y011576D02*
X002180Y011576D01*
X002120Y011477D02*
X001944Y011477D01*
X001944Y011379D02*
X002120Y011379D01*
X002120Y011280D02*
X001944Y011280D01*
X001944Y011182D02*
X002120Y011182D01*
X002120Y011083D02*
X001944Y011083D01*
X001944Y010985D02*
X002120Y010985D01*
X002120Y010886D02*
X001944Y010886D01*
X001944Y010788D02*
X002120Y010788D01*
X002120Y010689D02*
X001944Y010689D01*
X001944Y010591D02*
X002164Y010591D01*
X002285Y010492D02*
X001944Y010492D01*
X001944Y010394D02*
X002196Y010394D01*
X002155Y010295D02*
X001944Y010295D01*
X001944Y010197D02*
X002120Y010197D01*
X002120Y010098D02*
X001944Y010098D01*
X001944Y010000D02*
X002120Y010000D01*
X002159Y009901D02*
X001944Y009901D01*
X001944Y009803D02*
X002200Y009803D01*
X002295Y009704D02*
X001944Y009704D01*
X001944Y009606D02*
X002449Y009606D01*
X002300Y009507D02*
X001944Y009507D01*
X001944Y009409D02*
X002202Y009409D01*
X002161Y009310D02*
X001944Y009310D01*
X001944Y009212D02*
X002120Y009212D01*
X002120Y009113D02*
X001944Y009113D01*
X001944Y009015D02*
X002120Y009015D01*
X002153Y008916D02*
X001944Y008916D01*
X001944Y008818D02*
X002193Y008818D01*
X002280Y008719D02*
X001944Y008719D01*
X001944Y008621D02*
X002413Y008621D01*
X002315Y008522D02*
X001944Y008522D01*
X001944Y008424D02*
X002217Y008424D01*
X002167Y008325D02*
X001944Y008325D01*
X001944Y008227D02*
X002127Y008227D01*
X002120Y008128D02*
X001944Y008128D01*
X001944Y008030D02*
X002120Y008030D01*
X002146Y007931D02*
X001944Y007931D01*
X001944Y007833D02*
X002187Y007833D01*
X002265Y007734D02*
X001944Y007734D01*
X001944Y007636D02*
X002377Y007636D01*
X002330Y007537D02*
X001944Y007537D01*
X001944Y007439D02*
X002232Y007439D01*
X002174Y007340D02*
X001944Y007340D01*
X001944Y007242D02*
X002133Y007242D01*
X002120Y007143D02*
X001944Y007143D01*
X001944Y007045D02*
X002120Y007045D01*
X002140Y006946D02*
X001944Y006946D01*
X001944Y006848D02*
X002181Y006848D01*
X002250Y006749D02*
X001944Y006749D01*
X001944Y006651D02*
X002348Y006651D01*
X002345Y006552D02*
X001944Y006552D01*
X001944Y006454D02*
X002247Y006454D01*
X002180Y006355D02*
X001944Y006355D01*
X001944Y006257D02*
X002139Y006257D01*
X002120Y006158D02*
X001944Y006158D01*
X001944Y006060D02*
X002120Y006060D01*
X002134Y005961D02*
X001944Y005961D01*
X001944Y005863D02*
X002175Y005863D01*
X002235Y005764D02*
X001944Y005764D01*
X001944Y005666D02*
X002333Y005666D01*
X002370Y005567D02*
X001944Y005567D01*
X001944Y005469D02*
X002262Y005469D01*
X002186Y005370D02*
X001944Y005370D01*
X001944Y005272D02*
X002145Y005272D01*
X002120Y005173D02*
X001944Y005173D01*
X001944Y005075D02*
X002120Y005075D01*
X002128Y004976D02*
X001944Y004976D01*
X001944Y004878D02*
X002169Y004878D01*
X002220Y004779D02*
X001944Y004779D01*
X001944Y004681D02*
X002318Y004681D01*
X002406Y004582D02*
X001944Y004582D01*
X001944Y004484D02*
X002277Y004484D01*
X002192Y004385D02*
X001944Y004385D01*
X001944Y004287D02*
X002151Y004287D01*
X002120Y004188D02*
X001944Y004188D01*
X001944Y004090D02*
X002120Y004090D01*
X002122Y003991D02*
X001944Y003991D01*
X001944Y003893D02*
X002162Y003893D01*
X002205Y003794D02*
X001944Y003794D01*
X001944Y003696D02*
X002303Y003696D01*
X002174Y003597D02*
X001944Y003597D01*
X001944Y003499D02*
X002120Y003499D01*
X002120Y003400D02*
X001944Y003400D01*
X001944Y003302D02*
X002120Y003302D01*
X002120Y003203D02*
X001944Y003203D01*
X001944Y003105D02*
X002120Y003105D01*
X002120Y003006D02*
X001944Y003006D01*
X001944Y002908D02*
X002120Y002908D01*
X002120Y002809D02*
X001944Y002809D01*
X001944Y002711D02*
X002120Y002711D01*
X002170Y002612D02*
X001944Y002612D01*
X001944Y002514D02*
X008811Y002514D01*
X008861Y002493D02*
X008369Y003004D01*
X008369Y005465D01*
X008762Y005859D01*
X009353Y005859D01*
X009353Y006626D01*
X009353Y006548D02*
X009353Y005662D01*
X009550Y005662D02*
X009550Y006548D01*
X009746Y006548D02*
X009746Y005662D01*
X009943Y005662D02*
X009943Y006449D01*
X010140Y006449D02*
X010140Y005662D01*
X010337Y005170D02*
X010239Y005071D01*
X009943Y005071D01*
X009746Y004874D01*
X009215Y004874D01*
X008861Y004520D01*
X008998Y004658D01*
X008998Y005487D01*
X008682Y005764D02*
X007978Y005764D01*
X007978Y005666D02*
X008618Y005666D01*
X008578Y005567D02*
X007978Y005567D01*
X007978Y005469D02*
X008578Y005469D01*
X008592Y005370D02*
X007978Y005370D01*
X007978Y005272D02*
X008633Y005272D01*
X008718Y005173D02*
X008310Y005173D01*
X008322Y005075D02*
X008778Y005075D01*
X008778Y004976D02*
X008322Y004976D01*
X008322Y004878D02*
X008564Y004878D01*
X008474Y004779D02*
X008322Y004779D01*
X008322Y004681D02*
X008474Y004681D01*
X008474Y004582D02*
X008322Y004582D01*
X008322Y004484D02*
X008474Y004484D01*
X008474Y004385D02*
X008316Y004385D01*
X008474Y004287D02*
X004155Y004287D01*
X004253Y004385D02*
X005074Y004385D01*
X005069Y004391D02*
X005069Y004556D01*
X005029Y004556D01*
X004921Y004664D01*
X004862Y004664D01*
X004749Y004711D01*
X004662Y004798D01*
X004615Y004911D01*
X004615Y005034D01*
X004662Y005148D01*
X004749Y005235D01*
X004862Y005282D01*
X004985Y005282D01*
X005099Y005235D01*
X005120Y005213D01*
X005168Y005261D01*
X006096Y005261D01*
X006196Y005161D01*
X006196Y004391D01*
X006096Y004291D01*
X005168Y004291D01*
X005069Y004391D01*
X005069Y004484D02*
X004352Y004484D01*
X004450Y004582D02*
X005003Y004582D01*
X004822Y004681D02*
X004455Y004681D01*
X004455Y004779D02*
X004681Y004779D01*
X004629Y004878D02*
X004455Y004878D01*
X004455Y004976D02*
X004615Y004976D01*
X004632Y005075D02*
X004455Y005075D01*
X004455Y005173D02*
X004687Y005173D01*
X004838Y005272D02*
X004455Y005272D01*
X004455Y005370D02*
X007538Y005370D01*
X007538Y005272D02*
X005009Y005272D01*
X004924Y004973D02*
X005120Y004776D01*
X005632Y004776D01*
X006196Y004779D02*
X007195Y004779D01*
X007195Y004681D02*
X006196Y004681D01*
X006196Y004582D02*
X007195Y004582D01*
X007195Y004484D02*
X006196Y004484D01*
X006190Y004385D02*
X007200Y004385D01*
X007195Y004878D02*
X006196Y004878D01*
X006196Y004976D02*
X007195Y004976D01*
X007195Y005075D02*
X006196Y005075D01*
X006184Y005173D02*
X007206Y005173D01*
X007538Y005469D02*
X004455Y005469D01*
X004455Y005567D02*
X007538Y005567D01*
X007538Y005666D02*
X004455Y005666D01*
X004455Y005764D02*
X007538Y005764D01*
X007199Y005863D02*
X006192Y005863D01*
X006196Y005961D02*
X007195Y005961D01*
X007195Y006060D02*
X006196Y006060D01*
X006196Y006158D02*
X007195Y006158D01*
X007195Y006257D02*
X006196Y006257D01*
X006196Y006355D02*
X007195Y006355D01*
X007195Y006454D02*
X006196Y006454D01*
X006196Y006552D02*
X007195Y006552D01*
X007207Y006651D02*
X006183Y006651D01*
X005633Y007045D02*
X007460Y007045D01*
X007460Y006946D02*
X005535Y006946D01*
X005436Y006848D02*
X007460Y006848D01*
X007460Y006749D02*
X005338Y006749D01*
X005732Y007143D02*
X006970Y007143D01*
X006871Y007242D02*
X005830Y007242D01*
X005809Y007532D02*
X004530Y006252D01*
X004924Y006252D01*
X005632Y006252D01*
X005534Y006154D01*
X005069Y005961D02*
X005027Y005961D01*
X005073Y005863D02*
X004455Y005863D01*
X004550Y005961D02*
X004820Y005961D01*
X004530Y006252D02*
X004235Y005957D01*
X004235Y004678D01*
X002660Y003103D01*
X003200Y003105D02*
X008454Y003105D01*
X008454Y003203D02*
X003200Y003203D01*
X003200Y003302D02*
X008454Y003302D01*
X008454Y003400D02*
X003268Y003400D01*
X003367Y003499D02*
X008454Y003499D01*
X008454Y003597D02*
X003465Y003597D01*
X003564Y003696D02*
X008474Y003696D01*
X008474Y003794D02*
X003662Y003794D01*
X003761Y003893D02*
X008474Y003893D01*
X008474Y003991D02*
X003859Y003991D01*
X003958Y004090D02*
X008474Y004090D01*
X008539Y004188D02*
X004056Y004188D01*
X003841Y005284D02*
X002660Y004103D01*
X002660Y005103D02*
X003447Y005890D01*
X003447Y006351D01*
X005022Y007926D01*
X008054Y007926D01*
X008054Y008122D02*
X004680Y008122D01*
X002660Y006103D01*
X003841Y006154D02*
X003841Y005284D01*
X003841Y006154D02*
X005416Y007729D01*
X008054Y007729D01*
X008054Y007532D02*
X005809Y007532D01*
X007089Y007335D02*
X007680Y007335D01*
X007680Y006331D01*
X007758Y006252D01*
X007758Y004776D01*
X008318Y005863D02*
X008809Y005863D01*
X008762Y005859D02*
X008762Y006626D01*
X008762Y007138D01*
X009451Y007827D01*
X009451Y008615D01*
X008762Y009304D01*
X008664Y009304D01*
X008664Y009697D01*
X008467Y009894D01*
X008054Y009894D01*
X007975Y009894D02*
X006991Y009894D01*
X006991Y010091D02*
X007975Y010091D01*
X008054Y010091D02*
X008861Y010091D01*
X009169Y010098D02*
X012479Y010098D01*
X012381Y010197D02*
X009151Y010197D01*
X009093Y010295D02*
X012282Y010295D01*
X012184Y010394D02*
X009009Y010394D01*
X009059Y010492D02*
X012085Y010492D01*
X011987Y010591D02*
X009071Y010591D01*
X009052Y010689D02*
X011882Y010689D01*
X011775Y010788D02*
X009108Y010788D01*
X009157Y010886D02*
X011667Y010886D01*
X011560Y010985D02*
X009169Y010985D01*
X009151Y011083D02*
X011452Y011083D01*
X011345Y011182D02*
X009092Y011182D01*
X008861Y010977D02*
X008762Y010878D01*
X008054Y010878D01*
X006892Y010878D01*
X006892Y010681D02*
X008054Y010681D01*
X008664Y010681D01*
X008762Y010583D01*
X008565Y011075D02*
X008054Y011075D01*
X006892Y011075D01*
X006892Y011272D02*
X008054Y011272D01*
X008369Y011272D01*
X008565Y011469D01*
X008565Y011666D01*
X008664Y011764D01*
X008959Y011469D02*
X008565Y011075D01*
X008054Y011469D02*
X006695Y011469D01*
X005809Y012355D01*
X003939Y012355D01*
X002660Y011075D01*
X003200Y011083D02*
X004144Y011083D01*
X004144Y011086D02*
X004144Y010937D01*
X004154Y010899D01*
X004173Y010866D01*
X004156Y010871D01*
X004007Y010871D01*
X004007Y010513D01*
X003950Y010513D01*
X003950Y010456D01*
X003671Y010456D01*
X003671Y010229D01*
X003681Y010191D01*
X003701Y010156D01*
X003729Y010128D01*
X003763Y010109D01*
X003802Y010098D01*
X003950Y010098D01*
X003950Y010456D01*
X004007Y010456D01*
X004007Y010098D01*
X004156Y010098D01*
X004194Y010109D01*
X004228Y010128D01*
X004256Y010156D01*
X004276Y010191D01*
X004286Y010229D01*
X004286Y010456D01*
X004007Y010456D01*
X004007Y010513D01*
X004286Y010513D01*
X004286Y010741D01*
X004276Y010779D01*
X004257Y010812D01*
X004274Y010807D01*
X004376Y010807D01*
X004360Y010791D01*
X004360Y010178D01*
X004460Y010078D01*
X004915Y010078D01*
X004962Y010125D01*
X005055Y010086D01*
X005226Y010086D01*
X005249Y010096D01*
X005625Y009720D01*
X005521Y009720D01*
X005505Y009760D01*
X005384Y009881D01*
X005226Y009946D01*
X005055Y009946D01*
X004998Y009923D01*
X004915Y010005D01*
X004460Y010005D01*
X004360Y009905D01*
X004360Y009292D01*
X004460Y009193D01*
X004856Y009193D01*
X004897Y009152D01*
X004949Y009130D01*
X003944Y009130D01*
X003861Y009213D01*
X003950Y009213D01*
X003950Y009570D01*
X004007Y009570D01*
X004007Y009213D01*
X004156Y009213D01*
X004194Y009223D01*
X004228Y009243D01*
X004256Y009270D01*
X004276Y009305D01*
X004286Y009343D01*
X004286Y009570D01*
X004007Y009570D01*
X004007Y009628D01*
X003950Y009628D01*
X003950Y009985D01*
X003802Y009985D01*
X003763Y009975D01*
X003729Y009955D01*
X003701Y009927D01*
X003681Y009893D01*
X003671Y009855D01*
X003671Y009628D01*
X003950Y009628D01*
X003950Y009570D01*
X003671Y009570D01*
X003671Y009402D01*
X003164Y009909D01*
X003200Y009995D01*
X003200Y010210D01*
X003118Y010409D01*
X002991Y010535D01*
X003100Y010535D01*
X003200Y010635D01*
X003200Y011304D01*
X004030Y012135D01*
X004207Y012135D01*
X004124Y012051D01*
X004124Y011595D01*
X004223Y011496D01*
X004837Y011496D01*
X004924Y011583D01*
X005011Y011496D01*
X005471Y011496D01*
X005491Y011476D01*
X005491Y011422D01*
X005346Y011422D01*
X005346Y011143D01*
X005289Y011143D01*
X005289Y011086D01*
X004931Y011086D01*
X004931Y010937D01*
X004941Y010899D01*
X004917Y010889D01*
X004915Y010891D01*
X004901Y010891D01*
X004906Y010899D01*
X004916Y010937D01*
X004916Y011086D01*
X004559Y011086D01*
X004559Y011143D01*
X004916Y011143D01*
X004916Y011292D01*
X004906Y011330D01*
X004886Y011364D01*
X004858Y011392D01*
X004824Y011412D01*
X004786Y011422D01*
X004559Y011422D01*
X004559Y011143D01*
X004501Y011143D01*
X004501Y011086D01*
X004144Y011086D01*
X004144Y011143D02*
X004501Y011143D01*
X004501Y011422D01*
X004274Y011422D01*
X004236Y011412D01*
X004202Y011392D01*
X004174Y011364D01*
X004154Y011330D01*
X004144Y011292D01*
X004144Y011143D01*
X004144Y011182D02*
X003200Y011182D01*
X003200Y011280D02*
X004144Y011280D01*
X004188Y011379D02*
X003274Y011379D01*
X003373Y011477D02*
X005490Y011477D01*
X005346Y011379D02*
X005289Y011379D01*
X005289Y011422D02*
X005061Y011422D01*
X005023Y011412D01*
X004989Y011392D01*
X004961Y011364D01*
X004941Y011330D01*
X004931Y011292D01*
X004931Y011143D01*
X005289Y011143D01*
X005289Y011422D01*
X005289Y011280D02*
X005346Y011280D01*
X005346Y011182D02*
X005289Y011182D01*
X005317Y011115D02*
X004530Y011115D01*
X004530Y011036D01*
X003979Y010485D01*
X003979Y009599D01*
X004471Y009107D01*
X005711Y009107D01*
X005908Y009304D01*
X008054Y009304D01*
X008664Y009304D01*
X008479Y009304D02*
X008432Y009304D01*
X008432Y009304D01*
X008432Y009304D01*
X008479Y009304D01*
X008479Y009310D02*
X012578Y009310D01*
X012578Y009212D02*
X008499Y009212D01*
X008499Y009113D02*
X012578Y009113D01*
X012564Y009015D02*
X008499Y009015D01*
X008499Y008916D02*
X012507Y008916D01*
X012489Y008818D02*
X008499Y008818D01*
X008499Y008719D02*
X012502Y008719D01*
X012552Y008621D02*
X008499Y008621D01*
X008499Y008522D02*
X012578Y008522D01*
X012492Y008424D02*
X008499Y008424D01*
X008499Y008325D02*
X012394Y008325D01*
X012404Y008024D02*
X012798Y008418D01*
X012798Y008811D01*
X012798Y010091D01*
X012109Y010780D01*
X010928Y011863D01*
X010928Y012059D01*
X010928Y012768D01*
X010928Y012847D02*
X010928Y013536D01*
X011124Y013536D02*
X011124Y012847D01*
X011321Y012847D02*
X011321Y013536D01*
X011518Y013536D02*
X011518Y012945D01*
X011518Y012768D02*
X011518Y012158D01*
X011420Y012059D01*
X011717Y011970D02*
X012009Y011970D01*
X011997Y012068D02*
X011738Y012068D01*
X011813Y012059D02*
X012109Y012355D01*
X012109Y012768D01*
X012109Y013634D01*
X012404Y013536D02*
X012502Y013437D01*
X012502Y012768D01*
X012502Y012256D01*
X012699Y012059D01*
X012896Y012256D02*
X012699Y012453D01*
X012699Y012768D01*
X012699Y014126D01*
X013093Y014520D01*
X012665Y014717D02*
X011912Y013964D01*
X011912Y012768D01*
X011715Y012768D02*
X011715Y013767D01*
X010765Y014717D01*
X011067Y015023D02*
X012363Y015023D01*
X012286Y014925D02*
X011144Y014925D01*
X011185Y014826D02*
X012245Y014826D01*
X012235Y014728D02*
X011195Y014728D01*
X011194Y014629D02*
X012236Y014629D01*
X012167Y014531D02*
X011262Y014531D01*
X011361Y014432D02*
X012069Y014432D01*
X011970Y014334D02*
X011459Y014334D01*
X011558Y014235D02*
X011872Y014235D01*
X011773Y014137D02*
X011656Y014137D01*
X011330Y013841D02*
X010343Y013841D01*
X010252Y013940D02*
X011231Y013940D01*
X011133Y014038D02*
X010233Y014038D01*
X010173Y014137D02*
X011034Y014137D01*
X010936Y014235D02*
X010012Y014235D01*
X009874Y014235D02*
X009619Y014235D01*
X009481Y014235D02*
X008965Y014235D01*
X009037Y014334D02*
X006713Y014334D01*
X006614Y014432D02*
X008906Y014432D01*
X008858Y014531D02*
X006516Y014531D01*
X006417Y014629D02*
X008847Y014629D01*
X008959Y014914D02*
X009156Y014914D01*
X008959Y014914D02*
X008959Y015414D01*
X008959Y015315D01*
X009057Y015414D01*
X009404Y015417D02*
X012278Y015417D01*
X012180Y015516D02*
X009404Y015516D01*
X009404Y015614D02*
X012081Y015614D01*
X011983Y015713D02*
X009404Y015713D01*
X009404Y015811D02*
X011884Y015811D01*
X011830Y015910D02*
X009390Y015910D01*
X009307Y016008D02*
X011002Y016008D01*
X010873Y016107D02*
X009307Y016107D01*
X009307Y016205D02*
X010826Y016205D01*
X010816Y016304D02*
X009307Y016304D01*
X009307Y016402D02*
X010836Y016402D01*
X010790Y016437D02*
X010790Y017079D01*
X010790Y017079D01*
X010790Y015367D01*
X010239Y014815D01*
X010239Y014225D01*
X010442Y014432D02*
X009406Y014432D01*
X009454Y014531D02*
X010377Y014531D01*
X010336Y014629D02*
X009465Y014629D01*
X009445Y014728D02*
X010335Y014728D01*
X010345Y014826D02*
X009406Y014826D01*
X009406Y014925D02*
X010386Y014925D01*
X010463Y015023D02*
X009404Y015023D01*
X009404Y015122D02*
X010618Y015122D01*
X010912Y015122D02*
X012518Y015122D01*
X012475Y015220D02*
X009404Y015220D01*
X009404Y015319D02*
X012377Y015319D01*
X012704Y015614D02*
X013187Y015614D01*
X013285Y015713D02*
X012605Y015713D01*
X012507Y015811D02*
X013384Y015811D01*
X013482Y015910D02*
X012408Y015910D01*
X012310Y016008D02*
X013577Y016008D01*
X013088Y015516D02*
X012802Y015516D01*
X012901Y015417D02*
X012990Y015417D01*
X012945Y015061D02*
X012050Y015957D01*
X012050Y017079D01*
X012318Y017092D02*
X012628Y017092D01*
X012628Y017190D02*
X012318Y017190D01*
X012318Y017289D02*
X012628Y017289D01*
X012628Y017387D02*
X012318Y017387D01*
X012318Y017486D02*
X012628Y017486D01*
X012628Y017584D02*
X012318Y017584D01*
X012277Y017683D02*
X012669Y017683D01*
X012077Y017781D02*
X010762Y017781D01*
X010750Y017769D02*
X010848Y017867D01*
X010901Y017994D01*
X010901Y018132D01*
X010848Y018260D01*
X010750Y018358D01*
X010623Y018411D01*
X010484Y018411D01*
X010357Y018358D01*
X010259Y018260D01*
X010206Y018132D01*
X010206Y017994D01*
X010259Y017867D01*
X010357Y017769D01*
X010484Y017716D01*
X010623Y017716D01*
X010750Y017769D01*
X010790Y017721D02*
X010672Y017721D01*
X010633Y017711D01*
X010599Y017691D01*
X010571Y017663D01*
X010552Y017629D01*
X010541Y017591D01*
X010541Y017079D01*
X010541Y016567D01*
X010552Y016529D01*
X010571Y016495D01*
X010599Y016467D01*
X010633Y016447D01*
X010672Y016437D01*
X010790Y016437D01*
X010790Y016501D02*
X010790Y016501D01*
X010790Y016599D02*
X010790Y016599D01*
X010790Y016698D02*
X010790Y016698D01*
X010790Y016796D02*
X010790Y016796D01*
X010790Y016895D02*
X010790Y016895D01*
X010790Y016993D02*
X010790Y016993D01*
X010790Y017079D02*
X010541Y017079D01*
X010790Y017079D01*
X010790Y017079D01*
X010790Y017079D01*
X010790Y017721D01*
X010790Y017683D02*
X010790Y017683D01*
X010790Y017584D02*
X010790Y017584D01*
X010790Y017486D02*
X010790Y017486D01*
X010790Y017387D02*
X010790Y017387D01*
X010790Y017289D02*
X010790Y017289D01*
X010790Y017190D02*
X010790Y017190D01*
X010790Y017092D02*
X010790Y017092D01*
X010541Y017092D02*
X010212Y017092D01*
X010212Y017190D02*
X010541Y017190D01*
X010541Y017289D02*
X010212Y017289D01*
X010212Y017387D02*
X010541Y017387D01*
X010541Y017486D02*
X010212Y017486D01*
X010212Y017584D02*
X010541Y017584D01*
X010591Y017683D02*
X010171Y017683D01*
X010345Y017781D02*
X009209Y017781D01*
X009209Y017880D02*
X010254Y017880D01*
X010213Y017978D02*
X009209Y017978D01*
X009209Y018077D02*
X010206Y018077D01*
X010224Y018175D02*
X009209Y018175D01*
X009209Y018274D02*
X010273Y018274D01*
X010392Y018372D02*
X009209Y018372D01*
X009209Y018471D02*
X013621Y018471D01*
X013642Y018569D02*
X009209Y018569D01*
X008369Y018471D02*
X008269Y018471D01*
X007808Y018668D02*
X001944Y018668D01*
X001944Y018766D02*
X002254Y018766D01*
X002105Y018865D02*
X001944Y018865D01*
X001944Y018963D02*
X002006Y018963D01*
X001944Y018569D02*
X002441Y018569D01*
X002292Y018471D02*
X001944Y018471D01*
X001944Y018372D02*
X002198Y018372D01*
X002158Y018274D02*
X001944Y018274D01*
X001944Y018175D02*
X002120Y018175D01*
X002120Y018077D02*
X001944Y018077D01*
X001944Y017978D02*
X002120Y017978D01*
X002156Y017880D02*
X001944Y017880D01*
X001944Y017781D02*
X002197Y017781D01*
X002289Y017683D02*
X001944Y017683D01*
X001944Y017584D02*
X002434Y017584D01*
X002307Y017486D02*
X001944Y017486D01*
X001944Y017387D02*
X002208Y017387D01*
X002164Y017289D02*
X001944Y017289D01*
X001944Y017190D02*
X002123Y017190D01*
X002120Y017092D02*
X001944Y017092D01*
X001944Y016993D02*
X002120Y016993D01*
X002150Y016895D02*
X001944Y016895D01*
X001944Y016796D02*
X002191Y016796D01*
X002274Y016698D02*
X001944Y016698D01*
X001944Y016599D02*
X002398Y016599D01*
X002322Y016501D02*
X001944Y016501D01*
X001944Y016402D02*
X002223Y016402D01*
X002170Y016304D02*
X001944Y016304D01*
X001944Y016205D02*
X002129Y016205D01*
X002120Y016107D02*
X001944Y016107D01*
X001944Y016008D02*
X002120Y016008D01*
X002144Y015910D02*
X001944Y015910D01*
X001944Y015811D02*
X002185Y015811D01*
X002259Y015713D02*
X001944Y015713D01*
X001944Y015614D02*
X002362Y015614D01*
X002337Y015516D02*
X001944Y015516D01*
X001944Y015417D02*
X002238Y015417D01*
X002176Y015319D02*
X001944Y015319D01*
X001944Y015220D02*
X002135Y015220D01*
X002120Y015122D02*
X001944Y015122D01*
X001944Y015023D02*
X002120Y015023D01*
X002138Y014925D02*
X001944Y014925D01*
X001944Y014826D02*
X002179Y014826D01*
X002244Y014728D02*
X001944Y014728D01*
X001944Y014629D02*
X002342Y014629D01*
X002352Y014531D02*
X001944Y014531D01*
X001944Y014432D02*
X002253Y014432D01*
X002182Y014334D02*
X001944Y014334D01*
X001944Y014235D02*
X002142Y014235D01*
X002120Y014137D02*
X001944Y014137D01*
X001944Y014038D02*
X002120Y014038D01*
X002132Y013940D02*
X001944Y013940D01*
X002660Y013075D02*
X002987Y012748D01*
X006006Y012748D01*
X006892Y011863D01*
X008054Y011863D01*
X008054Y012059D02*
X006991Y012059D01*
X006105Y012945D01*
X005908Y012552D02*
X003136Y012552D01*
X002660Y012075D01*
X003471Y011576D02*
X004143Y011576D01*
X004124Y011674D02*
X003570Y011674D01*
X003668Y011773D02*
X004124Y011773D01*
X004124Y011871D02*
X003767Y011871D01*
X003865Y011970D02*
X004124Y011970D01*
X004141Y012068D02*
X003964Y012068D01*
X004530Y011823D02*
X004865Y012158D01*
X005711Y012158D01*
X006006Y011863D01*
X006006Y011272D01*
X006302Y010977D01*
X006794Y010485D01*
X008054Y010485D01*
X008054Y010288D02*
X006853Y010288D01*
X006754Y010189D01*
X006302Y010189D01*
X006203Y010189D01*
X005711Y010681D01*
X005711Y011567D01*
X005416Y011863D01*
X005317Y011863D01*
X005317Y011823D01*
X004931Y011576D02*
X004916Y011576D01*
X004872Y011379D02*
X004976Y011379D01*
X004931Y011280D02*
X004916Y011280D01*
X004916Y011182D02*
X004931Y011182D01*
X004931Y011083D02*
X004916Y011083D01*
X004916Y010985D02*
X004931Y010985D01*
X004559Y010985D02*
X004501Y010985D01*
X004501Y010891D02*
X004501Y011086D01*
X004559Y011086D01*
X004559Y010891D01*
X004501Y010891D01*
X004360Y010788D02*
X004271Y010788D01*
X004286Y010689D02*
X004360Y010689D01*
X004360Y010591D02*
X004286Y010591D01*
X004360Y010492D02*
X004007Y010492D01*
X003950Y010492D02*
X003034Y010492D01*
X003124Y010394D02*
X003671Y010394D01*
X003671Y010295D02*
X003165Y010295D01*
X003200Y010197D02*
X003680Y010197D01*
X003950Y010197D02*
X004007Y010197D01*
X004007Y010295D02*
X003950Y010295D01*
X003950Y010394D02*
X004007Y010394D01*
X003950Y010513D02*
X003671Y010513D01*
X003671Y010741D01*
X003681Y010779D01*
X003701Y010813D01*
X003729Y010841D01*
X003763Y010861D01*
X003802Y010871D01*
X003950Y010871D01*
X003950Y010513D01*
X003950Y010591D02*
X004007Y010591D01*
X004007Y010689D02*
X003950Y010689D01*
X003950Y010788D02*
X004007Y010788D01*
X004161Y010886D02*
X003200Y010886D01*
X003200Y010788D02*
X003687Y010788D01*
X003671Y010689D02*
X003200Y010689D01*
X003156Y010591D02*
X003671Y010591D01*
X003200Y010985D02*
X004144Y010985D01*
X004501Y011083D02*
X004559Y011083D01*
X004559Y011182D02*
X004501Y011182D01*
X004501Y011280D02*
X004559Y011280D01*
X004559Y011379D02*
X004501Y011379D01*
X004687Y010485D02*
X005109Y010485D01*
X005140Y010516D01*
X005959Y009697D01*
X008054Y009697D01*
X008054Y009500D02*
X005156Y009500D01*
X005140Y009516D01*
X005140Y009567D01*
X005109Y009599D01*
X004687Y009599D01*
X004360Y009606D02*
X004007Y009606D01*
X004007Y009628D02*
X004286Y009628D01*
X004286Y009855D01*
X004276Y009893D01*
X004256Y009927D01*
X004228Y009955D01*
X004194Y009975D01*
X004156Y009985D01*
X004007Y009985D01*
X004007Y009628D01*
X003950Y009606D02*
X003468Y009606D01*
X003370Y009704D02*
X003671Y009704D01*
X003671Y009803D02*
X003271Y009803D01*
X003173Y009901D02*
X003686Y009901D01*
X003950Y009901D02*
X004007Y009901D01*
X004007Y009803D02*
X003950Y009803D01*
X003950Y009704D02*
X004007Y009704D01*
X004007Y009507D02*
X003950Y009507D01*
X003950Y009409D02*
X004007Y009409D01*
X004007Y009310D02*
X003950Y009310D01*
X003862Y009212D02*
X004441Y009212D01*
X004360Y009310D02*
X004277Y009310D01*
X004286Y009409D02*
X004360Y009409D01*
X004360Y009507D02*
X004286Y009507D01*
X004286Y009704D02*
X004360Y009704D01*
X004360Y009803D02*
X004286Y009803D01*
X004271Y009901D02*
X004360Y009901D01*
X004454Y010000D02*
X003200Y010000D01*
X003200Y010098D02*
X004440Y010098D01*
X004360Y010197D02*
X004278Y010197D01*
X004286Y010295D02*
X004360Y010295D01*
X004360Y010394D02*
X004286Y010394D01*
X004935Y010098D02*
X005026Y010098D01*
X004921Y010000D02*
X005346Y010000D01*
X005334Y009901D02*
X005444Y009901D01*
X005462Y009803D02*
X005543Y009803D01*
X006991Y009107D02*
X007975Y009107D01*
X008054Y008910D02*
X003853Y008910D01*
X002660Y010103D01*
X003567Y009507D02*
X003671Y009507D01*
X003665Y009409D02*
X003671Y009409D01*
X003050Y008713D02*
X002660Y009103D01*
X003050Y008713D02*
X008054Y008713D01*
X008054Y008516D02*
X003073Y008516D01*
X002660Y008103D01*
X002660Y007103D02*
X003876Y008319D01*
X008054Y008319D01*
X008499Y008227D02*
X010130Y008227D01*
X010032Y008128D02*
X009039Y008128D01*
X008879Y008128D02*
X008499Y008128D01*
X008499Y008030D02*
X008725Y008030D01*
X008668Y007931D02*
X008499Y007931D01*
X008499Y007833D02*
X008650Y007833D01*
X008555Y007734D02*
X008499Y007734D01*
X008467Y007335D02*
X008054Y007335D01*
X007680Y007335D01*
X007900Y007045D02*
X008656Y007045D01*
X008586Y007143D02*
X008751Y007143D01*
X008685Y007242D02*
X008850Y007242D01*
X008783Y007340D02*
X008948Y007340D01*
X008882Y007439D02*
X009047Y007439D01*
X009065Y007537D02*
X009438Y007537D01*
X009455Y007636D02*
X009204Y007636D01*
X009255Y007734D02*
X009512Y007734D01*
X009666Y007833D02*
X009268Y007833D01*
X009250Y007931D02*
X009835Y007931D01*
X009933Y008030D02*
X009193Y008030D01*
X008959Y007827D02*
X008467Y007335D01*
X008560Y006946D02*
X007900Y006946D01*
X007900Y006848D02*
X008553Y006848D01*
X008553Y006749D02*
X007900Y006749D01*
X008309Y006651D02*
X008553Y006651D01*
X008553Y006626D02*
X008730Y006626D01*
X008553Y006626D01*
X008553Y006552D02*
X008322Y006552D01*
X008322Y006454D02*
X008553Y006454D01*
X008553Y006355D02*
X008322Y006355D01*
X008322Y006257D02*
X008585Y006257D01*
X008739Y006158D02*
X008322Y006158D01*
X008322Y006060D02*
X008739Y006060D01*
X008742Y005961D02*
X008322Y005961D01*
X008959Y006056D02*
X008959Y006548D01*
X008959Y006626D02*
X008959Y007040D01*
X009156Y007237D01*
X010337Y007237D01*
X009746Y007532D02*
X010239Y008024D01*
X012404Y008024D01*
X012404Y007532D02*
X012404Y007433D01*
X012502Y007335D01*
X012502Y006626D01*
X012502Y006548D02*
X012502Y006056D01*
X012896Y006056D02*
X012896Y006548D01*
X012896Y006626D02*
X012896Y007040D01*
X013191Y007335D01*
X013388Y007630D02*
X013487Y007532D01*
X014195Y007532D01*
X014274Y007532D02*
X014865Y007532D01*
X015061Y007335D02*
X014274Y007335D01*
X014195Y007335D02*
X013683Y007335D01*
X013585Y007237D01*
X013830Y007045D02*
X015336Y007045D01*
X015238Y007143D02*
X015181Y007143D01*
X015435Y006946D02*
X013716Y006946D01*
X013716Y006848D02*
X015533Y006848D01*
X015632Y006749D02*
X013716Y006749D01*
X013716Y006651D02*
X015730Y006651D01*
X015829Y006552D02*
X013716Y006552D01*
X013716Y006454D02*
X015877Y006454D01*
X015877Y006355D02*
X013716Y006355D01*
X013707Y006257D02*
X015877Y006257D01*
X015877Y006158D02*
X013707Y006158D01*
X013794Y006060D02*
X015877Y006060D01*
X015877Y005961D02*
X013892Y005961D01*
X013903Y005863D02*
X015877Y005863D01*
X015877Y005764D02*
X013903Y005764D01*
X013903Y005666D02*
X015877Y005666D01*
X015877Y005567D02*
X013920Y005567D01*
X013975Y005469D02*
X015877Y005469D01*
X015877Y005370D02*
X013992Y005370D01*
X013978Y005272D02*
X015877Y005272D01*
X015877Y005173D02*
X014031Y005173D01*
X014129Y005075D02*
X015877Y005075D01*
X015877Y004976D02*
X014228Y004976D01*
X014140Y005064D02*
X014140Y005064D01*
X013920Y004973D02*
X014372Y004520D01*
X014669Y004878D02*
X015877Y004878D01*
X015877Y004779D02*
X014759Y004779D01*
X014759Y004681D02*
X015877Y004681D01*
X015877Y004582D02*
X014759Y004582D01*
X014759Y004484D02*
X015877Y004484D01*
X015877Y004385D02*
X014759Y004385D01*
X014759Y004287D02*
X015877Y004287D01*
X015877Y004188D02*
X014694Y004188D01*
X014759Y004090D02*
X015877Y004090D01*
X015877Y003991D02*
X014759Y003991D01*
X014759Y003893D02*
X015877Y003893D01*
X015877Y003794D02*
X014759Y003794D01*
X014759Y003696D02*
X015877Y003696D01*
X015877Y003597D02*
X014779Y003597D01*
X014779Y003499D02*
X015877Y003499D01*
X015877Y003400D02*
X014779Y003400D01*
X014779Y003302D02*
X015877Y003302D01*
X015877Y003203D02*
X014779Y003203D01*
X014779Y003105D02*
X015877Y003105D01*
X015877Y003006D02*
X014772Y003006D01*
X014701Y002849D02*
X014729Y002821D01*
X014748Y002787D01*
X014759Y002748D01*
X014759Y002543D01*
X014422Y002543D01*
X014322Y002543D01*
X014322Y002879D01*
X014116Y002879D01*
X014078Y002869D01*
X014044Y002849D01*
X014016Y002821D01*
X013996Y002787D01*
X013986Y002748D01*
X013986Y002543D01*
X014322Y002543D01*
X014322Y002443D01*
X014422Y002443D01*
X014422Y002543D01*
X014422Y002879D01*
X014628Y002879D01*
X014667Y002869D01*
X014701Y002849D01*
X014735Y002809D02*
X015877Y002809D01*
X015877Y002711D02*
X014759Y002711D01*
X014759Y002612D02*
X015877Y002612D01*
X015877Y002514D02*
X014422Y002514D01*
X014372Y002493D02*
X013585Y002493D01*
X012798Y002493D01*
X012010Y002493D01*
X011223Y002493D01*
X010435Y002493D01*
X009648Y002493D01*
X008861Y002493D01*
X008911Y002514D02*
X009598Y002514D01*
X009598Y002612D02*
X009698Y002612D01*
X009698Y002543D02*
X009698Y002879D01*
X009904Y002879D01*
X009942Y002869D01*
X009976Y002849D01*
X010004Y002821D01*
X010024Y002787D01*
X010034Y002748D01*
X010034Y002543D01*
X009698Y002543D01*
X009698Y002514D02*
X010385Y002514D01*
X010385Y002543D02*
X010385Y002443D01*
X010485Y002443D01*
X010485Y002543D01*
X010385Y002543D01*
X010385Y002879D01*
X010179Y002879D01*
X010141Y002869D01*
X010107Y002849D01*
X010079Y002821D01*
X010059Y002787D01*
X010049Y002748D01*
X010049Y002543D01*
X010385Y002543D01*
X010385Y002612D02*
X010485Y002612D01*
X010485Y002543D02*
X010485Y002879D01*
X010691Y002879D01*
X010730Y002869D01*
X010764Y002849D01*
X010792Y002821D01*
X010811Y002787D01*
X010822Y002748D01*
X010822Y002543D01*
X010485Y002543D01*
X010485Y002514D02*
X011173Y002514D01*
X011173Y002612D02*
X011273Y002612D01*
X011273Y002543D02*
X011273Y002879D01*
X011479Y002879D01*
X011517Y002869D01*
X011551Y002849D01*
X011579Y002821D01*
X011599Y002787D01*
X011609Y002748D01*
X011609Y002543D01*
X011273Y002543D01*
X011273Y002514D02*
X011960Y002514D01*
X011960Y002612D02*
X012060Y002612D01*
X012060Y002543D02*
X012060Y002879D01*
X012266Y002879D01*
X012304Y002869D01*
X012339Y002849D01*
X012366Y002821D01*
X012386Y002787D01*
X012396Y002748D01*
X012396Y002543D01*
X012060Y002543D01*
X012060Y002514D02*
X012748Y002514D01*
X012748Y002612D02*
X012848Y002612D01*
X012848Y002543D02*
X012848Y002879D01*
X013054Y002879D01*
X013092Y002869D01*
X013126Y002849D01*
X013154Y002821D01*
X013174Y002787D01*
X013184Y002748D01*
X013184Y002543D01*
X012848Y002543D01*
X012848Y002514D02*
X013535Y002514D01*
X013535Y002443D02*
X013635Y002443D01*
X013635Y002106D01*
X013841Y002106D01*
X013851Y002109D01*
X013791Y002084D01*
X013639Y001932D01*
X013597Y001830D01*
X013555Y001932D01*
X013403Y002084D01*
X013349Y002106D01*
X013535Y002106D01*
X013535Y002443D01*
X013535Y002415D02*
X013635Y002415D01*
X013635Y002317D02*
X013535Y002317D01*
X013535Y002218D02*
X013635Y002218D01*
X013635Y002120D02*
X013535Y002120D01*
X013466Y002021D02*
X013728Y002021D01*
X013635Y001923D02*
X013559Y001923D01*
X013204Y002218D02*
X013179Y002218D01*
X013184Y002317D02*
X013199Y002317D01*
X013199Y002415D02*
X013184Y002415D01*
X013184Y002612D02*
X013199Y002612D01*
X013199Y002711D02*
X013184Y002711D01*
X013161Y002809D02*
X013222Y002809D01*
X013535Y002809D02*
X013635Y002809D01*
X013635Y002879D02*
X013635Y002543D01*
X013971Y002543D01*
X013971Y002748D01*
X013961Y002787D01*
X013941Y002821D01*
X013913Y002849D01*
X013879Y002869D01*
X013841Y002879D01*
X013635Y002879D01*
X013635Y002711D02*
X013535Y002711D01*
X013535Y002612D02*
X013635Y002612D01*
X013635Y002514D02*
X014322Y002514D01*
X014322Y002612D02*
X014422Y002612D01*
X014422Y002711D02*
X014322Y002711D01*
X014322Y002809D02*
X014422Y002809D01*
X014009Y002809D02*
X013948Y002809D01*
X013971Y002711D02*
X013986Y002711D01*
X013986Y002612D02*
X013971Y002612D01*
X013971Y002415D02*
X013986Y002415D01*
X013986Y002317D02*
X013971Y002317D01*
X013966Y002218D02*
X013991Y002218D01*
X014322Y002218D02*
X014422Y002218D01*
X014422Y002120D02*
X014322Y002120D01*
X014422Y002106D02*
X014628Y002106D01*
X014667Y002117D01*
X014701Y002136D01*
X014729Y002164D01*
X014748Y002198D01*
X014759Y002237D01*
X014759Y002443D01*
X014422Y002443D01*
X014422Y002106D01*
X014466Y002021D02*
X014728Y002021D01*
X014672Y002120D02*
X014876Y002120D01*
X014754Y002218D02*
X015877Y002218D01*
X015876Y002120D02*
X015317Y002120D01*
X015466Y002021D02*
X015728Y002021D01*
X015635Y001923D02*
X015559Y001923D01*
X015877Y002317D02*
X014759Y002317D01*
X014759Y002415D02*
X015877Y002415D01*
X015877Y002908D02*
X003200Y002908D01*
X003200Y003006D02*
X008461Y003006D01*
X008498Y002809D02*
X003200Y002809D01*
X003200Y002711D02*
X008474Y002711D01*
X008474Y002612D02*
X003150Y002612D01*
X003029Y002415D02*
X008474Y002415D01*
X008474Y002317D02*
X003200Y002317D01*
X003299Y002218D02*
X008479Y002218D01*
X008561Y002120D02*
X008345Y002120D01*
X008493Y002021D02*
X008755Y002021D01*
X008811Y002120D02*
X008904Y002120D01*
X008911Y002218D02*
X008811Y002218D01*
X008811Y002317D02*
X008911Y002317D01*
X008911Y002415D02*
X008811Y002415D01*
X008911Y002543D02*
X009247Y002543D01*
X009247Y002748D01*
X009237Y002787D01*
X009217Y002821D01*
X009189Y002849D01*
X009155Y002869D01*
X009117Y002879D01*
X008911Y002879D01*
X008911Y002543D01*
X008911Y002612D02*
X008811Y002612D01*
X008811Y002711D02*
X008911Y002711D01*
X008911Y002809D02*
X008811Y002809D01*
X009224Y002809D02*
X009285Y002809D01*
X009262Y002711D02*
X009247Y002711D01*
X009247Y002612D02*
X009262Y002612D01*
X009247Y002415D02*
X009262Y002415D01*
X009262Y002317D02*
X009247Y002317D01*
X009242Y002218D02*
X009267Y002218D01*
X009345Y002120D02*
X009349Y002120D01*
X009493Y002021D02*
X009755Y002021D01*
X009698Y002120D02*
X009598Y002120D01*
X009598Y002218D02*
X009698Y002218D01*
X009698Y002317D02*
X009598Y002317D01*
X009598Y002415D02*
X009698Y002415D01*
X009698Y002711D02*
X009598Y002711D01*
X009598Y002809D02*
X009698Y002809D01*
X010011Y002809D02*
X010072Y002809D01*
X010049Y002711D02*
X010034Y002711D01*
X010034Y002612D02*
X010049Y002612D01*
X010034Y002415D02*
X010049Y002415D01*
X010049Y002317D02*
X010034Y002317D01*
X010029Y002218D02*
X010054Y002218D01*
X010385Y002218D02*
X010485Y002218D01*
X010485Y002120D02*
X010385Y002120D01*
X010493Y002021D02*
X010584Y002021D01*
X010817Y002218D02*
X010842Y002218D01*
X010837Y002317D02*
X010822Y002317D01*
X010822Y002415D02*
X010837Y002415D01*
X010822Y002612D02*
X010837Y002612D01*
X010837Y002711D02*
X010822Y002711D01*
X010798Y002809D02*
X010860Y002809D01*
X011173Y002809D02*
X011273Y002809D01*
X011273Y002711D02*
X011173Y002711D01*
X011586Y002809D02*
X011647Y002809D01*
X011624Y002711D02*
X011609Y002711D01*
X011609Y002612D02*
X011624Y002612D01*
X011609Y002415D02*
X011624Y002415D01*
X011624Y002317D02*
X011609Y002317D01*
X011604Y002218D02*
X011629Y002218D01*
X011612Y002120D02*
X011711Y002120D01*
X011728Y002021D02*
X011664Y002021D01*
X012317Y002120D02*
X012498Y002120D01*
X012466Y002021D02*
X012728Y002021D01*
X012748Y002120D02*
X012848Y002120D01*
X012848Y002218D02*
X012748Y002218D01*
X012748Y002317D02*
X012848Y002317D01*
X012848Y002415D02*
X012748Y002415D01*
X012748Y002711D02*
X012848Y002711D01*
X012848Y002809D02*
X012748Y002809D01*
X012435Y002809D02*
X012373Y002809D01*
X012396Y002711D02*
X012411Y002711D01*
X012411Y002612D02*
X012396Y002612D01*
X012396Y002415D02*
X012411Y002415D01*
X012411Y002317D02*
X012396Y002317D01*
X012391Y002218D02*
X012416Y002218D01*
X012559Y001923D02*
X012635Y001923D01*
X012634Y001332D02*
X012559Y001332D01*
X012467Y001233D02*
X012726Y001233D01*
X012873Y001135D02*
X012321Y001135D01*
X011873Y001135D02*
X011613Y001135D01*
X011664Y001233D02*
X011726Y001233D01*
X010636Y001135D02*
X010348Y001135D01*
X010495Y001233D02*
X010584Y001233D01*
X009901Y001135D02*
X009348Y001135D01*
X009495Y001233D02*
X009754Y001233D01*
X009662Y001332D02*
X009587Y001332D01*
X009586Y001923D02*
X009663Y001923D01*
X010385Y002317D02*
X010485Y002317D01*
X010485Y002415D02*
X010385Y002415D01*
X010385Y002711D02*
X010485Y002711D01*
X010485Y002809D02*
X010385Y002809D01*
X010435Y003319D02*
X010435Y003851D01*
X011223Y003851D02*
X011223Y003319D01*
X012010Y003319D02*
X012010Y003851D01*
X012798Y003851D02*
X012798Y003319D01*
X013585Y003319D02*
X013585Y003851D01*
X014372Y003851D02*
X014372Y003319D01*
X014322Y002415D02*
X014422Y002415D01*
X014422Y002317D02*
X014322Y002317D01*
X014559Y001923D02*
X014635Y001923D01*
X014634Y001332D02*
X014559Y001332D01*
X014467Y001233D02*
X014726Y001233D01*
X014873Y001135D02*
X014321Y001135D01*
X013873Y001135D02*
X013321Y001135D01*
X013467Y001233D02*
X013726Y001233D01*
X013634Y001332D02*
X013559Y001332D01*
X012060Y002711D02*
X011960Y002711D01*
X011960Y002809D02*
X012060Y002809D01*
X012010Y004520D02*
X011557Y004973D01*
X011321Y004973D01*
X011124Y005170D01*
X011124Y006626D01*
X010928Y006626D02*
X010928Y004815D01*
X011223Y004520D01*
X010731Y004815D02*
X010435Y004520D01*
X010337Y004874D02*
X010140Y004874D01*
X009648Y004382D01*
X009648Y004520D01*
X010337Y004874D02*
X010534Y005071D01*
X010534Y006626D01*
X010731Y006626D02*
X010731Y004815D01*
X010337Y005170D02*
X010337Y006626D01*
X011223Y007237D02*
X011715Y007237D01*
X011912Y007040D01*
X011912Y006626D01*
X011912Y005760D01*
X011715Y005662D02*
X012010Y005367D01*
X012502Y005367D01*
X012699Y005170D01*
X013191Y005170D01*
X013388Y004973D01*
X013920Y004973D01*
X013683Y005367D02*
X013683Y005859D01*
X013487Y006056D01*
X013487Y006626D01*
X013290Y006626D02*
X013290Y005859D01*
X013437Y005760D01*
X013093Y005465D02*
X013093Y006626D01*
X012699Y006626D02*
X012699Y005711D01*
X012306Y005563D02*
X012306Y006548D01*
X012306Y006626D02*
X012306Y007237D01*
X012010Y007532D01*
X012010Y007630D01*
X011715Y007532D02*
X011617Y007532D01*
X011715Y007532D02*
X012109Y007138D01*
X012109Y006626D01*
X012109Y006548D02*
X012109Y005563D01*
X011715Y005662D02*
X011715Y006626D01*
X011518Y006626D02*
X011518Y005367D01*
X011715Y005367D01*
X011912Y005170D01*
X012404Y005170D01*
X012601Y004973D01*
X013132Y004973D01*
X013585Y004520D01*
X012798Y004520D02*
X012345Y004973D01*
X011813Y004973D01*
X011617Y005170D01*
X011420Y005170D01*
X011321Y005268D01*
X011321Y006626D01*
X012699Y006626D02*
X012699Y007433D01*
X012798Y007532D01*
X013487Y008024D02*
X013782Y007729D01*
X014195Y007729D01*
X014274Y007729D02*
X014668Y007729D01*
X014766Y007926D02*
X014195Y007926D01*
X014195Y008122D02*
X014865Y008122D01*
X017097Y005890D01*
X017097Y001626D01*
X017559Y001332D02*
X017634Y001332D01*
X017726Y001233D02*
X017467Y001233D01*
X017321Y001135D02*
X017873Y001135D01*
X018321Y001135D02*
X018608Y001135D01*
X018557Y001233D02*
X018467Y001233D01*
X018097Y001626D02*
X018097Y005185D01*
X014963Y008319D01*
X014195Y008319D01*
X014195Y008516D02*
X015061Y008516D01*
X019097Y004481D01*
X019097Y001626D01*
X019637Y001627D02*
X019703Y001627D01*
X019703Y001529D02*
X019637Y001529D01*
X019637Y001430D02*
X019713Y001430D01*
X019754Y001332D02*
X019637Y001332D01*
X019637Y001233D02*
X019794Y001233D01*
X019835Y001135D02*
X019585Y001135D01*
X019933Y001036D02*
X003300Y001036D01*
X003398Y001135D02*
X003901Y001135D01*
X003754Y001233D02*
X003439Y001233D01*
X003479Y001332D02*
X003662Y001332D01*
X003621Y001430D02*
X003520Y001430D01*
X003530Y001529D02*
X003584Y001529D01*
X003584Y001627D02*
X003530Y001627D01*
X003530Y001726D02*
X003584Y001726D01*
X003622Y001824D02*
X003520Y001824D01*
X003479Y001923D02*
X003663Y001923D01*
X003755Y002021D02*
X003438Y002021D01*
X003397Y002120D02*
X003904Y002120D01*
X004345Y002120D02*
X004904Y002120D01*
X004755Y002021D02*
X004493Y002021D01*
X004586Y001923D02*
X004663Y001923D01*
X004662Y001332D02*
X004587Y001332D01*
X004495Y001233D02*
X004754Y001233D01*
X004901Y001135D02*
X004348Y001135D01*
X005348Y001135D02*
X005901Y001135D01*
X005754Y001233D02*
X005495Y001233D01*
X005587Y001332D02*
X005662Y001332D01*
X005663Y001923D02*
X005586Y001923D01*
X005493Y002021D02*
X005755Y002021D01*
X005904Y002120D02*
X005345Y002120D01*
X006345Y002120D02*
X006904Y002120D01*
X006755Y002021D02*
X006493Y002021D01*
X006586Y001923D02*
X006663Y001923D01*
X006662Y001332D02*
X006587Y001332D01*
X006495Y001233D02*
X006754Y001233D01*
X006901Y001135D02*
X006348Y001135D01*
X007348Y001135D02*
X007901Y001135D01*
X007754Y001233D02*
X007495Y001233D01*
X007587Y001332D02*
X007662Y001332D01*
X007663Y001923D02*
X007586Y001923D01*
X007493Y002021D02*
X007755Y002021D01*
X007904Y002120D02*
X007345Y002120D01*
X008586Y001923D02*
X008663Y001923D01*
X008662Y001332D02*
X008587Y001332D01*
X008495Y001233D02*
X008754Y001233D01*
X008901Y001135D02*
X008348Y001135D01*
X008861Y003319D02*
X008861Y003851D01*
X009648Y003851D02*
X009648Y003319D01*
X009156Y006056D02*
X009156Y006548D01*
X008730Y006626D02*
X008730Y006626D01*
X008499Y009409D02*
X012578Y009409D01*
X012578Y009507D02*
X008499Y009507D01*
X008499Y009606D02*
X012578Y009606D01*
X012578Y009704D02*
X008499Y009704D01*
X008499Y009803D02*
X008750Y009803D01*
X008971Y009803D02*
X012578Y009803D01*
X012578Y009901D02*
X009107Y009901D01*
X009157Y010000D02*
X012578Y010000D01*
X012905Y010295D02*
X013254Y010295D01*
X013196Y010197D02*
X013003Y010197D01*
X013018Y010098D02*
X013178Y010098D01*
X013190Y010000D02*
X013018Y010000D01*
X013018Y009901D02*
X013240Y009901D01*
X013376Y009803D02*
X013018Y009803D01*
X013018Y009704D02*
X013562Y009704D01*
X013466Y009606D02*
X013750Y009606D01*
X013683Y009894D02*
X014195Y009894D01*
X015455Y009894D01*
X015554Y010091D02*
X017554Y008091D01*
X019589Y008091D01*
X019589Y008044D01*
X019176Y007630D01*
X019589Y008091D02*
X020573Y008091D01*
X020573Y009091D02*
X019652Y009091D01*
X019176Y008615D01*
X019652Y009091D02*
X016849Y009091D01*
X015652Y010288D01*
X014195Y010288D01*
X014195Y010485D02*
X015750Y010485D01*
X016144Y010091D01*
X020573Y010091D01*
X020475Y010091D01*
X020191Y010681D02*
X020573Y011063D01*
X020191Y010681D02*
X014195Y010681D01*
X014195Y010878D02*
X019388Y010878D01*
X020573Y012063D01*
X020573Y013063D02*
X018585Y011075D01*
X014195Y011075D01*
X014195Y011272D02*
X017782Y011272D01*
X020573Y014063D01*
X020573Y015063D02*
X016979Y011469D01*
X014195Y011469D01*
X014195Y011666D02*
X016176Y011666D01*
X020573Y016063D01*
X019786Y016276D02*
X019786Y015701D01*
X015947Y011863D01*
X014195Y011863D01*
X014195Y012059D02*
X015750Y012059D01*
X019491Y015800D01*
X019491Y016981D01*
X019389Y017190D02*
X018787Y017190D01*
X018866Y017289D02*
X019487Y017289D01*
X019586Y017387D02*
X018871Y017387D01*
X018540Y016599D02*
X019271Y016599D01*
X019271Y016501D02*
X018639Y016501D01*
X018737Y016402D02*
X019271Y016402D01*
X019271Y016304D02*
X018836Y016304D01*
X018934Y016205D02*
X019271Y016205D01*
X019271Y016107D02*
X019023Y016107D01*
X019064Y016008D02*
X019271Y016008D01*
X019271Y015910D02*
X019085Y015910D01*
X019085Y015811D02*
X019191Y015811D01*
X019092Y015713D02*
X019057Y015713D01*
X019786Y016276D02*
X020573Y017063D01*
X021128Y018865D02*
X021289Y018865D01*
X021289Y018963D02*
X021227Y018963D01*
X019830Y019062D02*
X019432Y019062D01*
X019560Y019160D02*
X019789Y019160D01*
X019748Y019259D02*
X019644Y019259D01*
X019684Y019357D02*
X019707Y019357D01*
X017534Y017880D02*
X016935Y017880D01*
X016935Y017781D02*
X017196Y017781D01*
X017191Y017683D02*
X016935Y017683D01*
X016935Y017584D02*
X017191Y017584D01*
X017191Y017486D02*
X016935Y017486D01*
X016910Y017978D02*
X017444Y017978D01*
X016386Y018516D02*
X016199Y018516D01*
X015596Y018766D02*
X013755Y018766D01*
X013755Y018865D02*
X015497Y018865D01*
X015399Y018963D02*
X013755Y018963D01*
X013755Y019062D02*
X013969Y019062D01*
X014126Y019062D02*
X014226Y019062D01*
X014226Y019160D02*
X014126Y019160D01*
X014126Y019259D02*
X014226Y019259D01*
X014226Y019357D02*
X014126Y019357D01*
X014126Y019456D02*
X014226Y019456D01*
X014531Y019160D02*
X014792Y019160D01*
X014708Y019259D02*
X014614Y019259D01*
X014663Y019357D02*
X014667Y019357D01*
X014919Y019062D02*
X014383Y019062D01*
X013820Y019160D02*
X013755Y019160D01*
X012124Y018372D02*
X010715Y018372D01*
X010834Y018274D02*
X012005Y018274D01*
X011956Y018175D02*
X010883Y018175D01*
X010901Y018077D02*
X011939Y018077D01*
X011945Y017978D02*
X010894Y017978D01*
X010853Y017880D02*
X011986Y017880D01*
X011735Y017079D02*
X011735Y016410D01*
X011617Y016292D01*
X011420Y016489D02*
X011223Y016292D01*
X011124Y016292D01*
X011246Y016008D02*
X011495Y016008D01*
X011739Y016008D02*
X011830Y016008D01*
X011420Y016489D02*
X011420Y017079D01*
X010541Y016993D02*
X010212Y016993D01*
X010212Y016895D02*
X010541Y016895D01*
X010541Y016796D02*
X010212Y016796D01*
X010212Y016698D02*
X010541Y016698D01*
X010541Y016599D02*
X010212Y016599D01*
X010196Y016501D02*
X010568Y016501D01*
X012302Y016501D02*
X012644Y016501D01*
X012628Y016599D02*
X012318Y016599D01*
X012318Y016698D02*
X012628Y016698D01*
X012628Y016796D02*
X012318Y016796D01*
X012318Y016895D02*
X012628Y016895D01*
X012628Y016993D02*
X012318Y016993D01*
X015578Y016993D02*
X015678Y016993D01*
X015678Y017092D02*
X015578Y017092D01*
X015578Y017190D02*
X015678Y017190D01*
X015678Y017289D02*
X015578Y017289D01*
X017730Y015359D02*
X017768Y015250D01*
X017424Y014914D01*
X017061Y014551D01*
X017549Y014728D02*
X017799Y014728D01*
X015023Y013152D02*
X014736Y013152D01*
X014650Y013250D02*
X014924Y013250D01*
X014969Y013053D02*
X014847Y013053D01*
X014556Y013743D02*
X014297Y013743D01*
X014297Y013841D02*
X014638Y013841D01*
X014737Y013940D02*
X014280Y013940D01*
X014181Y014038D02*
X014835Y014038D01*
X013683Y013733D02*
X013683Y013634D01*
X013487Y013142D02*
X013487Y012847D01*
X013762Y012768D02*
X013782Y012748D01*
X013487Y012390D02*
X013487Y012343D01*
X013487Y012390D01*
X013487Y012390D01*
X013487Y012364D02*
X013487Y012364D01*
X013521Y012265D02*
X013826Y012265D01*
X013750Y012167D02*
X013580Y012167D01*
X013599Y012068D02*
X013750Y012068D01*
X013750Y011970D02*
X013587Y011970D01*
X013538Y011871D02*
X013750Y011871D01*
X013750Y011773D02*
X013404Y011773D01*
X013176Y011773D02*
X012813Y011773D01*
X012947Y011871D02*
X013042Y011871D01*
X013290Y012059D02*
X013093Y012256D01*
X012896Y012256D01*
X012585Y011773D02*
X012420Y011773D01*
X012191Y011773D02*
X011534Y011773D01*
X011459Y011674D02*
X013750Y011674D01*
X013750Y011576D02*
X011566Y011576D01*
X011674Y011477D02*
X013750Y011477D01*
X013750Y011379D02*
X011781Y011379D01*
X011889Y011280D02*
X013750Y011280D01*
X013750Y011182D02*
X011996Y011182D01*
X012104Y011083D02*
X013750Y011083D01*
X013750Y010985D02*
X012215Y010985D01*
X012318Y010886D02*
X013750Y010886D01*
X013750Y010788D02*
X012412Y010788D01*
X012511Y010689D02*
X013750Y010689D01*
X013750Y010591D02*
X012609Y010591D01*
X012708Y010492D02*
X013750Y010492D01*
X013750Y010394D02*
X013563Y010394D01*
X013410Y010394D02*
X012806Y010394D01*
X013487Y010091D02*
X013683Y009894D01*
X013311Y009606D02*
X013018Y009606D01*
X013018Y009507D02*
X013155Y009507D01*
X013098Y009409D02*
X013018Y009409D01*
X013018Y009310D02*
X013079Y009310D01*
X013092Y009212D02*
X013018Y009212D01*
X013018Y009113D02*
X013142Y009113D01*
X013031Y009015D02*
X013279Y009015D01*
X013155Y008916D02*
X013088Y008916D01*
X013388Y008713D02*
X013782Y009107D01*
X014195Y009107D01*
X015357Y009107D01*
X019372Y005091D01*
X020573Y005091D01*
X021069Y004878D02*
X021289Y004878D01*
X021289Y004976D02*
X021110Y004976D01*
X021113Y005075D02*
X021289Y005075D01*
X021289Y005173D02*
X021113Y005173D01*
X021083Y005272D02*
X021289Y005272D01*
X021289Y005370D02*
X021042Y005370D01*
X020959Y005469D02*
X021289Y005469D01*
X021289Y005567D02*
X020835Y005567D01*
X020912Y005666D02*
X021289Y005666D01*
X021289Y005764D02*
X021010Y005764D01*
X021063Y005863D02*
X021289Y005863D01*
X021289Y005961D02*
X021104Y005961D01*
X021113Y006060D02*
X021289Y006060D01*
X021289Y006158D02*
X021113Y006158D01*
X021089Y006257D02*
X021289Y006257D01*
X021289Y006355D02*
X021048Y006355D01*
X020974Y006454D02*
X021289Y006454D01*
X021289Y006552D02*
X020871Y006552D01*
X020897Y006651D02*
X021289Y006651D01*
X021289Y006749D02*
X020995Y006749D01*
X020573Y006091D02*
X018668Y006091D01*
X015455Y009304D01*
X014195Y009304D01*
X013388Y009304D01*
X014195Y009500D02*
X015554Y009500D01*
X017963Y007091D01*
X016097Y006595D02*
X016097Y001626D01*
X015634Y001332D02*
X015559Y001332D01*
X015467Y001233D02*
X015726Y001233D01*
X015873Y001135D02*
X015321Y001135D01*
X016321Y001135D02*
X016873Y001135D01*
X016726Y001233D02*
X016467Y001233D01*
X016559Y001332D02*
X016634Y001332D01*
X019317Y002218D02*
X019935Y002218D01*
X020033Y002317D02*
X019317Y002317D01*
X019317Y002415D02*
X020204Y002415D01*
X020318Y002612D02*
X019317Y002612D01*
X019317Y002514D02*
X021289Y002514D01*
X021289Y002612D02*
X020828Y002612D01*
X020957Y002711D02*
X021289Y002711D01*
X021289Y002809D02*
X021041Y002809D01*
X021082Y002908D02*
X021289Y002908D01*
X021289Y003006D02*
X021113Y003006D01*
X021113Y003105D02*
X021289Y003105D01*
X021289Y003203D02*
X021111Y003203D01*
X021070Y003302D02*
X021289Y003302D01*
X021289Y003400D02*
X021028Y003400D01*
X020929Y003499D02*
X021289Y003499D01*
X021289Y003597D02*
X020792Y003597D01*
X020942Y003696D02*
X021289Y003696D01*
X021289Y003794D02*
X021035Y003794D01*
X021076Y003893D02*
X021289Y003893D01*
X021289Y003991D02*
X021113Y003991D01*
X021113Y004090D02*
X021289Y004090D01*
X021289Y004188D02*
X021113Y004188D01*
X021077Y004287D02*
X021289Y004287D01*
X021289Y004385D02*
X021036Y004385D01*
X020944Y004484D02*
X021289Y004484D01*
X021289Y004582D02*
X020799Y004582D01*
X020927Y004681D02*
X021289Y004681D01*
X021289Y004779D02*
X021025Y004779D01*
X020573Y004091D02*
X020077Y004091D01*
X015258Y008910D01*
X014195Y008910D01*
X014195Y008713D02*
X015160Y008713D01*
X019392Y004481D01*
X019392Y004075D01*
X020376Y003091D01*
X020573Y003091D01*
X020190Y002711D02*
X019317Y002711D01*
X019317Y002809D02*
X020105Y002809D01*
X020065Y002908D02*
X019317Y002908D01*
X019317Y003006D02*
X020033Y003006D01*
X020033Y003105D02*
X019317Y003105D01*
X019317Y003203D02*
X019953Y003203D01*
X019855Y003302D02*
X019317Y003302D01*
X019317Y003400D02*
X019756Y003400D01*
X019658Y003499D02*
X019317Y003499D01*
X019317Y003597D02*
X019559Y003597D01*
X019461Y003696D02*
X019317Y003696D01*
X019317Y003794D02*
X019362Y003794D01*
X020943Y002415D02*
X021289Y002415D01*
X021289Y002317D02*
X021113Y002317D01*
X021212Y002218D02*
X021289Y002218D01*
X019836Y002120D02*
X019584Y002120D01*
X019637Y002021D02*
X019795Y002021D01*
X019754Y001923D02*
X019637Y001923D01*
X019637Y001824D02*
X019713Y001824D01*
X019703Y001726D02*
X019637Y001726D01*
X020032Y000938D02*
X003201Y000938D01*
X002021Y002218D02*
X001944Y002218D01*
X001944Y002317D02*
X002120Y002317D01*
X002290Y002415D02*
X001944Y002415D01*
X013719Y010295D02*
X013750Y010295D01*
X014195Y010091D02*
X015554Y010091D01*
X014766Y007926D02*
X016097Y006595D01*
X012057Y011871D02*
X011668Y011871D01*
X011738Y012167D02*
X012016Y012167D01*
X012075Y012265D02*
X011738Y012265D01*
X011321Y012355D02*
X011321Y012768D01*
X011321Y012355D02*
X011026Y012059D01*
X010928Y012059D01*
X010534Y012768D02*
X010534Y013339D01*
X009943Y013930D01*
X009550Y013930D02*
X009550Y012768D01*
X009353Y012768D02*
X009353Y013536D01*
X008861Y014028D01*
X006707Y014028D01*
X002660Y018075D01*
X003167Y017880D02*
X007864Y017880D01*
X007822Y017781D02*
X003265Y017781D01*
X003364Y017683D02*
X007781Y017683D01*
X007779Y017584D02*
X003462Y017584D01*
X003561Y017486D02*
X007779Y017486D01*
X007811Y017387D02*
X003659Y017387D01*
X003758Y017289D02*
X007852Y017289D01*
X007885Y017190D02*
X003856Y017190D01*
X003955Y017092D02*
X007385Y017092D01*
X007364Y016993D02*
X004053Y016993D01*
X004152Y016895D02*
X007364Y016895D01*
X007364Y016796D02*
X004250Y016796D01*
X004349Y016698D02*
X007364Y016698D01*
X007364Y016599D02*
X004447Y016599D01*
X004546Y016501D02*
X007364Y016501D01*
X007419Y016402D02*
X004644Y016402D01*
X004743Y016304D02*
X007541Y016304D01*
X007541Y016107D02*
X004940Y016107D01*
X005038Y016008D02*
X007541Y016008D01*
X007300Y015910D02*
X005137Y015910D01*
X005235Y015811D02*
X007274Y015811D01*
X007274Y015713D02*
X005334Y015713D01*
X005432Y015614D02*
X007274Y015614D01*
X007274Y015516D02*
X005531Y015516D01*
X005629Y015417D02*
X007274Y015417D01*
X007274Y015265D02*
X007274Y014786D01*
X007284Y014747D01*
X007304Y014713D01*
X007332Y014685D01*
X007366Y014666D01*
X007404Y014655D01*
X007649Y014655D01*
X007649Y015265D01*
X007274Y015265D01*
X007274Y015220D02*
X005826Y015220D01*
X005925Y015122D02*
X007274Y015122D01*
X007274Y015023D02*
X006023Y015023D01*
X006122Y014925D02*
X007274Y014925D01*
X007274Y014826D02*
X006220Y014826D01*
X006319Y014728D02*
X007296Y014728D01*
X007649Y014728D02*
X007749Y014728D01*
X007749Y014826D02*
X007649Y014826D01*
X007649Y014925D02*
X007749Y014925D01*
X007749Y015023D02*
X007649Y015023D01*
X007649Y015122D02*
X007749Y015122D01*
X007749Y015220D02*
X007649Y015220D01*
X007649Y015319D02*
X005728Y015319D01*
X004841Y016205D02*
X007840Y016205D01*
X008153Y015811D02*
X008254Y015811D01*
X008124Y015713D02*
X008514Y015713D01*
X008514Y015614D02*
X008124Y015614D01*
X008124Y015516D02*
X008514Y015516D01*
X008514Y015417D02*
X008124Y015417D01*
X008124Y015220D02*
X008514Y015220D01*
X008514Y015122D02*
X008124Y015122D01*
X008124Y015023D02*
X008514Y015023D01*
X008514Y014925D02*
X008124Y014925D01*
X008124Y014826D02*
X008514Y014826D01*
X008521Y014728D02*
X008102Y014728D01*
X007749Y015319D02*
X008514Y015319D01*
X008557Y016162D02*
X008597Y016201D01*
X008597Y016764D01*
X008333Y017327D02*
X008333Y017557D01*
X008319Y017571D01*
X008333Y017327D02*
X007770Y016764D01*
X008656Y017571D02*
X008660Y017575D01*
X007962Y017978D02*
X003200Y017978D01*
X003065Y018766D02*
X007836Y018766D01*
X007890Y018865D02*
X003215Y018865D01*
X003314Y018963D02*
X007976Y018963D01*
X008146Y019062D02*
X007393Y019062D01*
X007520Y019160D02*
X008001Y019160D01*
X007904Y019259D02*
X007604Y019259D01*
X007645Y019357D02*
X007845Y019357D01*
X007811Y019456D02*
X007676Y019456D01*
X006880Y019062D02*
X006393Y019062D01*
X006520Y019160D02*
X006752Y019160D01*
X006668Y019259D02*
X006604Y019259D01*
X006633Y019751D02*
X006639Y019751D01*
X006682Y019850D02*
X006590Y019850D01*
X006492Y019948D02*
X006781Y019948D01*
X006949Y020047D02*
X006324Y020047D01*
X005949Y020047D02*
X005324Y020047D01*
X005492Y019948D02*
X005781Y019948D01*
X005682Y019850D02*
X005590Y019850D01*
X005633Y019751D02*
X005639Y019751D01*
X005668Y019259D02*
X005604Y019259D01*
X005520Y019160D02*
X005752Y019160D01*
X005880Y019062D02*
X005393Y019062D01*
X004880Y019062D02*
X004638Y019062D01*
X004676Y019160D02*
X004752Y019160D01*
X004682Y019850D02*
X004676Y019850D01*
X004676Y019948D02*
X004781Y019948D01*
X004949Y020047D02*
X004610Y020047D01*
X003663Y020047D02*
X003383Y020047D01*
X003432Y019948D02*
X003596Y019948D01*
X003596Y019850D02*
X003473Y019850D01*
X003514Y019751D02*
X003596Y019751D01*
X003596Y019653D02*
X003530Y019653D01*
X003530Y019554D02*
X003596Y019554D01*
X003596Y019456D02*
X003530Y019456D01*
X003526Y019357D02*
X003596Y019357D01*
X003596Y019259D02*
X003485Y019259D01*
X003444Y019160D02*
X003596Y019160D01*
X003634Y019062D02*
X003403Y019062D01*
X002660Y017075D02*
X005904Y013831D01*
X008762Y013831D01*
X009156Y013437D01*
X009156Y012768D01*
X008959Y012768D02*
X008959Y013339D01*
X008664Y013634D01*
X005101Y013634D01*
X002660Y016075D01*
X002660Y015075D02*
X004298Y013437D01*
X008565Y013437D01*
X008762Y013241D01*
X008762Y012768D01*
X009746Y012847D02*
X009746Y013536D01*
X009943Y013536D02*
X009943Y012847D01*
X010140Y012847D02*
X010140Y013388D01*
X010337Y013241D02*
X010337Y013142D01*
X010337Y013093D01*
X010337Y012748D01*
X010638Y013546D02*
X010708Y013546D01*
X010725Y013644D02*
X010540Y013644D01*
X010441Y013743D02*
X010823Y013743D01*
X010567Y014334D02*
X009275Y014334D01*
X009320Y014137D02*
X009063Y014137D01*
X009162Y014038D02*
X009260Y014038D01*
X012306Y013241D02*
X012306Y012945D01*
X012306Y012768D02*
X012306Y012059D01*
X012896Y012768D02*
X012896Y013930D01*
X012994Y014028D01*
X008054Y011666D02*
X006794Y011666D01*
X005908Y012552D01*
X004174Y013250D02*
X003796Y013250D01*
X003698Y013349D02*
X004075Y013349D01*
X003977Y013447D02*
X003599Y013447D01*
X003501Y013546D02*
X003878Y013546D01*
X003780Y013644D02*
X003402Y013644D01*
X003304Y013743D02*
X003681Y013743D01*
X003583Y013841D02*
X003205Y013841D01*
X003188Y013940D02*
X003484Y013940D01*
X003386Y014038D02*
X003200Y014038D01*
X003200Y014137D02*
X003287Y014137D01*
X003189Y014235D02*
X003178Y014235D01*
D32*
X008319Y017571D02*
X008656Y017571D01*
X008660Y017575D02*
X008959Y017276D01*
X009057Y017178D01*
X009057Y015414D01*
X009156Y014914D02*
X009156Y014619D01*
X008959Y017276D02*
X008959Y019835D01*
X009254Y020130D01*
X014585Y020130D01*
X015176Y019540D01*
X015160Y019540D01*
X015176Y019540D02*
X016199Y018516D01*
X016386Y018516D02*
X016390Y018512D01*
X016390Y018162D01*
X016685Y017867D01*
X016685Y017030D01*
X017374Y016341D01*
X018113Y016341D01*
X018387Y016067D01*
X018437Y016067D01*
X018428Y008615D02*
X017817Y008615D01*
X017916Y007630D02*
X018014Y007532D01*
D33*
X018014Y007532D03*
X017817Y008615D03*
X015061Y006646D03*
X013585Y007237D03*
X013191Y007335D03*
X013388Y007630D03*
X013487Y008024D03*
X012798Y007532D03*
X012404Y007532D03*
X012010Y007630D03*
X011617Y007532D03*
X011223Y007237D03*
X010337Y007237D03*
X009746Y007532D03*
X008959Y007827D03*
X009451Y008615D03*
X008861Y010091D03*
X008762Y010583D03*
X008861Y010977D03*
X008959Y011469D03*
X008664Y011764D03*
X007975Y012748D03*
X009550Y013930D03*
X009943Y013930D03*
X009156Y014619D03*
X010534Y015800D03*
X011124Y016292D03*
X011617Y016292D03*
X012994Y014028D03*
X013683Y013733D03*
X014471Y013634D03*
X013782Y012748D03*
X013290Y012059D03*
X012699Y012059D03*
X012306Y012059D03*
X011813Y012059D03*
X011420Y012059D03*
X010928Y012059D03*
X012404Y013536D03*
X015406Y015996D03*
X016193Y015258D03*
X017128Y016046D03*
X019097Y017522D03*
X017424Y014323D03*
X016243Y013044D03*
X012994Y010485D03*
X013487Y010091D03*
X013388Y009304D03*
X013388Y008713D03*
X012798Y008811D03*
X010632Y010583D03*
X004924Y006252D03*
X004924Y004973D03*
X006892Y003792D03*
X013093Y005465D03*
X013437Y005760D03*
X013683Y005367D03*
X014520Y017374D03*
X014963Y017374D03*
X014668Y018162D03*
X013930Y018457D03*
X003496Y018556D03*
D34*
X013974Y017871D02*
X013979Y017867D01*
X013974Y017862D01*
X013974Y017276D01*
X014884Y016825D02*
X014884Y016727D01*
X014353Y016196D01*
X017134Y018516D02*
X017250Y018534D01*
M02*
