G75*
G70*
%OFA0B0*%
%FSLAX24Y24*%
%IPPOS*%
%LPD*%
%AMOC8*
5,1,8,0,0,1.08239X$1,22.5*
%
%ADD10C,0.0000*%
%ADD11C,0.0030*%
%ADD12C,0.0079*%
%ADD13C,0.0100*%
%ADD14C,0.0070*%
%ADD15C,0.0040*%
%ADD16C,0.0060*%
%ADD17C,0.0160*%
%ADD18R,0.0230X0.0160*%
%ADD19R,0.0472X0.0118*%
%ADD20R,0.0560X0.0140*%
%ADD21R,0.0140X0.0560*%
D10*
X001774Y000741D02*
X001774Y020426D01*
X021459Y020426D01*
X021459Y000741D01*
X001774Y000741D01*
X010377Y018063D02*
X010379Y018089D01*
X010385Y018115D01*
X010395Y018140D01*
X010408Y018163D01*
X010424Y018183D01*
X010444Y018201D01*
X010466Y018216D01*
X010489Y018228D01*
X010515Y018236D01*
X010541Y018240D01*
X010567Y018240D01*
X010593Y018236D01*
X010619Y018228D01*
X010643Y018216D01*
X010664Y018201D01*
X010684Y018183D01*
X010700Y018163D01*
X010713Y018140D01*
X010723Y018115D01*
X010729Y018089D01*
X010731Y018063D01*
X010729Y018037D01*
X010723Y018011D01*
X010713Y017986D01*
X010700Y017963D01*
X010684Y017943D01*
X010664Y017925D01*
X010642Y017910D01*
X010619Y017898D01*
X010593Y017890D01*
X010567Y017886D01*
X010541Y017886D01*
X010515Y017890D01*
X010489Y017898D01*
X010465Y017910D01*
X010444Y017925D01*
X010424Y017943D01*
X010408Y017963D01*
X010395Y017986D01*
X010385Y018011D01*
X010379Y018037D01*
X010377Y018063D01*
X012109Y018063D02*
X012111Y018089D01*
X012117Y018115D01*
X012127Y018140D01*
X012140Y018163D01*
X012156Y018183D01*
X012176Y018201D01*
X012198Y018216D01*
X012221Y018228D01*
X012247Y018236D01*
X012273Y018240D01*
X012299Y018240D01*
X012325Y018236D01*
X012351Y018228D01*
X012375Y018216D01*
X012396Y018201D01*
X012416Y018183D01*
X012432Y018163D01*
X012445Y018140D01*
X012455Y018115D01*
X012461Y018089D01*
X012463Y018063D01*
X012461Y018037D01*
X012455Y018011D01*
X012445Y017986D01*
X012432Y017963D01*
X012416Y017943D01*
X012396Y017925D01*
X012374Y017910D01*
X012351Y017898D01*
X012325Y017890D01*
X012299Y017886D01*
X012273Y017886D01*
X012247Y017890D01*
X012221Y017898D01*
X012197Y017910D01*
X012176Y017925D01*
X012156Y017943D01*
X012140Y017963D01*
X012127Y017986D01*
X012117Y018011D01*
X012111Y018037D01*
X012109Y018063D01*
D11*
X014067Y018078D02*
X014116Y018029D01*
X014309Y018029D01*
X014357Y018078D01*
X014357Y018174D01*
X014309Y018223D01*
X014212Y018223D01*
X014212Y018126D01*
X014116Y018223D02*
X014067Y018174D01*
X014067Y018078D01*
X014067Y018324D02*
X014357Y018517D01*
X014067Y018517D01*
X014067Y018618D02*
X014067Y018764D01*
X014116Y018812D01*
X014309Y018812D01*
X014357Y018764D01*
X014357Y018618D01*
X014067Y018618D01*
X014067Y018324D02*
X014357Y018324D01*
X015051Y018272D02*
X015100Y018320D01*
X015148Y018320D01*
X015197Y018272D01*
X015245Y018320D01*
X015293Y018320D01*
X015342Y018272D01*
X015342Y018175D01*
X015293Y018127D01*
X015197Y018224D02*
X015197Y018272D01*
X015051Y018272D02*
X015051Y018175D01*
X015100Y018127D01*
X015197Y018026D02*
X015197Y017832D01*
X015293Y017929D02*
X015100Y017929D01*
X015470Y017582D02*
X015470Y017534D01*
X015518Y017485D01*
X015615Y017485D01*
X015664Y017437D01*
X015664Y017389D01*
X015615Y017340D01*
X015518Y017340D01*
X015470Y017389D01*
X015470Y017582D02*
X015518Y017630D01*
X015615Y017630D01*
X015664Y017582D01*
X015765Y017534D02*
X015910Y017534D01*
X015958Y017485D01*
X015958Y017389D01*
X015910Y017340D01*
X015765Y017340D01*
X015765Y017243D02*
X015765Y017534D01*
X016059Y017534D02*
X016059Y017389D01*
X016108Y017340D01*
X016253Y017340D01*
X016253Y017292D02*
X016205Y017243D01*
X016156Y017243D01*
X016253Y017292D02*
X016253Y017534D01*
X016649Y017485D02*
X016794Y017485D01*
X016842Y017437D01*
X016842Y017389D01*
X016794Y017340D01*
X016649Y017340D01*
X016649Y017630D01*
X016794Y017630D01*
X016842Y017582D01*
X016842Y017534D01*
X016794Y017485D01*
X016943Y017534D02*
X016992Y017534D01*
X016992Y017340D01*
X017040Y017340D02*
X016943Y017340D01*
X017140Y017485D02*
X017333Y017485D01*
X017434Y017340D02*
X017531Y017437D01*
X017628Y017340D01*
X017628Y017630D01*
X017729Y017534D02*
X017777Y017534D01*
X017777Y017340D01*
X017729Y017340D02*
X017826Y017340D01*
X017926Y017340D02*
X017926Y017534D01*
X018022Y017534D02*
X018071Y017534D01*
X018022Y017534D02*
X017926Y017437D01*
X017777Y017630D02*
X017777Y017679D01*
X017434Y017630D02*
X017434Y017340D01*
X016992Y017630D02*
X016992Y017679D01*
X017020Y018374D02*
X017020Y018519D01*
X017068Y018567D01*
X017165Y018567D01*
X017213Y018519D01*
X017213Y018374D01*
X017213Y018470D02*
X017310Y018567D01*
X017310Y018668D02*
X017020Y018862D01*
X017020Y018668D02*
X017310Y018862D01*
X017310Y018374D02*
X017020Y018374D01*
X016351Y018472D02*
X016060Y018472D01*
X016060Y018568D02*
X016060Y018375D01*
X016060Y018670D02*
X016351Y018863D01*
X016351Y018670D02*
X016060Y018863D01*
X015342Y018960D02*
X015245Y019057D01*
X015051Y019057D01*
X015051Y018864D02*
X015245Y018864D01*
X015342Y018960D01*
X015293Y018762D02*
X015342Y018714D01*
X015342Y018617D01*
X015293Y018569D01*
X015293Y018470D02*
X015342Y018470D01*
X015342Y018422D01*
X015293Y018422D01*
X015293Y018470D01*
X015100Y018569D02*
X015051Y018617D01*
X015051Y018714D01*
X015100Y018762D01*
X015148Y018762D01*
X015197Y018714D01*
X015245Y018762D01*
X015293Y018762D01*
X015197Y018714D02*
X015197Y018666D01*
X018053Y018717D02*
X018053Y018910D01*
X018053Y018814D02*
X018344Y018814D01*
X018295Y018616D02*
X018344Y018567D01*
X018344Y018471D01*
X018295Y018422D01*
X018199Y018471D02*
X018199Y018567D01*
X018247Y018616D01*
X018295Y018616D01*
X018199Y018471D02*
X018150Y018422D01*
X018102Y018422D01*
X018053Y018471D01*
X018053Y018567D01*
X018102Y018616D01*
X018102Y018321D02*
X018199Y018321D01*
X018247Y018273D01*
X018247Y018128D01*
X018247Y018224D02*
X018344Y018321D01*
X018344Y018128D02*
X018053Y018128D01*
X018053Y018273D01*
X018102Y018321D01*
X019038Y018370D02*
X019038Y018176D01*
X019328Y018176D01*
X019328Y018370D01*
X019280Y018471D02*
X019328Y018519D01*
X019328Y018616D01*
X019280Y018664D01*
X019231Y018664D01*
X019183Y018616D01*
X019183Y018519D01*
X019134Y018471D01*
X019086Y018471D01*
X019038Y018519D01*
X019038Y018616D01*
X019086Y018664D01*
X019038Y018765D02*
X019038Y018959D01*
X019038Y018862D02*
X019328Y018862D01*
X019183Y018273D02*
X019183Y018176D01*
X019038Y018075D02*
X019038Y017882D01*
X019038Y017978D02*
X019328Y017978D01*
X019359Y017655D02*
X019310Y017607D01*
X019310Y017558D01*
X019359Y017510D01*
X019504Y017510D01*
X019504Y017413D02*
X019504Y017607D01*
X019455Y017655D01*
X019359Y017655D01*
X019209Y017607D02*
X019209Y017510D01*
X019161Y017462D01*
X019016Y017462D01*
X019016Y017365D02*
X019016Y017655D01*
X019161Y017655D01*
X019209Y017607D01*
X019310Y017413D02*
X019359Y017365D01*
X019455Y017365D01*
X019504Y017413D01*
X019605Y017413D02*
X019653Y017413D01*
X019653Y017365D01*
X019605Y017365D01*
X019605Y017413D01*
X019752Y017413D02*
X019752Y017365D01*
X019752Y017413D02*
X019946Y017607D01*
X019946Y017655D01*
X019752Y017655D01*
X019946Y017065D02*
X019849Y017016D01*
X019752Y016919D01*
X019897Y016919D01*
X019946Y016871D01*
X019946Y016823D01*
X019897Y016774D01*
X019801Y016774D01*
X019752Y016823D01*
X019752Y016919D01*
X019653Y016823D02*
X019653Y016774D01*
X019605Y016774D01*
X019605Y016823D01*
X019653Y016823D01*
X019504Y016823D02*
X019455Y016774D01*
X019359Y016774D01*
X019310Y016823D01*
X019359Y016919D02*
X019310Y016968D01*
X019310Y017016D01*
X019359Y017065D01*
X019455Y017065D01*
X019504Y017016D01*
X019504Y016823D01*
X019504Y016919D02*
X019359Y016919D01*
X019209Y016919D02*
X019209Y017016D01*
X019161Y017065D01*
X019016Y017065D01*
X019016Y016774D01*
X019016Y016871D02*
X019161Y016871D01*
X019209Y016919D01*
X018316Y017340D02*
X018219Y017340D01*
X018171Y017389D01*
X018171Y017485D01*
X018219Y017534D01*
X018316Y017534D01*
X018365Y017485D01*
X018365Y017437D01*
X018171Y017437D01*
X019016Y016130D02*
X019161Y016130D01*
X019209Y016081D01*
X019209Y015984D01*
X019161Y015936D01*
X019016Y015936D01*
X019016Y015839D02*
X019016Y016130D01*
X019310Y016081D02*
X019310Y016033D01*
X019359Y015984D01*
X019504Y015984D01*
X019504Y015888D02*
X019504Y016081D01*
X019455Y016130D01*
X019359Y016130D01*
X019310Y016081D01*
X019310Y015888D02*
X019359Y015839D01*
X019455Y015839D01*
X019504Y015888D01*
X019605Y015888D02*
X019653Y015888D01*
X019653Y015839D01*
X019605Y015839D01*
X019605Y015888D01*
X019752Y015888D02*
X019801Y015839D01*
X019897Y015839D01*
X019946Y015888D01*
X019946Y015984D01*
X019897Y016033D01*
X019849Y016033D01*
X019752Y015984D01*
X019752Y016130D01*
X019946Y016130D01*
X019897Y015145D02*
X019752Y015000D01*
X019946Y015000D01*
X019897Y014855D02*
X019897Y015145D01*
X019653Y014903D02*
X019605Y014903D01*
X019605Y014855D01*
X019653Y014855D01*
X019653Y014903D01*
X019504Y014903D02*
X019504Y015097D01*
X019455Y015145D01*
X019359Y015145D01*
X019310Y015097D01*
X019310Y015049D01*
X019359Y015000D01*
X019504Y015000D01*
X019504Y014903D02*
X019455Y014855D01*
X019359Y014855D01*
X019310Y014903D01*
X019209Y015000D02*
X019161Y014952D01*
X019016Y014952D01*
X019016Y014855D02*
X019016Y015145D01*
X019161Y015145D01*
X019209Y015097D01*
X019209Y015000D01*
X019161Y014161D02*
X019016Y014161D01*
X019016Y013871D01*
X019016Y013968D02*
X019161Y013968D01*
X019209Y014016D01*
X019209Y014113D01*
X019161Y014161D01*
X019310Y014113D02*
X019310Y014064D01*
X019359Y014016D01*
X019504Y014016D01*
X019504Y014113D02*
X019455Y014161D01*
X019359Y014161D01*
X019310Y014113D01*
X019504Y014113D02*
X019504Y013919D01*
X019455Y013871D01*
X019359Y013871D01*
X019310Y013919D01*
X019605Y013919D02*
X019653Y013919D01*
X019653Y013871D01*
X019605Y013871D01*
X019605Y013919D01*
X019752Y013919D02*
X019801Y013871D01*
X019897Y013871D01*
X019946Y013919D01*
X019946Y013968D01*
X019897Y014016D01*
X019849Y014016D01*
X019897Y014016D02*
X019946Y014064D01*
X019946Y014113D01*
X019897Y014161D01*
X019801Y014161D01*
X019752Y014113D01*
X019801Y013177D02*
X019752Y013128D01*
X019801Y013177D02*
X019897Y013177D01*
X019946Y013128D01*
X019946Y013080D01*
X019752Y012887D01*
X019946Y012887D01*
X019653Y012887D02*
X019653Y012935D01*
X019605Y012935D01*
X019605Y012887D01*
X019653Y012887D01*
X019504Y012935D02*
X019504Y013128D01*
X019455Y013177D01*
X019359Y013177D01*
X019310Y013128D01*
X019310Y013080D01*
X019359Y013032D01*
X019504Y013032D01*
X019504Y012935D02*
X019455Y012887D01*
X019359Y012887D01*
X019310Y012935D01*
X019209Y013032D02*
X019161Y012983D01*
X019016Y012983D01*
X019016Y012887D02*
X019016Y013177D01*
X019161Y013177D01*
X019209Y013128D01*
X019209Y013032D01*
X019161Y012193D02*
X019016Y012193D01*
X019016Y011902D01*
X019016Y011999D02*
X019161Y011999D01*
X019209Y012047D01*
X019209Y012144D01*
X019161Y012193D01*
X019310Y012144D02*
X019310Y012096D01*
X019359Y012047D01*
X019504Y012047D01*
X019504Y011951D02*
X019504Y012144D01*
X019455Y012193D01*
X019359Y012193D01*
X019310Y012144D01*
X019310Y011951D02*
X019359Y011902D01*
X019455Y011902D01*
X019504Y011951D01*
X019605Y011951D02*
X019653Y011951D01*
X019653Y011902D01*
X019605Y011902D01*
X019605Y011951D01*
X019752Y011902D02*
X019946Y011902D01*
X019849Y011902D02*
X019849Y012193D01*
X019752Y012096D01*
X019801Y011159D02*
X019897Y011159D01*
X019946Y011111D01*
X019752Y010917D01*
X019801Y010869D01*
X019897Y010869D01*
X019946Y010917D01*
X019946Y011111D01*
X019801Y011159D02*
X019752Y011111D01*
X019752Y010917D01*
X019653Y010917D02*
X019653Y010869D01*
X019605Y010869D01*
X019605Y010917D01*
X019653Y010917D01*
X019504Y010917D02*
X019504Y011111D01*
X019455Y011159D01*
X019359Y011159D01*
X019310Y011111D01*
X019310Y011062D01*
X019359Y011014D01*
X019504Y011014D01*
X019504Y010917D02*
X019455Y010869D01*
X019359Y010869D01*
X019310Y010917D01*
X019209Y011014D02*
X019161Y010966D01*
X019016Y010966D01*
X019016Y010869D02*
X019016Y011159D01*
X019161Y011159D01*
X019209Y011111D01*
X019209Y011014D01*
X019260Y009387D02*
X019212Y009339D01*
X019212Y009146D01*
X019260Y009097D01*
X019357Y009097D01*
X019405Y009146D01*
X019405Y009339D01*
X019357Y009387D01*
X019260Y009387D01*
X019111Y009339D02*
X019062Y009387D01*
X018966Y009387D01*
X018917Y009339D01*
X018917Y009291D01*
X018966Y009242D01*
X019062Y009242D01*
X019111Y009194D01*
X019111Y009146D01*
X019062Y009097D01*
X018966Y009097D01*
X018917Y009146D01*
X018816Y009097D02*
X018623Y009097D01*
X018719Y009097D02*
X018719Y009387D01*
X018623Y009291D01*
X018521Y009291D02*
X018473Y009242D01*
X018328Y009242D01*
X018227Y009146D02*
X018178Y009097D01*
X018082Y009097D01*
X018033Y009146D01*
X018033Y009339D01*
X018082Y009387D01*
X018178Y009387D01*
X018227Y009339D01*
X018328Y009387D02*
X018473Y009387D01*
X018521Y009339D01*
X018521Y009291D01*
X018473Y009242D02*
X018521Y009194D01*
X018521Y009146D01*
X018473Y009097D01*
X018328Y009097D01*
X018328Y009387D01*
X017932Y009387D02*
X017932Y009146D01*
X017884Y009097D01*
X017787Y009097D01*
X017739Y009146D01*
X017739Y009387D01*
X017935Y008994D02*
X017935Y008752D01*
X017983Y008703D01*
X018080Y008703D01*
X018129Y008752D01*
X018129Y008994D01*
X018230Y008945D02*
X018230Y008752D01*
X018278Y008703D01*
X018375Y008703D01*
X018423Y008752D01*
X018524Y008703D02*
X018524Y008994D01*
X018670Y008994D01*
X018718Y008945D01*
X018718Y008897D01*
X018670Y008849D01*
X018524Y008849D01*
X018423Y008945D02*
X018375Y008994D01*
X018278Y008994D01*
X018230Y008945D01*
X018524Y008703D02*
X018670Y008703D01*
X018718Y008752D01*
X018718Y008800D01*
X018670Y008849D01*
X018819Y008897D02*
X018916Y008994D01*
X018916Y008703D01*
X018819Y008703D02*
X019013Y008703D01*
X019114Y008752D02*
X019162Y008703D01*
X019259Y008703D01*
X019307Y008752D01*
X019307Y008800D01*
X019259Y008849D01*
X019162Y008849D01*
X019114Y008897D01*
X019114Y008945D01*
X019162Y008994D01*
X019259Y008994D01*
X019307Y008945D01*
X019408Y008945D02*
X019408Y008752D01*
X019457Y008703D01*
X019553Y008703D01*
X019602Y008752D01*
X019703Y008703D02*
X019703Y008994D01*
X019700Y009097D02*
X019700Y009387D01*
X019603Y009291D01*
X019507Y009387D01*
X019507Y009097D01*
X019553Y008994D02*
X019457Y008994D01*
X019408Y008945D01*
X019553Y008994D02*
X019602Y008945D01*
X019801Y009097D02*
X019898Y009097D01*
X019850Y009097D02*
X019850Y009387D01*
X019898Y009387D02*
X019801Y009387D01*
X019703Y008703D02*
X019897Y008703D01*
X019848Y008403D02*
X019897Y008355D01*
X019897Y008161D01*
X019848Y008113D01*
X019751Y008113D01*
X019703Y008161D01*
X019703Y008355D01*
X019751Y008403D01*
X019848Y008403D01*
X019602Y008403D02*
X019505Y008306D01*
X019408Y008403D01*
X019408Y008113D01*
X019309Y008113D02*
X019212Y008113D01*
X019260Y008113D02*
X019260Y008403D01*
X019212Y008403D02*
X019309Y008403D01*
X019111Y008355D02*
X019062Y008403D01*
X018966Y008403D01*
X018917Y008355D01*
X018917Y008306D01*
X018966Y008258D01*
X019062Y008258D01*
X019111Y008210D01*
X019111Y008161D01*
X019062Y008113D01*
X018966Y008113D01*
X018917Y008161D01*
X018816Y008113D02*
X018623Y008113D01*
X018719Y008113D02*
X018719Y008403D01*
X018623Y008306D01*
X018521Y008306D02*
X018473Y008258D01*
X018328Y008258D01*
X018227Y008161D02*
X018178Y008113D01*
X018082Y008113D01*
X018033Y008161D01*
X018033Y008355D01*
X018082Y008403D01*
X018178Y008403D01*
X018227Y008355D01*
X018328Y008403D02*
X018328Y008113D01*
X018473Y008113D01*
X018521Y008161D01*
X018521Y008210D01*
X018473Y008258D01*
X018521Y008306D02*
X018521Y008355D01*
X018473Y008403D01*
X018328Y008403D01*
X017932Y008403D02*
X017932Y008161D01*
X017884Y008113D01*
X017787Y008113D01*
X017739Y008161D01*
X017739Y008403D01*
X017935Y008009D02*
X017935Y007768D01*
X017983Y007719D01*
X018080Y007719D01*
X018129Y007768D01*
X018129Y008009D01*
X018230Y007961D02*
X018230Y007768D01*
X018278Y007719D01*
X018375Y007719D01*
X018423Y007768D01*
X018524Y007719D02*
X018670Y007719D01*
X018718Y007768D01*
X018718Y007816D01*
X018670Y007864D01*
X018524Y007864D01*
X018423Y007961D02*
X018375Y008009D01*
X018278Y008009D01*
X018230Y007961D01*
X018524Y008009D02*
X018670Y008009D01*
X018718Y007961D01*
X018718Y007913D01*
X018670Y007864D01*
X018819Y007913D02*
X018916Y008009D01*
X018916Y007719D01*
X018819Y007719D02*
X019013Y007719D01*
X019114Y007768D02*
X019162Y007719D01*
X019259Y007719D01*
X019307Y007768D01*
X019307Y007816D01*
X019259Y007864D01*
X019162Y007864D01*
X019114Y007913D01*
X019114Y007961D01*
X019162Y008009D01*
X019259Y008009D01*
X019307Y007961D01*
X019408Y008009D02*
X019553Y008009D01*
X019602Y007961D01*
X019602Y007768D01*
X019553Y007719D01*
X019408Y007719D01*
X019408Y008009D01*
X019602Y008113D02*
X019602Y008403D01*
X019800Y008009D02*
X019897Y007913D01*
X019897Y007719D01*
X019897Y007864D02*
X019703Y007864D01*
X019703Y007913D02*
X019800Y008009D01*
X019703Y007913D02*
X019703Y007719D01*
X019703Y007419D02*
X019703Y007129D01*
X019703Y007225D02*
X019897Y007419D01*
X019751Y007274D02*
X019897Y007129D01*
X019897Y007025D02*
X019703Y007025D01*
X019703Y006735D01*
X019897Y006735D01*
X019800Y006880D02*
X019703Y006880D01*
X019602Y007025D02*
X019408Y007025D01*
X019505Y007025D02*
X019505Y006735D01*
X019307Y006783D02*
X019259Y006735D01*
X019162Y006735D01*
X019114Y006783D01*
X019162Y006880D02*
X019259Y006880D01*
X019307Y006832D01*
X019307Y006783D01*
X019162Y006880D02*
X019114Y006928D01*
X019114Y006977D01*
X019162Y007025D01*
X019259Y007025D01*
X019307Y006977D01*
X019259Y007129D02*
X019307Y007177D01*
X019259Y007129D02*
X019162Y007129D01*
X019114Y007177D01*
X019114Y007371D01*
X019162Y007419D01*
X019259Y007419D01*
X019307Y007371D01*
X019408Y007419D02*
X019408Y007129D01*
X019602Y007129D01*
X019013Y007129D02*
X018819Y007129D01*
X018916Y007129D02*
X018916Y007419D01*
X018819Y007322D01*
X018718Y007322D02*
X018670Y007274D01*
X018524Y007274D01*
X018423Y007371D02*
X018375Y007419D01*
X018278Y007419D01*
X018230Y007371D01*
X018230Y007177D01*
X018278Y007129D01*
X018375Y007129D01*
X018423Y007177D01*
X018524Y007129D02*
X018524Y007419D01*
X018670Y007419D01*
X018718Y007371D01*
X018718Y007322D01*
X018670Y007274D02*
X018718Y007225D01*
X018718Y007177D01*
X018670Y007129D01*
X018524Y007129D01*
X018621Y007025D02*
X018718Y006928D01*
X018718Y006735D01*
X018819Y006735D02*
X019013Y006735D01*
X018916Y006735D02*
X018916Y007025D01*
X018819Y006928D01*
X018718Y006880D02*
X018524Y006880D01*
X018524Y006928D02*
X018524Y006735D01*
X018423Y006783D02*
X018375Y006735D01*
X018278Y006735D01*
X018230Y006783D01*
X018230Y006977D01*
X018278Y007025D01*
X018375Y007025D01*
X018423Y006977D01*
X018524Y006928D02*
X018621Y007025D01*
X018129Y007025D02*
X018129Y006783D01*
X018080Y006735D01*
X017983Y006735D01*
X017935Y006783D01*
X017935Y007025D01*
X017983Y007129D02*
X018080Y007129D01*
X018129Y007177D01*
X018129Y007419D01*
X017935Y007419D02*
X017935Y007177D01*
X017983Y007129D01*
X018524Y007719D02*
X018524Y008009D01*
X018424Y006435D02*
X018327Y006435D01*
X018279Y006386D01*
X018279Y006193D01*
X018327Y006144D01*
X018424Y006144D01*
X018472Y006193D01*
X018574Y006144D02*
X018574Y006338D01*
X018670Y006435D01*
X018767Y006338D01*
X018767Y006144D01*
X018868Y006144D02*
X019062Y006144D01*
X018965Y006144D02*
X018965Y006435D01*
X018868Y006338D01*
X018767Y006290D02*
X018574Y006290D01*
X018472Y006386D02*
X018424Y006435D01*
X018178Y006435D02*
X018178Y006193D01*
X018129Y006144D01*
X018033Y006144D01*
X017984Y006193D01*
X017984Y006435D01*
X017981Y006041D02*
X017981Y005799D01*
X017933Y005751D01*
X017836Y005751D01*
X017788Y005799D01*
X017788Y006041D01*
X018083Y005993D02*
X018083Y005799D01*
X018131Y005751D01*
X018228Y005751D01*
X018276Y005799D01*
X018377Y005751D02*
X018377Y005944D01*
X018474Y006041D01*
X018571Y005944D01*
X018571Y005751D01*
X018672Y005751D02*
X018865Y005751D01*
X018769Y005751D02*
X018769Y006041D01*
X018672Y005944D01*
X018571Y005896D02*
X018377Y005896D01*
X018276Y005993D02*
X018228Y006041D01*
X018131Y006041D01*
X018083Y005993D01*
X018178Y005401D02*
X018178Y005159D01*
X018129Y005111D01*
X018033Y005111D01*
X017984Y005159D01*
X017984Y005401D01*
X018279Y005353D02*
X018279Y005159D01*
X018327Y005111D01*
X018424Y005111D01*
X018472Y005159D01*
X018574Y005111D02*
X018574Y005304D01*
X018670Y005401D01*
X018767Y005304D01*
X018767Y005111D01*
X018868Y005111D02*
X019062Y005111D01*
X018965Y005111D02*
X018965Y005401D01*
X018868Y005304D01*
X018767Y005256D02*
X018574Y005256D01*
X018472Y005353D02*
X018424Y005401D01*
X018327Y005401D01*
X018279Y005353D01*
X018228Y005008D02*
X018131Y005008D01*
X018083Y004959D01*
X018083Y004766D01*
X018131Y004717D01*
X018228Y004717D01*
X018276Y004766D01*
X018377Y004717D02*
X018377Y004911D01*
X018474Y005008D01*
X018571Y004911D01*
X018571Y004717D01*
X018672Y004717D02*
X018865Y004717D01*
X018769Y004717D02*
X018769Y005008D01*
X018672Y004911D01*
X018571Y004862D02*
X018377Y004862D01*
X018276Y004959D02*
X018228Y005008D01*
X017981Y005008D02*
X017981Y004766D01*
X017933Y004717D01*
X017836Y004717D01*
X017788Y004766D01*
X017788Y005008D01*
X017754Y004832D02*
X017706Y004832D01*
X017657Y004783D01*
X017657Y004638D01*
X017754Y004638D01*
X017803Y004687D01*
X017803Y004783D01*
X017754Y004832D01*
X017561Y004735D02*
X017657Y004638D01*
X017561Y004735D02*
X017512Y004832D01*
X017754Y004539D02*
X017803Y004539D01*
X017803Y004491D01*
X017754Y004491D01*
X017754Y004539D01*
X017754Y004390D02*
X017561Y004390D01*
X017754Y004196D01*
X017803Y004245D01*
X017803Y004342D01*
X017754Y004390D01*
X017561Y004390D02*
X017512Y004342D01*
X017512Y004245D01*
X017561Y004196D01*
X017754Y004196D01*
X017754Y004095D02*
X017803Y004047D01*
X017803Y003902D01*
X017512Y003902D01*
X017512Y004047D01*
X017561Y004095D01*
X017609Y004095D01*
X017657Y004047D01*
X017657Y003902D01*
X017657Y004047D02*
X017706Y004095D01*
X017754Y004095D01*
X017984Y004023D02*
X017984Y003781D01*
X018033Y003733D01*
X018129Y003733D01*
X018178Y003781D01*
X018178Y004023D01*
X018279Y003975D02*
X018279Y003781D01*
X018327Y003733D01*
X018424Y003733D01*
X018472Y003781D01*
X018574Y003733D02*
X018574Y004023D01*
X018719Y004023D01*
X018767Y003975D01*
X018767Y003926D01*
X018719Y003878D01*
X018574Y003878D01*
X018472Y003975D02*
X018424Y004023D01*
X018327Y004023D01*
X018279Y003975D01*
X018327Y004127D02*
X018424Y004127D01*
X018472Y004175D01*
X018574Y004127D02*
X018574Y004320D01*
X018670Y004417D01*
X018767Y004320D01*
X018767Y004127D01*
X018868Y004127D02*
X019062Y004127D01*
X018965Y004127D02*
X018965Y004417D01*
X018868Y004320D01*
X018767Y004272D02*
X018574Y004272D01*
X018472Y004369D02*
X018424Y004417D01*
X018327Y004417D01*
X018279Y004369D01*
X018279Y004175D01*
X018327Y004127D01*
X018178Y004175D02*
X018178Y004417D01*
X017984Y004417D02*
X017984Y004175D01*
X018033Y004127D01*
X018129Y004127D01*
X018178Y004175D01*
X018574Y003733D02*
X018719Y003733D01*
X018767Y003781D01*
X018767Y003830D01*
X018719Y003878D01*
X018868Y003926D02*
X018965Y004023D01*
X018965Y003733D01*
X018868Y003733D02*
X019062Y003733D01*
X019163Y003781D02*
X019211Y003733D01*
X019308Y003733D01*
X019356Y003781D01*
X019356Y003830D01*
X019308Y003878D01*
X019211Y003878D01*
X019163Y003926D01*
X019163Y003975D01*
X019211Y004023D01*
X019308Y004023D01*
X019356Y003975D01*
X019458Y004023D02*
X019651Y004023D01*
X019554Y004023D02*
X019554Y003733D01*
X019752Y003733D02*
X019752Y004023D01*
X019946Y004023D01*
X019946Y004127D02*
X019801Y004272D01*
X019752Y004223D02*
X019946Y004417D01*
X019752Y004417D02*
X019752Y004127D01*
X019651Y004127D02*
X019458Y004127D01*
X019458Y004417D01*
X019356Y004369D02*
X019308Y004417D01*
X019211Y004417D01*
X019163Y004369D01*
X019163Y004175D01*
X019211Y004127D01*
X019308Y004127D01*
X019356Y004175D01*
X019752Y003878D02*
X019849Y003878D01*
X019752Y003733D02*
X019946Y003733D01*
X019946Y003236D02*
X019752Y003042D01*
X019801Y003091D02*
X019946Y002946D01*
X019752Y002946D02*
X019752Y003236D01*
X019458Y003236D02*
X019458Y002946D01*
X019651Y002946D01*
X019356Y002994D02*
X019308Y002946D01*
X019211Y002946D01*
X019163Y002994D01*
X019163Y003187D01*
X019211Y003236D01*
X019308Y003236D01*
X019356Y003187D01*
X019062Y003187D02*
X019062Y002994D01*
X019013Y002946D01*
X018917Y002946D01*
X018868Y002994D01*
X019062Y003187D01*
X019013Y003236D01*
X018917Y003236D01*
X018868Y003187D01*
X018868Y002994D01*
X018767Y002994D02*
X018767Y003042D01*
X018719Y003091D01*
X018574Y003091D01*
X018719Y003091D02*
X018767Y003139D01*
X018767Y003187D01*
X018719Y003236D01*
X018574Y003236D01*
X018574Y002946D01*
X018719Y002946D01*
X018767Y002994D01*
X018376Y002946D02*
X018376Y003236D01*
X018472Y003236D02*
X018279Y003236D01*
X017803Y003163D02*
X017754Y003211D01*
X017706Y003211D01*
X017657Y003163D01*
X017657Y003018D01*
X017754Y003018D01*
X017803Y003066D01*
X017803Y003163D01*
X017803Y003312D02*
X017512Y003506D01*
X017512Y003607D02*
X017512Y003801D01*
X017512Y003704D02*
X017803Y003704D01*
X017114Y003655D02*
X016823Y003655D01*
X016823Y003751D02*
X016823Y003558D01*
X016823Y003457D02*
X017114Y003263D01*
X017065Y003162D02*
X016968Y003162D01*
X016920Y003114D01*
X016920Y003065D01*
X016968Y002969D01*
X016823Y002969D01*
X016823Y003162D01*
X017065Y003162D02*
X017114Y003114D01*
X017114Y003017D01*
X017065Y002969D01*
X017065Y002870D02*
X017114Y002870D01*
X017114Y002821D01*
X017065Y002821D01*
X017065Y002870D01*
X016968Y002720D02*
X016968Y002527D01*
X016823Y002672D01*
X017114Y002672D01*
X016968Y002425D02*
X017017Y002377D01*
X017017Y002232D01*
X017114Y002232D02*
X016823Y002232D01*
X016823Y002377D01*
X016872Y002425D01*
X016968Y002425D01*
X017512Y002426D02*
X017512Y002281D01*
X017803Y002281D01*
X017706Y002281D02*
X017706Y002426D01*
X017657Y002475D01*
X017561Y002475D01*
X017512Y002426D01*
X017657Y002576D02*
X017512Y002721D01*
X017803Y002721D01*
X017803Y002870D02*
X017803Y002919D01*
X017754Y002919D01*
X017754Y002870D01*
X017803Y002870D01*
X017657Y002769D02*
X017657Y002576D01*
X018278Y002596D02*
X018472Y002596D01*
X018375Y002596D02*
X018375Y002306D01*
X018573Y002306D02*
X018573Y002499D01*
X018669Y002596D01*
X018766Y002499D01*
X018766Y002306D01*
X018766Y002451D02*
X018573Y002451D01*
X018867Y002451D02*
X019012Y002596D01*
X019012Y002306D01*
X019162Y002306D02*
X019210Y002306D01*
X019210Y002354D01*
X019162Y002354D01*
X019162Y002306D01*
X019309Y002306D02*
X019309Y002354D01*
X019503Y002548D01*
X019503Y002596D01*
X019309Y002596D01*
X019061Y002451D02*
X018867Y002451D01*
X017657Y003018D02*
X017561Y003115D01*
X017512Y003211D01*
X017114Y003853D02*
X016823Y003853D01*
X016823Y003998D01*
X016872Y004046D01*
X016920Y004046D01*
X016968Y003998D01*
X016968Y003853D01*
X016968Y003998D02*
X017017Y004046D01*
X017065Y004046D01*
X017114Y003998D01*
X017114Y003853D01*
X017065Y004147D02*
X016872Y004147D01*
X016823Y004196D01*
X016823Y004292D01*
X016872Y004341D01*
X017065Y004147D01*
X017114Y004196D01*
X017114Y004292D01*
X017065Y004341D01*
X016872Y004341D01*
X017065Y004442D02*
X017065Y004490D01*
X017114Y004490D01*
X017114Y004442D01*
X017065Y004442D01*
X017065Y004589D02*
X017114Y004638D01*
X017114Y004734D01*
X017065Y004783D01*
X016968Y004783D01*
X016920Y004734D01*
X016920Y004686D01*
X016968Y004589D01*
X016823Y004589D01*
X016823Y004783D01*
X016129Y004734D02*
X015839Y004734D01*
X015984Y004589D01*
X015984Y004783D01*
X016081Y004490D02*
X016129Y004490D01*
X016129Y004442D01*
X016081Y004442D01*
X016081Y004490D01*
X016081Y004341D02*
X016129Y004292D01*
X016129Y004196D01*
X016081Y004147D01*
X015887Y004341D01*
X016081Y004341D01*
X015887Y004341D02*
X015839Y004292D01*
X015839Y004196D01*
X015887Y004147D01*
X016081Y004147D01*
X016081Y004046D02*
X016129Y003998D01*
X016129Y003853D01*
X015839Y003853D01*
X015839Y003998D01*
X015887Y004046D01*
X015936Y004046D01*
X015984Y003998D01*
X015984Y003853D01*
X015984Y003998D02*
X016033Y004046D01*
X016081Y004046D01*
X015839Y003751D02*
X015839Y003558D01*
X015839Y003655D02*
X016129Y003655D01*
X015839Y003457D02*
X016129Y003263D01*
X016129Y003114D02*
X015839Y003114D01*
X015984Y002969D01*
X015984Y003162D01*
X016081Y002870D02*
X016129Y002870D01*
X016129Y002821D01*
X016081Y002821D01*
X016081Y002870D01*
X015984Y002720D02*
X015984Y002527D01*
X015839Y002672D01*
X016129Y002672D01*
X015984Y002425D02*
X016033Y002377D01*
X016033Y002232D01*
X016129Y002232D02*
X015839Y002232D01*
X015839Y002377D01*
X015887Y002425D01*
X015984Y002425D01*
X015145Y002232D02*
X014855Y002232D01*
X014855Y002377D01*
X014903Y002425D01*
X015000Y002425D01*
X015048Y002377D01*
X015048Y002232D01*
X015000Y002527D02*
X015000Y002720D01*
X015097Y002821D02*
X015097Y002870D01*
X015145Y002870D01*
X015145Y002821D01*
X015097Y002821D01*
X015097Y002969D02*
X015145Y003017D01*
X015145Y003114D01*
X015097Y003162D01*
X015048Y003162D01*
X015000Y003114D01*
X015000Y003065D01*
X015000Y003114D02*
X014952Y003162D01*
X014903Y003162D01*
X014855Y003114D01*
X014855Y003017D01*
X014903Y002969D01*
X014855Y002672D02*
X015000Y002527D01*
X015145Y002672D02*
X014855Y002672D01*
X014161Y002672D02*
X013871Y002672D01*
X014016Y002527D01*
X014016Y002720D01*
X014112Y002821D02*
X014112Y002870D01*
X014161Y002870D01*
X014161Y002821D01*
X014112Y002821D01*
X014161Y002969D02*
X013967Y003162D01*
X013919Y003162D01*
X013871Y003114D01*
X013871Y003017D01*
X013919Y002969D01*
X014161Y002969D02*
X014161Y003162D01*
X014161Y003263D02*
X013871Y003457D01*
X013871Y003558D02*
X013871Y003751D01*
X013871Y003655D02*
X014161Y003655D01*
X014161Y003853D02*
X013871Y003853D01*
X013871Y003998D01*
X013919Y004046D01*
X013967Y004046D01*
X014016Y003998D01*
X014016Y003853D01*
X014016Y003998D02*
X014064Y004046D01*
X014112Y004046D01*
X014161Y003998D01*
X014161Y003853D01*
X014112Y004147D02*
X013919Y004341D01*
X014112Y004341D01*
X014161Y004292D01*
X014161Y004196D01*
X014112Y004147D01*
X013919Y004147D01*
X013871Y004196D01*
X013871Y004292D01*
X013919Y004341D01*
X014112Y004442D02*
X014112Y004490D01*
X014161Y004490D01*
X014161Y004442D01*
X014112Y004442D01*
X014161Y004589D02*
X013967Y004783D01*
X013919Y004783D01*
X013871Y004734D01*
X013871Y004638D01*
X013919Y004589D01*
X014161Y004589D02*
X014161Y004783D01*
X014855Y004734D02*
X014855Y004638D01*
X014903Y004589D01*
X015000Y004686D02*
X015000Y004734D01*
X015048Y004783D01*
X015097Y004783D01*
X015145Y004734D01*
X015145Y004638D01*
X015097Y004589D01*
X015097Y004490D02*
X015145Y004490D01*
X015145Y004442D01*
X015097Y004442D01*
X015097Y004490D01*
X015097Y004341D02*
X015145Y004292D01*
X015145Y004196D01*
X015097Y004147D01*
X014903Y004341D01*
X015097Y004341D01*
X014903Y004341D02*
X014855Y004292D01*
X014855Y004196D01*
X014903Y004147D01*
X015097Y004147D01*
X015097Y004046D02*
X015145Y003998D01*
X015145Y003853D01*
X014855Y003853D01*
X014855Y003998D01*
X014903Y004046D01*
X014952Y004046D01*
X015000Y003998D01*
X015000Y003853D01*
X015000Y003998D02*
X015048Y004046D01*
X015097Y004046D01*
X014855Y003751D02*
X014855Y003558D01*
X014855Y003655D02*
X015145Y003655D01*
X014855Y003457D02*
X015145Y003263D01*
X014064Y002377D02*
X014064Y002232D01*
X014161Y002232D02*
X013871Y002232D01*
X013871Y002377D01*
X013919Y002425D01*
X014016Y002425D01*
X014064Y002377D01*
X013078Y002232D02*
X012788Y002232D01*
X012788Y002377D01*
X012836Y002425D01*
X012933Y002425D01*
X012981Y002377D01*
X012981Y002232D01*
X012933Y002527D02*
X012933Y002720D01*
X013030Y002821D02*
X013030Y002870D01*
X013078Y002870D01*
X013078Y002821D01*
X013030Y002821D01*
X013078Y002969D02*
X013078Y003162D01*
X013078Y003065D02*
X012788Y003065D01*
X012885Y002969D01*
X012788Y002672D02*
X012933Y002527D01*
X013078Y002672D02*
X012788Y002672D01*
X013078Y003263D02*
X012788Y003457D01*
X012788Y003558D02*
X012788Y003751D01*
X012788Y003655D02*
X013078Y003655D01*
X013078Y003853D02*
X012788Y003853D01*
X012788Y003998D01*
X012836Y004046D01*
X012885Y004046D01*
X012933Y003998D01*
X012933Y003853D01*
X012933Y003998D02*
X012981Y004046D01*
X013030Y004046D01*
X013078Y003998D01*
X013078Y003853D01*
X013030Y004147D02*
X012836Y004147D01*
X012788Y004196D01*
X012788Y004292D01*
X012836Y004341D01*
X013030Y004147D01*
X013078Y004196D01*
X013078Y004292D01*
X013030Y004341D01*
X012836Y004341D01*
X013030Y004442D02*
X013030Y004490D01*
X013078Y004490D01*
X013078Y004442D01*
X013030Y004442D01*
X013078Y004589D02*
X013078Y004783D01*
X013078Y004686D02*
X012788Y004686D01*
X012885Y004589D01*
X012094Y004638D02*
X012045Y004589D01*
X011852Y004783D01*
X012045Y004783D01*
X012094Y004734D01*
X012094Y004638D01*
X012045Y004589D02*
X011852Y004589D01*
X011804Y004638D01*
X011804Y004734D01*
X011852Y004783D01*
X012045Y004490D02*
X012094Y004490D01*
X012094Y004442D01*
X012045Y004442D01*
X012045Y004490D01*
X012045Y004341D02*
X012094Y004292D01*
X012094Y004196D01*
X012045Y004147D01*
X011852Y004341D01*
X012045Y004341D01*
X011852Y004341D02*
X011804Y004292D01*
X011804Y004196D01*
X011852Y004147D01*
X012045Y004147D01*
X012045Y004046D02*
X012094Y003998D01*
X012094Y003853D01*
X011804Y003853D01*
X011804Y003998D01*
X011852Y004046D01*
X011900Y004046D01*
X011949Y003998D01*
X011949Y003853D01*
X011949Y003998D02*
X011997Y004046D01*
X012045Y004046D01*
X011804Y003751D02*
X011804Y003558D01*
X011804Y003655D02*
X012094Y003655D01*
X011804Y003457D02*
X012094Y003263D01*
X012045Y003162D02*
X012094Y003114D01*
X012094Y003017D01*
X012045Y002969D01*
X011852Y003162D01*
X012045Y003162D01*
X011852Y003162D02*
X011804Y003114D01*
X011804Y003017D01*
X011852Y002969D01*
X012045Y002969D01*
X012045Y002870D02*
X012094Y002870D01*
X012094Y002821D01*
X012045Y002821D01*
X012045Y002870D01*
X011949Y002720D02*
X011949Y002527D01*
X011804Y002672D01*
X012094Y002672D01*
X011949Y002425D02*
X011997Y002377D01*
X011997Y002232D01*
X012094Y002232D02*
X011804Y002232D01*
X011804Y002377D01*
X011852Y002425D01*
X011949Y002425D01*
X011159Y002575D02*
X011110Y002527D01*
X011159Y002575D02*
X011159Y002672D01*
X011110Y002720D01*
X011062Y002720D01*
X011014Y002672D01*
X011014Y002623D01*
X011014Y002672D02*
X010965Y002720D01*
X010917Y002720D01*
X010869Y002672D01*
X010869Y002575D01*
X010917Y002527D01*
X010917Y002425D02*
X011014Y002425D01*
X011062Y002377D01*
X011062Y002232D01*
X011159Y002232D02*
X010869Y002232D01*
X010869Y002377D01*
X010917Y002425D01*
X011110Y002821D02*
X011110Y002870D01*
X011159Y002870D01*
X011159Y002821D01*
X011110Y002821D01*
X011110Y002969D02*
X011159Y002969D01*
X011110Y002969D02*
X010917Y003162D01*
X010869Y003162D01*
X010869Y002969D01*
X011159Y003263D02*
X010869Y003457D01*
X010869Y003558D02*
X010869Y003751D01*
X010869Y003655D02*
X011159Y003655D01*
X011159Y003853D02*
X010965Y003853D01*
X010869Y003949D01*
X010965Y004046D01*
X011159Y004046D01*
X011159Y004147D02*
X010965Y004341D01*
X010917Y004341D01*
X010869Y004292D01*
X010869Y004196D01*
X010917Y004147D01*
X011014Y004046D02*
X011014Y003853D01*
X011159Y004147D02*
X011159Y004341D01*
X011159Y004442D02*
X011159Y004490D01*
X011110Y004490D01*
X011110Y004442D01*
X011159Y004442D01*
X011159Y004589D02*
X010965Y004783D01*
X010917Y004783D01*
X010869Y004734D01*
X010869Y004638D01*
X010917Y004589D01*
X011159Y004589D02*
X011159Y004783D01*
X010125Y004783D02*
X010125Y004589D01*
X010125Y004686D02*
X009835Y004686D01*
X009932Y004589D01*
X010077Y004490D02*
X010125Y004490D01*
X010125Y004442D01*
X010077Y004442D01*
X010077Y004490D01*
X010125Y004341D02*
X010125Y004147D01*
X009932Y004341D01*
X009883Y004341D01*
X009835Y004292D01*
X009835Y004196D01*
X009883Y004147D01*
X009932Y004046D02*
X010125Y004046D01*
X009980Y004046D02*
X009980Y003853D01*
X009932Y003853D02*
X009835Y003949D01*
X009932Y004046D01*
X009932Y003853D02*
X010125Y003853D01*
X010125Y003655D02*
X009835Y003655D01*
X009835Y003751D02*
X009835Y003558D01*
X009835Y003457D02*
X010125Y003263D01*
X010077Y003162D02*
X010029Y003162D01*
X009980Y003114D01*
X009980Y002969D01*
X010077Y002969D01*
X010125Y003017D01*
X010125Y003114D01*
X010077Y003162D01*
X009883Y003065D02*
X009980Y002969D01*
X009883Y003065D02*
X009835Y003162D01*
X010077Y002870D02*
X010125Y002870D01*
X010125Y002821D01*
X010077Y002821D01*
X010077Y002870D01*
X010077Y002720D02*
X010125Y002672D01*
X010125Y002575D01*
X010077Y002527D01*
X009980Y002623D02*
X009980Y002672D01*
X010029Y002720D01*
X010077Y002720D01*
X009980Y002672D02*
X009932Y002720D01*
X009883Y002720D01*
X009835Y002672D01*
X009835Y002575D01*
X009883Y002527D01*
X009883Y002425D02*
X009980Y002425D01*
X010029Y002377D01*
X010029Y002232D01*
X010125Y002232D02*
X009835Y002232D01*
X009835Y002377D01*
X009883Y002425D01*
X009141Y002575D02*
X009093Y002527D01*
X009141Y002575D02*
X009141Y002672D01*
X009093Y002720D01*
X009044Y002720D01*
X008996Y002672D01*
X008996Y002623D01*
X008996Y002672D02*
X008948Y002720D01*
X008899Y002720D01*
X008851Y002672D01*
X008851Y002575D01*
X008899Y002527D01*
X008899Y002425D02*
X008996Y002425D01*
X009044Y002377D01*
X009044Y002232D01*
X009141Y002232D02*
X008851Y002232D01*
X008851Y002377D01*
X008899Y002425D01*
X009093Y002821D02*
X009093Y002870D01*
X009141Y002870D01*
X009141Y002821D01*
X009093Y002821D01*
X009093Y002969D02*
X009141Y003017D01*
X009141Y003114D01*
X009093Y003162D01*
X008996Y003162D01*
X008948Y003114D01*
X008948Y003065D01*
X008996Y002969D01*
X008851Y002969D01*
X008851Y003162D01*
X008851Y003457D02*
X009141Y003263D01*
X009141Y003655D02*
X008851Y003655D01*
X008851Y003751D02*
X008851Y003558D01*
X008948Y003853D02*
X008851Y003949D01*
X008948Y004046D01*
X009141Y004046D01*
X009141Y004147D02*
X008948Y004341D01*
X008899Y004341D01*
X008851Y004292D01*
X008851Y004196D01*
X008899Y004147D01*
X008996Y004046D02*
X008996Y003853D01*
X008948Y003853D02*
X009141Y003853D01*
X009141Y004147D02*
X009141Y004341D01*
X009141Y004442D02*
X009141Y004490D01*
X009093Y004490D01*
X009093Y004442D01*
X009141Y004442D01*
X009093Y004589D02*
X008899Y004589D01*
X008851Y004638D01*
X008851Y004734D01*
X008899Y004783D01*
X009093Y004589D01*
X009141Y004638D01*
X009141Y004734D01*
X009093Y004783D01*
X008899Y004783D01*
X008206Y004736D02*
X008206Y004930D01*
X008206Y005031D02*
X007916Y005031D01*
X008061Y005079D02*
X008206Y005225D01*
X008206Y005326D02*
X007916Y005519D01*
X007964Y005620D02*
X008013Y005620D01*
X008061Y005669D01*
X008061Y005766D01*
X008109Y005814D01*
X008158Y005814D01*
X008206Y005766D01*
X008206Y005669D01*
X008158Y005620D01*
X007964Y005620D02*
X007916Y005669D01*
X007916Y005766D01*
X007964Y005814D01*
X007916Y005915D02*
X008013Y006012D01*
X007916Y006109D01*
X008206Y006109D01*
X008158Y006210D02*
X008206Y006258D01*
X008206Y006355D01*
X008158Y006403D01*
X008206Y006504D02*
X007916Y006504D01*
X007964Y006403D02*
X007916Y006355D01*
X007916Y006258D01*
X007964Y006210D01*
X008158Y006210D01*
X008206Y005915D02*
X007916Y005915D01*
X008206Y006504D02*
X008206Y006698D01*
X008206Y006799D02*
X007916Y006799D01*
X008061Y006847D02*
X008206Y006993D01*
X008109Y006799D02*
X007916Y006993D01*
X007916Y005225D02*
X008109Y005031D01*
X008206Y004736D02*
X007916Y004736D01*
X007964Y004635D02*
X007916Y004587D01*
X007916Y004490D01*
X007964Y004442D01*
X008158Y004442D01*
X008206Y004490D01*
X008206Y004587D01*
X008158Y004635D01*
X008206Y004341D02*
X008206Y004147D01*
X008013Y004341D01*
X007964Y004341D01*
X007916Y004292D01*
X007916Y004196D01*
X007964Y004147D01*
X008013Y004046D02*
X008206Y004046D01*
X008061Y004046D02*
X008061Y003853D01*
X008013Y003853D02*
X007916Y003949D01*
X008013Y004046D01*
X008013Y003853D02*
X008206Y003853D01*
X008206Y003655D02*
X007916Y003655D01*
X007916Y003751D02*
X007916Y003558D01*
X007916Y003457D02*
X008206Y003263D01*
X008206Y003114D02*
X007916Y003114D01*
X008061Y002969D01*
X008061Y003162D01*
X008158Y002870D02*
X008206Y002870D01*
X008206Y002821D01*
X008158Y002821D01*
X008158Y002870D01*
X008158Y002720D02*
X008206Y002672D01*
X008206Y002575D01*
X008158Y002527D01*
X008061Y002623D02*
X008061Y002672D01*
X008109Y002720D01*
X008158Y002720D01*
X008061Y002672D02*
X008013Y002720D01*
X007964Y002720D01*
X007916Y002672D01*
X007916Y002575D01*
X007964Y002527D01*
X007964Y002425D02*
X008061Y002425D01*
X008109Y002377D01*
X008109Y002232D01*
X008206Y002232D02*
X007916Y002232D01*
X007916Y002377D01*
X007964Y002425D01*
X007271Y002575D02*
X007223Y002527D01*
X007271Y002575D02*
X007271Y002672D01*
X007223Y002720D01*
X007174Y002720D01*
X007126Y002672D01*
X007126Y002623D01*
X007126Y002672D02*
X007078Y002720D01*
X007029Y002720D01*
X006981Y002672D01*
X006981Y002575D01*
X007029Y002527D01*
X007029Y002425D02*
X007126Y002425D01*
X007174Y002377D01*
X007174Y002232D01*
X007271Y002232D02*
X006981Y002232D01*
X006981Y002377D01*
X007029Y002425D01*
X007223Y002821D02*
X007223Y002870D01*
X007271Y002870D01*
X007271Y002821D01*
X007223Y002821D01*
X007223Y002969D02*
X007271Y003017D01*
X007271Y003114D01*
X007223Y003162D01*
X007174Y003162D01*
X007126Y003114D01*
X007126Y003065D01*
X007126Y003114D02*
X007078Y003162D01*
X007029Y003162D01*
X006981Y003114D01*
X006981Y003017D01*
X007029Y002969D01*
X007271Y003263D02*
X006981Y003457D01*
X006981Y003558D02*
X006981Y003751D01*
X006981Y003655D02*
X007271Y003655D01*
X007271Y003853D02*
X007078Y003853D01*
X006981Y003949D01*
X007078Y004046D01*
X007271Y004046D01*
X007271Y004147D02*
X007271Y004341D01*
X007271Y004244D02*
X006981Y004244D01*
X007078Y004147D01*
X007126Y004046D02*
X007126Y003853D01*
X007223Y004442D02*
X007223Y004490D01*
X007271Y004490D01*
X007271Y004442D01*
X007223Y004442D01*
X007271Y004589D02*
X007078Y004783D01*
X007029Y004783D01*
X006981Y004734D01*
X006981Y004638D01*
X007029Y004589D01*
X007271Y004589D02*
X007271Y004783D01*
X006238Y004783D02*
X006238Y004589D01*
X006238Y004686D02*
X005947Y004686D01*
X006044Y004589D01*
X006189Y004490D02*
X006238Y004490D01*
X006238Y004442D01*
X006189Y004442D01*
X006189Y004490D01*
X006238Y004341D02*
X006238Y004147D01*
X006238Y004244D02*
X005947Y004244D01*
X006044Y004147D01*
X006044Y004046D02*
X006238Y004046D01*
X006092Y004046D02*
X006092Y003853D01*
X006044Y003853D02*
X006238Y003853D01*
X006044Y003853D02*
X005947Y003949D01*
X006044Y004046D01*
X005947Y003751D02*
X005947Y003558D01*
X005947Y003655D02*
X006238Y003655D01*
X005947Y003457D02*
X006238Y003263D01*
X006238Y003162D02*
X006238Y002969D01*
X006044Y003162D01*
X005996Y003162D01*
X005947Y003114D01*
X005947Y003017D01*
X005996Y002969D01*
X006189Y002870D02*
X006238Y002870D01*
X006238Y002821D01*
X006189Y002821D01*
X006189Y002870D01*
X006189Y002720D02*
X006238Y002672D01*
X006238Y002575D01*
X006189Y002527D01*
X006092Y002623D02*
X006092Y002672D01*
X006141Y002720D01*
X006189Y002720D01*
X006092Y002672D02*
X006044Y002720D01*
X005996Y002720D01*
X005947Y002672D01*
X005947Y002575D01*
X005996Y002527D01*
X005996Y002425D02*
X006092Y002425D01*
X006141Y002377D01*
X006141Y002232D01*
X006238Y002232D02*
X005947Y002232D01*
X005947Y002377D01*
X005996Y002425D01*
X005352Y002575D02*
X005303Y002527D01*
X005352Y002575D02*
X005352Y002672D01*
X005303Y002720D01*
X005255Y002720D01*
X005207Y002672D01*
X005207Y002623D01*
X005207Y002672D02*
X005158Y002720D01*
X005110Y002720D01*
X005061Y002672D01*
X005061Y002575D01*
X005110Y002527D01*
X005110Y002425D02*
X005207Y002425D01*
X005255Y002377D01*
X005255Y002232D01*
X005352Y002232D02*
X005061Y002232D01*
X005061Y002377D01*
X005110Y002425D01*
X005303Y002821D02*
X005303Y002870D01*
X005352Y002870D01*
X005352Y002821D01*
X005303Y002821D01*
X005352Y002969D02*
X005352Y003162D01*
X005352Y003065D02*
X005061Y003065D01*
X005158Y002969D01*
X005352Y003263D02*
X005061Y003457D01*
X005061Y003558D02*
X005061Y003751D01*
X005061Y003655D02*
X005352Y003655D01*
X005352Y003853D02*
X005158Y003853D01*
X005061Y003949D01*
X005158Y004046D01*
X005352Y004046D01*
X005352Y004147D02*
X005352Y004341D01*
X005352Y004244D02*
X005061Y004244D01*
X005158Y004147D01*
X005207Y004046D02*
X005207Y003853D01*
X004614Y003853D02*
X004420Y003853D01*
X004323Y003949D01*
X004420Y004046D01*
X004614Y004046D01*
X004614Y004147D02*
X004614Y004341D01*
X004614Y004244D02*
X004323Y004244D01*
X004420Y004147D01*
X004468Y004046D02*
X004468Y003853D01*
X004323Y003751D02*
X004323Y003558D01*
X004323Y003655D02*
X004614Y003655D01*
X004323Y003457D02*
X004614Y003263D01*
X004565Y003162D02*
X004614Y003114D01*
X004614Y003017D01*
X004565Y002969D01*
X004372Y003162D01*
X004565Y003162D01*
X004372Y003162D02*
X004323Y003114D01*
X004323Y003017D01*
X004372Y002969D01*
X004565Y002969D01*
X004565Y002870D02*
X004614Y002870D01*
X004614Y002821D01*
X004565Y002821D01*
X004565Y002870D01*
X004565Y002720D02*
X004614Y002672D01*
X004614Y002575D01*
X004565Y002527D01*
X004468Y002623D02*
X004468Y002672D01*
X004517Y002720D01*
X004565Y002720D01*
X004468Y002672D02*
X004420Y002720D01*
X004372Y002720D01*
X004323Y002672D01*
X004323Y002575D01*
X004372Y002527D01*
X004372Y002425D02*
X004468Y002425D01*
X004517Y002377D01*
X004517Y002232D01*
X004614Y002232D02*
X004323Y002232D01*
X004323Y002377D01*
X004372Y002425D01*
X004051Y002970D02*
X004051Y003018D01*
X004245Y003212D01*
X004245Y003260D01*
X004051Y003260D01*
X003803Y003212D02*
X003754Y003260D01*
X003658Y003260D01*
X003609Y003212D01*
X003508Y003212D02*
X003508Y003115D01*
X003460Y003067D01*
X003315Y003067D01*
X003315Y002970D02*
X003315Y003260D01*
X003460Y003260D01*
X003508Y003212D01*
X003609Y002970D02*
X003803Y003163D01*
X003803Y003212D01*
X003904Y003018D02*
X003952Y003018D01*
X003952Y002970D01*
X003904Y002970D01*
X003904Y003018D01*
X003803Y002970D02*
X003609Y002970D01*
X003609Y004003D02*
X003803Y004197D01*
X003803Y004245D01*
X003754Y004294D01*
X003658Y004294D01*
X003609Y004245D01*
X003508Y004245D02*
X003508Y004148D01*
X003460Y004100D01*
X003315Y004100D01*
X003315Y004003D02*
X003315Y004294D01*
X003460Y004294D01*
X003508Y004245D01*
X003609Y004003D02*
X003803Y004003D01*
X003904Y004003D02*
X003952Y004003D01*
X003952Y004052D01*
X003904Y004052D01*
X003904Y004003D01*
X004051Y004052D02*
X004051Y004148D01*
X004196Y004148D01*
X004245Y004100D01*
X004245Y004052D01*
X004196Y004003D01*
X004100Y004003D01*
X004051Y004052D01*
X004051Y004148D02*
X004148Y004245D01*
X004245Y004294D01*
X004372Y004442D02*
X004323Y004490D01*
X004323Y004587D01*
X004372Y004635D01*
X004323Y004736D02*
X004614Y004736D01*
X004614Y004930D01*
X004614Y005031D02*
X004323Y005031D01*
X004245Y005036D02*
X004196Y004988D01*
X004100Y004988D01*
X004051Y005036D01*
X004051Y005133D02*
X004148Y005181D01*
X004196Y005181D01*
X004245Y005133D01*
X004245Y005036D01*
X004323Y005225D02*
X004517Y005031D01*
X004468Y005079D02*
X004614Y005225D01*
X004245Y005278D02*
X004051Y005278D01*
X004051Y005133D01*
X003952Y005036D02*
X003952Y004988D01*
X003904Y004988D01*
X003904Y005036D01*
X003952Y005036D01*
X003803Y004988D02*
X003609Y004988D01*
X003803Y005181D01*
X003803Y005230D01*
X003754Y005278D01*
X003658Y005278D01*
X003609Y005230D01*
X003508Y005230D02*
X003508Y005133D01*
X003460Y005084D01*
X003315Y005084D01*
X003315Y004988D02*
X003315Y005278D01*
X003460Y005278D01*
X003508Y005230D01*
X003609Y005923D02*
X003803Y006116D01*
X003803Y006165D01*
X003754Y006213D01*
X003658Y006213D01*
X003609Y006165D01*
X003508Y006165D02*
X003508Y006068D01*
X003460Y006019D01*
X003315Y006019D01*
X003315Y005923D02*
X003315Y006213D01*
X003460Y006213D01*
X003508Y006165D01*
X003609Y005923D02*
X003803Y005923D01*
X003904Y005923D02*
X003952Y005923D01*
X003952Y005971D01*
X003904Y005971D01*
X003904Y005923D01*
X004051Y006068D02*
X004245Y006068D01*
X004196Y006213D02*
X004051Y006068D01*
X004196Y005923D02*
X004196Y006213D01*
X004196Y007005D02*
X004100Y007005D01*
X004051Y007054D01*
X003952Y007054D02*
X003952Y007005D01*
X003904Y007005D01*
X003904Y007054D01*
X003952Y007054D01*
X003803Y007005D02*
X003609Y007005D01*
X003803Y007199D01*
X003803Y007247D01*
X003754Y007296D01*
X003658Y007296D01*
X003609Y007247D01*
X003508Y007247D02*
X003508Y007150D01*
X003460Y007102D01*
X003315Y007102D01*
X003315Y007005D02*
X003315Y007296D01*
X003460Y007296D01*
X003508Y007247D01*
X004051Y007247D02*
X004100Y007296D01*
X004196Y007296D01*
X004245Y007247D01*
X004245Y007199D01*
X004196Y007150D01*
X004245Y007102D01*
X004245Y007054D01*
X004196Y007005D01*
X004196Y007150D02*
X004148Y007150D01*
X004245Y007990D02*
X004051Y007990D01*
X004245Y008183D01*
X004245Y008231D01*
X004196Y008280D01*
X004100Y008280D01*
X004051Y008231D01*
X003952Y008038D02*
X003952Y007990D01*
X003904Y007990D01*
X003904Y008038D01*
X003952Y008038D01*
X003803Y007990D02*
X003609Y007990D01*
X003803Y008183D01*
X003803Y008231D01*
X003754Y008280D01*
X003658Y008280D01*
X003609Y008231D01*
X003508Y008231D02*
X003508Y008135D01*
X003460Y008086D01*
X003315Y008086D01*
X003315Y007990D02*
X003315Y008280D01*
X003460Y008280D01*
X003508Y008231D01*
X003609Y008974D02*
X003803Y009167D01*
X003803Y009216D01*
X003754Y009264D01*
X003658Y009264D01*
X003609Y009216D01*
X003508Y009216D02*
X003508Y009119D01*
X003460Y009071D01*
X003315Y009071D01*
X003315Y008974D02*
X003315Y009264D01*
X003460Y009264D01*
X003508Y009216D01*
X003609Y008974D02*
X003803Y008974D01*
X003904Y008974D02*
X003952Y008974D01*
X003952Y009022D01*
X003904Y009022D01*
X003904Y008974D01*
X004051Y008974D02*
X004245Y008974D01*
X004148Y008974D02*
X004148Y009264D01*
X004051Y009167D01*
X004100Y009909D02*
X004051Y009957D01*
X004245Y010151D01*
X004245Y009957D01*
X004196Y009909D01*
X004100Y009909D01*
X004051Y009957D02*
X004051Y010151D01*
X004100Y010199D01*
X004196Y010199D01*
X004245Y010151D01*
X003952Y009957D02*
X003952Y009909D01*
X003904Y009909D01*
X003904Y009957D01*
X003952Y009957D01*
X003803Y009909D02*
X003609Y009909D01*
X003803Y010102D01*
X003803Y010151D01*
X003754Y010199D01*
X003658Y010199D01*
X003609Y010151D01*
X003508Y010151D02*
X003508Y010054D01*
X003460Y010006D01*
X003315Y010006D01*
X003315Y009909D02*
X003315Y010199D01*
X003460Y010199D01*
X003508Y010151D01*
X003560Y010943D02*
X003705Y010943D01*
X003754Y010991D01*
X003754Y011039D01*
X003705Y011088D01*
X003560Y011088D01*
X003459Y011184D02*
X003411Y011233D01*
X003314Y011233D01*
X003265Y011184D01*
X003265Y010991D01*
X003314Y010943D01*
X003411Y010943D01*
X003459Y010991D01*
X003560Y010943D02*
X003560Y011233D01*
X003705Y011233D01*
X003754Y011184D01*
X003754Y011136D01*
X003705Y011088D01*
X003855Y010991D02*
X003855Y010943D01*
X003855Y010991D02*
X004048Y011184D01*
X004048Y011233D01*
X003855Y011233D01*
X004149Y010943D02*
X004343Y011233D01*
X004444Y011233D02*
X004589Y011233D01*
X004637Y011184D01*
X004637Y010991D01*
X004589Y010943D01*
X004444Y010943D01*
X004444Y011233D01*
X004739Y011136D02*
X004835Y011233D01*
X004932Y011136D01*
X004932Y010943D01*
X005033Y010991D02*
X005082Y010943D01*
X005178Y010943D01*
X005227Y010991D01*
X005328Y010943D02*
X005521Y010943D01*
X005425Y010943D02*
X005425Y011233D01*
X005328Y011136D01*
X005227Y011184D02*
X005178Y011233D01*
X005082Y011233D01*
X005033Y011184D01*
X005033Y010991D01*
X004932Y011088D02*
X004739Y011088D01*
X004739Y011136D02*
X004739Y010943D01*
X005623Y010943D02*
X005816Y011233D01*
X005917Y011136D02*
X006014Y011233D01*
X006111Y011136D01*
X006111Y010943D01*
X006212Y010943D02*
X006212Y010991D01*
X006405Y011184D01*
X006405Y011233D01*
X006212Y011233D01*
X006111Y011088D02*
X005917Y011088D01*
X005917Y011136D02*
X005917Y010943D01*
X005917Y011976D02*
X005917Y012169D01*
X006014Y012266D01*
X006111Y012169D01*
X006111Y011976D01*
X006212Y012024D02*
X006260Y011976D01*
X006357Y011976D01*
X006405Y012024D01*
X006405Y012073D01*
X006357Y012121D01*
X006212Y012121D01*
X006212Y012024D01*
X006212Y012121D02*
X006309Y012218D01*
X006405Y012266D01*
X006111Y012121D02*
X005917Y012121D01*
X005816Y012266D02*
X005623Y011976D01*
X005521Y012024D02*
X005473Y011976D01*
X005376Y011976D01*
X005328Y012024D01*
X005521Y012218D01*
X005521Y012024D01*
X005328Y012024D02*
X005328Y012218D01*
X005376Y012266D01*
X005473Y012266D01*
X005521Y012218D01*
X005227Y012218D02*
X005178Y012266D01*
X005082Y012266D01*
X005033Y012218D01*
X005033Y012024D01*
X005082Y011976D01*
X005178Y011976D01*
X005227Y012024D01*
X004932Y011976D02*
X004932Y012169D01*
X004835Y012266D01*
X004739Y012169D01*
X004739Y011976D01*
X004637Y012024D02*
X004637Y012218D01*
X004589Y012266D01*
X004444Y012266D01*
X004444Y011976D01*
X004589Y011976D01*
X004637Y012024D01*
X004739Y012121D02*
X004932Y012121D01*
X004343Y012266D02*
X004149Y011976D01*
X004048Y012024D02*
X004048Y012073D01*
X004000Y012121D01*
X003855Y012121D01*
X003855Y012024D01*
X003903Y011976D01*
X004000Y011976D01*
X004048Y012024D01*
X003951Y012218D02*
X003855Y012121D01*
X003754Y012169D02*
X003705Y012121D01*
X003560Y012121D01*
X003459Y012218D02*
X003411Y012266D01*
X003314Y012266D01*
X003265Y012218D01*
X003265Y012024D01*
X003314Y011976D01*
X003411Y011976D01*
X003459Y012024D01*
X003560Y011976D02*
X003705Y011976D01*
X003754Y012024D01*
X003754Y012073D01*
X003705Y012121D01*
X003754Y012169D02*
X003754Y012218D01*
X003705Y012266D01*
X003560Y012266D01*
X003560Y011976D01*
X003951Y012218D02*
X004048Y012266D01*
X004049Y012960D02*
X003952Y012960D01*
X003904Y013008D01*
X003904Y013105D02*
X004001Y013154D01*
X004049Y013154D01*
X004097Y013105D01*
X004097Y013008D01*
X004049Y012960D01*
X004199Y012960D02*
X004392Y013250D01*
X004493Y013154D02*
X004590Y013250D01*
X004687Y013154D01*
X004687Y012960D01*
X004788Y013008D02*
X004836Y012960D01*
X004933Y012960D01*
X004981Y013008D01*
X004981Y013105D01*
X004933Y013154D01*
X004885Y013154D01*
X004788Y013105D01*
X004788Y013250D01*
X004981Y013250D01*
X004687Y013105D02*
X004493Y013105D01*
X004493Y013154D02*
X004493Y012960D01*
X004097Y013250D02*
X003904Y013250D01*
X003904Y013105D01*
X003803Y013057D02*
X003803Y013008D01*
X003754Y012960D01*
X003609Y012960D01*
X003609Y013250D01*
X003754Y013250D01*
X003803Y013202D01*
X003803Y013154D01*
X003754Y013105D01*
X003609Y013105D01*
X003508Y013008D02*
X003460Y012960D01*
X003363Y012960D01*
X003315Y013008D01*
X003315Y013202D01*
X003363Y013250D01*
X003460Y013250D01*
X003508Y013202D01*
X003754Y013105D02*
X003803Y013057D01*
X003705Y013896D02*
X003560Y013896D01*
X003560Y014186D01*
X003705Y014186D01*
X003754Y014138D01*
X003754Y014089D01*
X003705Y014041D01*
X003560Y014041D01*
X003459Y013944D02*
X003411Y013896D01*
X003314Y013896D01*
X003265Y013944D01*
X003265Y014138D01*
X003314Y014186D01*
X003411Y014186D01*
X003459Y014138D01*
X003705Y014041D02*
X003754Y013993D01*
X003754Y013944D01*
X003705Y013896D01*
X003855Y014041D02*
X004048Y014041D01*
X004000Y013896D02*
X004000Y014186D01*
X003855Y014041D01*
X004149Y013896D02*
X004343Y014186D01*
X004444Y014089D02*
X004541Y014186D01*
X004638Y014089D01*
X004638Y013896D01*
X004638Y014041D02*
X004444Y014041D01*
X004444Y014089D02*
X004444Y013896D01*
X004739Y014041D02*
X004932Y014041D01*
X004884Y013896D02*
X004884Y014186D01*
X004739Y014041D01*
X004787Y014929D02*
X004739Y014978D01*
X004787Y014929D02*
X004884Y014929D01*
X004932Y014978D01*
X004932Y015026D01*
X004884Y015075D01*
X004835Y015075D01*
X004884Y015075D02*
X004932Y015123D01*
X004932Y015171D01*
X004884Y015220D01*
X004787Y015220D01*
X004739Y015171D01*
X004638Y015123D02*
X004638Y014929D01*
X004638Y015075D02*
X004444Y015075D01*
X004444Y015123D02*
X004541Y015220D01*
X004638Y015123D01*
X004444Y015123D02*
X004444Y014929D01*
X004149Y014929D02*
X004343Y015220D01*
X004048Y015171D02*
X004048Y015123D01*
X004000Y015075D01*
X004048Y015026D01*
X004048Y014978D01*
X004000Y014929D01*
X003903Y014929D01*
X003855Y014978D01*
X003754Y014978D02*
X003705Y014929D01*
X003560Y014929D01*
X003560Y015220D01*
X003705Y015220D01*
X003754Y015171D01*
X003754Y015123D01*
X003705Y015075D01*
X003560Y015075D01*
X003459Y015171D02*
X003411Y015220D01*
X003314Y015220D01*
X003265Y015171D01*
X003265Y014978D01*
X003314Y014929D01*
X003411Y014929D01*
X003459Y014978D01*
X003705Y015075D02*
X003754Y015026D01*
X003754Y014978D01*
X003855Y015171D02*
X003903Y015220D01*
X004000Y015220D01*
X004048Y015171D01*
X004000Y015075D02*
X003952Y015075D01*
X004048Y015913D02*
X003855Y015913D01*
X004048Y016106D01*
X004048Y016155D01*
X004000Y016203D01*
X003903Y016203D01*
X003855Y016155D01*
X003754Y016155D02*
X003754Y016106D01*
X003705Y016058D01*
X003560Y016058D01*
X003459Y015961D02*
X003411Y015913D01*
X003314Y015913D01*
X003265Y015961D01*
X003265Y016155D01*
X003314Y016203D01*
X003411Y016203D01*
X003459Y016155D01*
X003560Y016203D02*
X003705Y016203D01*
X003754Y016155D01*
X003705Y016058D02*
X003754Y016010D01*
X003754Y015961D01*
X003705Y015913D01*
X003560Y015913D01*
X003560Y016203D01*
X004149Y015913D02*
X004343Y016203D01*
X004444Y016106D02*
X004541Y016203D01*
X004637Y016106D01*
X004637Y015913D01*
X004739Y015913D02*
X004932Y016106D01*
X004932Y016155D01*
X004884Y016203D01*
X004787Y016203D01*
X004739Y016155D01*
X004637Y016058D02*
X004444Y016058D01*
X004444Y016106D02*
X004444Y015913D01*
X004739Y015913D02*
X004932Y015913D01*
X004932Y016898D02*
X004739Y016898D01*
X004835Y016898D02*
X004835Y017188D01*
X004739Y017092D01*
X004638Y017092D02*
X004638Y016898D01*
X004638Y017043D02*
X004444Y017043D01*
X004444Y017092D02*
X004541Y017188D01*
X004638Y017092D01*
X004444Y017092D02*
X004444Y016898D01*
X004149Y016898D02*
X004343Y017188D01*
X004048Y016898D02*
X003855Y016898D01*
X003952Y016898D02*
X003952Y017188D01*
X003855Y017092D01*
X003754Y017092D02*
X003705Y017043D01*
X003560Y017043D01*
X003459Y016946D02*
X003411Y016898D01*
X003314Y016898D01*
X003265Y016946D01*
X003265Y017140D01*
X003314Y017188D01*
X003411Y017188D01*
X003459Y017140D01*
X003560Y017188D02*
X003560Y016898D01*
X003705Y016898D01*
X003754Y016946D01*
X003754Y016995D01*
X003705Y017043D01*
X003754Y017092D02*
X003754Y017140D01*
X003705Y017188D01*
X003560Y017188D01*
X003511Y017635D02*
X003656Y017635D01*
X003704Y017684D01*
X003704Y017732D01*
X003656Y017781D01*
X003511Y017781D01*
X003410Y017877D02*
X003361Y017926D01*
X003265Y017926D01*
X003216Y017877D01*
X003216Y017684D01*
X003265Y017635D01*
X003361Y017635D01*
X003410Y017684D01*
X003511Y017635D02*
X003511Y017926D01*
X003656Y017926D01*
X003704Y017877D01*
X003704Y017829D01*
X003656Y017781D01*
X003805Y017877D02*
X003854Y017926D01*
X003951Y017926D01*
X003999Y017877D01*
X003805Y017684D01*
X003854Y017635D01*
X003951Y017635D01*
X003999Y017684D01*
X003999Y017877D01*
X003805Y017877D02*
X003805Y017684D01*
X004100Y017635D02*
X004294Y017926D01*
X004395Y017829D02*
X004492Y017926D01*
X004588Y017829D01*
X004588Y017635D01*
X004689Y017684D02*
X004883Y017877D01*
X004883Y017684D01*
X004835Y017635D01*
X004738Y017635D01*
X004689Y017684D01*
X004689Y017877D01*
X004738Y017926D01*
X004835Y017926D01*
X004883Y017877D01*
X005061Y018029D02*
X005061Y018174D01*
X005110Y018223D01*
X005206Y018223D01*
X005255Y018174D01*
X005255Y018029D01*
X005352Y018029D02*
X005061Y018029D01*
X005061Y018324D02*
X005061Y018517D01*
X005110Y018517D01*
X005303Y018324D01*
X005352Y018324D01*
X005352Y018618D02*
X005352Y018667D01*
X005303Y018667D01*
X005303Y018618D01*
X005352Y018618D01*
X005303Y018766D02*
X005352Y018814D01*
X005352Y018911D01*
X005303Y018959D01*
X005255Y018959D01*
X005206Y018911D01*
X005206Y018766D01*
X005303Y018766D01*
X005206Y018766D02*
X005110Y018863D01*
X005061Y018959D01*
X004367Y018815D02*
X004319Y018815D01*
X004125Y019009D01*
X004077Y019009D01*
X004077Y018815D01*
X004077Y018567D02*
X004125Y018567D01*
X004319Y018373D01*
X004367Y018373D01*
X004222Y018272D02*
X004271Y018224D01*
X004271Y018078D01*
X004367Y018078D02*
X004077Y018078D01*
X004077Y018224D01*
X004125Y018272D01*
X004222Y018272D01*
X004077Y018373D02*
X004077Y018567D01*
X004319Y018668D02*
X004319Y018716D01*
X004367Y018716D01*
X004367Y018668D01*
X004319Y018668D01*
X004395Y017829D02*
X004395Y017635D01*
X004395Y017781D02*
X004588Y017781D01*
X005996Y018029D02*
X005996Y018174D01*
X006045Y018223D01*
X006141Y018223D01*
X006190Y018174D01*
X006190Y018029D01*
X006287Y018029D02*
X005996Y018029D01*
X005996Y018324D02*
X005996Y018517D01*
X006045Y018517D01*
X006238Y018324D01*
X006287Y018324D01*
X006287Y018618D02*
X006287Y018667D01*
X006238Y018667D01*
X006238Y018618D01*
X006287Y018618D01*
X006238Y018766D02*
X006287Y018814D01*
X006287Y018911D01*
X006238Y018959D01*
X006141Y018959D01*
X006093Y018911D01*
X006093Y018863D01*
X006141Y018766D01*
X005996Y018766D01*
X005996Y018959D01*
X007030Y018911D02*
X007175Y018766D01*
X007175Y018959D01*
X007320Y018911D02*
X007030Y018911D01*
X007272Y018667D02*
X007320Y018667D01*
X007320Y018618D01*
X007272Y018618D01*
X007272Y018667D01*
X007078Y018517D02*
X007272Y018324D01*
X007320Y018324D01*
X007175Y018223D02*
X007223Y018174D01*
X007223Y018029D01*
X007320Y018029D02*
X007030Y018029D01*
X007030Y018174D01*
X007078Y018223D01*
X007175Y018223D01*
X007030Y018324D02*
X007030Y018517D01*
X007078Y018517D01*
X009045Y018447D02*
X009045Y018640D01*
X009094Y018688D01*
X009239Y018688D01*
X009239Y018398D01*
X009094Y018398D01*
X009045Y018447D01*
X009340Y018398D02*
X009340Y018688D01*
X009533Y018688D02*
X009340Y018398D01*
X009533Y018398D02*
X009533Y018688D01*
X009635Y018640D02*
X009683Y018688D01*
X009780Y018688D01*
X009828Y018640D01*
X009828Y018447D01*
X009780Y018398D01*
X009683Y018398D01*
X009635Y018447D01*
X009635Y018543D01*
X009731Y018543D01*
X009830Y017704D02*
X009782Y017656D01*
X009782Y017607D01*
X009830Y017559D01*
X009782Y017511D01*
X009782Y017462D01*
X009830Y017414D01*
X009927Y017414D01*
X009975Y017462D01*
X009879Y017559D02*
X009830Y017559D01*
X009830Y017704D02*
X009927Y017704D01*
X009975Y017656D01*
X009681Y017462D02*
X009632Y017462D01*
X009632Y017414D01*
X009681Y017414D01*
X009681Y017462D01*
X009533Y017462D02*
X009485Y017414D01*
X009388Y017414D01*
X009340Y017462D01*
X009340Y017511D01*
X009388Y017559D01*
X009437Y017559D01*
X009388Y017559D02*
X009340Y017607D01*
X009340Y017656D01*
X009388Y017704D01*
X009485Y017704D01*
X009533Y017656D01*
X009239Y017704D02*
X009239Y017511D01*
X009142Y017414D01*
X009045Y017511D01*
X009045Y017704D01*
X009094Y019432D02*
X009045Y019480D01*
X009045Y019673D01*
X009094Y019722D01*
X009239Y019722D01*
X009239Y019432D01*
X009094Y019432D01*
X009340Y019432D02*
X009340Y019722D01*
X009533Y019722D02*
X009340Y019432D01*
X009533Y019432D02*
X009533Y019722D01*
X009635Y019673D02*
X009683Y019722D01*
X009780Y019722D01*
X009828Y019673D01*
X009828Y019480D01*
X009780Y019432D01*
X009683Y019432D01*
X009635Y019480D01*
X009635Y019577D01*
X009731Y019577D01*
X006828Y009166D02*
X006634Y008876D01*
X006828Y008876D02*
X006634Y009166D01*
X006533Y009166D02*
X006340Y009166D01*
X006437Y009166D02*
X006437Y008876D01*
X006239Y008876D02*
X006045Y008876D01*
X006142Y008876D02*
X006142Y009166D01*
X006239Y009069D01*
X005303Y004783D02*
X005110Y004783D01*
X005303Y004589D01*
X005352Y004638D01*
X005352Y004734D01*
X005303Y004783D01*
X005110Y004783D02*
X005061Y004734D01*
X005061Y004638D01*
X005110Y004589D01*
X005303Y004589D01*
X005303Y004490D02*
X005352Y004490D01*
X005352Y004442D01*
X005303Y004442D01*
X005303Y004490D01*
X004614Y004490D02*
X004614Y004587D01*
X004565Y004635D01*
X004614Y004490D02*
X004565Y004442D01*
X004372Y004442D01*
X014855Y004734D02*
X014903Y004783D01*
X014952Y004783D01*
X015000Y004734D01*
X018966Y004766D02*
X019015Y004717D01*
X019112Y004717D01*
X019160Y004766D01*
X019160Y004814D01*
X019112Y004862D01*
X019015Y004862D01*
X018966Y004911D01*
X018966Y004959D01*
X019015Y005008D01*
X019112Y005008D01*
X019160Y004959D01*
X019261Y005008D02*
X019358Y005008D01*
X019310Y005008D02*
X019310Y004717D01*
X019358Y004717D02*
X019261Y004717D01*
X019458Y004717D02*
X019458Y005008D01*
X019554Y004911D01*
X019651Y005008D01*
X019651Y004717D01*
X019752Y004766D02*
X019801Y004717D01*
X019897Y004717D01*
X019946Y004766D01*
X019946Y004959D01*
X019897Y005008D01*
X019801Y005008D01*
X019752Y004959D01*
X019752Y004766D01*
X019752Y005111D02*
X019897Y005111D01*
X019946Y005159D01*
X019946Y005353D01*
X019897Y005401D01*
X019752Y005401D01*
X019752Y005111D01*
X019651Y005111D02*
X019458Y005401D01*
X019356Y005401D02*
X019163Y005401D01*
X019260Y005401D02*
X019260Y005111D01*
X019458Y005111D02*
X019651Y005401D01*
X019556Y005751D02*
X019556Y006041D01*
X019653Y005944D01*
X019749Y006041D01*
X019749Y005751D01*
X019850Y005751D02*
X019947Y005751D01*
X019899Y005751D02*
X019899Y006041D01*
X019947Y006041D02*
X019850Y006041D01*
X019897Y006144D02*
X019946Y006193D01*
X019946Y006386D01*
X019897Y006435D01*
X019752Y006435D01*
X019752Y006144D01*
X019897Y006144D01*
X019651Y006144D02*
X019458Y006435D01*
X019356Y006386D02*
X019356Y006290D01*
X019308Y006241D01*
X019163Y006241D01*
X019163Y006144D02*
X019163Y006435D01*
X019308Y006435D01*
X019356Y006386D01*
X019260Y006241D02*
X019356Y006144D01*
X019458Y006144D02*
X019651Y006435D01*
X019406Y006041D02*
X019455Y005993D01*
X019455Y005799D01*
X019406Y005751D01*
X019310Y005751D01*
X019261Y005799D01*
X019261Y005993D01*
X019310Y006041D01*
X019406Y006041D01*
X019160Y005993D02*
X019112Y006041D01*
X019015Y006041D01*
X018966Y005993D01*
X018966Y005944D01*
X019015Y005896D01*
X019112Y005896D01*
X019160Y005847D01*
X019160Y005799D01*
X019112Y005751D01*
X019015Y005751D01*
X018966Y005799D01*
D12*
X005908Y008959D02*
X005662Y008959D01*
X005416Y009205D01*
X005613Y009205D01*
X005416Y009205D02*
X005416Y009008D01*
D13*
X014126Y017768D02*
X013930Y017965D01*
X014126Y017768D02*
X019195Y017768D01*
X019392Y017965D01*
D14*
X014928Y016133D02*
X014928Y015342D01*
X014928Y015606D02*
X014401Y016133D01*
X014136Y016133D02*
X013609Y016133D01*
X013873Y016133D02*
X013873Y015342D01*
X014401Y015342D02*
X014796Y015738D01*
X013344Y015474D02*
X013212Y015342D01*
X012949Y015342D01*
X012817Y015474D01*
X012817Y016133D01*
X012552Y015738D02*
X012025Y015738D01*
X011760Y016133D02*
X011365Y016133D01*
X011233Y016001D01*
X011233Y015474D01*
X011365Y015342D01*
X011760Y015342D01*
X011760Y016133D01*
X010969Y016001D02*
X010969Y015870D01*
X010837Y015738D01*
X010573Y015738D01*
X010441Y015606D01*
X010441Y015474D01*
X010573Y015342D01*
X010837Y015342D01*
X010969Y015474D01*
X010177Y015342D02*
X010177Y016133D01*
X009781Y016133D01*
X009650Y016001D01*
X009650Y015738D01*
X009781Y015606D01*
X010177Y015606D01*
X010441Y016001D02*
X010573Y016133D01*
X010837Y016133D01*
X010969Y016001D01*
X009385Y016133D02*
X009385Y015342D01*
X008858Y015342D01*
X008593Y015342D02*
X008593Y015870D01*
X008329Y016133D01*
X008066Y015870D01*
X008066Y015342D01*
X007801Y015342D02*
X007406Y015342D01*
X007274Y015474D01*
X007274Y015606D01*
X007406Y015738D01*
X007801Y015738D01*
X008066Y015738D02*
X008593Y015738D01*
X007801Y015342D02*
X007801Y016133D01*
X007406Y016133D01*
X007274Y016001D01*
X007274Y015870D01*
X007406Y015738D01*
X013344Y015474D02*
X013344Y016133D01*
D15*
X012728Y013633D02*
X012555Y013460D01*
X012381Y013633D01*
X012381Y013113D01*
X012362Y012968D02*
X012276Y012968D01*
X012362Y012968D02*
X012536Y012794D01*
X012705Y012794D02*
X013052Y012794D01*
X013052Y012708D02*
X013052Y012881D01*
X012965Y012968D01*
X012791Y012968D01*
X012705Y012881D01*
X012705Y012794D01*
X012791Y012621D02*
X012965Y012621D01*
X013052Y012708D01*
X013220Y012708D02*
X013307Y012621D01*
X013567Y012621D01*
X013736Y012621D02*
X014083Y012968D01*
X014252Y013141D02*
X014599Y013141D01*
X014599Y012621D01*
X014252Y012621D01*
X014083Y012621D02*
X013736Y012968D01*
X013567Y012968D02*
X013307Y012968D01*
X013220Y012881D01*
X013220Y012708D01*
X013567Y012968D02*
X013567Y012447D01*
X014425Y012881D02*
X014599Y012881D01*
X012728Y013113D02*
X012728Y013633D01*
X012213Y013547D02*
X012213Y013460D01*
X012126Y013373D01*
X011953Y013373D01*
X011866Y013286D01*
X011866Y013200D01*
X011953Y013113D01*
X012126Y013113D01*
X012213Y013200D01*
X012020Y013228D02*
X012020Y013141D01*
X012020Y012968D02*
X012020Y012621D01*
X012106Y012621D02*
X011933Y012621D01*
X011762Y012621D02*
X011762Y012968D01*
X011676Y012968D01*
X011589Y012881D01*
X011502Y012968D01*
X011416Y012881D01*
X011416Y012621D01*
X011589Y012621D02*
X011589Y012881D01*
X011697Y013113D02*
X011697Y013633D01*
X011437Y013633D01*
X011350Y013547D01*
X011350Y013373D01*
X011437Y013286D01*
X011697Y013286D01*
X011866Y013547D02*
X011953Y013633D01*
X012126Y013633D01*
X012213Y013547D01*
X012106Y012968D02*
X012020Y012968D01*
X012536Y012968D02*
X012536Y012621D01*
X011247Y012708D02*
X011160Y012621D01*
X010987Y012621D01*
X010900Y012794D02*
X011247Y012794D01*
X011247Y012708D02*
X011247Y012881D01*
X011160Y012968D01*
X010987Y012968D01*
X010900Y012881D01*
X010900Y012794D01*
X010731Y012621D02*
X010731Y012968D01*
X010471Y012968D01*
X010384Y012881D01*
X010384Y012621D01*
X010129Y012708D02*
X010042Y012621D01*
X010129Y012708D02*
X010129Y013054D01*
X010063Y013113D02*
X010150Y013200D01*
X009803Y013547D01*
X009803Y013200D01*
X009890Y013113D01*
X010063Y013113D01*
X010150Y013200D02*
X010150Y013547D01*
X010063Y013633D01*
X009890Y013633D01*
X009803Y013547D01*
X010319Y013547D02*
X010319Y013460D01*
X010406Y013373D01*
X010319Y013286D01*
X010319Y013200D01*
X010406Y013113D01*
X010579Y013113D01*
X010666Y013200D01*
X010835Y013373D02*
X011182Y013373D01*
X010921Y013633D01*
X010921Y013113D01*
X010492Y013373D02*
X010406Y013373D01*
X010319Y013547D02*
X010406Y013633D01*
X010579Y013633D01*
X010666Y013547D01*
X010216Y012968D02*
X010042Y012968D01*
X009872Y012881D02*
X009785Y012968D01*
X009612Y012968D01*
X009525Y012881D01*
X009525Y012794D01*
X009872Y012794D01*
X009872Y012708D02*
X009872Y012881D01*
X009872Y012708D02*
X009785Y012621D01*
X009612Y012621D01*
X009356Y012621D02*
X009356Y012968D01*
X009183Y012968D02*
X009356Y012794D01*
X009183Y012968D02*
X009096Y012968D01*
X008411Y012881D02*
X008151Y012881D01*
X008064Y012794D01*
X008064Y012708D01*
X008151Y012621D01*
X008411Y012621D01*
X008411Y013141D01*
X008151Y013141D01*
X008064Y013054D01*
X008064Y012968D01*
X008151Y012881D01*
X007895Y012881D02*
X007808Y012968D01*
X007635Y012968D01*
X007548Y012881D01*
X007548Y012708D01*
X007635Y012621D01*
X007808Y012621D01*
X007895Y012708D01*
X007895Y012881D01*
X007380Y012708D02*
X007293Y012621D01*
X007033Y012621D01*
X007033Y012881D01*
X007119Y012968D01*
X007293Y012968D01*
X007293Y012794D02*
X007033Y012794D01*
X006864Y012794D02*
X006690Y012968D01*
X006604Y012968D01*
X006434Y012881D02*
X006347Y012968D01*
X006087Y012968D01*
X006087Y013141D02*
X006087Y012621D01*
X006347Y012621D01*
X006434Y012708D01*
X006434Y012881D01*
X006864Y012968D02*
X006864Y012621D01*
X007293Y012794D02*
X007380Y012708D01*
X009332Y011809D02*
X009332Y011129D01*
X009762Y011129D02*
X009762Y011809D01*
D16*
X010002Y011489D02*
X010002Y011252D01*
X010475Y011252D02*
X010475Y011489D01*
X010593Y011489D02*
X010593Y011252D01*
X011065Y011252D02*
X011065Y011489D01*
X011183Y011489D02*
X011183Y011252D01*
X011656Y011252D02*
X011656Y011489D01*
X011971Y011489D02*
X011971Y011252D01*
X012443Y011252D02*
X012443Y011489D01*
X012561Y011489D02*
X012561Y011252D01*
X013034Y011252D02*
X013034Y011489D01*
X013152Y011489D02*
X013152Y011252D01*
X013624Y011252D02*
X013624Y011489D01*
X012522Y010130D02*
X012286Y010130D01*
X012286Y009658D02*
X012522Y009658D01*
X012522Y009540D02*
X012286Y009540D01*
X012286Y009067D02*
X012522Y009067D01*
X011361Y008339D02*
X011361Y008103D01*
X010888Y008103D02*
X010888Y008339D01*
X010770Y008339D02*
X010770Y008103D01*
X010298Y008103D02*
X010298Y008339D01*
X010180Y008339D02*
X010180Y008103D01*
X009707Y008103D02*
X009707Y008339D01*
X009727Y009559D02*
X009963Y009559D01*
X009963Y010032D02*
X009727Y010032D01*
X009727Y010150D02*
X009963Y010150D01*
X009963Y010622D02*
X009727Y010622D01*
X008190Y010316D02*
X008190Y009716D01*
X008188Y009699D01*
X008184Y009682D01*
X008177Y009666D01*
X008167Y009652D01*
X008154Y009639D01*
X008140Y009629D01*
X008124Y009622D01*
X008107Y009618D01*
X008090Y009616D01*
X005940Y009616D01*
X005940Y009666D01*
X005940Y010366D01*
X005940Y010416D01*
X008090Y010416D01*
X008107Y010414D01*
X008124Y010410D01*
X008140Y010403D01*
X008154Y010393D01*
X008167Y010380D01*
X008177Y010366D01*
X008184Y010350D01*
X008188Y010333D01*
X008190Y010316D01*
X007440Y010016D02*
X007240Y010016D01*
X007240Y010216D01*
X007090Y010216D02*
X007090Y009816D01*
X006940Y009816D01*
X006940Y010216D01*
X007090Y010216D01*
X007240Y010016D02*
X007240Y009816D01*
X006790Y009816D02*
X006790Y010016D01*
X006790Y010216D01*
X006790Y010016D02*
X006590Y010016D01*
X005940Y009666D02*
X005790Y009666D01*
X005790Y010366D01*
X005940Y010366D01*
X006188Y006502D02*
X005628Y006502D01*
X005628Y006002D02*
X006188Y006002D01*
X006188Y005026D02*
X005628Y005026D01*
X005628Y004526D02*
X006188Y004526D01*
X011006Y013890D02*
X011243Y013890D01*
X011243Y014363D02*
X011006Y014363D01*
X012089Y014363D02*
X012325Y014363D01*
X012325Y013890D02*
X012089Y013890D01*
X012063Y017980D02*
X012063Y018540D01*
X011563Y018540D02*
X011563Y017980D01*
X011276Y017980D02*
X011276Y018540D01*
X010776Y018540D02*
X010776Y017980D01*
D17*
X005140Y010516D02*
X005390Y010266D01*
X005440Y010216D02*
X005590Y010216D01*
X005640Y009816D02*
X005440Y009816D01*
X005390Y009766D02*
X005140Y009516D01*
D18*
X005655Y009816D03*
X005655Y010216D03*
D19*
X009546Y011078D03*
X009546Y011858D03*
D20*
X011026Y017920D03*
X011813Y017920D03*
X011813Y018600D03*
X011026Y018600D03*
D21*
X006248Y006252D03*
X005568Y006252D03*
X005568Y004776D03*
X006248Y004776D03*
M02*
