%
M48
M72
T01C0.0157
T02C0.0320
T03C0.0354
T04C0.0360
T05C0.0400
T06C0.1000
%
T01
X4924Y4973
X4924Y6252
X6892Y3792
X10337Y7237
X9746Y7532
X8959Y7827
X9451Y8615
X8861Y10091
X8762Y10583
X8861Y10977
X8959Y11469
X8664Y11764
X7975Y12748
X9550Y13930
X9943Y13930
X9156Y14619
X10534Y15800
X11124Y16292
X11617Y16292
X12994Y14028
X13683Y13733
X14471Y13634
X13782Y12748
X13290Y12059
X12699Y12059
X12306Y12059
X11813Y12059
X11420Y12059
X10928Y12059
X12404Y13536
X15406Y15996
X16193Y15258
X17128Y16046
X19097Y17522
X17424Y14323
X16243Y13044
X12994Y10485
X13487Y10091
X13388Y9304
X13388Y8713
X12798Y8811
X13487Y8024
X13388Y7630
X13191Y7335
X12798Y7532
X12404Y7532
X12010Y7630
X11617Y7532
X11223Y7237
X13093Y5465
X13437Y5760
X13683Y5367
X15061Y6646
X13585Y7237
X17817Y8615
X18014Y7532
X10632Y10583
X14520Y17374
X14963Y17374
X14668Y18162
X13930Y18457
X3496Y18556
T02
X10765Y14717
X12665Y14717
X5140Y10516
X5140Y9516
T03
X10554Y18063
X12286Y18063
T04
X17730Y15359
X18437Y16067
T05
X20573Y16063
X20573Y15063
X20573Y14063
X20573Y13063
X20573Y12063
X20573Y11063
X20573Y10091
X20573Y9091
X20573Y8091
X20573Y7091
X20573Y6091
X20573Y5091
X20573Y4091
X20573Y3091
X19097Y1626
X18097Y1626
X17097Y1626
X16097Y1626
X15097Y1626
X14097Y1626
X13097Y1626
X12097Y1626
X11124Y1626
X10124Y1626
X9124Y1626
X8124Y1626
X7124Y1626
X6124Y1626
X5124Y1626
X4124Y1626
X2660Y3103
X2660Y4103
X2660Y5103
X2660Y6103
X2660Y7103
X2660Y8103
X2660Y9103
X2660Y10103
X2660Y11075
X2660Y12075
X2660Y13075
X2660Y14075
X2660Y15075
X2660Y16075
X2660Y17075
X2660Y18075
X4136Y19540
X5136Y19540
X6136Y19540
X7136Y19540
X8319Y19571
X8319Y18571
X8319Y17571
X14176Y19540
X15176Y19540
X16176Y19540
X17176Y19540
X18176Y19540
X19176Y19540
X20573Y18063
X20573Y17063
T06
X2660Y1626
X20573Y1626
X20573Y19540
X2660Y19540
M30
