G75*
G70*
%OFA0B0*%
%FSLAX24Y24*%
%IPPOS*%
%LPD*%
%AMOC8*
5,1,8,0,0,1.08239X$1,22.5*
%
%ADD10C,0.0000*%
%ADD11C,0.0030*%
%ADD12C,0.0079*%
%ADD13C,0.0100*%
%ADD14C,0.0040*%
%ADD15C,0.0050*%
%ADD16C,0.0080*%
%ADD17R,0.0200X0.0200*%
%ADD18C,0.0060*%
%ADD19R,0.0140X0.0560*%
%ADD20R,0.0160X0.0340*%
%ADD21R,0.0240X0.0240*%
%ADD22R,0.0140X0.0500*%
%ADD23R,0.0120X0.0620*%
%ADD24R,0.0128X0.0197*%
%ADD25R,0.0059X0.0098*%
%ADD26R,0.0157X0.0069*%
%ADD27R,0.0079X0.0079*%
%ADD28R,0.0118X0.0118*%
%ADD29R,0.0128X0.0030*%
%ADD30R,0.0340X0.0160*%
%ADD31C,0.0160*%
%ADD32R,0.0197X0.0128*%
%ADD33R,0.0098X0.0059*%
%ADD34R,0.0069X0.0157*%
%ADD35R,0.0030X0.0128*%
%ADD36R,0.0200X0.0980*%
D10*
X001774Y000741D02*
X001774Y020426D01*
X021459Y020426D01*
X021459Y000741D01*
X001774Y000741D01*
X010377Y018063D02*
X010379Y018089D01*
X010385Y018115D01*
X010395Y018140D01*
X010408Y018163D01*
X010424Y018183D01*
X010444Y018201D01*
X010466Y018216D01*
X010489Y018228D01*
X010515Y018236D01*
X010541Y018240D01*
X010567Y018240D01*
X010593Y018236D01*
X010619Y018228D01*
X010643Y018216D01*
X010664Y018201D01*
X010684Y018183D01*
X010700Y018163D01*
X010713Y018140D01*
X010723Y018115D01*
X010729Y018089D01*
X010731Y018063D01*
X010729Y018037D01*
X010723Y018011D01*
X010713Y017986D01*
X010700Y017963D01*
X010684Y017943D01*
X010664Y017925D01*
X010642Y017910D01*
X010619Y017898D01*
X010593Y017890D01*
X010567Y017886D01*
X010541Y017886D01*
X010515Y017890D01*
X010489Y017898D01*
X010465Y017910D01*
X010444Y017925D01*
X010424Y017943D01*
X010408Y017963D01*
X010395Y017986D01*
X010385Y018011D01*
X010379Y018037D01*
X010377Y018063D01*
X012109Y018063D02*
X012111Y018089D01*
X012117Y018115D01*
X012127Y018140D01*
X012140Y018163D01*
X012156Y018183D01*
X012176Y018201D01*
X012198Y018216D01*
X012221Y018228D01*
X012247Y018236D01*
X012273Y018240D01*
X012299Y018240D01*
X012325Y018236D01*
X012351Y018228D01*
X012375Y018216D01*
X012396Y018201D01*
X012416Y018183D01*
X012432Y018163D01*
X012445Y018140D01*
X012455Y018115D01*
X012461Y018089D01*
X012463Y018063D01*
X012461Y018037D01*
X012455Y018011D01*
X012445Y017986D01*
X012432Y017963D01*
X012416Y017943D01*
X012396Y017925D01*
X012374Y017910D01*
X012351Y017898D01*
X012325Y017890D01*
X012299Y017886D01*
X012273Y017886D01*
X012247Y017890D01*
X012221Y017898D01*
X012197Y017910D01*
X012176Y017925D01*
X012156Y017943D01*
X012140Y017963D01*
X012127Y017986D01*
X012117Y018011D01*
X012111Y018037D01*
X012109Y018063D01*
D11*
X013895Y017483D02*
X013895Y017193D01*
X013895Y017289D02*
X014040Y017289D01*
X014089Y017338D01*
X014089Y017434D01*
X014040Y017483D01*
X013895Y017483D01*
X014092Y017635D02*
X014141Y017586D01*
X014237Y017586D01*
X014286Y017635D01*
X014286Y017877D01*
X014260Y017980D02*
X014308Y018028D01*
X014308Y018125D01*
X014260Y018173D01*
X014163Y018173D01*
X014163Y018077D01*
X014066Y018173D02*
X014018Y018125D01*
X014018Y018028D01*
X014066Y017980D01*
X014260Y017980D01*
X014092Y017877D02*
X014092Y017635D01*
X014238Y017386D02*
X014190Y017338D01*
X014190Y017241D01*
X014238Y017193D01*
X014335Y017193D01*
X014383Y017241D01*
X014383Y017338D01*
X014335Y017386D01*
X014238Y017386D01*
X014485Y017386D02*
X014485Y017241D01*
X014533Y017193D01*
X014581Y017241D01*
X014630Y017193D01*
X014678Y017241D01*
X014678Y017386D01*
X014779Y017338D02*
X014828Y017386D01*
X014924Y017386D01*
X014973Y017338D01*
X014973Y017289D01*
X014779Y017289D01*
X014779Y017241D02*
X014779Y017338D01*
X014779Y017241D02*
X014828Y017193D01*
X014924Y017193D01*
X015074Y017193D02*
X015074Y017386D01*
X015171Y017386D02*
X015219Y017386D01*
X015171Y017386D02*
X015074Y017289D01*
X014827Y017586D02*
X014681Y017586D01*
X014681Y017877D01*
X014827Y017877D01*
X014875Y017828D01*
X014875Y017780D01*
X014827Y017731D01*
X014681Y017731D01*
X014580Y017683D02*
X014580Y017635D01*
X014532Y017586D01*
X014435Y017586D01*
X014387Y017635D01*
X014435Y017731D02*
X014532Y017731D01*
X014580Y017683D01*
X014580Y017828D02*
X014532Y017877D01*
X014435Y017877D01*
X014387Y017828D01*
X014387Y017780D01*
X014435Y017731D01*
X014827Y017731D02*
X014875Y017683D01*
X014875Y017635D01*
X014827Y017586D01*
X015197Y017783D02*
X015197Y017977D01*
X015293Y017880D02*
X015100Y017880D01*
X015100Y018078D02*
X015051Y018126D01*
X015051Y018223D01*
X015100Y018271D01*
X015148Y018271D01*
X015197Y018223D01*
X015245Y018271D01*
X015293Y018271D01*
X015342Y018223D01*
X015342Y018126D01*
X015293Y018078D01*
X015197Y018175D02*
X015197Y018223D01*
X015293Y018372D02*
X015293Y018421D01*
X015342Y018421D01*
X015342Y018372D01*
X015293Y018372D01*
X015293Y018520D02*
X015342Y018568D01*
X015342Y018665D01*
X015293Y018713D01*
X015245Y018713D01*
X015197Y018665D01*
X015197Y018616D01*
X015197Y018665D02*
X015148Y018713D01*
X015100Y018713D01*
X015051Y018665D01*
X015051Y018568D01*
X015100Y018520D01*
X015051Y018814D02*
X015245Y018814D01*
X015342Y018911D01*
X015245Y019008D01*
X015051Y019008D01*
X015521Y018984D02*
X015714Y018984D01*
X015617Y018984D02*
X015617Y018693D01*
X015815Y018693D02*
X016009Y018984D01*
X015815Y018984D02*
X016009Y018693D01*
X017512Y018668D02*
X017802Y018862D01*
X017802Y018668D02*
X017512Y018862D01*
X017560Y018567D02*
X017657Y018567D01*
X017706Y018519D01*
X017706Y018374D01*
X017802Y018374D02*
X017512Y018374D01*
X017512Y018519D01*
X017560Y018567D01*
X017706Y018470D02*
X017802Y018567D01*
X018103Y018518D02*
X018103Y018421D01*
X018151Y018373D01*
X018199Y018373D01*
X018248Y018421D01*
X018248Y018518D01*
X018296Y018567D01*
X018345Y018567D01*
X018393Y018518D01*
X018393Y018421D01*
X018345Y018373D01*
X018393Y018421D01*
X018393Y018518D01*
X018345Y018567D01*
X018296Y018567D01*
X018248Y018518D01*
X018248Y018421D01*
X018199Y018373D01*
X018151Y018373D01*
X018103Y018421D01*
X018103Y018518D01*
X018151Y018567D01*
X018103Y018518D01*
X018103Y018668D02*
X018103Y018861D01*
X018103Y018668D01*
X018103Y018764D02*
X018393Y018764D01*
X018103Y018764D01*
X018693Y018716D02*
X018693Y018910D01*
X018693Y018813D02*
X018983Y018813D01*
X018935Y018615D02*
X018983Y018567D01*
X018983Y018470D01*
X018935Y018422D01*
X018838Y018470D02*
X018838Y018567D01*
X018887Y018615D01*
X018935Y018615D01*
X018838Y018470D02*
X018790Y018422D01*
X018742Y018422D01*
X018693Y018470D01*
X018693Y018567D01*
X018742Y018615D01*
X018693Y018320D02*
X018693Y018127D01*
X018983Y018127D01*
X018983Y018320D01*
X018838Y018224D02*
X018838Y018127D01*
X018693Y018026D02*
X018693Y017832D01*
X018693Y017929D02*
X018983Y017929D01*
X019112Y017882D02*
X019112Y018172D01*
X019257Y018172D01*
X019305Y018123D01*
X019305Y018027D01*
X019257Y017978D01*
X019112Y017978D01*
X019407Y017930D02*
X019455Y017882D01*
X019552Y017882D01*
X019600Y017930D01*
X019600Y018123D01*
X019552Y018172D01*
X019455Y018172D01*
X019407Y018123D01*
X019407Y018075D01*
X019455Y018027D01*
X019600Y018027D01*
X019701Y017930D02*
X019750Y017930D01*
X019750Y017882D01*
X019701Y017882D01*
X019701Y017930D01*
X019848Y017930D02*
X019848Y017882D01*
X019848Y017930D02*
X020042Y018123D01*
X020042Y018172D01*
X019848Y018172D01*
X020042Y017188D02*
X019945Y017139D01*
X019848Y017042D01*
X019994Y017042D01*
X020042Y016994D01*
X020042Y016946D01*
X019994Y016897D01*
X019897Y016897D01*
X019848Y016946D01*
X019848Y017042D01*
X019750Y016946D02*
X019750Y016897D01*
X019701Y016897D01*
X019701Y016946D01*
X019750Y016946D01*
X019600Y016946D02*
X019600Y017139D01*
X019552Y017188D01*
X019455Y017188D01*
X019407Y017139D01*
X019407Y017091D01*
X019455Y017042D01*
X019600Y017042D01*
X019600Y016946D02*
X019552Y016897D01*
X019455Y016897D01*
X019407Y016946D01*
X019305Y017042D02*
X019257Y016994D01*
X019112Y016994D01*
X019112Y016897D02*
X019112Y017188D01*
X019257Y017188D01*
X019305Y017139D01*
X019305Y017042D01*
X019257Y016154D02*
X019305Y016106D01*
X019305Y016009D01*
X019257Y015961D01*
X019112Y015961D01*
X019112Y015864D02*
X019112Y016154D01*
X019257Y016154D01*
X019407Y016106D02*
X019407Y016057D01*
X019455Y016009D01*
X019600Y016009D01*
X019600Y016106D02*
X019552Y016154D01*
X019455Y016154D01*
X019407Y016106D01*
X019600Y016106D02*
X019600Y015912D01*
X019552Y015864D01*
X019455Y015864D01*
X019407Y015912D01*
X019701Y015912D02*
X019750Y015912D01*
X019750Y015864D01*
X019701Y015864D01*
X019701Y015912D01*
X019848Y015912D02*
X019897Y015864D01*
X019994Y015864D01*
X020042Y015912D01*
X020042Y016009D01*
X019994Y016057D01*
X019945Y016057D01*
X019848Y016009D01*
X019848Y016154D01*
X020042Y016154D01*
X019994Y015170D02*
X019848Y015025D01*
X020042Y015025D01*
X019994Y014880D02*
X019994Y015170D01*
X019750Y014928D02*
X019750Y014880D01*
X019701Y014880D01*
X019701Y014928D01*
X019750Y014928D01*
X019600Y014928D02*
X019600Y015121D01*
X019552Y015170D01*
X019455Y015170D01*
X019407Y015121D01*
X019407Y015073D01*
X019455Y015025D01*
X019600Y015025D01*
X019600Y014928D02*
X019552Y014880D01*
X019455Y014880D01*
X019407Y014928D01*
X019305Y015025D02*
X019305Y015121D01*
X019257Y015170D01*
X019112Y015170D01*
X019112Y014880D01*
X019112Y014976D02*
X019257Y014976D01*
X019305Y015025D01*
X019257Y014186D02*
X019305Y014137D01*
X019305Y014040D01*
X019257Y013992D01*
X019112Y013992D01*
X019112Y013895D02*
X019112Y014186D01*
X019257Y014186D01*
X019407Y014137D02*
X019407Y014089D01*
X019455Y014040D01*
X019600Y014040D01*
X019600Y013944D02*
X019600Y014137D01*
X019552Y014186D01*
X019455Y014186D01*
X019407Y014137D01*
X019407Y013944D02*
X019455Y013895D01*
X019552Y013895D01*
X019600Y013944D01*
X019701Y013944D02*
X019750Y013944D01*
X019750Y013895D01*
X019701Y013895D01*
X019701Y013944D01*
X019848Y013944D02*
X019897Y013895D01*
X019994Y013895D01*
X020042Y013944D01*
X020042Y013992D01*
X019994Y014040D01*
X019945Y014040D01*
X019994Y014040D02*
X020042Y014089D01*
X020042Y014137D01*
X019994Y014186D01*
X019897Y014186D01*
X019848Y014137D01*
X019897Y013201D02*
X019848Y013153D01*
X019897Y013201D02*
X019994Y013201D01*
X020042Y013153D01*
X020042Y013105D01*
X019848Y012911D01*
X020042Y012911D01*
X019750Y012911D02*
X019701Y012911D01*
X019701Y012959D01*
X019750Y012959D01*
X019750Y012911D01*
X019600Y012959D02*
X019600Y013153D01*
X019552Y013201D01*
X019455Y013201D01*
X019407Y013153D01*
X019407Y013105D01*
X019455Y013056D01*
X019600Y013056D01*
X019600Y012959D02*
X019552Y012911D01*
X019455Y012911D01*
X019407Y012959D01*
X019305Y013056D02*
X019305Y013153D01*
X019257Y013201D01*
X019112Y013201D01*
X019112Y012911D01*
X019112Y013008D02*
X019257Y013008D01*
X019305Y013056D01*
X018637Y013401D02*
X018347Y013401D01*
X018347Y013546D01*
X018395Y013595D01*
X018492Y013595D01*
X018541Y013546D01*
X018541Y013401D01*
X018541Y013300D02*
X018395Y013300D01*
X018347Y013252D01*
X018395Y013203D01*
X018541Y013203D01*
X018541Y013107D02*
X018347Y013107D01*
X018347Y013155D01*
X018395Y013203D01*
X018347Y013006D02*
X018541Y013006D01*
X018541Y012860D01*
X018492Y012812D01*
X018347Y012812D01*
X018250Y012711D02*
X018250Y012614D01*
X018250Y012662D02*
X018492Y012662D01*
X018541Y012614D01*
X018541Y012566D01*
X018492Y012517D01*
X018147Y012616D02*
X017857Y012616D01*
X017857Y012761D01*
X017905Y012809D01*
X018002Y012809D01*
X018050Y012761D01*
X018050Y012616D01*
X017753Y012861D02*
X017753Y012958D01*
X017705Y013006D01*
X017463Y013006D01*
X017511Y013107D02*
X017560Y013107D01*
X017608Y013156D01*
X017608Y013252D01*
X017656Y013301D01*
X017705Y013301D01*
X017753Y013252D01*
X017753Y013156D01*
X017705Y013107D01*
X017511Y013107D02*
X017463Y013156D01*
X017463Y013252D01*
X017511Y013301D01*
X017463Y013402D02*
X017463Y013547D01*
X017511Y013595D01*
X017560Y013595D01*
X017608Y013547D01*
X017608Y013402D01*
X017608Y013547D02*
X017656Y013595D01*
X017705Y013595D01*
X017753Y013547D01*
X017753Y013402D01*
X017463Y013402D01*
X017953Y013399D02*
X018098Y013399D01*
X018147Y013350D01*
X018098Y013302D01*
X018147Y013253D01*
X018098Y013205D01*
X017953Y013205D01*
X018002Y013104D02*
X017953Y013056D01*
X017953Y012959D01*
X018002Y012910D01*
X018098Y012910D01*
X018147Y012959D01*
X018147Y013056D01*
X018098Y013104D01*
X018002Y013104D01*
X017753Y012861D02*
X017705Y012813D01*
X017463Y012813D01*
X018002Y013500D02*
X017953Y013548D01*
X017953Y013645D01*
X018002Y013693D01*
X018050Y013693D01*
X018050Y013500D01*
X018098Y013500D02*
X018002Y013500D01*
X018098Y013500D02*
X018147Y013548D01*
X018147Y013645D01*
X018147Y013794D02*
X017953Y013794D01*
X018050Y013794D02*
X017953Y013891D01*
X017953Y013940D01*
X018347Y013991D02*
X018541Y013991D01*
X018444Y013991D02*
X018347Y014087D01*
X018347Y014136D01*
X018395Y013889D02*
X018444Y013889D01*
X018444Y013696D01*
X018492Y013696D02*
X018395Y013696D01*
X018347Y013744D01*
X018347Y013841D01*
X018395Y013889D01*
X018541Y013841D02*
X018541Y013744D01*
X018492Y013696D01*
X019112Y012217D02*
X019257Y012217D01*
X019305Y012169D01*
X019305Y012072D01*
X019257Y012024D01*
X019112Y012024D01*
X019112Y011927D02*
X019112Y012217D01*
X019407Y012169D02*
X019407Y012120D01*
X019455Y012072D01*
X019600Y012072D01*
X019600Y012169D02*
X019552Y012217D01*
X019455Y012217D01*
X019407Y012169D01*
X019600Y012169D02*
X019600Y011975D01*
X019552Y011927D01*
X019455Y011927D01*
X019407Y011975D01*
X019701Y011975D02*
X019750Y011975D01*
X019750Y011927D01*
X019701Y011927D01*
X019701Y011975D01*
X019848Y011927D02*
X020042Y011927D01*
X019945Y011927D02*
X019945Y012217D01*
X019848Y012120D01*
X019897Y011184D02*
X019994Y011184D01*
X020042Y011135D01*
X019848Y010942D01*
X019897Y010893D01*
X019994Y010893D01*
X020042Y010942D01*
X020042Y011135D01*
X019897Y011184D02*
X019848Y011135D01*
X019848Y010942D01*
X019750Y010942D02*
X019750Y010893D01*
X019701Y010893D01*
X019701Y010942D01*
X019750Y010942D01*
X019600Y010942D02*
X019600Y011135D01*
X019552Y011184D01*
X019455Y011184D01*
X019407Y011135D01*
X019407Y011087D01*
X019455Y011038D01*
X019600Y011038D01*
X019600Y010942D02*
X019552Y010893D01*
X019455Y010893D01*
X019407Y010942D01*
X019305Y011038D02*
X019257Y010990D01*
X019112Y010990D01*
X019112Y010893D02*
X019112Y011184D01*
X019257Y011184D01*
X019305Y011135D01*
X019305Y011038D01*
X019257Y010199D02*
X019305Y010151D01*
X019305Y010054D01*
X019257Y010006D01*
X019112Y010006D01*
X019112Y009909D02*
X019112Y010199D01*
X019257Y010199D01*
X019407Y010151D02*
X019407Y010103D01*
X019455Y010054D01*
X019552Y010054D01*
X019600Y010006D01*
X019600Y009957D01*
X019552Y009909D01*
X019455Y009909D01*
X019407Y009957D01*
X019407Y010006D01*
X019455Y010054D01*
X019552Y010054D02*
X019600Y010103D01*
X019600Y010151D01*
X019552Y010199D01*
X019455Y010199D01*
X019407Y010151D01*
X019701Y009957D02*
X019750Y009957D01*
X019750Y009909D01*
X019701Y009909D01*
X019701Y009957D01*
X019848Y009957D02*
X019848Y009909D01*
X019848Y009957D02*
X020042Y010151D01*
X020042Y010199D01*
X019848Y010199D01*
X019697Y009264D02*
X019600Y009264D01*
X019552Y009216D01*
X019552Y009168D01*
X019600Y009119D01*
X019697Y009119D01*
X019745Y009071D01*
X019745Y009022D01*
X019697Y008974D01*
X019600Y008974D01*
X019552Y009022D01*
X019552Y009071D01*
X019600Y009119D01*
X019697Y009119D02*
X019745Y009168D01*
X019745Y009216D01*
X019697Y009264D01*
X019450Y009216D02*
X019450Y009119D01*
X019402Y009071D01*
X019257Y009071D01*
X019257Y008974D02*
X019257Y009264D01*
X019402Y009264D01*
X019450Y009216D01*
X019156Y009264D02*
X018962Y008974D01*
X018861Y008974D02*
X018668Y008974D01*
X018668Y009264D01*
X018567Y009216D02*
X018518Y009264D01*
X018421Y009264D01*
X018373Y009216D01*
X018373Y009022D01*
X018421Y008974D01*
X018518Y008974D01*
X018567Y009022D01*
X018272Y009022D02*
X018272Y009071D01*
X018224Y009119D01*
X018127Y009119D01*
X018078Y009168D01*
X018078Y009216D01*
X018127Y009264D01*
X018224Y009264D01*
X018272Y009216D01*
X018272Y009022D02*
X018224Y008974D01*
X018127Y008974D01*
X018078Y009022D01*
X017923Y008725D02*
X017778Y008725D01*
X017778Y008434D01*
X017778Y008531D02*
X017923Y008531D01*
X017972Y008580D01*
X017972Y008676D01*
X017923Y008725D01*
X017677Y008725D02*
X017677Y008531D01*
X017532Y008531D01*
X017483Y008580D01*
X017483Y008725D01*
X017335Y008821D02*
X017287Y008821D01*
X017335Y008821D02*
X017335Y008531D01*
X017287Y008531D02*
X017384Y008531D01*
X017187Y008531D02*
X017091Y008531D01*
X017139Y008531D02*
X017139Y008821D01*
X017091Y008821D01*
X016989Y008725D02*
X016989Y008531D01*
X016844Y008531D01*
X016796Y008580D01*
X016796Y008725D01*
X016695Y008773D02*
X016646Y008821D01*
X016501Y008821D01*
X016501Y008531D01*
X016501Y008628D02*
X016646Y008628D01*
X016695Y008676D01*
X016695Y008773D01*
X016647Y008282D02*
X016501Y008282D01*
X016453Y008233D01*
X016501Y008185D01*
X016598Y008185D01*
X016647Y008137D01*
X016598Y008088D01*
X016453Y008088D01*
X016352Y008185D02*
X016158Y008185D01*
X016158Y008233D02*
X016207Y008282D01*
X016304Y008282D01*
X016352Y008233D01*
X016352Y008185D01*
X016304Y008088D02*
X016207Y008088D01*
X016158Y008137D01*
X016158Y008233D01*
X016057Y008233D02*
X016009Y008185D01*
X015864Y008185D01*
X015961Y008185D02*
X016057Y008088D01*
X016057Y008233D02*
X016057Y008330D01*
X016009Y008378D01*
X015864Y008378D01*
X015864Y008088D01*
X015811Y008531D02*
X015617Y008531D01*
X015811Y008725D01*
X015811Y008773D01*
X015762Y008821D01*
X015666Y008821D01*
X015617Y008773D01*
X015518Y008821D02*
X015421Y008821D01*
X015469Y008821D02*
X015469Y008531D01*
X015421Y008531D02*
X015518Y008531D01*
X015912Y008580D02*
X015960Y008531D01*
X016057Y008531D01*
X016105Y008580D01*
X015912Y008580D02*
X015912Y008773D01*
X015960Y008821D01*
X016057Y008821D01*
X016105Y008773D01*
X016748Y008137D02*
X016796Y008137D01*
X016796Y008088D01*
X016748Y008088D01*
X016748Y008137D01*
X018029Y008134D02*
X018078Y008086D01*
X018174Y008086D01*
X018223Y008037D01*
X018223Y007989D01*
X018174Y007941D01*
X018078Y007941D01*
X018029Y007989D01*
X018029Y008134D02*
X018029Y008182D01*
X018078Y008231D01*
X018174Y008231D01*
X018223Y008182D01*
X018324Y008231D02*
X018469Y008231D01*
X018517Y008182D01*
X018517Y007989D01*
X018469Y007941D01*
X018324Y007941D01*
X018324Y008231D01*
X018618Y008134D02*
X018715Y008231D01*
X018812Y008134D01*
X018812Y007941D01*
X018913Y007941D02*
X019107Y008231D01*
X019208Y008231D02*
X019353Y008231D01*
X019401Y008182D01*
X019401Y008086D01*
X019353Y008037D01*
X019208Y008037D01*
X019208Y007941D02*
X019208Y008231D01*
X019502Y008182D02*
X019502Y008134D01*
X019551Y008086D01*
X019648Y008086D01*
X019696Y008037D01*
X019696Y007989D01*
X019648Y007941D01*
X019551Y007941D01*
X019502Y007989D01*
X019502Y008037D01*
X019551Y008086D01*
X019648Y008086D02*
X019696Y008134D01*
X019696Y008182D01*
X019648Y008231D01*
X019551Y008231D01*
X019502Y008182D01*
X019797Y007989D02*
X019845Y007989D01*
X019845Y007941D01*
X019797Y007941D01*
X019797Y007989D01*
X019944Y007989D02*
X019993Y007941D01*
X020090Y007941D01*
X020138Y007989D01*
X020138Y008086D01*
X020090Y008134D01*
X020041Y008134D01*
X019944Y008086D01*
X019944Y008231D01*
X020138Y008231D01*
X020139Y008974D02*
X020187Y009022D01*
X020187Y009071D01*
X020139Y009119D01*
X019994Y009119D01*
X019994Y009022D01*
X020042Y008974D01*
X020139Y008974D01*
X019994Y009119D02*
X020090Y009216D01*
X020187Y009264D01*
X019895Y009022D02*
X019895Y008974D01*
X019846Y008974D01*
X019846Y009022D01*
X019895Y009022D01*
X018812Y008086D02*
X018618Y008086D01*
X018618Y008134D02*
X018618Y007941D01*
X019112Y007197D02*
X019257Y007197D01*
X019305Y007149D01*
X019305Y007052D01*
X019257Y007004D01*
X019112Y007004D01*
X019112Y006907D02*
X019112Y007197D01*
X019407Y007149D02*
X019407Y007101D01*
X019455Y007052D01*
X019552Y007052D01*
X019600Y007004D01*
X019600Y006955D01*
X019552Y006907D01*
X019455Y006907D01*
X019407Y006955D01*
X019407Y007004D01*
X019455Y007052D01*
X019552Y007052D02*
X019600Y007101D01*
X019600Y007149D01*
X019552Y007197D01*
X019455Y007197D01*
X019407Y007149D01*
X019701Y006955D02*
X019750Y006955D01*
X019750Y006907D01*
X019701Y006907D01*
X019701Y006955D01*
X019848Y007052D02*
X020042Y007052D01*
X019994Y006907D02*
X019994Y007197D01*
X019848Y007052D01*
X019897Y006213D02*
X019994Y006213D01*
X020042Y006165D01*
X020042Y006116D01*
X019994Y006068D01*
X020042Y006020D01*
X020042Y005971D01*
X019994Y005923D01*
X019897Y005923D01*
X019848Y005971D01*
X019750Y005971D02*
X019750Y005923D01*
X019701Y005923D01*
X019701Y005971D01*
X019750Y005971D01*
X019600Y005971D02*
X019552Y005923D01*
X019455Y005923D01*
X019407Y005971D01*
X019407Y006020D01*
X019455Y006068D01*
X019552Y006068D01*
X019600Y006020D01*
X019600Y005971D01*
X019552Y006068D02*
X019600Y006116D01*
X019600Y006165D01*
X019552Y006213D01*
X019455Y006213D01*
X019407Y006165D01*
X019407Y006116D01*
X019455Y006068D01*
X019305Y006068D02*
X019257Y006020D01*
X019112Y006020D01*
X019112Y005923D02*
X019112Y006213D01*
X019257Y006213D01*
X019305Y006165D01*
X019305Y006068D01*
X019848Y006165D02*
X019897Y006213D01*
X019945Y006068D02*
X019994Y006068D01*
X019994Y005180D02*
X019897Y005180D01*
X019848Y005131D01*
X019994Y005180D02*
X020042Y005131D01*
X020042Y005083D01*
X019848Y004889D01*
X020042Y004889D01*
X019750Y004889D02*
X019701Y004889D01*
X019701Y004938D01*
X019750Y004938D01*
X019750Y004889D01*
X019600Y004938D02*
X019600Y004986D01*
X019552Y005035D01*
X019455Y005035D01*
X019407Y005083D01*
X019407Y005131D01*
X019455Y005180D01*
X019552Y005180D01*
X019600Y005131D01*
X019600Y005083D01*
X019552Y005035D01*
X019455Y005035D02*
X019407Y004986D01*
X019407Y004938D01*
X019455Y004889D01*
X019552Y004889D01*
X019600Y004938D01*
X019305Y005035D02*
X019257Y004986D01*
X019112Y004986D01*
X019112Y004889D02*
X019112Y005180D01*
X019257Y005180D01*
X019305Y005131D01*
X019305Y005035D01*
X019257Y004294D02*
X019305Y004245D01*
X019305Y004149D01*
X019257Y004100D01*
X019112Y004100D01*
X019112Y004004D02*
X019112Y004294D01*
X019257Y004294D01*
X019407Y004245D02*
X019407Y004197D01*
X019455Y004149D01*
X019552Y004149D01*
X019600Y004100D01*
X019600Y004052D01*
X019552Y004004D01*
X019455Y004004D01*
X019407Y004052D01*
X019407Y004100D01*
X019455Y004149D01*
X019552Y004149D02*
X019600Y004197D01*
X019600Y004245D01*
X019552Y004294D01*
X019455Y004294D01*
X019407Y004245D01*
X019701Y004052D02*
X019750Y004052D01*
X019750Y004004D01*
X019701Y004004D01*
X019701Y004052D01*
X019848Y004004D02*
X020042Y004004D01*
X019945Y004004D02*
X019945Y004294D01*
X019848Y004197D01*
X019793Y003605D02*
X019842Y003556D01*
X019842Y003508D01*
X019793Y003460D01*
X019697Y003460D01*
X019648Y003508D01*
X019648Y003556D01*
X019697Y003605D01*
X019793Y003605D01*
X019793Y003460D02*
X019842Y003411D01*
X019842Y003363D01*
X019793Y003315D01*
X019697Y003315D01*
X019648Y003363D01*
X019648Y003411D01*
X019697Y003460D01*
X019547Y003460D02*
X019499Y003411D01*
X019354Y003411D01*
X019354Y003315D02*
X019354Y003605D01*
X019499Y003605D01*
X019547Y003556D01*
X019547Y003460D01*
X019252Y003605D02*
X019059Y003315D01*
X018958Y003315D02*
X018813Y003460D01*
X018764Y003411D02*
X018958Y003605D01*
X018764Y003605D02*
X018764Y003315D01*
X018663Y003315D02*
X018470Y003315D01*
X018470Y003605D01*
X018368Y003556D02*
X018320Y003605D01*
X018223Y003605D01*
X018175Y003556D01*
X018175Y003363D01*
X018223Y003315D01*
X018320Y003315D01*
X018368Y003363D01*
X018074Y003363D02*
X018074Y003556D01*
X017880Y003363D01*
X017929Y003315D01*
X018025Y003315D01*
X018074Y003363D01*
X018074Y003556D02*
X018025Y003605D01*
X017929Y003605D01*
X017880Y003556D01*
X017880Y003363D01*
X017779Y003363D02*
X017731Y003315D01*
X017586Y003315D01*
X017586Y003605D01*
X017731Y003605D01*
X017779Y003556D01*
X017779Y003508D01*
X017731Y003460D01*
X017586Y003460D01*
X017731Y003460D02*
X017779Y003411D01*
X017779Y003363D01*
X017807Y003162D02*
X017856Y003065D01*
X017952Y002969D01*
X017952Y003114D01*
X018001Y003162D01*
X018049Y003162D01*
X018098Y003114D01*
X018098Y003017D01*
X018049Y002969D01*
X017952Y002969D01*
X018049Y002870D02*
X018098Y002870D01*
X018098Y002821D01*
X018049Y002821D01*
X018049Y002870D01*
X017952Y002720D02*
X017952Y002527D01*
X017807Y002672D01*
X018098Y002672D01*
X017952Y002425D02*
X017856Y002425D01*
X017807Y002377D01*
X017807Y002232D01*
X018098Y002232D01*
X018001Y002232D02*
X018001Y002377D01*
X017952Y002425D01*
X017163Y002232D02*
X016872Y002232D01*
X016872Y002377D01*
X016921Y002425D01*
X017017Y002425D01*
X017066Y002377D01*
X017066Y002232D01*
X017017Y002527D02*
X017017Y002720D01*
X017114Y002821D02*
X017114Y002870D01*
X017163Y002870D01*
X017163Y002821D01*
X017114Y002821D01*
X017114Y002969D02*
X017163Y003017D01*
X017163Y003114D01*
X017114Y003162D01*
X017017Y003162D01*
X016969Y003114D01*
X016969Y003065D01*
X017017Y002969D01*
X016872Y002969D01*
X016872Y003162D01*
X016872Y002672D02*
X017017Y002527D01*
X017163Y002672D02*
X016872Y002672D01*
X016178Y002672D02*
X015888Y002672D01*
X016033Y002527D01*
X016033Y002720D01*
X016130Y002821D02*
X016130Y002870D01*
X016178Y002870D01*
X016178Y002821D01*
X016130Y002821D01*
X016033Y002969D02*
X016033Y003162D01*
X015888Y003114D02*
X016033Y002969D01*
X016178Y003114D02*
X015888Y003114D01*
X015936Y002425D02*
X016033Y002425D01*
X016082Y002377D01*
X016082Y002232D01*
X016178Y002232D02*
X015888Y002232D01*
X015888Y002377D01*
X015936Y002425D01*
X015194Y002232D02*
X014904Y002232D01*
X014904Y002377D01*
X014952Y002425D01*
X015049Y002425D01*
X015097Y002377D01*
X015097Y002232D01*
X015049Y002527D02*
X015049Y002720D01*
X015146Y002821D02*
X015146Y002870D01*
X015194Y002870D01*
X015194Y002821D01*
X015146Y002821D01*
X015146Y002969D02*
X015194Y003017D01*
X015194Y003114D01*
X015146Y003162D01*
X015097Y003162D01*
X015049Y003114D01*
X015049Y003065D01*
X015049Y003114D02*
X015001Y003162D01*
X014952Y003162D01*
X014904Y003114D01*
X014904Y003017D01*
X014952Y002969D01*
X014904Y002672D02*
X015049Y002527D01*
X015194Y002672D02*
X014904Y002672D01*
X017291Y003605D02*
X017484Y003605D01*
X017388Y003605D02*
X017388Y003315D01*
X018841Y003162D02*
X018841Y002969D01*
X018841Y003162D02*
X018889Y003162D01*
X019083Y002969D01*
X019131Y002969D01*
X019131Y002870D02*
X019131Y002821D01*
X019083Y002821D01*
X019083Y002870D01*
X019131Y002870D01*
X019131Y002672D02*
X018841Y002672D01*
X018986Y002527D01*
X018986Y002720D01*
X018986Y002425D02*
X019034Y002377D01*
X019034Y002232D01*
X019131Y002232D02*
X018841Y002232D01*
X018841Y002377D01*
X018889Y002425D01*
X018986Y002425D01*
X019943Y003315D02*
X019991Y003315D01*
X019991Y003363D01*
X019943Y003363D01*
X019943Y003315D01*
X020090Y003363D02*
X020284Y003556D01*
X020284Y003363D01*
X020235Y003315D01*
X020139Y003315D01*
X020090Y003363D01*
X020090Y003556D01*
X020139Y003605D01*
X020235Y003605D01*
X020284Y003556D01*
X014972Y005824D02*
X014827Y005970D01*
X014779Y005921D02*
X014972Y006115D01*
X014779Y006115D02*
X014779Y005824D01*
X014677Y005824D02*
X014484Y005824D01*
X014484Y006115D01*
X014383Y006066D02*
X014334Y006115D01*
X014238Y006115D01*
X014189Y006066D01*
X014189Y005873D01*
X014238Y005824D01*
X014334Y005824D01*
X014383Y005873D01*
X014214Y005721D02*
X014407Y005528D01*
X014456Y005528D01*
X014456Y005429D02*
X014456Y005380D01*
X014407Y005380D01*
X014407Y005429D01*
X014456Y005429D01*
X014456Y005279D02*
X014456Y005086D01*
X014456Y005182D02*
X014166Y005182D01*
X014262Y005086D01*
X014214Y004984D02*
X014311Y004984D01*
X014359Y004936D01*
X014359Y004791D01*
X014456Y004791D02*
X014166Y004791D01*
X014166Y004936D01*
X014214Y004984D01*
X014166Y005528D02*
X014166Y005721D01*
X014214Y005721D01*
X014088Y005824D02*
X014088Y006115D01*
X013991Y006018D01*
X013895Y006115D01*
X013895Y005824D01*
X013794Y005873D02*
X013745Y005824D01*
X013648Y005824D01*
X013600Y005873D01*
X013648Y005970D02*
X013745Y005970D01*
X013794Y005921D01*
X013794Y005873D01*
X013648Y005970D02*
X013600Y006018D01*
X013600Y006066D01*
X013648Y006115D01*
X013745Y006115D01*
X013794Y006066D01*
X013620Y005721D02*
X013572Y005721D01*
X013523Y005673D01*
X013523Y005528D01*
X013620Y005528D01*
X013668Y005576D01*
X013668Y005673D01*
X013620Y005721D01*
X013427Y005624D02*
X013523Y005528D01*
X013427Y005624D02*
X013378Y005721D01*
X013620Y005429D02*
X013668Y005429D01*
X013668Y005380D01*
X013620Y005380D01*
X013620Y005429D01*
X013668Y005279D02*
X013668Y005086D01*
X013668Y005182D02*
X013378Y005182D01*
X013475Y005086D01*
X013523Y004984D02*
X013572Y004936D01*
X013572Y004791D01*
X013668Y004791D02*
X013378Y004791D01*
X013378Y004936D01*
X013427Y004984D01*
X013523Y004984D01*
X013251Y004938D02*
X013202Y004889D01*
X013106Y004889D01*
X013057Y004938D01*
X013057Y005035D02*
X013154Y005083D01*
X013202Y005083D01*
X013251Y005035D01*
X013251Y004938D01*
X013057Y005035D02*
X013057Y005180D01*
X013251Y005180D01*
X012712Y005180D02*
X012712Y004889D01*
X012615Y004889D02*
X012809Y004889D01*
X012910Y004889D02*
X012958Y004889D01*
X012958Y004938D01*
X012910Y004938D01*
X012910Y004889D01*
X012712Y005180D02*
X012615Y005083D01*
X012514Y005131D02*
X012514Y005035D01*
X012466Y004986D01*
X012321Y004986D01*
X012321Y004889D02*
X012321Y005180D01*
X012466Y005180D01*
X012514Y005131D01*
X012094Y005086D02*
X012094Y005279D01*
X012094Y005182D02*
X011803Y005182D01*
X011900Y005086D01*
X011852Y004984D02*
X011949Y004984D01*
X011997Y004936D01*
X011997Y004791D01*
X012094Y004791D02*
X011803Y004791D01*
X011803Y004936D01*
X011852Y004984D01*
X012045Y005380D02*
X012045Y005429D01*
X012094Y005429D01*
X012094Y005380D01*
X012045Y005380D01*
X011949Y005528D02*
X011949Y005721D01*
X012094Y005673D02*
X011803Y005673D01*
X011949Y005528D01*
X011306Y005576D02*
X011258Y005528D01*
X011306Y005576D02*
X011306Y005673D01*
X011258Y005721D01*
X011210Y005721D01*
X011161Y005673D01*
X011161Y005624D01*
X011161Y005673D02*
X011113Y005721D01*
X011064Y005721D01*
X011016Y005673D01*
X011016Y005576D01*
X011064Y005528D01*
X011258Y005429D02*
X011306Y005429D01*
X011306Y005380D01*
X011258Y005380D01*
X011258Y005429D01*
X011306Y005279D02*
X011306Y005086D01*
X011306Y005182D02*
X011016Y005182D01*
X011113Y005086D01*
X011161Y004984D02*
X011210Y004936D01*
X011210Y004791D01*
X011306Y004791D02*
X011016Y004791D01*
X011016Y004936D01*
X011064Y004984D01*
X011161Y004984D01*
X010568Y005086D02*
X010568Y005279D01*
X010568Y005182D02*
X010278Y005182D01*
X010375Y005086D01*
X010423Y004984D02*
X010326Y004984D01*
X010278Y004936D01*
X010278Y004791D01*
X010568Y004791D01*
X010471Y004791D02*
X010471Y004936D01*
X010423Y004984D01*
X010520Y005380D02*
X010520Y005429D01*
X010568Y005429D01*
X010568Y005380D01*
X010520Y005380D01*
X010568Y005528D02*
X010375Y005721D01*
X010326Y005721D01*
X010278Y005673D01*
X010278Y005576D01*
X010326Y005528D01*
X010302Y005726D02*
X010495Y005726D01*
X010568Y005721D02*
X010568Y005528D01*
X010596Y005726D02*
X010596Y006016D01*
X010645Y005871D02*
X010790Y005726D01*
X010596Y005823D02*
X010790Y006016D01*
X010302Y006016D02*
X010302Y005726D01*
X010200Y005774D02*
X010152Y005726D01*
X010055Y005726D01*
X010007Y005774D01*
X010007Y005968D01*
X010055Y006016D01*
X010152Y006016D01*
X010200Y005968D01*
X009906Y005920D02*
X009906Y005726D01*
X009830Y005721D02*
X009830Y005528D01*
X009830Y005624D02*
X009540Y005624D01*
X009636Y005528D01*
X009782Y005429D02*
X009830Y005429D01*
X009830Y005380D01*
X009782Y005380D01*
X009782Y005429D01*
X009830Y005279D02*
X009830Y005086D01*
X009830Y005182D02*
X009540Y005182D01*
X009636Y005086D01*
X009588Y004984D02*
X009685Y004984D01*
X009733Y004936D01*
X009733Y004791D01*
X009830Y004791D02*
X009540Y004791D01*
X009540Y004936D01*
X009588Y004984D01*
X009412Y004938D02*
X009364Y004889D01*
X009267Y004889D01*
X009219Y004938D01*
X009412Y005131D01*
X009412Y004938D01*
X009412Y005131D02*
X009364Y005180D01*
X009267Y005180D01*
X009219Y005131D01*
X009219Y004938D01*
X009120Y004938D02*
X009120Y004889D01*
X009071Y004889D01*
X009071Y004938D01*
X009120Y004938D01*
X008970Y004889D02*
X008777Y004889D01*
X008873Y004889D02*
X008873Y005180D01*
X008777Y005083D01*
X008675Y005131D02*
X008675Y005035D01*
X008627Y004986D01*
X008482Y004986D01*
X008482Y004889D02*
X008482Y005180D01*
X008627Y005180D01*
X008675Y005131D01*
X009712Y005726D02*
X009712Y005920D01*
X009809Y006016D01*
X009906Y005920D01*
X009906Y005871D02*
X009712Y005871D01*
X008206Y003114D02*
X007916Y003114D01*
X008061Y002969D01*
X008061Y003162D01*
X008157Y002870D02*
X008206Y002870D01*
X008206Y002821D01*
X008157Y002821D01*
X008157Y002870D01*
X008157Y002720D02*
X008206Y002672D01*
X008206Y002575D01*
X008157Y002527D01*
X008061Y002623D02*
X008061Y002672D01*
X008109Y002720D01*
X008157Y002720D01*
X008061Y002672D02*
X008012Y002720D01*
X007964Y002720D01*
X007916Y002672D01*
X007916Y002575D01*
X007964Y002527D01*
X007964Y002425D02*
X008061Y002425D01*
X008109Y002377D01*
X008109Y002232D01*
X008206Y002232D02*
X007916Y002232D01*
X007916Y002377D01*
X007964Y002425D01*
X007271Y002575D02*
X007222Y002527D01*
X007271Y002575D02*
X007271Y002672D01*
X007222Y002720D01*
X007174Y002720D01*
X007126Y002672D01*
X007126Y002623D01*
X007126Y002672D02*
X007077Y002720D01*
X007029Y002720D01*
X006981Y002672D01*
X006981Y002575D01*
X007029Y002527D01*
X007029Y002425D02*
X007126Y002425D01*
X007174Y002377D01*
X007174Y002232D01*
X007271Y002232D02*
X006981Y002232D01*
X006981Y002377D01*
X007029Y002425D01*
X007222Y002821D02*
X007222Y002870D01*
X007271Y002870D01*
X007271Y002821D01*
X007222Y002821D01*
X007222Y002969D02*
X007271Y003017D01*
X007271Y003114D01*
X007222Y003162D01*
X007174Y003162D01*
X007126Y003114D01*
X007126Y003065D01*
X007126Y003114D02*
X007077Y003162D01*
X007029Y003162D01*
X006981Y003114D01*
X006981Y003017D01*
X007029Y002969D01*
X006237Y002969D02*
X006044Y003162D01*
X005995Y003162D01*
X005947Y003114D01*
X005947Y003017D01*
X005995Y002969D01*
X006189Y002870D02*
X006237Y002870D01*
X006237Y002821D01*
X006189Y002821D01*
X006189Y002870D01*
X006237Y002969D02*
X006237Y003162D01*
X006189Y002720D02*
X006237Y002672D01*
X006237Y002575D01*
X006189Y002527D01*
X006092Y002623D02*
X006092Y002672D01*
X006141Y002720D01*
X006189Y002720D01*
X006092Y002672D02*
X006044Y002720D01*
X005995Y002720D01*
X005947Y002672D01*
X005947Y002575D01*
X005995Y002527D01*
X005995Y002425D02*
X006092Y002425D01*
X006141Y002377D01*
X006141Y002232D01*
X006237Y002232D02*
X005947Y002232D01*
X005947Y002377D01*
X005995Y002425D01*
X005253Y002575D02*
X005205Y002527D01*
X005253Y002575D02*
X005253Y002672D01*
X005205Y002720D01*
X005156Y002720D01*
X005108Y002672D01*
X005108Y002623D01*
X005108Y002672D02*
X005060Y002720D01*
X005011Y002720D01*
X004963Y002672D01*
X004963Y002575D01*
X005011Y002527D01*
X005011Y002425D02*
X005108Y002425D01*
X005156Y002377D01*
X005156Y002232D01*
X005253Y002232D02*
X004963Y002232D01*
X004963Y002377D01*
X005011Y002425D01*
X005205Y002821D02*
X005205Y002870D01*
X005253Y002870D01*
X005253Y002821D01*
X005205Y002821D01*
X005253Y002969D02*
X005253Y003162D01*
X005253Y003065D02*
X004963Y003065D01*
X005060Y002969D01*
X004515Y002968D02*
X004467Y002919D01*
X004273Y003113D01*
X004467Y003113D01*
X004515Y003064D01*
X004515Y002968D01*
X004467Y002919D02*
X004273Y002919D01*
X004225Y002968D01*
X004225Y003064D01*
X004273Y003113D01*
X004196Y003212D02*
X004002Y003018D01*
X004002Y002970D01*
X003903Y002970D02*
X003855Y002970D01*
X003855Y003018D01*
X003903Y003018D01*
X003903Y002970D01*
X003754Y002970D02*
X003560Y002970D01*
X003754Y003164D01*
X003754Y003212D01*
X003705Y003260D01*
X003608Y003260D01*
X003560Y003212D01*
X003459Y003212D02*
X003411Y003260D01*
X003265Y003260D01*
X003265Y002970D01*
X003265Y003067D02*
X003411Y003067D01*
X003459Y003115D01*
X003459Y003212D01*
X004002Y003260D02*
X004196Y003260D01*
X004196Y003212D01*
X004467Y002820D02*
X004515Y002820D01*
X004515Y002772D01*
X004467Y002772D01*
X004467Y002820D01*
X004467Y002671D02*
X004515Y002622D01*
X004515Y002526D01*
X004467Y002477D01*
X004370Y002574D02*
X004370Y002622D01*
X004418Y002671D01*
X004467Y002671D01*
X004370Y002622D02*
X004321Y002671D01*
X004273Y002671D01*
X004225Y002622D01*
X004225Y002526D01*
X004273Y002477D01*
X004273Y002376D02*
X004370Y002376D01*
X004418Y002328D01*
X004418Y002183D01*
X004515Y002183D02*
X004225Y002183D01*
X004225Y002328D01*
X004273Y002376D01*
X004147Y004004D02*
X004196Y004052D01*
X004196Y004100D01*
X004147Y004149D01*
X004002Y004149D01*
X004002Y004052D01*
X004050Y004004D01*
X004147Y004004D01*
X004002Y004149D02*
X004099Y004245D01*
X004196Y004294D01*
X003903Y004052D02*
X003903Y004004D01*
X003855Y004004D01*
X003855Y004052D01*
X003903Y004052D01*
X003754Y004004D02*
X003560Y004004D01*
X003754Y004197D01*
X003754Y004245D01*
X003705Y004294D01*
X003608Y004294D01*
X003560Y004245D01*
X003459Y004245D02*
X003459Y004149D01*
X003411Y004100D01*
X003265Y004100D01*
X003265Y004004D02*
X003265Y004294D01*
X003411Y004294D01*
X003459Y004245D01*
X003560Y004988D02*
X003754Y005181D01*
X003754Y005230D01*
X003705Y005278D01*
X003608Y005278D01*
X003560Y005230D01*
X003459Y005230D02*
X003459Y005133D01*
X003411Y005085D01*
X003265Y005085D01*
X003265Y004988D02*
X003265Y005278D01*
X003411Y005278D01*
X003459Y005230D01*
X003560Y004988D02*
X003754Y004988D01*
X003855Y004988D02*
X003903Y004988D01*
X003903Y005036D01*
X003855Y005036D01*
X003855Y004988D01*
X004002Y005036D02*
X004050Y004988D01*
X004147Y004988D01*
X004196Y005036D01*
X004196Y005133D01*
X004147Y005181D01*
X004099Y005181D01*
X004002Y005133D01*
X004002Y005278D01*
X004196Y005278D01*
X004618Y005377D02*
X004667Y005280D01*
X004763Y005183D01*
X004763Y005328D01*
X004812Y005377D01*
X004860Y005377D01*
X004909Y005328D01*
X004909Y005231D01*
X004860Y005183D01*
X004763Y005183D01*
X004860Y005084D02*
X004909Y005084D01*
X004909Y005036D01*
X004860Y005036D01*
X004860Y005084D01*
X004909Y004935D02*
X004909Y004741D01*
X004715Y004935D01*
X004667Y004935D01*
X004618Y004886D01*
X004618Y004790D01*
X004667Y004741D01*
X004667Y004640D02*
X004618Y004592D01*
X004618Y004446D01*
X004909Y004446D01*
X004812Y004446D02*
X004812Y004592D01*
X004763Y004640D01*
X004667Y004640D01*
X004618Y005824D02*
X004618Y005970D01*
X004667Y006018D01*
X004763Y006018D01*
X004812Y005970D01*
X004812Y005824D01*
X004909Y005824D02*
X004618Y005824D01*
X004667Y006119D02*
X004618Y006167D01*
X004618Y006264D01*
X004667Y006313D01*
X004715Y006313D01*
X004909Y006119D01*
X004909Y006313D01*
X004909Y006414D02*
X004909Y006462D01*
X004860Y006462D01*
X004860Y006414D01*
X004909Y006414D01*
X004909Y006561D02*
X004860Y006561D01*
X004667Y006755D01*
X004618Y006755D01*
X004618Y006561D01*
X004147Y006213D02*
X004002Y006068D01*
X004196Y006068D01*
X004147Y005923D02*
X004147Y006213D01*
X003903Y005971D02*
X003903Y005923D01*
X003855Y005923D01*
X003855Y005971D01*
X003903Y005971D01*
X003754Y005923D02*
X003560Y005923D01*
X003754Y006116D01*
X003754Y006165D01*
X003705Y006213D01*
X003608Y006213D01*
X003560Y006165D01*
X003459Y006165D02*
X003459Y006068D01*
X003411Y006020D01*
X003265Y006020D01*
X003265Y005923D02*
X003265Y006213D01*
X003411Y006213D01*
X003459Y006165D01*
X003560Y007006D02*
X003754Y007199D01*
X003754Y007247D01*
X003705Y007296D01*
X003608Y007296D01*
X003560Y007247D01*
X003459Y007247D02*
X003459Y007151D01*
X003411Y007102D01*
X003265Y007102D01*
X003265Y007006D02*
X003265Y007296D01*
X003411Y007296D01*
X003459Y007247D01*
X003560Y007006D02*
X003754Y007006D01*
X003855Y007006D02*
X003903Y007006D01*
X003903Y007054D01*
X003855Y007054D01*
X003855Y007006D01*
X004002Y007054D02*
X004050Y007006D01*
X004147Y007006D01*
X004196Y007054D01*
X004196Y007102D01*
X004147Y007151D01*
X004099Y007151D01*
X004147Y007151D02*
X004196Y007199D01*
X004196Y007247D01*
X004147Y007296D01*
X004050Y007296D01*
X004002Y007247D01*
X004002Y007990D02*
X004196Y008183D01*
X004196Y008232D01*
X004147Y008280D01*
X004050Y008280D01*
X004002Y008232D01*
X003903Y008038D02*
X003903Y007990D01*
X003855Y007990D01*
X003855Y008038D01*
X003903Y008038D01*
X004002Y007990D02*
X004196Y007990D01*
X003754Y007990D02*
X003560Y007990D01*
X003754Y008183D01*
X003754Y008232D01*
X003705Y008280D01*
X003608Y008280D01*
X003560Y008232D01*
X003459Y008232D02*
X003459Y008135D01*
X003411Y008087D01*
X003265Y008087D01*
X003265Y007990D02*
X003265Y008280D01*
X003411Y008280D01*
X003459Y008232D01*
X003560Y008974D02*
X003754Y009168D01*
X003754Y009216D01*
X003705Y009264D01*
X003608Y009264D01*
X003560Y009216D01*
X003459Y009216D02*
X003411Y009264D01*
X003265Y009264D01*
X003265Y008974D01*
X003265Y009071D02*
X003411Y009071D01*
X003459Y009119D01*
X003459Y009216D01*
X003560Y008974D02*
X003754Y008974D01*
X003855Y008974D02*
X003903Y008974D01*
X003903Y009022D01*
X003855Y009022D01*
X003855Y008974D01*
X004002Y008974D02*
X004196Y008974D01*
X004099Y008974D02*
X004099Y009264D01*
X004002Y009168D01*
X004050Y009909D02*
X004002Y009957D01*
X004196Y010151D01*
X004196Y009957D01*
X004147Y009909D01*
X004050Y009909D01*
X004002Y009957D02*
X004002Y010151D01*
X004050Y010199D01*
X004147Y010199D01*
X004196Y010151D01*
X003903Y009957D02*
X003903Y009909D01*
X003855Y009909D01*
X003855Y009957D01*
X003903Y009957D01*
X003754Y009909D02*
X003560Y009909D01*
X003754Y010103D01*
X003754Y010151D01*
X003705Y010199D01*
X003608Y010199D01*
X003560Y010151D01*
X003459Y010151D02*
X003459Y010054D01*
X003411Y010006D01*
X003265Y010006D01*
X003265Y009909D02*
X003265Y010199D01*
X003411Y010199D01*
X003459Y010151D01*
X003608Y010943D02*
X003705Y010943D01*
X003754Y010991D01*
X003754Y011039D01*
X003705Y011088D01*
X003560Y011088D01*
X003560Y010991D01*
X003608Y010943D01*
X003560Y011088D02*
X003657Y011184D01*
X003754Y011233D01*
X004002Y011233D02*
X004196Y011233D01*
X004196Y011184D01*
X004002Y010991D01*
X004002Y010943D01*
X003903Y010943D02*
X003855Y010943D01*
X003855Y010991D01*
X003903Y010991D01*
X003903Y010943D01*
X003459Y011088D02*
X003411Y011039D01*
X003265Y011039D01*
X003265Y010943D02*
X003265Y011233D01*
X003411Y011233D01*
X003459Y011184D01*
X003459Y011088D01*
X003608Y011976D02*
X003705Y011976D01*
X003754Y012024D01*
X003754Y012073D01*
X003705Y012121D01*
X003560Y012121D01*
X003560Y012024D01*
X003608Y011976D01*
X003560Y012121D02*
X003657Y012218D01*
X003754Y012266D01*
X004002Y012121D02*
X004147Y012121D01*
X004196Y012073D01*
X004196Y012024D01*
X004147Y011976D01*
X004050Y011976D01*
X004002Y012024D01*
X004002Y012121D01*
X004099Y012218D01*
X004196Y012266D01*
X003903Y012024D02*
X003903Y011976D01*
X003855Y011976D01*
X003855Y012024D01*
X003903Y012024D01*
X003459Y012121D02*
X003411Y012073D01*
X003265Y012073D01*
X003265Y011976D02*
X003265Y012266D01*
X003411Y012266D01*
X003459Y012218D01*
X003459Y012121D01*
X003608Y012960D02*
X003705Y012960D01*
X003754Y013009D01*
X003754Y013057D01*
X003705Y013105D01*
X003560Y013105D01*
X003560Y013009D01*
X003608Y012960D01*
X003560Y013105D02*
X003657Y013202D01*
X003754Y013251D01*
X004002Y013251D02*
X004002Y013105D01*
X004099Y013154D01*
X004147Y013154D01*
X004196Y013105D01*
X004196Y013009D01*
X004147Y012960D01*
X004050Y012960D01*
X004002Y013009D01*
X003903Y013009D02*
X003903Y012960D01*
X003855Y012960D01*
X003855Y013009D01*
X003903Y013009D01*
X004002Y013251D02*
X004196Y013251D01*
X004147Y013895D02*
X004147Y014186D01*
X004002Y014040D01*
X004196Y014040D01*
X003903Y013944D02*
X003903Y013895D01*
X003855Y013895D01*
X003855Y013944D01*
X003903Y013944D01*
X003754Y013944D02*
X003754Y013992D01*
X003705Y014040D01*
X003560Y014040D01*
X003560Y013944D01*
X003608Y013895D01*
X003705Y013895D01*
X003754Y013944D01*
X003657Y014137D02*
X003560Y014040D01*
X003459Y014040D02*
X003411Y013992D01*
X003265Y013992D01*
X003265Y013895D02*
X003265Y014186D01*
X003411Y014186D01*
X003459Y014137D01*
X003459Y014040D01*
X003657Y014137D02*
X003754Y014186D01*
X003705Y014929D02*
X003754Y014977D01*
X003754Y015026D01*
X003705Y015074D01*
X003560Y015074D01*
X003560Y014977D01*
X003608Y014929D01*
X003705Y014929D01*
X003855Y014929D02*
X003903Y014929D01*
X003903Y014977D01*
X003855Y014977D01*
X003855Y014929D01*
X004002Y014977D02*
X004050Y014929D01*
X004147Y014929D01*
X004196Y014977D01*
X004196Y015026D01*
X004147Y015074D01*
X004099Y015074D01*
X004147Y015074D02*
X004196Y015122D01*
X004196Y015171D01*
X004147Y015219D01*
X004050Y015219D01*
X004002Y015171D01*
X003754Y015219D02*
X003657Y015171D01*
X003560Y015074D01*
X003459Y015074D02*
X003411Y015026D01*
X003265Y015026D01*
X003265Y014929D02*
X003265Y015219D01*
X003411Y015219D01*
X003459Y015171D01*
X003459Y015074D01*
X003608Y015913D02*
X003705Y015913D01*
X003754Y015961D01*
X003754Y016010D01*
X003705Y016058D01*
X003560Y016058D01*
X003560Y015961D01*
X003608Y015913D01*
X003560Y016058D02*
X003657Y016155D01*
X003754Y016203D01*
X004002Y016155D02*
X004050Y016203D01*
X004147Y016203D01*
X004196Y016155D01*
X004196Y016107D01*
X004002Y015913D01*
X004196Y015913D01*
X004274Y015862D02*
X004371Y015959D01*
X004564Y015959D01*
X004564Y016060D02*
X004564Y016254D01*
X004564Y016157D02*
X004274Y016157D01*
X004371Y016060D01*
X004419Y015959D02*
X004419Y015765D01*
X004371Y015765D02*
X004274Y015862D01*
X004371Y015765D02*
X004564Y015765D01*
X005111Y015862D02*
X005207Y015959D01*
X005401Y015959D01*
X005401Y016060D02*
X005401Y016254D01*
X005401Y016157D02*
X005111Y016157D01*
X005207Y016060D01*
X005256Y015959D02*
X005256Y015765D01*
X005207Y015765D02*
X005111Y015862D01*
X005207Y015765D02*
X005401Y015765D01*
X005256Y016355D02*
X005111Y016500D01*
X005401Y016500D01*
X005401Y016649D02*
X005111Y016843D01*
X005111Y016944D02*
X005111Y017089D01*
X005159Y017137D01*
X005352Y017137D01*
X005401Y017089D01*
X005401Y016944D01*
X005111Y016944D01*
X005207Y017239D02*
X005111Y017335D01*
X005207Y017432D01*
X005401Y017432D01*
X005352Y017533D02*
X005401Y017582D01*
X005401Y017678D01*
X005352Y017727D01*
X005352Y017828D02*
X005159Y018021D01*
X005352Y018021D01*
X005401Y017973D01*
X005401Y017876D01*
X005352Y017828D01*
X005159Y017828D01*
X005111Y017876D01*
X005111Y017973D01*
X005159Y018021D01*
X005401Y018123D02*
X005111Y018316D01*
X005111Y018417D02*
X005111Y018562D01*
X005159Y018611D01*
X005256Y018611D01*
X005304Y018562D01*
X005304Y018417D01*
X005401Y018417D02*
X005111Y018417D01*
X005111Y018712D02*
X005111Y018905D01*
X005159Y018905D01*
X005352Y018712D01*
X005401Y018712D01*
X005401Y019007D02*
X005401Y019055D01*
X005352Y019055D01*
X005352Y019007D01*
X005401Y019007D01*
X005352Y019154D02*
X005401Y019202D01*
X005401Y019299D01*
X005352Y019347D01*
X005304Y019347D01*
X005256Y019299D01*
X005256Y019154D01*
X005352Y019154D01*
X005256Y019154D02*
X005159Y019251D01*
X005111Y019347D01*
X004564Y019154D02*
X004516Y019154D01*
X004322Y019347D01*
X004274Y019347D01*
X004274Y019154D01*
X004516Y019055D02*
X004564Y019055D01*
X004564Y019007D01*
X004516Y019007D01*
X004516Y019055D01*
X004322Y018905D02*
X004516Y018712D01*
X004564Y018712D01*
X004419Y018611D02*
X004467Y018562D01*
X004467Y018417D01*
X004564Y018417D02*
X004274Y018417D01*
X004274Y018562D01*
X004322Y018611D01*
X004419Y018611D01*
X004274Y018712D02*
X004274Y018905D01*
X004322Y018905D01*
X004274Y018316D02*
X004564Y018123D01*
X004564Y018021D02*
X004564Y017828D01*
X004564Y017925D02*
X004274Y017925D01*
X004371Y017828D01*
X004322Y017727D02*
X004274Y017678D01*
X004274Y017582D01*
X004322Y017533D01*
X004516Y017533D01*
X004564Y017582D01*
X004564Y017678D01*
X004516Y017727D01*
X004564Y017432D02*
X004371Y017432D01*
X004274Y017335D01*
X004371Y017239D01*
X004564Y017239D01*
X004516Y017137D02*
X004322Y017137D01*
X004274Y017089D01*
X004274Y016944D01*
X004564Y016944D01*
X004564Y017089D01*
X004516Y017137D01*
X004419Y017239D02*
X004419Y017432D01*
X004099Y017188D02*
X004002Y017091D01*
X004099Y017188D02*
X004099Y016897D01*
X004002Y016897D02*
X004196Y016897D01*
X004274Y016843D02*
X004564Y016649D01*
X004516Y016548D02*
X004564Y016500D01*
X004564Y016403D01*
X004516Y016355D01*
X004419Y016355D02*
X004371Y016451D01*
X004371Y016500D01*
X004419Y016548D01*
X004516Y016548D01*
X004419Y016355D02*
X004274Y016355D01*
X004274Y016548D01*
X003903Y016897D02*
X003855Y016897D01*
X003855Y016946D01*
X003903Y016946D01*
X003903Y016897D01*
X003754Y016946D02*
X003754Y016994D01*
X003705Y017042D01*
X003560Y017042D01*
X003560Y016946D01*
X003608Y016897D01*
X003705Y016897D01*
X003754Y016946D01*
X003657Y017139D02*
X003560Y017042D01*
X003459Y017042D02*
X003411Y016994D01*
X003265Y016994D01*
X003265Y016897D02*
X003265Y017188D01*
X003411Y017188D01*
X003459Y017139D01*
X003459Y017042D01*
X003657Y017139D02*
X003754Y017188D01*
X003805Y017931D02*
X003854Y017931D01*
X003854Y017979D01*
X003805Y017979D01*
X003805Y017931D01*
X003704Y017979D02*
X003704Y018027D01*
X003656Y018076D01*
X003511Y018076D01*
X003511Y017979D01*
X003559Y017931D01*
X003656Y017931D01*
X003704Y017979D01*
X003608Y018173D02*
X003511Y018076D01*
X003410Y018076D02*
X003361Y018027D01*
X003216Y018027D01*
X003216Y017931D02*
X003216Y018221D01*
X003361Y018221D01*
X003410Y018173D01*
X003410Y018076D01*
X003608Y018173D02*
X003704Y018221D01*
X003953Y018173D02*
X003953Y017979D01*
X004146Y018173D01*
X004146Y017979D01*
X004098Y017931D01*
X004001Y017931D01*
X003953Y017979D01*
X003953Y018173D02*
X004001Y018221D01*
X004098Y018221D01*
X004146Y018173D01*
X005111Y017678D02*
X005111Y017582D01*
X005159Y017533D01*
X005352Y017533D01*
X005256Y017432D02*
X005256Y017239D01*
X005207Y017239D02*
X005401Y017239D01*
X005111Y017678D02*
X005159Y017727D01*
X005996Y017732D02*
X005996Y017829D01*
X006045Y017877D01*
X006093Y017877D01*
X006141Y017829D01*
X006190Y017877D01*
X006238Y017877D01*
X006287Y017829D01*
X006287Y017732D01*
X006238Y017683D01*
X006287Y017582D02*
X006287Y017389D01*
X006287Y017486D02*
X005996Y017486D01*
X006093Y017389D01*
X006093Y017288D02*
X006287Y017288D01*
X006141Y017288D02*
X006141Y017094D01*
X006093Y017094D02*
X005996Y017191D01*
X006093Y017288D01*
X006093Y017094D02*
X006287Y017094D01*
X006784Y017191D02*
X006880Y017288D01*
X007074Y017288D01*
X007074Y017389D02*
X007074Y017582D01*
X007074Y017486D02*
X006784Y017486D01*
X006880Y017389D01*
X006929Y017288D02*
X006929Y017094D01*
X006880Y017094D02*
X006784Y017191D01*
X006880Y017094D02*
X007074Y017094D01*
X007074Y017683D02*
X006880Y017877D01*
X006832Y017877D01*
X006784Y017829D01*
X006784Y017732D01*
X006832Y017683D01*
X007074Y017683D02*
X007074Y017877D01*
X007074Y017978D02*
X006784Y018172D01*
X006784Y018273D02*
X006784Y018418D01*
X006832Y018466D01*
X006929Y018466D01*
X006977Y018418D01*
X006977Y018273D01*
X007074Y018273D02*
X006784Y018273D01*
X006784Y018567D02*
X006784Y018761D01*
X006832Y018761D01*
X007026Y018567D01*
X007074Y018567D01*
X007074Y018862D02*
X007074Y018910D01*
X007026Y018910D01*
X007026Y018862D01*
X007074Y018862D01*
X006929Y019009D02*
X006929Y019203D01*
X007074Y019154D02*
X006784Y019154D01*
X006929Y019009D01*
X006287Y019058D02*
X006238Y019009D01*
X006287Y019058D02*
X006287Y019154D01*
X006238Y019203D01*
X006141Y019203D01*
X006093Y019154D01*
X006093Y019106D01*
X006141Y019009D01*
X005996Y019009D01*
X005996Y019203D01*
X006238Y018910D02*
X006287Y018910D01*
X006287Y018862D01*
X006238Y018862D01*
X006238Y018910D01*
X006045Y018761D02*
X006238Y018567D01*
X006287Y018567D01*
X006141Y018466D02*
X006045Y018466D01*
X005996Y018418D01*
X005996Y018273D01*
X006287Y018273D01*
X006190Y018273D02*
X006190Y018418D01*
X006141Y018466D01*
X005996Y018567D02*
X005996Y018761D01*
X006045Y018761D01*
X005996Y018172D02*
X006287Y017978D01*
X006141Y017829D02*
X006141Y017780D01*
X006045Y017683D02*
X005996Y017732D01*
X005256Y016548D02*
X005256Y016355D01*
X003903Y015961D02*
X003903Y015913D01*
X003855Y015913D01*
X003855Y015961D01*
X003903Y015961D01*
X003459Y016058D02*
X003411Y016010D01*
X003265Y016010D01*
X003265Y015913D02*
X003265Y016203D01*
X003411Y016203D01*
X003459Y016155D01*
X003459Y016058D01*
X006880Y016007D02*
X006880Y015910D01*
X006929Y015862D01*
X007026Y015862D01*
X007074Y015910D01*
X007074Y016007D01*
X006977Y016055D02*
X006977Y015862D01*
X007026Y015761D02*
X006880Y015761D01*
X007026Y015761D02*
X007074Y015712D01*
X007026Y015664D01*
X007074Y015616D01*
X007026Y015567D01*
X006880Y015567D01*
X006929Y015466D02*
X006880Y015418D01*
X006880Y015321D01*
X006929Y015273D01*
X007026Y015273D01*
X007074Y015321D01*
X007074Y015418D01*
X007026Y015466D01*
X006929Y015466D01*
X006929Y015171D02*
X006977Y015123D01*
X006977Y014978D01*
X007074Y014978D02*
X006784Y014978D01*
X006784Y015123D01*
X006832Y015171D01*
X006929Y015171D01*
X007645Y014631D02*
X007839Y014631D01*
X008236Y014087D02*
X008429Y013797D01*
X008236Y013797D02*
X008429Y014087D01*
X008531Y014087D02*
X008724Y014087D01*
X008627Y014087D02*
X008627Y013797D01*
X008825Y013797D02*
X009019Y013990D01*
X009019Y014039D01*
X008970Y014087D01*
X008874Y014087D01*
X008825Y014039D01*
X008825Y013797D02*
X009019Y013797D01*
X008874Y014534D02*
X008874Y014728D01*
X008777Y014631D02*
X008971Y014631D01*
X007074Y016157D02*
X006880Y016157D01*
X006880Y016253D02*
X006880Y016302D01*
X006880Y016253D02*
X006977Y016157D01*
X006977Y016055D02*
X006929Y016055D01*
X006880Y016007D01*
X006314Y013253D02*
X006314Y013059D01*
X006217Y013156D02*
X006411Y013156D01*
X006169Y012958D02*
X006169Y012765D01*
X006459Y012765D01*
X006459Y012664D02*
X006459Y012470D01*
X006169Y012470D01*
X006169Y012664D01*
X006016Y012666D02*
X005726Y012666D01*
X005726Y012860D01*
X005871Y012763D02*
X005871Y012666D01*
X006016Y012565D02*
X006016Y012372D01*
X005726Y012372D01*
X005726Y012565D01*
X005871Y012468D02*
X005871Y012372D01*
X005871Y012270D02*
X005919Y012222D01*
X005919Y012077D01*
X005919Y012174D02*
X006016Y012270D01*
X005871Y012270D02*
X005774Y012270D01*
X005726Y012222D01*
X005726Y012077D01*
X006016Y012077D01*
X005919Y011976D02*
X005726Y011976D01*
X005919Y011976D02*
X006016Y011879D01*
X005919Y011782D01*
X005726Y011782D01*
X006169Y011881D02*
X006362Y011881D01*
X006459Y011977D01*
X006362Y012074D01*
X006169Y012074D01*
X006169Y012175D02*
X006169Y012320D01*
X006217Y012369D01*
X006314Y012369D01*
X006362Y012320D01*
X006362Y012175D01*
X006459Y012175D02*
X006169Y012175D01*
X006362Y012272D02*
X006459Y012369D01*
X006314Y012470D02*
X006314Y012567D01*
X006314Y012765D02*
X006314Y012861D01*
X005871Y012961D02*
X005871Y013154D01*
X003459Y013202D02*
X003459Y013105D01*
X003411Y013057D01*
X003265Y013057D01*
X003265Y012960D02*
X003265Y013251D01*
X003411Y013251D01*
X003459Y013202D01*
X006120Y009166D02*
X006313Y008876D01*
X006120Y008876D02*
X006313Y009166D01*
X006414Y009166D02*
X006608Y009166D01*
X006511Y009166D02*
X006511Y008876D01*
X006709Y008876D02*
X006903Y008876D01*
X006806Y008876D02*
X006806Y009166D01*
X006709Y009069D01*
X009168Y010604D02*
X009168Y010851D01*
X009229Y010913D01*
X009353Y010913D01*
X009414Y010851D01*
X009414Y010604D01*
X009353Y010543D01*
X009229Y010543D01*
X009168Y010604D01*
X009536Y010543D02*
X009536Y010789D01*
X009536Y010666D02*
X009659Y010789D01*
X009721Y010789D01*
X009843Y010728D02*
X009905Y010789D01*
X010090Y010789D01*
X010090Y010913D02*
X010090Y010543D01*
X009905Y010543D01*
X009843Y010604D01*
X009843Y010728D01*
X010211Y010728D02*
X010273Y010789D01*
X010396Y010789D01*
X010458Y010728D01*
X010458Y010666D01*
X010211Y010666D01*
X010211Y010604D02*
X010211Y010728D01*
X010211Y010604D02*
X010273Y010543D01*
X010396Y010543D01*
X010579Y010543D02*
X010579Y010789D01*
X010579Y010666D02*
X010703Y010789D01*
X010765Y010789D01*
X011255Y010913D02*
X011255Y010543D01*
X011502Y010543D02*
X011255Y010913D01*
X011502Y010913D02*
X011502Y010543D01*
X011623Y010604D02*
X011623Y010789D01*
X011623Y010604D02*
X011685Y010543D01*
X011870Y010543D01*
X011870Y010789D01*
X011991Y010789D02*
X012053Y010789D01*
X012115Y010728D01*
X012176Y010789D01*
X012238Y010728D01*
X012238Y010543D01*
X012360Y010543D02*
X012545Y010543D01*
X012607Y010604D01*
X012607Y010728D01*
X012545Y010789D01*
X012360Y010789D01*
X012360Y010913D02*
X012360Y010543D01*
X012115Y010543D02*
X012115Y010728D01*
X011991Y010789D02*
X011991Y010543D01*
X012728Y010604D02*
X012728Y010728D01*
X012790Y010789D01*
X012913Y010789D01*
X012975Y010728D01*
X012975Y010666D01*
X012728Y010666D01*
X012728Y010604D02*
X012790Y010543D01*
X012913Y010543D01*
X013096Y010543D02*
X013096Y010789D01*
X013096Y010666D02*
X013220Y010789D01*
X013281Y010789D01*
X015839Y010792D02*
X016081Y010792D01*
X016129Y010743D01*
X016129Y010646D01*
X016081Y010598D01*
X015839Y010598D01*
X015887Y010893D02*
X015839Y010941D01*
X015839Y011038D01*
X015887Y011086D01*
X015984Y011038D02*
X016032Y011086D01*
X016081Y011086D01*
X016129Y011038D01*
X016129Y010941D01*
X016081Y010893D01*
X015984Y010941D02*
X015984Y011038D01*
X015984Y010941D02*
X015936Y010893D01*
X015887Y010893D01*
X016329Y010938D02*
X016378Y010987D01*
X016474Y010987D01*
X016523Y010938D01*
X016523Y010841D01*
X016474Y010793D01*
X016378Y010793D01*
X016329Y010841D01*
X016329Y010938D01*
X016329Y011088D02*
X016329Y011184D01*
X016281Y011136D02*
X016474Y011136D01*
X016523Y011184D01*
X016523Y011284D02*
X016523Y011381D01*
X016523Y011333D02*
X016233Y011333D01*
X016233Y011284D01*
X016129Y011332D02*
X016129Y011187D01*
X015839Y011187D01*
X015839Y011332D01*
X015887Y011381D01*
X015936Y011381D01*
X015984Y011332D01*
X015984Y011187D01*
X015984Y011332D02*
X016032Y011381D01*
X016081Y011381D01*
X016129Y011332D01*
X016329Y011529D02*
X016378Y011481D01*
X016474Y011481D01*
X016523Y011529D01*
X016523Y011626D01*
X016474Y011674D01*
X016378Y011674D01*
X016329Y011626D01*
X016329Y011529D01*
X016474Y011775D02*
X016426Y011824D01*
X016426Y011969D01*
X016378Y011969D02*
X016523Y011969D01*
X016523Y011824D01*
X016474Y011775D01*
X016329Y011824D02*
X016329Y011920D01*
X016378Y011969D01*
X016378Y012070D02*
X016329Y012118D01*
X016329Y012263D01*
X016233Y012263D02*
X016523Y012263D01*
X016523Y012118D01*
X016474Y012070D01*
X016378Y012070D01*
X016378Y012365D02*
X016329Y012413D01*
X016329Y012510D01*
X016378Y012558D01*
X016426Y012558D01*
X016426Y012365D01*
X016474Y012365D02*
X016378Y012365D01*
X016474Y012365D02*
X016523Y012413D01*
X016523Y012510D01*
X016523Y012659D02*
X016329Y012659D01*
X016426Y012659D02*
X016329Y012756D01*
X016329Y012804D01*
X016821Y011872D02*
X016966Y011872D01*
X016821Y011872D02*
X016772Y011823D01*
X016772Y011726D01*
X016821Y011678D01*
X016772Y011577D02*
X016772Y011432D01*
X016821Y011383D01*
X016917Y011383D01*
X016966Y011432D01*
X016966Y011577D01*
X016966Y011678D02*
X016675Y011678D01*
X016772Y011284D02*
X016772Y011187D01*
X016724Y011235D02*
X016917Y011235D01*
X016966Y011284D01*
X016966Y011087D02*
X016966Y010991D01*
X016966Y011039D02*
X016772Y011039D01*
X016772Y010991D01*
X016772Y010889D02*
X016917Y010889D01*
X016966Y010841D01*
X016917Y010793D01*
X016966Y010744D01*
X016917Y010696D01*
X016772Y010696D01*
X016724Y010595D02*
X016675Y010546D01*
X016675Y010450D01*
X016724Y010401D01*
X016772Y010401D01*
X016821Y010450D01*
X016821Y010546D01*
X016869Y010595D01*
X016917Y010595D01*
X016966Y010546D01*
X016966Y010450D01*
X016917Y010401D01*
X016523Y010349D02*
X016523Y010204D01*
X016233Y010204D01*
X016233Y010349D01*
X016281Y010397D01*
X016329Y010397D01*
X016378Y010349D01*
X016378Y010204D01*
X016378Y010349D02*
X016426Y010397D01*
X016474Y010397D01*
X016523Y010349D01*
X016474Y010498D02*
X016523Y010547D01*
X016523Y010644D01*
X016474Y010692D01*
X016378Y010692D01*
X016329Y010644D01*
X016329Y010547D01*
X016378Y010498D01*
X016474Y010498D01*
X016627Y011039D02*
X016675Y011039D01*
X016746Y016061D02*
X016794Y016109D01*
X016746Y016157D01*
X016649Y016157D01*
X016601Y016206D01*
X016649Y016254D01*
X016794Y016254D01*
X016895Y016206D02*
X016944Y016254D01*
X017041Y016254D01*
X017089Y016206D01*
X017089Y016157D01*
X016895Y016157D01*
X016895Y016109D02*
X016895Y016206D01*
X016895Y016109D02*
X016944Y016061D01*
X017041Y016061D01*
X017238Y016109D02*
X017287Y016061D01*
X017238Y016109D02*
X017238Y016303D01*
X017190Y016254D02*
X017287Y016254D01*
X016746Y016061D02*
X016601Y016061D01*
X016500Y016157D02*
X016306Y016157D01*
X016306Y016109D02*
X016306Y016206D01*
X016354Y016254D01*
X016451Y016254D01*
X016500Y016206D01*
X016500Y016157D01*
X016451Y016061D02*
X016354Y016061D01*
X016306Y016109D01*
X016205Y016061D02*
X016108Y016157D01*
X016157Y016157D02*
X016011Y016157D01*
X016011Y016061D02*
X016011Y016351D01*
X016157Y016351D01*
X016205Y016303D01*
X016205Y016206D01*
X016157Y016157D01*
X018103Y018078D02*
X018103Y018224D01*
X018151Y018272D01*
X018248Y018272D01*
X018296Y018224D01*
X018296Y018078D01*
X018296Y018224D01*
X018248Y018272D01*
X018151Y018272D01*
X018103Y018224D01*
X018103Y018078D01*
X018393Y018078D01*
X018103Y018078D01*
X018296Y018175D02*
X018393Y018272D01*
X018296Y018175D01*
X014308Y018275D02*
X014018Y018275D01*
X014308Y018468D01*
X014018Y018468D01*
X014018Y018569D02*
X014018Y018714D01*
X014066Y018763D01*
X014260Y018763D01*
X014308Y018714D01*
X014308Y018569D01*
X014018Y018569D01*
D12*
X015504Y016587D02*
X015603Y016489D01*
X017719Y016489D01*
X017817Y016587D01*
X017867Y014569D02*
X017867Y014028D01*
X018014Y014422D02*
X017867Y014569D01*
X017719Y014422D01*
X015455Y012306D02*
X015455Y011420D01*
X015652Y011223D01*
X015652Y012109D02*
X015455Y012306D01*
X015258Y012109D01*
X017571Y008467D02*
X017719Y008319D01*
X017079Y008319D01*
X017571Y008172D02*
X017719Y008319D01*
X013487Y005908D02*
X013241Y005908D01*
X012994Y005662D01*
X013191Y005662D01*
X012994Y005662D02*
X012994Y005859D01*
X009648Y005859D02*
X009550Y005859D01*
X009304Y005613D01*
X009500Y005613D01*
X009304Y005613D02*
X009304Y005809D01*
X005908Y008959D02*
X005662Y008959D01*
X005416Y009205D01*
X005613Y009205D01*
X005416Y009205D02*
X005416Y009008D01*
X005908Y010485D02*
X006105Y010485D01*
X005859Y010731D01*
X005859Y011764D01*
X006154Y011469D02*
X006302Y011321D01*
X006302Y011764D01*
X006449Y011469D02*
X006302Y011321D01*
X006105Y010681D02*
X006105Y010485D01*
X009107Y013930D02*
X009353Y013930D01*
X009599Y014176D01*
X009599Y013979D01*
X009599Y014176D02*
X009402Y014176D01*
D13*
X007040Y016292D02*
X007040Y016341D01*
X007433Y016735D01*
X007433Y016489D01*
X007433Y016735D02*
X007187Y016735D01*
D14*
X007819Y016627D02*
X007841Y016632D01*
X007861Y016640D01*
X007879Y016651D01*
X007896Y016666D01*
X007910Y016682D01*
X007922Y016701D01*
X007930Y016721D01*
X007935Y016742D01*
X007937Y016764D01*
X007935Y016786D01*
X007930Y016807D01*
X007922Y016827D01*
X007910Y016846D01*
X007896Y016862D01*
X007879Y016877D01*
X007861Y016888D01*
X007841Y016896D01*
X007819Y016901D01*
X007987Y016991D02*
X008548Y016991D01*
X008477Y016941D02*
X008479Y016953D01*
X008484Y016964D01*
X008492Y016973D01*
X008503Y016979D01*
X008515Y016982D01*
X008527Y016981D01*
X008539Y016977D01*
X008548Y016969D01*
X008555Y016959D01*
X008559Y016947D01*
X008559Y016935D01*
X008555Y016923D01*
X008548Y016913D01*
X008538Y016905D01*
X008527Y016901D01*
X008515Y016900D01*
X008503Y016903D01*
X008492Y016909D01*
X008484Y016918D01*
X008479Y016929D01*
X008477Y016941D01*
X008548Y016901D02*
X008526Y016896D01*
X008506Y016888D01*
X008488Y016877D01*
X008471Y016862D01*
X008457Y016846D01*
X008445Y016827D01*
X008437Y016807D01*
X008432Y016786D01*
X008430Y016764D01*
X008432Y016742D01*
X008437Y016721D01*
X008445Y016701D01*
X008457Y016682D01*
X008471Y016666D01*
X008488Y016651D01*
X008506Y016640D01*
X008526Y016632D01*
X008548Y016627D01*
X008390Y016538D02*
X007977Y016538D01*
X014106Y016688D02*
X014128Y016693D01*
X014148Y016701D01*
X014166Y016712D01*
X014183Y016727D01*
X014197Y016743D01*
X014209Y016762D01*
X014217Y016782D01*
X014222Y016803D01*
X014224Y016825D01*
X014222Y016847D01*
X014217Y016868D01*
X014209Y016888D01*
X014197Y016907D01*
X014183Y016923D01*
X014166Y016938D01*
X014148Y016949D01*
X014128Y016957D01*
X014106Y016962D01*
X014264Y017052D02*
X014678Y017052D01*
X014835Y016962D02*
X014813Y016957D01*
X014793Y016949D01*
X014775Y016938D01*
X014758Y016923D01*
X014744Y016907D01*
X014732Y016888D01*
X014724Y016868D01*
X014719Y016847D01*
X014717Y016825D01*
X014719Y016803D01*
X014724Y016782D01*
X014732Y016762D01*
X014744Y016743D01*
X014758Y016727D01*
X014775Y016712D01*
X014793Y016701D01*
X014813Y016693D01*
X014835Y016688D01*
X014668Y016599D02*
X014107Y016599D01*
X014095Y016648D02*
X014097Y016660D01*
X014102Y016671D01*
X014110Y016680D01*
X014121Y016686D01*
X014133Y016689D01*
X014145Y016688D01*
X014157Y016684D01*
X014166Y016676D01*
X014173Y016666D01*
X014177Y016654D01*
X014177Y016642D01*
X014173Y016630D01*
X014166Y016620D01*
X014156Y016612D01*
X014145Y016608D01*
X014133Y016607D01*
X014121Y016610D01*
X014110Y016616D01*
X014102Y016625D01*
X014097Y016636D01*
X014095Y016648D01*
X012145Y010219D02*
X011991Y010219D01*
X011914Y010142D01*
X011914Y009835D01*
X012221Y010142D01*
X012221Y009835D01*
X012145Y009759D01*
X011991Y009759D01*
X011914Y009835D01*
X011761Y009835D02*
X011761Y009912D01*
X011684Y009989D01*
X011454Y009989D01*
X011454Y009835D01*
X011531Y009759D01*
X011684Y009759D01*
X011761Y009835D01*
X011607Y010142D02*
X011454Y009989D01*
X011300Y009989D02*
X011300Y009835D01*
X011224Y009759D01*
X011070Y009759D01*
X010994Y009835D01*
X010994Y009989D02*
X011147Y010066D01*
X011224Y010066D01*
X011300Y009989D01*
X011300Y010219D02*
X010994Y010219D01*
X010994Y009989D01*
X010840Y009989D02*
X010610Y009989D01*
X010533Y010066D01*
X010533Y010142D01*
X010610Y010219D01*
X010763Y010219D01*
X010840Y010142D01*
X010840Y009835D01*
X010763Y009759D01*
X010610Y009759D01*
X010533Y009835D01*
X010380Y009989D02*
X010073Y009989D01*
X010303Y010219D01*
X010303Y009759D01*
X011607Y010142D02*
X011761Y010219D01*
X012145Y010219D02*
X012221Y010142D01*
X015380Y007479D02*
X015434Y007534D01*
X015542Y007534D01*
X015705Y007371D01*
X015380Y007045D01*
X015217Y007208D01*
X015217Y007316D01*
X015271Y007371D01*
X015380Y007371D01*
X015542Y007208D01*
X015651Y007099D02*
X015868Y006882D01*
X015922Y006937D02*
X015705Y006720D01*
X015814Y006611D02*
X016031Y006394D01*
X016356Y006720D01*
X016410Y006557D02*
X016302Y006448D01*
X016302Y006340D01*
X016465Y006177D01*
X016573Y006069D02*
X016519Y006014D01*
X016519Y005906D01*
X016627Y005797D01*
X016736Y005797D01*
X016844Y005689D02*
X016844Y005580D01*
X017007Y005417D01*
X017333Y005743D01*
X017170Y005906D01*
X017062Y005906D01*
X016844Y005689D01*
X016790Y005960D02*
X016682Y006069D01*
X016573Y006069D01*
X016356Y006069D02*
X016682Y006394D01*
X016519Y006557D01*
X016410Y006557D01*
X016736Y006231D02*
X016844Y006231D01*
X016953Y006123D01*
X016953Y006014D01*
X016899Y005960D01*
X016790Y005960D01*
X017279Y005472D02*
X017496Y005255D01*
X017496Y005038D02*
X017767Y005309D01*
X017984Y005092D02*
X017713Y004821D01*
X017604Y004821D01*
X017496Y004929D01*
X017496Y005038D01*
X018092Y004983D02*
X018309Y004766D01*
X018201Y004875D02*
X017875Y004549D01*
X018092Y004332D02*
X018418Y004332D01*
X018418Y004224D02*
X018418Y004658D01*
X018635Y004441D02*
X018309Y004115D01*
X015922Y006937D02*
X015922Y007154D01*
X015705Y007154D01*
X015488Y006937D01*
X015380Y007371D02*
X015380Y007479D01*
X014509Y003270D02*
X014504Y003248D01*
X014496Y003228D01*
X014485Y003210D01*
X014470Y003193D01*
X014454Y003179D01*
X014435Y003167D01*
X014415Y003159D01*
X014394Y003154D01*
X014372Y003152D01*
X014350Y003154D01*
X014329Y003159D01*
X014309Y003167D01*
X014290Y003179D01*
X014274Y003193D01*
X014259Y003210D01*
X014248Y003228D01*
X014240Y003248D01*
X014235Y003270D01*
X014146Y003113D02*
X014146Y002699D01*
X014235Y002541D02*
X014240Y002563D01*
X014248Y002583D01*
X014259Y002601D01*
X014274Y002618D01*
X014290Y002632D01*
X014309Y002644D01*
X014329Y002652D01*
X014350Y002657D01*
X014372Y002659D01*
X014394Y002657D01*
X014415Y002652D01*
X014435Y002644D01*
X014454Y002632D01*
X014470Y002618D01*
X014485Y002601D01*
X014496Y002583D01*
X014504Y002563D01*
X014509Y002541D01*
X014509Y002571D02*
X014511Y002583D01*
X014516Y002594D01*
X014524Y002603D01*
X014535Y002609D01*
X014547Y002612D01*
X014559Y002611D01*
X014571Y002607D01*
X014580Y002599D01*
X014587Y002589D01*
X014591Y002577D01*
X014591Y002565D01*
X014587Y002553D01*
X014580Y002543D01*
X014570Y002535D01*
X014559Y002531D01*
X014547Y002530D01*
X014535Y002533D01*
X014524Y002539D01*
X014516Y002548D01*
X014511Y002559D01*
X014509Y002571D01*
X014599Y002542D02*
X014599Y003103D01*
X013811Y003103D02*
X013811Y002542D01*
X013721Y002571D02*
X013723Y002583D01*
X013728Y002594D01*
X013736Y002603D01*
X013747Y002609D01*
X013759Y002612D01*
X013771Y002611D01*
X013783Y002607D01*
X013792Y002599D01*
X013799Y002589D01*
X013803Y002577D01*
X013803Y002565D01*
X013799Y002553D01*
X013792Y002543D01*
X013782Y002535D01*
X013771Y002531D01*
X013759Y002530D01*
X013747Y002533D01*
X013736Y002539D01*
X013728Y002548D01*
X013723Y002559D01*
X013721Y002571D01*
X013722Y002541D02*
X013717Y002563D01*
X013709Y002583D01*
X013698Y002601D01*
X013683Y002618D01*
X013667Y002632D01*
X013648Y002644D01*
X013628Y002652D01*
X013607Y002657D01*
X013585Y002659D01*
X013563Y002657D01*
X013542Y002652D01*
X013522Y002644D01*
X013503Y002632D01*
X013487Y002618D01*
X013472Y002601D01*
X013461Y002583D01*
X013453Y002563D01*
X013448Y002541D01*
X013359Y002699D02*
X013359Y003113D01*
X013448Y003270D02*
X013453Y003248D01*
X013461Y003228D01*
X013472Y003210D01*
X013487Y003193D01*
X013503Y003179D01*
X013522Y003167D01*
X013542Y003159D01*
X013563Y003154D01*
X013585Y003152D01*
X013607Y003154D01*
X013628Y003159D01*
X013648Y003167D01*
X013667Y003179D01*
X013683Y003193D01*
X013698Y003210D01*
X013709Y003228D01*
X013717Y003248D01*
X013722Y003270D01*
X013024Y003103D02*
X013024Y002542D01*
X012934Y002571D02*
X012936Y002583D01*
X012941Y002594D01*
X012949Y002603D01*
X012960Y002609D01*
X012972Y002612D01*
X012984Y002611D01*
X012996Y002607D01*
X013005Y002599D01*
X013012Y002589D01*
X013016Y002577D01*
X013016Y002565D01*
X013012Y002553D01*
X013005Y002543D01*
X012995Y002535D01*
X012984Y002531D01*
X012972Y002530D01*
X012960Y002533D01*
X012949Y002539D01*
X012941Y002548D01*
X012936Y002559D01*
X012934Y002571D01*
X012935Y002541D02*
X012930Y002563D01*
X012922Y002583D01*
X012911Y002601D01*
X012896Y002618D01*
X012880Y002632D01*
X012861Y002644D01*
X012841Y002652D01*
X012820Y002657D01*
X012798Y002659D01*
X012776Y002657D01*
X012755Y002652D01*
X012735Y002644D01*
X012716Y002632D01*
X012700Y002618D01*
X012685Y002601D01*
X012674Y002583D01*
X012666Y002563D01*
X012661Y002541D01*
X012571Y002699D02*
X012571Y003113D01*
X012661Y003270D02*
X012666Y003248D01*
X012674Y003228D01*
X012685Y003210D01*
X012700Y003193D01*
X012716Y003179D01*
X012735Y003167D01*
X012755Y003159D01*
X012776Y003154D01*
X012798Y003152D01*
X012820Y003154D01*
X012841Y003159D01*
X012861Y003167D01*
X012880Y003179D01*
X012896Y003193D01*
X012911Y003210D01*
X012922Y003228D01*
X012930Y003248D01*
X012935Y003270D01*
X012237Y003103D02*
X012237Y002542D01*
X012146Y002571D02*
X012148Y002583D01*
X012153Y002594D01*
X012161Y002603D01*
X012172Y002609D01*
X012184Y002612D01*
X012196Y002611D01*
X012208Y002607D01*
X012217Y002599D01*
X012224Y002589D01*
X012228Y002577D01*
X012228Y002565D01*
X012224Y002553D01*
X012217Y002543D01*
X012207Y002535D01*
X012196Y002531D01*
X012184Y002530D01*
X012172Y002533D01*
X012161Y002539D01*
X012153Y002548D01*
X012148Y002559D01*
X012146Y002571D01*
X012147Y002541D02*
X012142Y002563D01*
X012134Y002583D01*
X012123Y002601D01*
X012108Y002618D01*
X012092Y002632D01*
X012073Y002644D01*
X012053Y002652D01*
X012032Y002657D01*
X012010Y002659D01*
X011988Y002657D01*
X011967Y002652D01*
X011947Y002644D01*
X011928Y002632D01*
X011912Y002618D01*
X011897Y002601D01*
X011886Y002583D01*
X011878Y002563D01*
X011873Y002541D01*
X011784Y002699D02*
X011784Y003113D01*
X011873Y003270D02*
X011878Y003248D01*
X011886Y003228D01*
X011897Y003210D01*
X011912Y003193D01*
X011928Y003179D01*
X011947Y003167D01*
X011967Y003159D01*
X011988Y003154D01*
X012010Y003152D01*
X012032Y003154D01*
X012053Y003159D01*
X012073Y003167D01*
X012092Y003179D01*
X012108Y003193D01*
X012123Y003210D01*
X012134Y003228D01*
X012142Y003248D01*
X012147Y003270D01*
X011449Y003103D02*
X011449Y002542D01*
X011359Y002571D02*
X011361Y002583D01*
X011366Y002594D01*
X011374Y002603D01*
X011385Y002609D01*
X011397Y002612D01*
X011409Y002611D01*
X011421Y002607D01*
X011430Y002599D01*
X011437Y002589D01*
X011441Y002577D01*
X011441Y002565D01*
X011437Y002553D01*
X011430Y002543D01*
X011420Y002535D01*
X011409Y002531D01*
X011397Y002530D01*
X011385Y002533D01*
X011374Y002539D01*
X011366Y002548D01*
X011361Y002559D01*
X011359Y002571D01*
X011360Y002541D02*
X011355Y002563D01*
X011347Y002583D01*
X011336Y002601D01*
X011321Y002618D01*
X011305Y002632D01*
X011286Y002644D01*
X011266Y002652D01*
X011245Y002657D01*
X011223Y002659D01*
X011201Y002657D01*
X011180Y002652D01*
X011160Y002644D01*
X011141Y002632D01*
X011125Y002618D01*
X011110Y002601D01*
X011099Y002583D01*
X011091Y002563D01*
X011086Y002541D01*
X010996Y002699D02*
X010996Y003113D01*
X011086Y003270D02*
X011091Y003248D01*
X011099Y003228D01*
X011110Y003210D01*
X011125Y003193D01*
X011141Y003179D01*
X011160Y003167D01*
X011180Y003159D01*
X011201Y003154D01*
X011223Y003152D01*
X011245Y003154D01*
X011266Y003159D01*
X011286Y003167D01*
X011305Y003179D01*
X011321Y003193D01*
X011336Y003210D01*
X011347Y003228D01*
X011355Y003248D01*
X011360Y003270D01*
X010662Y003103D02*
X010662Y002542D01*
X010572Y002571D02*
X010574Y002583D01*
X010579Y002594D01*
X010587Y002603D01*
X010598Y002609D01*
X010610Y002612D01*
X010622Y002611D01*
X010634Y002607D01*
X010643Y002599D01*
X010650Y002589D01*
X010654Y002577D01*
X010654Y002565D01*
X010650Y002553D01*
X010643Y002543D01*
X010633Y002535D01*
X010622Y002531D01*
X010610Y002530D01*
X010598Y002533D01*
X010587Y002539D01*
X010579Y002548D01*
X010574Y002559D01*
X010572Y002571D01*
X010572Y002541D02*
X010567Y002563D01*
X010559Y002583D01*
X010548Y002601D01*
X010533Y002618D01*
X010517Y002632D01*
X010498Y002644D01*
X010478Y002652D01*
X010457Y002657D01*
X010435Y002659D01*
X010413Y002657D01*
X010392Y002652D01*
X010372Y002644D01*
X010353Y002632D01*
X010337Y002618D01*
X010322Y002601D01*
X010311Y002583D01*
X010303Y002563D01*
X010298Y002541D01*
X010209Y002699D02*
X010209Y003113D01*
X010298Y003270D02*
X010303Y003248D01*
X010311Y003228D01*
X010322Y003210D01*
X010337Y003193D01*
X010353Y003179D01*
X010372Y003167D01*
X010392Y003159D01*
X010413Y003154D01*
X010435Y003152D01*
X010457Y003154D01*
X010478Y003159D01*
X010498Y003167D01*
X010517Y003179D01*
X010533Y003193D01*
X010548Y003210D01*
X010559Y003228D01*
X010567Y003248D01*
X010572Y003270D01*
X009874Y003103D02*
X009874Y002542D01*
X009784Y002571D02*
X009786Y002583D01*
X009791Y002594D01*
X009799Y002603D01*
X009810Y002609D01*
X009822Y002612D01*
X009834Y002611D01*
X009846Y002607D01*
X009855Y002599D01*
X009862Y002589D01*
X009866Y002577D01*
X009866Y002565D01*
X009862Y002553D01*
X009855Y002543D01*
X009845Y002535D01*
X009834Y002531D01*
X009822Y002530D01*
X009810Y002533D01*
X009799Y002539D01*
X009791Y002548D01*
X009786Y002559D01*
X009784Y002571D01*
X009785Y002541D02*
X009780Y002563D01*
X009772Y002583D01*
X009761Y002601D01*
X009746Y002618D01*
X009730Y002632D01*
X009711Y002644D01*
X009691Y002652D01*
X009670Y002657D01*
X009648Y002659D01*
X009626Y002657D01*
X009605Y002652D01*
X009585Y002644D01*
X009566Y002632D01*
X009550Y002618D01*
X009535Y002601D01*
X009524Y002583D01*
X009516Y002563D01*
X009511Y002541D01*
X009422Y002699D02*
X009422Y003113D01*
X009511Y003270D02*
X009516Y003248D01*
X009524Y003228D01*
X009535Y003210D01*
X009550Y003193D01*
X009566Y003179D01*
X009585Y003167D01*
X009605Y003159D01*
X009626Y003154D01*
X009648Y003152D01*
X009670Y003154D01*
X009691Y003159D01*
X009711Y003167D01*
X009730Y003179D01*
X009746Y003193D01*
X009761Y003210D01*
X009772Y003228D01*
X009780Y003248D01*
X009785Y003270D01*
X009087Y003103D02*
X009087Y002542D01*
X008997Y002571D02*
X008999Y002583D01*
X009004Y002594D01*
X009012Y002603D01*
X009023Y002609D01*
X009035Y002612D01*
X009047Y002611D01*
X009059Y002607D01*
X009068Y002599D01*
X009075Y002589D01*
X009079Y002577D01*
X009079Y002565D01*
X009075Y002553D01*
X009068Y002543D01*
X009058Y002535D01*
X009047Y002531D01*
X009035Y002530D01*
X009023Y002533D01*
X009012Y002539D01*
X009004Y002548D01*
X008999Y002559D01*
X008997Y002571D01*
X008998Y002541D02*
X008993Y002563D01*
X008985Y002583D01*
X008974Y002601D01*
X008959Y002618D01*
X008943Y002632D01*
X008924Y002644D01*
X008904Y002652D01*
X008883Y002657D01*
X008861Y002659D01*
X008839Y002657D01*
X008818Y002652D01*
X008798Y002644D01*
X008779Y002632D01*
X008763Y002618D01*
X008748Y002601D01*
X008737Y002583D01*
X008729Y002563D01*
X008724Y002541D01*
X008634Y002699D02*
X008634Y003113D01*
X008724Y003270D02*
X008729Y003248D01*
X008737Y003228D01*
X008748Y003210D01*
X008763Y003193D01*
X008779Y003179D01*
X008798Y003167D01*
X008818Y003159D01*
X008839Y003154D01*
X008861Y003152D01*
X008883Y003154D01*
X008904Y003159D01*
X008924Y003167D01*
X008943Y003179D01*
X008959Y003193D01*
X008974Y003210D01*
X008985Y003228D01*
X008993Y003248D01*
X008998Y003270D01*
D15*
X008367Y006941D02*
X008367Y012453D01*
X013878Y012453D01*
X013878Y006941D01*
X008367Y006941D01*
X008505Y012216D02*
X008507Y012237D01*
X008513Y012256D01*
X008522Y012275D01*
X008534Y012291D01*
X008550Y012305D01*
X008567Y012316D01*
X008586Y012324D01*
X008607Y012328D01*
X008627Y012328D01*
X008648Y012324D01*
X008667Y012316D01*
X008684Y012305D01*
X008700Y012291D01*
X008712Y012275D01*
X008721Y012256D01*
X008727Y012237D01*
X008729Y012216D01*
X008727Y012195D01*
X008721Y012176D01*
X008712Y012157D01*
X008700Y012141D01*
X008684Y012127D01*
X008667Y012116D01*
X008648Y012108D01*
X008627Y012104D01*
X008607Y012104D01*
X008586Y012108D01*
X008567Y012116D01*
X008550Y012127D01*
X008534Y012141D01*
X008522Y012157D01*
X008513Y012176D01*
X008507Y012195D01*
X008505Y012216D01*
X008619Y014885D02*
X008039Y014885D01*
X008039Y015745D01*
X008619Y015745D01*
X008619Y014885D01*
X015087Y013915D02*
X015801Y014629D01*
X016155Y014275D01*
X015440Y013561D01*
X015087Y013915D01*
D16*
X015399Y013446D02*
X014954Y013001D01*
X014955Y013000D02*
X014946Y012985D01*
X014941Y012969D01*
X014938Y012951D01*
X014939Y012934D01*
X014942Y012917D01*
X014948Y012901D01*
X014957Y012886D01*
X014969Y012873D01*
X014983Y012862D01*
X015372Y012473D02*
X015383Y012459D01*
X015396Y012447D01*
X015411Y012438D01*
X015427Y012432D01*
X015444Y012429D01*
X015461Y012428D01*
X015479Y012431D01*
X015495Y012436D01*
X015510Y012445D01*
X015511Y012444D02*
X015956Y012890D01*
X015965Y012905D01*
X015970Y012921D01*
X015973Y012939D01*
X015972Y012956D01*
X015969Y012973D01*
X015963Y012989D01*
X015954Y013004D01*
X015942Y013017D01*
X015928Y013028D01*
X015538Y013418D02*
X015527Y013432D01*
X015514Y013444D01*
X015499Y013453D01*
X015483Y013459D01*
X015466Y013462D01*
X015449Y013463D01*
X015431Y013460D01*
X015415Y013455D01*
X015400Y013446D01*
X015510Y016701D02*
X015510Y016898D01*
X015510Y016701D02*
X017872Y016701D01*
X017872Y016898D01*
X017872Y016701D02*
X015510Y016701D01*
X015510Y018079D01*
X017872Y018079D01*
X017872Y017882D01*
X017872Y018079D02*
X017872Y016701D01*
X017282Y017095D02*
X016101Y017095D01*
X016101Y017685D01*
X017282Y017685D01*
X017282Y017095D01*
X017164Y017095D02*
X016199Y017095D01*
X016199Y017685D02*
X017183Y017685D01*
X017872Y018079D02*
X015510Y018079D01*
X015510Y017882D01*
X015426Y019040D02*
X014926Y019040D01*
X014676Y019290D01*
X014426Y019040D01*
X013926Y019040D01*
X013676Y019290D01*
X013676Y019790D01*
X013926Y020040D01*
X014426Y020040D01*
X014676Y019790D01*
X014926Y020040D01*
X015426Y020040D01*
X015676Y019790D01*
X015926Y020040D01*
X016426Y020040D01*
X016676Y019790D01*
X016926Y020040D01*
X017426Y020040D01*
X017676Y019790D01*
X017926Y020040D01*
X018426Y020040D01*
X018676Y019790D01*
X018926Y020040D01*
X019426Y020040D01*
X019676Y019790D01*
X019676Y019290D01*
X019426Y019040D01*
X018926Y019040D01*
X018676Y019290D01*
X018426Y019040D01*
X017926Y019040D01*
X017676Y019290D01*
X017426Y019040D01*
X016926Y019040D01*
X016676Y019290D01*
X016426Y019040D01*
X015926Y019040D01*
X015676Y019290D01*
X015426Y019040D01*
X012916Y018575D02*
X012916Y017748D01*
X012640Y016764D02*
X012286Y016764D01*
X010554Y016764D02*
X010199Y016764D01*
X009924Y017748D02*
X009924Y018575D01*
X008819Y018821D02*
X008819Y018321D01*
X008569Y018071D01*
X008819Y017821D01*
X008819Y017321D01*
X008569Y017071D01*
X008069Y017071D01*
X007819Y017321D01*
X007819Y017821D01*
X008069Y018071D01*
X007819Y018321D01*
X007819Y018821D01*
X008069Y019071D01*
X007819Y019321D01*
X007819Y019821D01*
X008069Y020071D01*
X008569Y020071D01*
X008819Y019821D01*
X008819Y019321D01*
X008569Y019071D01*
X008819Y018821D01*
X007636Y019290D02*
X007636Y019790D01*
X007386Y020040D01*
X006886Y020040D01*
X006636Y019790D01*
X006386Y020040D01*
X005886Y020040D01*
X005636Y019790D01*
X005386Y020040D01*
X004886Y020040D01*
X004636Y019790D01*
X004386Y020040D01*
X003886Y020040D01*
X003636Y019790D01*
X003636Y019290D01*
X003886Y019040D01*
X004386Y019040D01*
X004636Y019290D01*
X004886Y019040D01*
X005386Y019040D01*
X005636Y019290D01*
X005886Y019040D01*
X006386Y019040D01*
X006636Y019290D01*
X006886Y019040D01*
X007386Y019040D01*
X007636Y019290D01*
X009924Y019835D02*
X009924Y020386D01*
X012916Y020386D01*
X012916Y019835D01*
X020073Y018313D02*
X020073Y017813D01*
X020323Y017563D01*
X020073Y017313D01*
X020073Y016813D01*
X020323Y016563D01*
X020073Y016313D01*
X020073Y015813D01*
X020323Y015563D01*
X020073Y015313D01*
X020073Y014813D01*
X020323Y014563D01*
X020073Y014313D01*
X020073Y013813D01*
X020323Y013563D01*
X020073Y013313D01*
X020073Y012813D01*
X020323Y012563D01*
X020073Y012313D01*
X020073Y011813D01*
X020323Y011563D01*
X020073Y011313D01*
X020073Y010813D01*
X020323Y010563D01*
X020823Y010563D01*
X021073Y010813D01*
X021073Y011313D01*
X020823Y011563D01*
X021073Y011813D01*
X021073Y012313D01*
X020823Y012563D01*
X021073Y012813D01*
X021073Y013313D01*
X020823Y013563D01*
X021073Y013813D01*
X021073Y014313D01*
X020823Y014563D01*
X021073Y014813D01*
X021073Y015313D01*
X020823Y015563D01*
X021073Y015813D01*
X021073Y016313D01*
X020823Y016563D01*
X021073Y016813D01*
X021073Y017313D01*
X020823Y017563D01*
X021073Y017813D01*
X021073Y018313D01*
X020823Y018563D01*
X020323Y018563D01*
X020073Y018313D01*
X020323Y010591D02*
X020073Y010341D01*
X020073Y009841D01*
X020323Y009591D01*
X020073Y009341D01*
X020073Y008841D01*
X020323Y008591D01*
X020073Y008341D01*
X020073Y007841D01*
X020323Y007591D01*
X020073Y007341D01*
X020073Y006841D01*
X020323Y006591D01*
X020073Y006341D01*
X020073Y005841D01*
X020323Y005591D01*
X020073Y005341D01*
X020073Y004841D01*
X020323Y004591D01*
X020073Y004341D01*
X020073Y003841D01*
X020323Y003591D01*
X020073Y003341D01*
X020073Y002841D01*
X020323Y002591D01*
X020823Y002591D01*
X021073Y002841D01*
X021073Y003341D01*
X020823Y003591D01*
X021073Y003841D01*
X021073Y004341D01*
X020823Y004591D01*
X021073Y004841D01*
X021073Y005341D01*
X020823Y005591D01*
X021073Y005841D01*
X021073Y006341D01*
X020823Y006591D01*
X021073Y006841D01*
X021073Y007341D01*
X020823Y007591D01*
X021073Y007841D01*
X021073Y008341D01*
X020823Y008591D01*
X021073Y008841D01*
X021073Y009341D01*
X020823Y009591D01*
X021073Y009841D01*
X021073Y010341D01*
X020823Y010591D01*
X020323Y010591D01*
X019347Y002126D02*
X018847Y002126D01*
X018597Y001876D01*
X018347Y002126D01*
X017847Y002126D01*
X017597Y001876D01*
X017347Y002126D01*
X016847Y002126D01*
X016597Y001876D01*
X016347Y002126D01*
X015847Y002126D01*
X015597Y001876D01*
X015347Y002126D01*
X014847Y002126D01*
X014597Y001876D01*
X014347Y002126D01*
X013847Y002126D01*
X013597Y001876D01*
X013347Y002126D01*
X012847Y002126D01*
X012597Y001876D01*
X012347Y002126D01*
X011847Y002126D01*
X011597Y001876D01*
X011597Y001376D01*
X011847Y001126D01*
X012347Y001126D01*
X012597Y001376D01*
X012847Y001126D01*
X013347Y001126D01*
X013597Y001376D01*
X013847Y001126D01*
X014347Y001126D01*
X014597Y001376D01*
X014847Y001126D01*
X015347Y001126D01*
X015597Y001376D01*
X015847Y001126D01*
X016347Y001126D01*
X016597Y001376D01*
X016847Y001126D01*
X017347Y001126D01*
X017597Y001376D01*
X017847Y001126D01*
X018347Y001126D01*
X018597Y001376D01*
X018847Y001126D01*
X019347Y001126D01*
X019597Y001376D01*
X019597Y001876D01*
X019347Y002126D01*
X011624Y001876D02*
X011624Y001376D01*
X011374Y001126D01*
X010874Y001126D01*
X010624Y001376D01*
X010374Y001126D01*
X009874Y001126D01*
X009624Y001376D01*
X009374Y001126D01*
X008874Y001126D01*
X008624Y001376D01*
X008374Y001126D01*
X007874Y001126D01*
X007624Y001376D01*
X007374Y001126D01*
X006874Y001126D01*
X006624Y001376D01*
X006374Y001126D01*
X005874Y001126D01*
X005624Y001376D01*
X005374Y001126D01*
X004874Y001126D01*
X004624Y001376D01*
X004374Y001126D01*
X003874Y001126D01*
X003624Y001376D01*
X003624Y001876D01*
X003874Y002126D01*
X004374Y002126D01*
X004624Y001876D01*
X004874Y002126D01*
X005374Y002126D01*
X005624Y001876D01*
X005874Y002126D01*
X006374Y002126D01*
X006624Y001876D01*
X006874Y002126D01*
X007374Y002126D01*
X007624Y001876D01*
X007874Y002126D01*
X008374Y002126D01*
X008624Y001876D01*
X008874Y002126D01*
X009374Y002126D01*
X009624Y001876D01*
X009874Y002126D01*
X010374Y002126D01*
X010624Y001876D01*
X010874Y002126D01*
X011374Y002126D01*
X011624Y001876D01*
X007876Y004087D02*
X005514Y004087D01*
X005514Y004284D01*
X005514Y004087D02*
X005514Y005465D01*
X007876Y005465D01*
X007876Y005268D01*
X007876Y005465D02*
X007876Y004087D01*
X007876Y004284D01*
X007876Y004087D02*
X005514Y004087D01*
X006105Y004481D02*
X006105Y005071D01*
X007286Y005071D01*
X007286Y004481D01*
X006105Y004481D01*
X006203Y004481D02*
X007187Y004481D01*
X007187Y005071D02*
X006223Y005071D01*
X005514Y005268D02*
X005514Y005465D01*
X007876Y005465D01*
X007876Y005563D02*
X005514Y005563D01*
X005514Y005760D01*
X005514Y005563D02*
X005514Y006941D01*
X007876Y006941D01*
X007876Y006744D01*
X007876Y006941D02*
X007876Y005563D01*
X007876Y005760D01*
X007876Y005563D02*
X005514Y005563D01*
X006105Y005957D02*
X006105Y006548D01*
X007286Y006548D01*
X007286Y005957D01*
X006105Y005957D01*
X006203Y005957D02*
X007187Y005957D01*
X007187Y006548D02*
X006223Y006548D01*
X005514Y006744D02*
X005514Y006941D01*
X007876Y006941D01*
X003160Y006853D02*
X002910Y006603D01*
X003160Y006353D01*
X003160Y005853D01*
X002910Y005603D01*
X003160Y005353D01*
X003160Y004853D01*
X002910Y004603D01*
X003160Y004353D01*
X003160Y003853D01*
X002910Y003603D01*
X003160Y003353D01*
X003160Y002853D01*
X002910Y002603D01*
X002410Y002603D01*
X002160Y002853D01*
X002160Y003353D01*
X002410Y003603D01*
X002160Y003853D01*
X002160Y004353D01*
X002410Y004603D01*
X002160Y004853D01*
X002160Y005353D01*
X002410Y005603D01*
X002160Y005853D01*
X002160Y006353D01*
X002410Y006603D01*
X002160Y006853D01*
X002160Y007353D01*
X002410Y007603D01*
X002160Y007853D01*
X002160Y008353D01*
X002410Y008603D01*
X002160Y008853D01*
X002160Y009353D01*
X002410Y009603D01*
X002160Y009853D01*
X002160Y010353D01*
X002410Y010603D01*
X002910Y010603D01*
X003160Y010353D01*
X003160Y009853D01*
X002910Y009603D01*
X003160Y009353D01*
X003160Y008853D01*
X002910Y008603D01*
X003160Y008353D01*
X003160Y007853D01*
X002910Y007603D01*
X003160Y007353D01*
X003160Y006853D01*
X002910Y010575D02*
X002410Y010575D01*
X002160Y010825D01*
X002160Y011325D01*
X002410Y011575D01*
X002160Y011825D01*
X002160Y012325D01*
X002410Y012575D01*
X002160Y012825D01*
X002160Y013325D01*
X002410Y013575D01*
X002160Y013825D01*
X002160Y014325D01*
X002410Y014575D01*
X002160Y014825D01*
X002160Y015325D01*
X002410Y015575D01*
X002160Y015825D01*
X002160Y016325D01*
X002410Y016575D01*
X002160Y016825D01*
X002160Y017325D01*
X002410Y017575D01*
X002160Y017825D01*
X002160Y018325D01*
X002410Y018575D01*
X002910Y018575D01*
X003160Y018325D01*
X003160Y017825D01*
X002910Y017575D01*
X003160Y017325D01*
X003160Y016825D01*
X002910Y016575D01*
X003160Y016325D01*
X003160Y015825D01*
X002910Y015575D01*
X003160Y015325D01*
X003160Y014825D01*
X002910Y014575D01*
X003160Y014325D01*
X003160Y013825D01*
X002910Y013575D01*
X003160Y013325D01*
X003160Y012825D01*
X002910Y012575D01*
X003160Y012325D01*
X003160Y011825D01*
X002910Y011575D01*
X003160Y011325D01*
X003160Y010825D01*
X002910Y010575D01*
D17*
X002660Y011075D03*
X002660Y010103D03*
X002660Y009103D03*
X002660Y008103D03*
X002660Y007103D03*
X002660Y006103D03*
X002660Y005103D03*
X002660Y004103D03*
X002660Y003103D03*
X004124Y001626D03*
X005124Y001626D03*
X006124Y001626D03*
X007124Y001626D03*
X008124Y001626D03*
X009124Y001626D03*
X010124Y001626D03*
X011124Y001626D03*
X012097Y001626D03*
X013097Y001626D03*
X014097Y001626D03*
X015097Y001626D03*
X016097Y001626D03*
X017097Y001626D03*
X018097Y001626D03*
X019097Y001626D03*
X020573Y003091D03*
X020573Y004091D03*
X020573Y005091D03*
X020573Y006091D03*
X020573Y007091D03*
X020573Y008091D03*
X020573Y009091D03*
X020573Y010091D03*
X020573Y011063D03*
X020573Y012063D03*
X020573Y013063D03*
X020573Y014063D03*
X020573Y015063D03*
X020573Y016063D03*
X020573Y017063D03*
X020573Y018063D03*
X019176Y019540D03*
X018176Y019540D03*
X017176Y019540D03*
X016176Y019540D03*
X015176Y019540D03*
X014176Y019540D03*
X008319Y019571D03*
X008319Y018571D03*
X007136Y019540D03*
X006136Y019540D03*
X005136Y019540D03*
X004136Y019540D03*
X002660Y018075D03*
X002660Y017075D03*
X002660Y016075D03*
X002660Y015075D03*
X002660Y014075D03*
X002660Y013075D03*
X002660Y012075D03*
X008319Y017571D03*
D18*
X008393Y016302D02*
X008053Y016302D01*
X008053Y016022D02*
X008393Y016022D01*
X010565Y015417D02*
X012865Y015417D01*
X012916Y015415D01*
X012967Y015410D01*
X013017Y015400D01*
X013067Y015387D01*
X013115Y015371D01*
X013162Y015351D01*
X013208Y015327D01*
X013251Y015301D01*
X013293Y015271D01*
X013332Y015238D01*
X013369Y015203D01*
X013403Y015165D01*
X013434Y015124D01*
X013463Y015082D01*
X013488Y015037D01*
X013509Y014991D01*
X013528Y014943D01*
X013542Y014894D01*
X013553Y014844D01*
X013561Y014794D01*
X013565Y014743D01*
X013565Y014691D01*
X013561Y014640D01*
X013553Y014590D01*
X013542Y014540D01*
X013528Y014491D01*
X013509Y014443D01*
X013488Y014397D01*
X013463Y014352D01*
X013434Y014310D01*
X013403Y014269D01*
X013369Y014231D01*
X013332Y014196D01*
X013293Y014163D01*
X013251Y014133D01*
X013208Y014107D01*
X013162Y014083D01*
X013115Y014063D01*
X013067Y014047D01*
X013017Y014034D01*
X012967Y014024D01*
X012916Y014019D01*
X012865Y014017D01*
X010565Y014017D01*
X010514Y014019D01*
X010463Y014024D01*
X010413Y014034D01*
X010363Y014047D01*
X010315Y014063D01*
X010268Y014083D01*
X010222Y014107D01*
X010179Y014133D01*
X010137Y014163D01*
X010098Y014196D01*
X010061Y014231D01*
X010027Y014269D01*
X009996Y014310D01*
X009967Y014352D01*
X009942Y014397D01*
X009921Y014443D01*
X009902Y014491D01*
X009888Y014540D01*
X009877Y014590D01*
X009869Y014640D01*
X009865Y014691D01*
X009865Y014743D01*
X009869Y014794D01*
X009877Y014844D01*
X009888Y014894D01*
X009902Y014943D01*
X009921Y014991D01*
X009942Y015037D01*
X009967Y015082D01*
X009996Y015124D01*
X010027Y015165D01*
X010061Y015203D01*
X010098Y015238D01*
X010137Y015271D01*
X010179Y015301D01*
X010222Y015327D01*
X010268Y015351D01*
X010315Y015371D01*
X010363Y015387D01*
X010413Y015400D01*
X010463Y015410D01*
X010514Y015415D01*
X010565Y015417D01*
X011215Y014717D02*
X011465Y014717D01*
X011465Y015067D01*
X011615Y015067D02*
X011815Y015067D01*
X011815Y014367D01*
X011615Y014367D01*
X011615Y015067D01*
X011965Y015067D02*
X011965Y014717D01*
X012215Y014717D01*
X011965Y014717D02*
X011965Y014367D01*
X011465Y014367D02*
X011465Y014717D01*
X013897Y015938D02*
X014138Y016178D01*
X014336Y015980D02*
X014095Y015740D01*
X014293Y015483D02*
X014689Y015879D01*
X015042Y015526D02*
X014647Y015130D01*
X014884Y014893D02*
X015279Y015289D01*
X015633Y014935D02*
X015237Y014539D01*
X014489Y013062D02*
X014730Y012822D01*
X014531Y012624D02*
X014291Y012864D01*
X017093Y015289D02*
X017659Y014723D01*
X017800Y014723D01*
X018366Y015289D01*
X018366Y015430D01*
X018507Y015430D01*
X019073Y015996D01*
X019073Y016137D01*
X018507Y016703D01*
X018366Y016703D01*
X017800Y016137D01*
X017800Y015996D01*
X017659Y015996D01*
X017093Y015430D01*
X017093Y015289D01*
X018248Y017719D02*
X018248Y017955D01*
X018721Y017955D02*
X018721Y017719D01*
X017040Y018266D02*
X016480Y018266D01*
X016480Y018766D02*
X017040Y018766D01*
X005554Y011587D02*
X005554Y011351D01*
X005081Y011351D02*
X005081Y011587D01*
X004766Y011587D02*
X004766Y011351D01*
X004294Y011351D02*
X004294Y011587D01*
X004215Y010721D02*
X004451Y010721D01*
X004451Y010248D02*
X004215Y010248D01*
X004215Y009835D02*
X004451Y009835D01*
X004451Y009363D02*
X004215Y009363D01*
X008720Y004356D02*
X008720Y004015D01*
X009001Y004015D02*
X009001Y004356D01*
X009508Y004356D02*
X009508Y004015D01*
X009788Y004015D02*
X009788Y004356D01*
X010295Y004356D02*
X010295Y004015D01*
X010576Y004015D02*
X010576Y004356D01*
X011083Y004356D02*
X011083Y004015D01*
X011363Y004015D02*
X011363Y004356D01*
X011870Y004356D02*
X011870Y004015D01*
X012150Y004015D02*
X012150Y004356D01*
X012657Y004356D02*
X012657Y004015D01*
X012938Y004015D02*
X012938Y004356D01*
X013445Y004356D02*
X013445Y004015D01*
X013725Y004015D02*
X013725Y004356D01*
X014232Y004356D02*
X014232Y004015D01*
X014513Y004015D02*
X014513Y004356D01*
X018522Y007380D02*
X019082Y007380D01*
X019082Y007880D02*
X018522Y007880D01*
X018522Y008365D02*
X019082Y008365D01*
X019082Y008865D02*
X018522Y008865D01*
D19*
X018462Y008615D03*
X019142Y008615D03*
X019142Y007630D03*
X018462Y007630D03*
G36*
X014771Y014821D02*
X014870Y014920D01*
X015265Y014525D01*
X015166Y014426D01*
X014771Y014821D01*
G37*
G36*
X014180Y015412D02*
X014279Y015511D01*
X014674Y015116D01*
X014575Y015017D01*
X014180Y015412D01*
G37*
G36*
X014661Y015893D02*
X014760Y015992D01*
X015155Y015597D01*
X015056Y015498D01*
X014661Y015893D01*
G37*
G36*
X015252Y015302D02*
X015351Y015401D01*
X015746Y015006D01*
X015647Y014907D01*
X015252Y015302D01*
G37*
X016420Y018516D03*
X017100Y018516D03*
D20*
G36*
X014469Y016073D02*
X014356Y015960D01*
X014117Y016199D01*
X014230Y016312D01*
X014469Y016073D01*
G37*
G36*
X014116Y015719D02*
X014003Y015606D01*
X013764Y015845D01*
X013877Y015958D01*
X014116Y015719D01*
G37*
G36*
X014396Y013196D02*
X014509Y013083D01*
X014270Y012844D01*
X014157Y012957D01*
X014396Y013196D01*
G37*
G36*
X014750Y012842D02*
X014863Y012729D01*
X014624Y012490D01*
X014511Y012603D01*
X014750Y012842D01*
G37*
X008473Y016162D03*
X007973Y016162D03*
D21*
G36*
X017730Y015528D02*
X017899Y015359D01*
X017730Y015190D01*
X017561Y015359D01*
X017730Y015528D01*
G37*
G36*
X018437Y016236D02*
X018606Y016067D01*
X018437Y015898D01*
X018268Y016067D01*
X018437Y016236D01*
G37*
D22*
G36*
X015610Y014438D02*
X015709Y014537D01*
X016062Y014184D01*
X015963Y014085D01*
X015610Y014438D01*
G37*
D23*
G36*
X015773Y014685D02*
X015858Y014770D01*
X016295Y014333D01*
X016210Y014248D01*
X015773Y014685D01*
G37*
G36*
X014939Y013865D02*
X015024Y013950D01*
X015461Y013513D01*
X015376Y013428D01*
X014939Y013865D01*
G37*
D24*
X014555Y003201D03*
X014190Y003201D03*
X013767Y003201D03*
X013403Y003201D03*
X012980Y003201D03*
X012616Y003201D03*
X012192Y003201D03*
X011828Y003201D03*
X011405Y003201D03*
X011041Y003201D03*
X010618Y003201D03*
X010253Y003201D03*
X009830Y003201D03*
X009466Y003201D03*
X009043Y003201D03*
X008679Y003201D03*
X008679Y002611D03*
X009466Y002611D03*
X010253Y002611D03*
X011041Y002611D03*
X011828Y002611D03*
X012616Y002611D03*
X013403Y002611D03*
X014190Y002611D03*
D25*
X014274Y002660D03*
X014471Y002660D03*
X014471Y003152D03*
X014274Y003152D03*
X013683Y003152D03*
X013487Y003152D03*
X013487Y002660D03*
X013683Y002660D03*
X012896Y002660D03*
X012699Y002660D03*
X012699Y003152D03*
X012896Y003152D03*
X012109Y003152D03*
X011912Y003152D03*
X011912Y002660D03*
X012109Y002660D03*
X011321Y002660D03*
X011124Y002660D03*
X011124Y003152D03*
X011321Y003152D03*
X010534Y003152D03*
X010337Y003152D03*
X010337Y002660D03*
X010534Y002660D03*
X009746Y002660D03*
X009550Y002660D03*
X009550Y003152D03*
X009746Y003152D03*
X008959Y003152D03*
X008762Y003152D03*
X008762Y002660D03*
X008959Y002660D03*
D26*
X008861Y002675D03*
X008861Y003137D03*
X009648Y003137D03*
X009648Y002675D03*
X010435Y002675D03*
X010435Y003137D03*
X011223Y003137D03*
X011223Y002675D03*
X012010Y002675D03*
X012010Y003137D03*
X012798Y003137D03*
X012798Y002675D03*
X013585Y002675D03*
X013585Y003137D03*
X014372Y003137D03*
X014372Y002675D03*
D27*
X014372Y002867D03*
X013585Y002867D03*
X012798Y002867D03*
X012010Y002867D03*
X011223Y002867D03*
X010435Y002867D03*
X009648Y002867D03*
X008861Y002867D03*
X008223Y016764D03*
X014431Y016825D03*
D28*
X014215Y016648D03*
X008439Y016941D03*
X009038Y002650D03*
X009825Y002650D03*
X010613Y002650D03*
X011400Y002650D03*
X012187Y002650D03*
X012975Y002650D03*
X013762Y002650D03*
X014550Y002650D03*
D29*
X014555Y002527D03*
X013767Y002527D03*
X012980Y002527D03*
X012192Y002527D03*
X011405Y002527D03*
X010618Y002527D03*
X009830Y002527D03*
X009043Y002527D03*
D30*
X008861Y003935D03*
X008861Y004435D03*
X009648Y004435D03*
X009648Y003935D03*
X010435Y003935D03*
X010435Y004435D03*
X011223Y004435D03*
X011223Y003935D03*
X012010Y003935D03*
X012010Y004435D03*
X012798Y004435D03*
X012798Y003935D03*
X013585Y003935D03*
X013585Y004435D03*
X014372Y004435D03*
X014372Y003935D03*
D31*
X012865Y013817D02*
X010565Y013817D01*
X010506Y013819D01*
X010448Y013825D01*
X010389Y013834D01*
X010332Y013848D01*
X010276Y013865D01*
X010221Y013886D01*
X010167Y013910D01*
X010115Y013938D01*
X010065Y013969D01*
X010017Y014003D01*
X009972Y014040D01*
X009929Y014081D01*
X009888Y014124D01*
X009851Y014169D01*
X009817Y014217D01*
X009786Y014267D01*
X009758Y014319D01*
X009734Y014373D01*
X009713Y014428D01*
X009696Y014484D01*
X009682Y014541D01*
X009673Y014600D01*
X009667Y014658D01*
X009665Y014717D01*
X009667Y014776D01*
X009673Y014834D01*
X009682Y014893D01*
X009696Y014950D01*
X009713Y015006D01*
X009734Y015061D01*
X009758Y015115D01*
X009786Y015167D01*
X009817Y015217D01*
X009851Y015265D01*
X009888Y015310D01*
X009929Y015353D01*
X009972Y015394D01*
X010017Y015431D01*
X010065Y015465D01*
X010115Y015496D01*
X010167Y015524D01*
X010221Y015548D01*
X010276Y015569D01*
X010332Y015586D01*
X010389Y015600D01*
X010448Y015609D01*
X010506Y015615D01*
X010565Y015617D01*
X012865Y015617D01*
X012924Y015615D01*
X012982Y015609D01*
X013041Y015600D01*
X013098Y015586D01*
X013154Y015569D01*
X013209Y015548D01*
X013263Y015524D01*
X013315Y015496D01*
X013365Y015465D01*
X013413Y015431D01*
X013458Y015394D01*
X013501Y015353D01*
X013542Y015310D01*
X013579Y015265D01*
X013613Y015217D01*
X013644Y015167D01*
X013672Y015115D01*
X013696Y015061D01*
X013717Y015006D01*
X013734Y014950D01*
X013748Y014893D01*
X013757Y014834D01*
X013763Y014776D01*
X013765Y014717D01*
X013763Y014658D01*
X013757Y014600D01*
X013748Y014541D01*
X013734Y014484D01*
X013717Y014428D01*
X013696Y014373D01*
X013672Y014319D01*
X013644Y014267D01*
X013613Y014217D01*
X013579Y014169D01*
X013542Y014124D01*
X013501Y014081D01*
X013458Y014040D01*
X013413Y014003D01*
X013365Y013969D01*
X013315Y013938D01*
X013263Y013910D01*
X013209Y013886D01*
X013154Y013865D01*
X013098Y013848D01*
X013041Y013834D01*
X012982Y013825D01*
X012924Y013819D01*
X012865Y013817D01*
D32*
X014766Y016643D03*
X014766Y017007D03*
X014176Y017007D03*
X008479Y016582D03*
X007888Y016582D03*
X007888Y016946D03*
D33*
X007937Y016863D03*
X007937Y016666D03*
X008430Y016666D03*
X008430Y016863D03*
X014225Y016924D03*
X014225Y016727D03*
X014717Y016727D03*
X014717Y016924D03*
D34*
X014702Y016825D03*
X014240Y016825D03*
X008415Y016764D03*
X007952Y016764D03*
D35*
X008562Y016946D03*
X014092Y016643D03*
D36*
X008739Y015315D03*
X007919Y015315D03*
M02*
