G75*
G70*
%OFA0B0*%
%FSLAX24Y24*%
%IPPOS*%
%LPD*%
%AMOC8*
5,1,8,0,0,1.08239X$1,22.5*
%
%ADD10C,0.0000*%
%ADD11C,0.0780*%
%ADD12C,0.0560*%
%ADD13R,0.0355X0.0512*%
%ADD14R,0.0512X0.0355*%
%ADD15R,0.0434X0.0434*%
%ADD16C,0.0394*%
%ADD17R,0.0670X0.0552*%
%ADD18C,0.0600*%
%ADD19R,0.0780X0.0780*%
%ADD20C,0.1440*%
%ADD21R,0.0552X0.0670*%
D10*
X001774Y000741D02*
X001774Y020426D01*
X021459Y020426D01*
X021459Y000741D01*
X001774Y000741D01*
X010377Y018063D02*
X010379Y018089D01*
X010385Y018115D01*
X010395Y018140D01*
X010408Y018163D01*
X010424Y018183D01*
X010444Y018201D01*
X010466Y018216D01*
X010489Y018228D01*
X010515Y018236D01*
X010541Y018240D01*
X010567Y018240D01*
X010593Y018236D01*
X010619Y018228D01*
X010643Y018216D01*
X010664Y018201D01*
X010684Y018183D01*
X010700Y018163D01*
X010713Y018140D01*
X010723Y018115D01*
X010729Y018089D01*
X010731Y018063D01*
X010729Y018037D01*
X010723Y018011D01*
X010713Y017986D01*
X010700Y017963D01*
X010684Y017943D01*
X010664Y017925D01*
X010642Y017910D01*
X010619Y017898D01*
X010593Y017890D01*
X010567Y017886D01*
X010541Y017886D01*
X010515Y017890D01*
X010489Y017898D01*
X010465Y017910D01*
X010444Y017925D01*
X010424Y017943D01*
X010408Y017963D01*
X010395Y017986D01*
X010385Y018011D01*
X010379Y018037D01*
X010377Y018063D01*
X012109Y018063D02*
X012111Y018089D01*
X012117Y018115D01*
X012127Y018140D01*
X012140Y018163D01*
X012156Y018183D01*
X012176Y018201D01*
X012198Y018216D01*
X012221Y018228D01*
X012247Y018236D01*
X012273Y018240D01*
X012299Y018240D01*
X012325Y018236D01*
X012351Y018228D01*
X012375Y018216D01*
X012396Y018201D01*
X012416Y018183D01*
X012432Y018163D01*
X012445Y018140D01*
X012455Y018115D01*
X012461Y018089D01*
X012463Y018063D01*
X012461Y018037D01*
X012455Y018011D01*
X012445Y017986D01*
X012432Y017963D01*
X012416Y017943D01*
X012396Y017925D01*
X012374Y017910D01*
X012351Y017898D01*
X012325Y017890D01*
X012299Y017886D01*
X012273Y017886D01*
X012247Y017890D01*
X012221Y017898D01*
X012197Y017910D01*
X012176Y017925D01*
X012156Y017943D01*
X012140Y017963D01*
X012127Y017986D01*
X012117Y018011D01*
X012111Y018037D01*
X012109Y018063D01*
D11*
X014176Y019540D03*
X015176Y019540D03*
X016176Y019540D03*
X017176Y019540D03*
X018176Y019540D03*
X019176Y019540D03*
X020573Y017063D03*
X020573Y016063D03*
X020573Y015063D03*
X020573Y014063D03*
X020573Y013063D03*
X020573Y012063D03*
X020573Y011063D03*
X020573Y009091D03*
X020573Y008091D03*
X020573Y007091D03*
X020573Y006091D03*
X020573Y005091D03*
X020573Y004091D03*
X020573Y003091D03*
X018097Y001626D03*
X017097Y001626D03*
X016097Y001626D03*
X015097Y001626D03*
X014097Y001626D03*
X013097Y001626D03*
X012097Y001626D03*
X010124Y001626D03*
X009124Y001626D03*
X008124Y001626D03*
X007124Y001626D03*
X006124Y001626D03*
X005124Y001626D03*
X004124Y001626D03*
X002660Y004103D03*
X002660Y005103D03*
X002660Y006103D03*
X002660Y007103D03*
X002660Y008103D03*
X002660Y009103D03*
X002660Y010103D03*
X002660Y012075D03*
X002660Y013075D03*
X002660Y014075D03*
X002660Y015075D03*
X002660Y016075D03*
X002660Y017075D03*
X002660Y018075D03*
X005136Y019540D03*
X006136Y019540D03*
X007136Y019540D03*
X008319Y019571D03*
X008319Y018571D03*
X008319Y017571D03*
D12*
X010765Y014717D03*
X012665Y014717D03*
X005140Y010516D03*
X005140Y009516D03*
D13*
X009491Y009796D03*
X009491Y010386D03*
X010199Y010386D03*
X010199Y009796D03*
X012050Y009894D03*
X012050Y009304D03*
X012758Y009304D03*
X012758Y009894D03*
X012561Y014126D03*
X011853Y014126D03*
X011479Y014126D03*
X010770Y014126D03*
D14*
X010829Y011725D03*
X010239Y011725D03*
X010239Y011016D03*
X010829Y011016D03*
X011420Y011016D03*
X011420Y011725D03*
X012207Y011725D03*
X012798Y011725D03*
X013388Y011725D03*
X013388Y011016D03*
X012798Y011016D03*
X012207Y011016D03*
X011124Y008575D03*
X010534Y008575D03*
X009943Y008575D03*
X009943Y007867D03*
X010534Y007867D03*
X011124Y007867D03*
D15*
X009550Y011075D03*
X009550Y011863D03*
D16*
X010554Y018063D03*
X012286Y018063D03*
D17*
X011813Y017886D03*
X011026Y017886D03*
X011026Y018634D03*
X011813Y018634D03*
D18*
X017532Y015557D02*
X017928Y015161D01*
X018635Y015869D02*
X018239Y016265D01*
D19*
X020573Y018063D03*
X020573Y010091D03*
X019097Y001626D03*
X011124Y001626D03*
X002660Y003103D03*
X002660Y011075D03*
X004136Y019540D03*
D20*
X002660Y019540D03*
X020573Y019540D03*
X020573Y001626D03*
X002660Y001626D03*
D21*
X005534Y004776D03*
X006282Y004776D03*
X006282Y006252D03*
X005534Y006252D03*
M02*
